<svg xmlns="http://www.w3.org/2000/svg" xmlns:xlink="http://www.w3.org/1999/xlink" width="500" zoomAndPan="magnify" viewBox="0 0 375 374.999991" height="500" preserveAspectRatio="xMidYMid meet" version="1.0"><defs><clipPath id="78b22515af"><path d="M 70.511719 57 L 303.761719 57 L 303.761719 345.425781 L 70.511719 345.425781 Z M 70.511719 57 " clip-rule="nonzero"/></clipPath><clipPath id="e665b47c22"><path d="M 130 22.175781 L 244 22.175781 L 244 99 L 130 99 Z M 130 22.175781 " clip-rule="nonzero"/></clipPath><clipPath id="ac77b8dd90"><path d="M 214.941406 147.246094 L 337.136719 147.246094 L 337.136719 293.789062 L 214.941406 293.789062 Z M 214.941406 147.246094 " clip-rule="nonzero"/></clipPath><clipPath id="ed8b46ceb0"><path d="M 227.457031 157.457031 L 353.457031 157.457031 L 353.457031 283.457031 L 227.457031 283.457031 Z M 227.457031 157.457031 " clip-rule="nonzero"/></clipPath></defs><g clip-path="url(#78b22515af)"><path fill="#366994" d="M 283.582031 345.320312 L 90.6875 345.320312 C 79.871094 345.320312 70.859375 336.304688 70.859375 325.488281 L 70.859375 77.609375 C 70.859375 66.792969 79.871094 57.78125 90.6875 57.78125 L 109.617188 57.78125 C 113.222656 57.78125 116.378906 60.933594 116.378906 64.539062 C 116.378906 68.144531 113.222656 71.300781 109.617188 71.300781 L 90.6875 71.300781 C 87.082031 71.300781 84.378906 74.003906 84.378906 77.609375 L 84.378906 325.488281 C 84.378906 329.09375 87.082031 331.800781 90.6875 331.800781 L 283.582031 331.800781 C 287.1875 331.800781 289.894531 329.09375 289.894531 325.488281 L 289.894531 77.609375 C 289.894531 74.003906 287.1875 71.300781 283.582031 71.300781 L 264.65625 71.300781 C 261.050781 71.300781 257.894531 68.144531 257.894531 64.539062 C 257.894531 60.933594 261.050781 57.78125 264.65625 57.78125 L 283.582031 57.78125 C 294.398438 57.78125 303.414062 66.792969 303.414062 77.609375 L 303.414062 325.488281 C 303.414062 336.757812 294.398438 345.320312 283.582031 345.320312 Z M 283.582031 345.320312 " fill-opacity="1" fill-rule="nonzero"/></g><g clip-path="url(#e665b47c22)"><path fill="#366994" d="M 231.304688 98.792969 L 142.96875 98.792969 C 136.207031 98.792969 130.347656 93.382812 130.347656 86.171875 L 130.347656 52.824219 C 130.347656 46.0625 135.757812 40.203125 142.96875 40.203125 L 163.25 40.203125 C 166.40625 29.835938 175.867188 22.175781 187.136719 22.175781 C 198.402344 22.175781 208.320312 29.835938 211.023438 40.203125 L 230.851562 40.203125 C 237.613281 40.203125 243.472656 45.613281 243.472656 52.824219 L 243.472656 86.171875 C 243.921875 93.382812 238.0625 98.792969 231.304688 98.792969 Z M 143.871094 85.273438 L 229.953125 85.273438 L 229.953125 53.722656 L 205.164062 53.722656 C 201.558594 53.722656 198.402344 50.570312 198.402344 46.964844 C 198.402344 40.652344 193.445312 35.695312 187.136719 35.695312 C 180.828125 35.695312 175.867188 40.652344 175.867188 46.964844 C 175.867188 50.570312 172.714844 53.722656 169.109375 53.722656 L 143.871094 53.722656 Z M 143.871094 85.273438 " fill-opacity="1" fill-rule="nonzero"/></g><path fill="#366994" d="M 159.644531 236.253906 L 114.125 236.253906 L 114.125 190.734375 L 159.644531 190.734375 Z M 127.644531 222.734375 L 146.125 222.734375 L 146.125 204.253906 L 127.644531 204.253906 Z M 127.644531 222.734375 " fill-opacity="1" fill-rule="nonzero"/><path fill="#366994" d="M 253.386719 220.027344 L 185.785156 220.027344 C 182.179688 220.027344 179.023438 216.875 179.023438 213.269531 C 179.023438 209.664062 182.179688 206.507812 185.785156 206.507812 L 253.386719 206.507812 C 256.992188 206.507812 260.148438 209.664062 260.148438 213.269531 C 260.148438 216.875 256.992188 220.027344 253.386719 220.027344 Z M 253.386719 220.027344 " fill-opacity="1" fill-rule="nonzero"/><path fill="#366994" d="M 159.644531 303.40625 L 114.125 303.40625 L 114.125 257.886719 L 159.644531 257.886719 Z M 127.644531 289.886719 L 146.125 289.886719 L 146.125 271.40625 L 127.644531 271.40625 Z M 127.644531 289.886719 " fill-opacity="1" fill-rule="nonzero"/><path fill="#366994" d="M 245.273438 287.632812 L 185.785156 287.632812 C 182.179688 287.632812 179.023438 284.476562 179.023438 280.871094 C 179.023438 277.265625 182.179688 274.109375 185.785156 274.109375 L 245.273438 274.109375 C 248.878906 274.109375 252.035156 277.265625 252.035156 280.871094 C 252.035156 284.476562 249.332031 287.632812 245.273438 287.632812 Z M 245.273438 287.632812 " fill-opacity="1" fill-rule="nonzero"/><path fill="#366994" d="M 159.644531 169.101562 L 114.125 169.101562 L 114.125 123.582031 L 159.644531 123.582031 Z M 127.644531 155.578125 L 146.125 155.578125 L 146.125 137.101562 L 127.644531 137.101562 Z M 127.644531 155.578125 " fill-opacity="1" fill-rule="nonzero"/><path fill="#366994" d="M 253.386719 139.804688 L 185.785156 139.804688 C 182.179688 139.804688 179.023438 136.652344 179.023438 133.046875 C 179.023438 129.441406 182.179688 126.285156 185.785156 126.285156 L 253.386719 126.285156 C 256.992188 126.285156 260.148438 129.441406 260.148438 133.046875 C 260.148438 136.652344 256.992188 139.804688 253.386719 139.804688 Z M 253.386719 139.804688 " fill-opacity="1" fill-rule="nonzero"/><path fill="#366994" d="M 235.808594 165.945312 L 185.785156 165.945312 C 182.179688 165.945312 179.023438 162.789062 179.023438 159.183594 C 179.023438 155.578125 182.179688 152.425781 185.785156 152.425781 L 235.8125 152.425781 C 239.417969 152.425781 242.570312 155.578125 242.570312 159.183594 C 242.570312 162.789062 239.417969 165.945312 235.808594 165.945312 Z M 235.808594 165.945312 " fill-opacity="1" fill-rule="nonzero"/><g clip-path="url(#ac77b8dd90)"><path fill="#ffffff" d="M 214.941406 147.246094 L 337.136719 147.246094 L 337.136719 293.785156 L 214.941406 293.785156 Z M 214.941406 147.246094 " fill-opacity="1" fill-rule="nonzero"/></g><g clip-path="url(#ed8b46ceb0)"><path fill="#ffcd77" d="M 290.074219 196.53125 C 303.183594 196.285156 314 206.71875 314.246094 219.828125 C 314.246094 220.0625 314.246094 220.285156 314.246094 220.519531 C 314.390625 233.632812 303.886719 244.378906 290.777344 244.523438 C 277.667969 244.671875 266.921875 234.167969 266.777344 221.058594 C 266.777344 220.878906 266.777344 220.699219 266.777344 220.519531 C 266.628906 207.480469 277.03125 196.765625 290.074219 196.53125 Z M 292.613281 157.511719 C 289.078125 157.390625 285.527344 157.570312 282.023438 158.039062 C 280.78125 158.207031 279.761719 159.082031 279.394531 160.265625 L 275.898438 171.640625 C 275.597656 172.605469 274.859375 173.378906 273.90625 173.714844 C 272.261719 174.304688 270.648438 174.96875 269.070312 175.71875 C 268.152344 176.164062 267.078125 176.144531 266.183594 175.660156 L 255.679688 170.085938 C 254.574219 169.503906 253.230469 169.617188 252.242188 170.378906 C 247.742188 173.792969 243.734375 177.8125 240.308594 182.300781 C 239.546875 183.296875 239.4375 184.628906 240.019531 185.738281 L 245.605469 196.25 C 246.085938 197.132812 246.132812 198.207031 245.71875 199.125 C 244.957031 200.707031 244.285156 202.316406 243.703125 203.964844 C 243.367188 204.925781 242.59375 205.664062 241.621094 205.957031 L 230.257812 209.460938 C 229.058594 209.820312 228.183594 210.847656 228.027344 212.078125 C 227.265625 217.6875 227.265625 223.355469 228.027344 228.960938 C 228.183594 230.195312 229.058594 231.222656 230.257812 231.582031 L 241.621094 235.085938 C 242.59375 235.378906 243.367188 236.117188 243.703125 237.078125 C 244.285156 238.726562 244.957031 240.335938 245.71875 241.914062 C 246.132812 242.832031 246.085938 243.910156 245.605469 244.792969 L 240.019531 255.304688 C 239.4375 256.402344 239.546875 257.746094 240.308594 258.742188 C 243.734375 263.230469 247.742188 267.238281 252.242188 270.664062 C 253.230469 271.425781 254.574219 271.527344 255.679688 270.957031 L 266.183594 265.382812 C 267.078125 264.898438 268.152344 264.878906 269.070312 265.3125 C 270.648438 266.0625 272.261719 266.734375 273.90625 267.316406 C 274.859375 267.652344 275.597656 268.425781 275.898438 269.390625 L 279.394531 280.765625 C 279.761719 281.960938 280.78125 282.835938 282.023438 282.992188 C 287.621094 283.753906 293.296875 283.753906 298.894531 282.992188 C 300.125 282.835938 301.15625 281.960938 301.527344 280.765625 L 305.019531 269.390625 C 305.320312 268.425781 306.058594 267.652344 307.011719 267.316406 C 308.65625 266.734375 310.28125 266.0625 311.847656 265.3125 C 312.765625 264.878906 313.832031 264.898438 314.726562 265.382812 L 325.238281 270.957031 C 326.347656 271.527344 327.691406 271.425781 328.675781 270.664062 C 333.175781 267.238281 337.183594 263.230469 340.609375 258.742188 C 341.371094 257.746094 341.484375 256.402344 340.902344 255.304688 L 335.324219 244.792969 C 334.832031 243.910156 334.800781 242.832031 335.214844 241.914062 C 335.964844 240.335938 336.636719 238.726562 337.21875 237.078125 C 337.554688 236.117188 338.324219 235.378906 339.300781 235.085938 L 350.675781 231.582031 C 351.859375 231.214844 352.734375 230.195312 352.902344 228.960938 C 353.652344 223.355469 353.652344 217.6875 352.902344 212.078125 C 352.734375 210.847656 351.859375 209.820312 350.675781 209.460938 L 339.300781 205.957031 C 338.324219 205.664062 337.554688 204.925781 337.21875 203.964844 C 336.636719 202.316406 335.964844 200.707031 335.214844 199.125 C 334.800781 198.207031 334.832031 197.132812 335.324219 196.25 L 340.902344 185.738281 C 341.484375 184.628906 341.371094 183.296875 340.609375 182.300781 C 337.183594 177.8125 333.175781 173.792969 328.675781 170.378906 C 327.691406 169.617188 326.347656 169.503906 325.238281 170.085938 L 314.726562 175.660156 C 313.832031 176.144531 312.765625 176.164062 311.847656 175.726562 C 310.28125 174.976562 308.65625 174.304688 307.011719 173.722656 C 306.058594 173.386719 305.320312 172.617188 305.019531 171.640625 L 301.527344 160.277344 C 301.15625 159.082031 300.125 158.207031 298.894531 158.039062 C 296.8125 157.757812 294.71875 157.582031 292.613281 157.511719 " fill-opacity="1" fill-rule="nonzero"/></g></svg>