<svg xmlns="http://www.w3.org/2000/svg" xmlns:xlink="http://www.w3.org/1999/xlink" width="500" zoomAndPan="magnify" viewBox="0 0 375 374.999991" height="500" preserveAspectRatio="xMidYMid meet" version="1.0"><defs><clipPath id="4561f7d8d6"><path d="M 71 61 L 304 61 L 304 349.175781 L 71 349.175781 Z M 71 61 " clip-rule="nonzero"/></clipPath><clipPath id="0b4c06ec4f"><path d="M 130 25.925781 L 244 25.925781 L 244 103 L 130 103 Z M 130 25.925781 " clip-rule="nonzero"/></clipPath><clipPath id="af0741b025"><path d="M 224.003906 151.675781 L 337.613281 151.675781 L 337.613281 299.578125 L 224.003906 299.578125 Z M 224.003906 151.675781 " clip-rule="nonzero"/></clipPath><clipPath id="39956a78fd"><path d="M 239.65625 248 L 290 248 L 290 327.925781 L 239.65625 327.925781 Z M 239.65625 248 " clip-rule="nonzero"/></clipPath><clipPath id="ca2a532b71"><path d="M 245 159.175781 L 348 159.175781 L 348 261 L 245 261 Z M 245 159.175781 " clip-rule="nonzero"/></clipPath><clipPath id="4eee50eb80"><path d="M 303 248 L 353.65625 248 L 353.65625 327.925781 L 303 327.925781 Z M 303 248 " clip-rule="nonzero"/></clipPath></defs><g clip-path="url(#4561f7d8d6)"><path fill="#35668f" d="M 284.058594 349.070312 L 91.164062 349.070312 C 80.347656 349.070312 71.335938 340.054688 71.335938 329.238281 L 71.335938 81.359375 C 71.335938 70.542969 80.347656 61.53125 91.164062 61.53125 L 110.09375 61.53125 C 113.699219 61.53125 116.855469 64.683594 116.855469 68.289062 C 116.855469 71.894531 113.699219 75.050781 110.09375 75.050781 L 91.164062 75.050781 C 87.558594 75.050781 84.855469 77.753906 84.855469 81.359375 L 84.855469 329.238281 C 84.855469 332.84375 87.558594 335.550781 91.164062 335.550781 L 284.058594 335.550781 C 287.664062 335.550781 290.371094 332.84375 290.371094 329.238281 L 290.371094 81.359375 C 290.371094 77.753906 287.664062 75.050781 284.058594 75.050781 L 265.132812 75.050781 C 261.527344 75.050781 258.371094 71.894531 258.371094 68.289062 C 258.371094 64.683594 261.527344 61.53125 265.132812 61.53125 L 284.058594 61.53125 C 294.875 61.53125 303.890625 70.542969 303.890625 81.359375 L 303.890625 329.238281 C 303.890625 340.507812 294.875 349.070312 284.058594 349.070312 Z M 284.058594 349.070312 " fill-opacity="1" fill-rule="nonzero"/></g><g clip-path="url(#0b4c06ec4f)"><path fill="#35668f" d="M 231.78125 102.542969 L 143.445312 102.542969 C 136.683594 102.542969 130.824219 97.132812 130.824219 89.921875 L 130.824219 56.574219 C 130.824219 49.8125 136.234375 43.953125 143.445312 43.953125 L 163.726562 43.953125 C 166.882812 33.585938 176.34375 25.925781 187.613281 25.925781 C 198.878906 25.925781 208.796875 33.585938 211.5 43.953125 L 231.328125 43.953125 C 238.089844 43.953125 243.949219 49.363281 243.949219 56.574219 L 243.949219 89.921875 C 244.398438 97.132812 238.539062 102.542969 231.78125 102.542969 Z M 144.347656 89.023438 L 230.429688 89.023438 L 230.429688 57.472656 L 205.640625 57.472656 C 202.035156 57.472656 198.878906 54.320312 198.878906 50.714844 C 198.878906 44.402344 193.921875 39.445312 187.613281 39.445312 C 181.304688 39.445312 176.34375 44.402344 176.34375 50.714844 C 176.34375 54.320312 173.191406 57.472656 169.585938 57.472656 L 144.347656 57.472656 Z M 144.347656 89.023438 " fill-opacity="1" fill-rule="nonzero"/></g><path fill="#35668f" d="M 160.121094 240.003906 L 114.601562 240.003906 L 114.601562 194.484375 L 160.121094 194.484375 Z M 128.121094 226.484375 L 146.601562 226.484375 L 146.601562 208.003906 L 128.121094 208.003906 Z M 128.121094 226.484375 " fill-opacity="1" fill-rule="nonzero"/><path fill="#35668f" d="M 253.863281 223.777344 L 186.261719 223.777344 C 182.65625 223.777344 179.5 220.625 179.5 217.019531 C 179.5 213.414062 182.65625 210.257812 186.261719 210.257812 L 253.863281 210.257812 C 257.46875 210.257812 260.625 213.414062 260.625 217.019531 C 260.625 220.625 257.46875 223.777344 253.863281 223.777344 Z M 253.863281 223.777344 " fill-opacity="1" fill-rule="nonzero"/><path fill="#35668f" d="M 160.121094 307.15625 L 114.601562 307.15625 L 114.601562 261.636719 L 160.121094 261.636719 Z M 128.121094 293.636719 L 146.601562 293.636719 L 146.601562 275.15625 L 128.121094 275.15625 Z M 128.121094 293.636719 " fill-opacity="1" fill-rule="nonzero"/><path fill="#35668f" d="M 245.75 291.382812 L 186.261719 291.382812 C 182.65625 291.382812 179.5 288.226562 179.5 284.621094 C 179.5 281.015625 182.65625 277.859375 186.261719 277.859375 L 245.75 277.859375 C 249.355469 277.859375 252.511719 281.015625 252.511719 284.621094 C 252.511719 288.226562 249.808594 291.382812 245.75 291.382812 Z M 245.75 291.382812 " fill-opacity="1" fill-rule="nonzero"/><path fill="#35668f" d="M 160.121094 172.851562 L 114.601562 172.851562 L 114.601562 127.332031 L 160.121094 127.332031 Z M 128.121094 159.328125 L 146.601562 159.328125 L 146.601562 140.851562 L 128.121094 140.851562 Z M 128.121094 159.328125 " fill-opacity="1" fill-rule="nonzero"/><path fill="#35668f" d="M 253.863281 143.554688 L 186.261719 143.554688 C 182.65625 143.554688 179.5 140.402344 179.5 136.796875 C 179.5 133.191406 182.65625 130.035156 186.261719 130.035156 L 253.863281 130.035156 C 257.46875 130.035156 260.625 133.191406 260.625 136.796875 C 260.625 140.402344 257.46875 143.554688 253.863281 143.554688 Z M 253.863281 143.554688 " fill-opacity="1" fill-rule="nonzero"/><path fill="#35668f" d="M 236.289062 169.695312 L 186.261719 169.695312 C 182.65625 169.695312 179.5 166.539062 179.5 162.933594 C 179.5 159.328125 182.65625 156.175781 186.261719 156.175781 L 236.289062 156.175781 C 239.894531 156.175781 243.046875 159.328125 243.046875 162.933594 C 243.046875 166.539062 239.894531 169.695312 236.289062 169.695312 Z M 236.289062 169.695312 " fill-opacity="1" fill-rule="nonzero"/><g clip-path="url(#af0741b025)"><path fill="#ffffff" d="M 224.003906 151.675781 L 337.613281 151.675781 L 337.613281 299.457031 L 224.003906 299.457031 Z M 224.003906 151.675781 " fill-opacity="1" fill-rule="nonzero"/></g><g clip-path="url(#39956a78fd)"><path fill="#ffcd77" d="M 286.816406 256.089844 C 286.417969 256.089844 285.816406 256.183594 285.238281 256.628906 L 281.835938 259.238281 C 280.753906 260.066406 279.472656 260.503906 278.128906 260.503906 C 275.066406 260.503906 272.457031 258.21875 272.054688 255.1875 L 271.496094 250.933594 C 271.328125 249.644531 270.21875 248.675781 268.925781 248.675781 C 268.703125 248.675781 268.472656 248.703125 268.242188 248.765625 L 265.492188 249.5 L 239.683594 306.773438 L 260.988281 292.347656 L 272.503906 327.78125 L 289.765625 258.589844 L 289.074219 257.390625 C 288.605469 256.574219 287.757812 256.089844 286.816406 256.089844 " fill-opacity="1" fill-rule="nonzero"/></g><g clip-path="url(#ca2a532b71)"><path fill="#ffcd77" d="M 300.0625 249.304688 C 298.890625 249.40625 297.707031 249.460938 296.511719 249.460938 C 295.316406 249.460938 294.132812 249.40625 292.960938 249.304688 C 284.195312 248.519531 276.257812 244.878906 270.085938 239.308594 C 262.070312 232.082031 257.03125 221.621094 257.03125 209.976562 C 257.03125 188.171875 274.707031 170.496094 296.511719 170.496094 C 318.316406 170.496094 335.992188 188.171875 335.992188 209.976562 C 335.992188 221.621094 330.953125 232.082031 322.9375 239.308594 C 316.765625 244.878906 308.824219 248.519531 300.0625 249.304688 Z M 309.84375 253.945312 L 313.246094 256.554688 C 313.753906 256.945312 314.332031 257.121094 314.894531 257.121094 C 316.1875 257.121094 317.421875 256.191406 317.613281 254.746094 L 318.171875 250.496094 C 318.574219 247.449219 321.179688 245.289062 324.097656 245.289062 C 324.609375 245.289062 325.132812 245.355469 325.652344 245.496094 L 325.734375 245.519531 L 329.796875 246.605469 C 330.039062 246.667969 330.28125 246.699219 330.515625 246.699219 C 332.238281 246.699219 333.617188 245.046875 333.140625 243.261719 L 332.027344 239.121094 C 331.09375 235.628906 333.445312 232.109375 337.027344 231.640625 L 341.277344 231.078125 C 343.363281 230.804688 344.367188 228.378906 343.089844 226.710938 L 340.480469 223.3125 C 338.277344 220.441406 339.101562 216.292969 342.234375 214.484375 L 345.945312 212.34375 C 347.765625 211.289062 347.765625 208.667969 345.945312 207.613281 L 342.234375 205.472656 C 339.101562 203.664062 338.277344 199.515625 340.480469 196.644531 L 343.089844 193.246094 C 344.367188 191.578125 343.363281 189.152344 341.277344 188.878906 L 337.027344 188.316406 C 333.445312 187.847656 331.09375 184.328125 332.027344 180.835938 L 333.140625 176.695312 C 333.617188 174.90625 332.238281 173.257812 330.515625 173.257812 C 330.28125 173.257812 330.039062 173.285156 329.796875 173.351562 L 325.652344 174.460938 C 325.132812 174.601562 324.609375 174.667969 324.097656 174.667969 C 321.179688 174.667969 318.574219 172.507812 318.171875 169.464844 L 317.613281 165.210938 C 317.421875 163.761719 316.191406 162.835938 314.898438 162.835938 C 314.332031 162.835938 313.753906 163.011719 313.246094 163.402344 L 309.84375 166.011719 C 308.75 166.851562 307.472656 167.25 306.207031 167.25 C 304.152344 167.25 302.136719 166.195312 301.019531 164.253906 L 298.875 160.542969 C 298.351562 159.632812 297.429688 159.179688 296.511719 159.179688 C 295.59375 159.179688 294.671875 159.632812 294.144531 160.542969 L 292.003906 164.253906 C 290.886719 166.195312 288.871094 167.25 286.816406 167.25 C 285.550781 167.25 284.273438 166.851562 283.175781 166.011719 L 279.777344 163.402344 C 279.269531 163.011719 278.691406 162.835938 278.125 162.835938 C 276.832031 162.835938 275.601562 163.761719 275.410156 165.210938 L 274.847656 169.464844 C 274.449219 172.507812 271.84375 174.667969 268.925781 174.667969 C 268.414062 174.667969 267.890625 174.601562 267.371094 174.460938 L 263.226562 173.351562 C 262.984375 173.285156 262.742188 173.257812 262.507812 173.257812 C 260.785156 173.257812 259.40625 174.90625 259.882812 176.695312 L 260.996094 180.835938 C 261.929688 184.328125 259.578125 187.847656 255.992188 188.316406 L 251.746094 188.878906 C 249.660156 189.152344 248.65625 191.578125 249.933594 193.246094 L 252.542969 196.644531 C 254.746094 199.515625 253.921875 203.664062 250.789062 205.472656 L 247.078125 207.613281 C 245.257812 208.667969 245.257812 211.289062 247.078125 212.34375 L 250.789062 214.484375 C 253.921875 216.292969 254.746094 220.441406 252.542969 223.3125 L 249.933594 226.710938 C 248.65625 228.378906 249.660156 230.804688 251.746094 231.078125 L 255.992188 231.640625 C 259.578125 232.109375 261.929688 235.628906 260.996094 239.121094 L 259.882812 243.261719 C 259.40625 245.046875 260.785156 246.699219 262.507812 246.699219 C 262.742188 246.699219 262.984375 246.667969 263.226562 246.605469 L 267.289062 245.519531 L 267.371094 245.496094 C 267.890625 245.355469 268.414062 245.289062 268.925781 245.289062 C 271.84375 245.289062 274.449219 247.449219 274.847656 250.496094 L 275.410156 254.746094 C 275.601562 256.191406 276.835938 257.121094 278.128906 257.121094 C 278.691406 257.121094 279.269531 256.945312 279.777344 256.554688 L 283.175781 253.945312 C 284.273438 253.105469 285.550781 252.707031 286.816406 252.707031 C 288.421875 252.707031 290.003906 253.351562 291.152344 254.558594 C 291.472656 254.894531 291.757812 255.277344 292.003906 255.699219 L 294.144531 259.410156 C 294.671875 260.320312 295.59375 260.777344 296.511719 260.777344 C 297.429688 260.777344 298.351562 260.320312 298.875 259.410156 L 301.019531 255.699219 C 301.265625 255.277344 301.550781 254.894531 301.871094 254.558594 C 303.019531 253.351562 304.601562 252.707031 306.207031 252.707031 C 307.472656 252.707031 308.75 253.105469 309.84375 253.945312 " fill-opacity="1" fill-rule="nonzero"/></g><path fill="#ffcd77" d="M 296.511719 242.558594 C 278.546875 242.558594 263.929688 227.941406 263.929688 209.976562 C 263.929688 192.011719 278.546875 177.394531 296.511719 177.394531 C 314.476562 177.394531 329.09375 192.011719 329.09375 209.976562 C 329.09375 227.941406 314.476562 242.558594 296.511719 242.558594 Z M 296.511719 174.011719 C 276.679688 174.011719 260.546875 190.144531 260.546875 209.976562 C 260.546875 229.808594 276.679688 245.941406 296.511719 245.941406 C 316.34375 245.941406 332.476562 229.808594 332.476562 209.976562 C 332.476562 190.144531 316.34375 174.011719 296.511719 174.011719 " fill-opacity="1" fill-rule="nonzero"/><path fill="#ffcd77" d="M 308.722656 213.949219 C 308.460938 214.199219 308.351562 214.574219 308.40625 214.925781 L 310.710938 228.375 C 310.863281 229.285156 309.921875 229.976562 309.097656 229.546875 L 297.023438 223.199219 C 296.703125 223.023438 296.320312 223.023438 295.988281 223.199219 L 283.917969 229.546875 C 283.101562 229.976562 282.160156 229.285156 282.3125 228.375 L 284.621094 214.925781 C 284.675781 214.574219 284.554688 214.199219 284.300781 213.949219 L 274.535156 204.421875 C 273.875 203.785156 274.238281 202.664062 275.148438 202.535156 L 288.640625 200.578125 C 289.003906 200.523438 289.320312 200.292969 289.476562 199.960938 L 295.519531 187.734375 C 295.925781 186.910156 297.097656 186.910156 297.503906 187.734375 L 303.546875 199.960938 C 303.703125 200.292969 304.019531 200.523438 304.382812 200.578125 L 317.875 202.535156 C 318.785156 202.664062 319.148438 203.785156 318.492188 204.421875 L 308.722656 213.949219 " fill-opacity="1" fill-rule="nonzero"/><g clip-path="url(#4eee50eb80)"><path fill="#ffcd77" d="M 327.53125 249.5 L 324.78125 248.765625 C 324.550781 248.703125 324.320312 248.675781 324.097656 248.675781 C 322.800781 248.675781 321.695312 249.644531 321.527344 250.933594 L 320.96875 255.1875 C 320.5625 258.21875 317.957031 260.503906 314.894531 260.503906 C 313.550781 260.503906 312.269531 260.066406 311.1875 259.238281 L 307.785156 256.628906 C 307.203125 256.183594 306.605469 256.089844 306.207031 256.089844 C 305.265625 256.089844 304.417969 256.574219 303.949219 257.390625 L 303.257812 258.589844 L 320.519531 327.78125 L 332.035156 292.347656 L 353.339844 306.773438 L 327.53125 249.5 " fill-opacity="1" fill-rule="nonzero"/></g></svg>