<svg xmlns="http://www.w3.org/2000/svg" xmlns:xlink="http://www.w3.org/1999/xlink" width="500" zoomAndPan="magnify" viewBox="0 0 375 374.999991" height="500" preserveAspectRatio="xMidYMid meet" version="1.0"><defs><clipPath id="1693ab749f"><path d="M 48.003906 62 L 317 62 L 317 312 L 48.003906 312 Z M 48.003906 62 " clip-rule="nonzero"/></clipPath><clipPath id="d501da0299"><path d="M 83 27 L 129 27 L 129 83 L 83 83 Z M 83 27 " clip-rule="nonzero"/></clipPath><clipPath id="a586dd0204"><path d="M 162.65625 155 L 163 155 L 163 182 L 162.65625 182 Z M 162.65625 155 " clip-rule="nonzero"/></clipPath><clipPath id="c0f0b65f9e"><path d="M 162.65625 179 L 173 179 L 173 237 L 162.65625 237 Z M 162.65625 179 " clip-rule="nonzero"/></clipPath></defs><g clip-path="url(#1693ab749f)"><path fill="#e1dddb" d="M 217.363281 63.121094 C 167.351562 66.523438 117.273438 83.164062 79.335938 115.929688 C 67.277344 126.34375 56.261719 138.746094 51.226562 153.863281 C 48.707031 161.421875 47.769531 169.566406 49.042969 177.429688 C 50.320312 185.292969 53.875 192.851562 59.511719 198.480469 C 65.273438 204.242188 72.867188 207.75 80.410156 210.835938 C 87.953125 213.921875 95.71875 216.75 102.335938 221.503906 C 109.585938 226.707031 115.121094 233.996094 119.457031 241.792969 C 123.792969 249.589844 127.015625 257.945312 130.410156 266.195312 C 133.804688 274.449219 137.414062 282.679688 142.421875 290.0625 C 147.433594 297.445312 153.957031 303.996094 162.011719 307.839844 C 170.746094 312.011719 180.882812 312.761719 190.394531 310.984375 C 199.910156 309.203125 208.847656 305.003906 216.957031 299.71875 C 233.179688 289.15625 246.207031 274.378906 261.648438 262.703125 C 275.207031 252.453125 290.703125 244.523438 302.339844 232.128906 C 308.160156 225.933594 312.941406 218.605469 315.246094 210.425781 C 317.554688 202.242188 317.230469 193.164062 313.402344 185.574219 C 310.78125 180.382812 306.660156 176.078125 302.144531 172.410156 C 297.625 168.742188 292.683594 165.640625 287.929688 162.289062 C 283.171875 158.933594 278.554688 155.273438 274.9375 150.71875 C 271.320312 146.160156 268.746094 140.605469 268.558594 134.789062 C 268.371094 128.789062 270.691406 123.015625 273.164062 117.542969 C 275.632812 112.070312 278.335938 106.554688 278.984375 100.585938 C 279.726562 93.738281 277.625 86.726562 273.707031 81.066406 C 269.792969 75.402344 264.148438 71.046875 257.914062 68.132812 C 245.4375 62.304688 231.101562 62.1875 217.363281 63.121094 Z M 217.363281 63.121094 " fill-opacity="1" fill-rule="nonzero"/></g><path fill="#35668f" d="M 197.019531 290.222656 C 193.082031 287.058594 190.445312 282.574219 189.59375 277.597656 L 188.742188 272.597656 C 188.242188 269.652344 185.808594 267.457031 182.828125 267.265625 L 178.480469 266.976562 L 107.835938 279.023438 L 103.832031 280.738281 C 101.085938 281.910156 99.511719 284.789062 100.015625 287.734375 L 100.871094 292.734375 C 101.722656 297.714844 100.71875 302.8125 98.050781 307.101562 L 87.929688 323.371094 C 86.820312 325.148438 87.695312 326.722656 87.996094 327.160156 C 88.289062 327.601562 89.421875 328.996094 91.480469 328.660156 L 210.371094 308.378906 C 212.4375 308.027344 213.03125 306.324219 213.164062 305.8125 C 213.300781 305.296875 213.605469 303.523438 211.972656 302.214844 L 197.023438 290.21875 Z M 197.019531 290.222656 " fill-opacity="1" fill-rule="nonzero"/><path fill="#35668f" d="M 97.941406 148.253906 L 144.476562 140.316406 L 145.816406 148.179688 L 99.285156 156.117188 Z M 97.941406 148.253906 " fill-opacity="1" fill-rule="nonzero"/><path fill="#35668f" d="M 162.285156 167.796875 C 162.40625 167.339844 162.566406 166.175781 161.464844 165.28125 L 149.078125 155.199219 L 98.53125 163.820312 L 90.1875 177.4375 C 89.441406 178.644531 89.980469 179.691406 90.246094 180.082031 C 90.511719 180.46875 91.285156 181.363281 92.683594 181.121094 L 160.335938 169.582031 C 161.738281 169.34375 162.167969 168.253906 162.289062 167.796875 Z M 162.285156 167.796875 " fill-opacity="1" fill-rule="nonzero"/><path fill="#35668f" d="M 207.945312 316.367188 L 96.414062 335.386719 L 97.480469 341.632812 C 98.109375 345.320312 101.625 347.820312 105.316406 347.1875 L 203.453125 330.449219 C 207.144531 329.820312 209.636719 326.304688 209.007812 322.609375 Z M 207.945312 316.367188 " fill-opacity="1" fill-rule="nonzero"/><path fill="#35668f" d="M 144.285156 132.777344 L 151 92.746094 C 151.410156 90.300781 150.71875 87.816406 149.109375 85.933594 C 147.515625 84.066406 145.203125 83 142.746094 83 L 142.675781 83 L 134.273438 83.070312 L 88.585938 90.863281 L 80.632812 93.582031 C 78.289062 94.386719 76.433594 96.167969 75.535156 98.484375 C 74.644531 100.792969 74.816406 103.371094 76.015625 105.542969 L 95.617188 141.078125 L 144.277344 132.777344 Z M 144.285156 132.777344 " fill-opacity="1" fill-rule="nonzero"/><path fill="#35668f" d="M 146.753906 179.472656 L 108.765625 185.949219 L 113.425781 213.277344 C 116.191406 229.480469 116.066406 245.886719 113.058594 262.050781 L 111.421875 270.835938 L 172.386719 260.4375 L 167.933594 252.691406 C 159.734375 238.445312 154.179688 223 151.417969 206.796875 L 146.753906 179.46875 Z M 146.753906 179.472656 " fill-opacity="1" fill-rule="nonzero"/><g clip-path="url(#d501da0299)"><path fill="#35668f" d="M 92.574219 63.367188 C 94.363281 63.367188 95.941406 64.652344 96.25 66.472656 L 96.78125 69.582031 C 97.515625 73.890625 96.980469 78.222656 95.269531 82.144531 L 110.175781 79.601562 L 125.085938 77.058594 C 122.167969 73.929688 120.226562 70.015625 119.492188 65.703125 L 118.960938 62.59375 C 118.617188 60.5625 119.980469 58.632812 122.011719 58.289062 L 128.132812 57.246094 L 125.816406 43.664062 L 115.34375 45.445312 C 113.320312 45.796875 111.382812 44.425781 111.035156 42.398438 L 109.003906 30.488281 L 101.1875 26.933594 L 94.992188 32.878906 L 97.023438 44.789062 C 97.371094 46.820312 96.003906 48.75 93.96875 49.09375 L 83.5 50.878906 L 85.820312 64.464844 L 91.941406 63.425781 C 92.152344 63.386719 92.363281 63.371094 92.570312 63.371094 Z M 92.574219 63.367188 " fill-opacity="1" fill-rule="nonzero"/></g><path fill="#35668f" d="M 284.339844 62.007812 C 278.914062 60.449219 273.207031 61.101562 268.269531 63.839844 C 263.332031 66.574219 259.761719 71.074219 258.203125 76.496094 C 255.832031 84.773438 258.796875 93.738281 265.589844 99.007812 L 267.308594 99.5 L 280.636719 103.316406 C 289.191406 102.453125 296.449219 96.421875 298.824219 88.140625 C 300.382812 82.714844 299.730469 77.011719 296.996094 72.074219 C 294.261719 67.136719 289.761719 63.5625 284.339844 62.007812 Z M 284.339844 62.007812 " fill-opacity="1" fill-rule="nonzero"/><path fill="#35668f" d="M 289.132812 113.523438 L 252.984375 103.15625 C 251.738281 102.808594 250.433594 102.953125 249.304688 103.574219 C 248.171875 104.203125 247.355469 105.226562 247 106.472656 C 246.265625 109.039062 247.753906 111.722656 250.316406 112.457031 L 253.492188 113.367188 C 253.492188 113.367188 253.5 113.367188 253.503906 113.367188 L 283.273438 121.90625 C 283.273438 121.90625 283.277344 121.90625 283.28125 121.90625 L 286.460938 122.816406 C 289.023438 123.53125 291.714844 122.058594 292.449219 119.492188 C 292.808594 118.25 292.660156 116.945312 292.03125 115.8125 C 291.40625 114.683594 290.378906 113.867188 289.136719 113.515625 Z M 289.132812 113.523438 " fill-opacity="1" fill-rule="nonzero"/><path fill="#35668f" d="M 272.300781 163.886719 L 240.570312 154.789062 L 230.175781 160.207031 C 226.828125 161.949219 224.175781 164.8125 222.691406 168.277344 L 220.257812 173.945312 L 279.386719 190.894531 L 280.324219 184.796875 C 280.894531 181.070312 280.160156 177.234375 278.246094 173.992188 Z M 272.300781 163.886719 " fill-opacity="1" fill-rule="nonzero"/><path fill="#35668f" d="M 247.761719 189.59375 L 215.039062 180.210938 L 203.789062 182.730469 C 201.695312 183.199219 200.113281 184.867188 199.75 186.988281 L 197.542969 200.027344 L 284.820312 225.046875 L 289.855469 212.816406 C 290.671875 210.832031 290.214844 208.574219 288.6875 207.070312 L 280.480469 198.976562 L 247.757812 189.597656 Z M 247.761719 189.59375 " fill-opacity="1" fill-rule="nonzero"/><path fill="#35668f" d="M 277.871094 128.125 L 266.328125 124.816406 L 254.792969 121.507812 L 245.039062 148.300781 L 271.945312 156.019531 Z M 277.871094 128.125 " fill-opacity="1" fill-rule="nonzero"/><path fill="#35668f" d="M 185.542969 150.890625 L 191.574219 129.859375 C 192.140625 127.875 194.210938 126.734375 196.191406 127.296875 C 198.171875 127.867188 199.316406 129.933594 198.75 131.910156 L 192.71875 152.945312 C 192.25 154.582031 190.757812 155.648438 189.132812 155.648438 C 188.792969 155.648438 188.445312 155.601562 188.101562 155.503906 C 186.121094 154.9375 184.972656 152.867188 185.542969 150.890625 Z M 200.164062 156.324219 L 212.214844 149.039062 C 213.980469 147.972656 216.273438 148.535156 217.339844 150.300781 C 218.40625 152.066406 217.84375 154.363281 216.078125 155.425781 L 204.027344 162.710938 C 203.421875 163.078125 202.757812 163.253906 202.097656 163.253906 C 200.835938 163.253906 199.601562 162.609375 198.902344 161.453125 C 197.835938 159.6875 198.398438 157.394531 200.164062 156.328125 Z M 165.519531 136.109375 C 164.777344 134.183594 165.742188 132.027344 167.664062 131.285156 C 169.589844 130.554688 171.746094 131.503906 172.484375 133.425781 L 176.765625 144.546875 C 177.507812 146.472656 176.546875 148.628906 174.625 149.371094 C 174.183594 149.539062 173.730469 149.617188 173.285156 149.617188 C 171.789062 149.617188 170.375 148.710938 169.800781 147.226562 L 165.519531 136.105469 Z M 165.519531 136.109375 " fill-opacity="1" fill-rule="nonzero"/><g clip-path="url(#a586dd0204)"><path fill="#494949" d="M 162.285156 167.796875 C 162.40625 167.339844 162.566406 166.175781 161.464844 165.28125 L 149.078125 155.199219 L 98.53125 163.820312 L 90.1875 177.4375 C 89.441406 178.644531 89.980469 179.691406 90.246094 180.082031 C 90.511719 180.46875 91.285156 181.363281 92.683594 181.121094 L 160.335938 169.582031 C 161.738281 169.34375 162.167969 168.253906 162.289062 167.796875 Z M 162.285156 167.796875 " fill-opacity="1" fill-rule="nonzero"/></g><g clip-path="url(#c0f0b65f9e)"><path fill="#494949" d="M 146.753906 179.472656 L 108.765625 185.949219 L 113.425781 213.277344 C 116.191406 229.480469 116.066406 245.886719 113.058594 262.050781 L 111.421875 270.835938 L 172.386719 260.4375 L 167.933594 252.691406 C 159.734375 238.445312 154.179688 223 151.417969 206.796875 L 146.753906 179.46875 Z M 146.753906 179.472656 " fill-opacity="1" fill-rule="nonzero"/></g><path fill="#494949" d="M 284.339844 62.007812 C 278.914062 60.449219 273.207031 61.101562 268.269531 63.839844 C 263.332031 66.574219 259.761719 71.074219 258.203125 76.496094 C 255.832031 84.773438 258.796875 93.738281 265.589844 99.007812 L 267.308594 99.5 L 280.636719 103.316406 C 289.191406 102.453125 296.449219 96.421875 298.824219 88.140625 C 300.382812 82.714844 299.730469 77.011719 296.996094 72.074219 C 294.261719 67.136719 289.761719 63.5625 284.339844 62.007812 Z M 284.339844 62.007812 " fill-opacity="1" fill-rule="nonzero"/><path fill="#494949" d="M 289.132812 113.523438 L 252.984375 103.15625 C 251.738281 102.808594 250.433594 102.953125 249.304688 103.574219 C 248.171875 104.203125 247.355469 105.226562 247 106.472656 C 246.265625 109.039062 247.753906 111.722656 250.316406 112.457031 L 253.492188 113.367188 C 253.492188 113.367188 253.5 113.367188 253.503906 113.367188 L 283.273438 121.90625 C 283.273438 121.90625 283.277344 121.90625 283.28125 121.90625 L 286.460938 122.816406 C 289.023438 123.53125 291.714844 122.058594 292.449219 119.492188 C 292.808594 118.25 292.660156 116.945312 292.03125 115.8125 C 291.40625 114.683594 290.378906 113.867188 289.136719 113.515625 Z M 289.132812 113.523438 " fill-opacity="1" fill-rule="nonzero"/><path fill="#494949" d="M 272.300781 163.886719 L 240.570312 154.789062 L 230.175781 160.207031 C 226.828125 161.949219 224.175781 164.8125 222.691406 168.277344 L 220.257812 173.945312 L 279.386719 190.894531 L 280.324219 184.796875 C 280.894531 181.070312 280.160156 177.234375 278.246094 173.992188 Z M 272.300781 163.886719 " fill-opacity="1" fill-rule="nonzero"/><path fill="#494949" d="M 247.761719 189.59375 L 215.039062 180.210938 L 203.789062 182.730469 C 201.695312 183.199219 200.113281 184.867188 199.75 186.988281 L 197.542969 200.027344 L 284.820312 225.046875 L 289.855469 212.816406 C 290.671875 210.832031 290.214844 208.574219 288.6875 207.070312 L 280.480469 198.976562 L 247.757812 189.597656 Z M 247.761719 189.59375 " fill-opacity="1" fill-rule="nonzero"/><path fill="#494949" d="M 277.871094 128.125 L 266.328125 124.816406 L 254.792969 121.507812 L 245.039062 148.300781 L 271.945312 156.019531 Z M 277.871094 128.125 " fill-opacity="1" fill-rule="nonzero"/><path fill="#494949" d="M 185.542969 150.890625 L 191.574219 129.859375 C 192.140625 127.875 194.210938 126.734375 196.191406 127.296875 C 198.171875 127.867188 199.316406 129.933594 198.75 131.910156 L 192.71875 152.945312 C 192.25 154.582031 190.757812 155.648438 189.132812 155.648438 C 188.792969 155.648438 188.445312 155.601562 188.101562 155.503906 C 186.121094 154.9375 184.972656 152.867188 185.542969 150.890625 Z M 200.164062 156.324219 L 212.214844 149.039062 C 213.980469 147.972656 216.273438 148.535156 217.339844 150.300781 C 218.40625 152.066406 217.84375 154.363281 216.078125 155.425781 L 204.027344 162.710938 C 203.421875 163.078125 202.757812 163.253906 202.097656 163.253906 C 200.835938 163.253906 199.601562 162.609375 198.902344 161.453125 C 197.835938 159.6875 198.398438 157.394531 200.164062 156.328125 Z M 165.519531 136.109375 C 164.777344 134.183594 165.742188 132.027344 167.664062 131.285156 C 169.589844 130.554688 171.746094 131.503906 172.484375 133.425781 L 176.765625 144.546875 C 177.507812 146.472656 176.546875 148.628906 174.625 149.371094 C 174.183594 149.539062 173.730469 149.617188 173.285156 149.617188 C 171.789062 149.617188 170.375 148.710938 169.800781 147.226562 L 165.519531 136.105469 Z M 165.519531 136.109375 " fill-opacity="1" fill-rule="nonzero"/></svg>