<svg xmlns="http://www.w3.org/2000/svg" xmlns:xlink="http://www.w3.org/1999/xlink" width="500" zoomAndPan="magnify" viewBox="0 0 375 374.999991" height="500" preserveAspectRatio="xMidYMid meet" version="1.0"><defs><clipPath id="aec4b8af29"><path d="M 84 202 L 300.542969 202 L 300.542969 288 L 84 288 Z M 84 202 " clip-rule="nonzero"/></clipPath><clipPath id="0987a74815"><path d="M 42.542969 214 L 92 214 L 92 294 L 42.542969 294 Z M 42.542969 214 " clip-rule="nonzero"/></clipPath><clipPath id="7cc646ed0e"><path d="M 119 80.660156 L 254 80.660156 L 254 189 L 119 189 Z M 119 80.660156 " clip-rule="nonzero"/></clipPath><clipPath id="3db8dd12ce"><path d="M 119 80.660156 L 254 80.660156 L 254 189 L 119 189 Z M 119 80.660156 " clip-rule="nonzero"/></clipPath><clipPath id="bc0f26efe9"><path d="M 176.902344 29 L 191 29 L 191 45 L 176.902344 45 Z M 176.902344 29 " clip-rule="nonzero"/></clipPath><clipPath id="6b260c3ce4"><path d="M 258 36 L 272.152344 36 L 272.152344 47 L 258 47 Z M 258 36 " clip-rule="nonzero"/></clipPath></defs><path fill="#e1dddb" d="M 164.042969 59.714844 C 198.144531 54.46875 233.660156 38.878906 264.832031 53.628906 C 297.847656 69.261719 322.324219 102.609375 330.011719 138.269531 C 337.402344 172.535156 324.136719 208.582031 304.511719 237.652344 C 287.902344 262.246094 255.636719 267.476562 231.292969 284.480469 C 207.597656 301.019531 192.195312 329.175781 164.042969 335.738281 C 132.210938 343.167969 92.117188 345.644531 69.296875 322.261719 C 46.28125 298.679688 64.347656 258.847656 57.53125 226.628906 C 51.851562 199.574219 28.011719 176.769531 32.882812 149.554688 C 37.996094 121.046875 59.628906 97.910156 83.558594 81.523438 C 107.058594 65.4375 135.878906 64.050781 164.042969 59.714844 Z M 164.042969 59.714844 " fill-opacity="1" fill-rule="evenodd"/><g clip-path="url(#aec4b8af29)"><path fill="#35668f" d="M 87.96875 287.484375 C 86.609375 287.484375 85.101562 286.730469 84.648438 284.917969 C 84.042969 283.105469 84.800781 280.992188 86.910156 280.390625 C 113.019531 271.183594 126.753906 273.597656 141.394531 276.617188 C 165.390625 281.144531 192.402344 286.425781 287.03125 231.492188 C 290.199219 229.679688 292.160156 227.117188 292.765625 224.25 C 293.367188 221.53125 292.765625 218.363281 291.257812 215.796875 C 289.746094 213.082031 287.332031 211.269531 284.765625 210.363281 C 281.898438 209.308594 278.730469 209.761719 275.5625 211.570312 C 269.070312 215.34375 263.183594 218.964844 257.300781 222.589844 C 215.042969 247.941406 189.386719 263.335938 129.921875 234.207031 C 128.113281 233.453125 127.359375 231.191406 128.261719 229.53125 C 129.019531 227.570312 131.433594 226.964844 133.09375 227.71875 C 154.824219 238.285156 171.425781 242.660156 186.066406 242.660156 C 186.066406 242.660156 186.367188 242.660156 186.367188 242.660156 C 186.667969 242.507812 187.121094 242.507812 187.273438 242.507812 C 187.273438 242.507812 187.574219 242.507812 187.574219 242.507812 C 191.5 242.507812 193.914062 239.039062 194.515625 236.019531 C 194.667969 234.511719 195.121094 229.679688 189.386719 227.71875 L 147.730469 214.4375 C 128.867188 208.25 119.207031 212.929688 103.511719 220.625 C 99.285156 222.589844 94.757812 224.851562 89.476562 227.117188 C 87.667969 228.019531 85.554688 227.117188 84.648438 225.304688 C 83.894531 223.34375 84.648438 221.230469 86.609375 220.476562 C 91.589844 218.363281 95.96875 216.25 100.191406 214.136719 C 116.492188 206.441406 128.261719 200.554688 149.84375 207.496094 L 191.5 220.929688 C 199.949219 223.644531 202.667969 230.886719 201.609375 237.226562 C 201.460938 238.433594 201.007812 239.945312 200.402344 241.152344 C 217.457031 237.679688 233.304688 228.171875 253.375 216.097656 C 259.261719 212.476562 265.148438 208.855469 271.636719 205.082031 C 276.617188 202.214844 281.898438 201.609375 286.878906 203.269531 C 291.257812 204.78125 295.027344 207.796875 297.292969 212.023438 C 299.859375 216.25 300.765625 221.078125 299.707031 225.757812 C 298.652344 230.886719 295.480469 235.113281 290.5 237.980469 C 193.160156 294.273438 164.785156 288.691406 139.582031 284.011719 C 126 281.144531 113.019531 278.882812 88.875 287.484375 C 88.875 287.484375 88.421875 287.484375 87.96875 287.484375 Z M 87.96875 287.484375 " fill-opacity="1" fill-rule="evenodd"/></g><g clip-path="url(#0987a74815)"><path fill="#35668f" d="M 82.082031 293.371094 L 52.199219 293.371094 C 46.765625 293.371094 42.542969 288.992188 42.542969 283.710938 L 42.542969 223.945312 C 42.542969 218.511719 46.917969 214.4375 52.199219 214.4375 L 82.082031 214.4375 C 87.363281 214.4375 91.742188 218.816406 91.742188 223.945312 L 91.742188 283.558594 C 91.589844 288.992188 87.363281 293.371094 82.082031 293.371094 Z M 52.199219 221.683594 C 50.992188 221.683594 49.9375 222.738281 49.9375 223.945312 L 49.9375 283.558594 C 49.9375 284.765625 50.992188 285.824219 52.199219 285.824219 L 82.082031 285.824219 C 83.441406 285.824219 84.496094 284.765625 84.496094 283.558594 L 84.496094 223.945312 C 84.496094 222.738281 83.441406 221.683594 82.082031 221.683594 Z M 52.199219 221.683594 " fill-opacity="1" fill-rule="evenodd"/></g><path fill="#35668f" d="M 67.292969 251.414062 C 60.953125 251.414062 55.671875 246.28125 55.671875 239.945312 C 55.671875 233.605469 60.953125 228.472656 67.292969 228.472656 C 73.628906 228.472656 78.761719 233.605469 78.761719 239.945312 C 78.761719 246.28125 73.628906 251.414062 67.292969 251.414062 Z M 67.292969 235.71875 C 65.027344 235.71875 63.066406 237.679688 63.066406 239.945312 C 63.066406 242.207031 65.027344 244.167969 67.292969 244.167969 C 69.554688 244.167969 71.519531 242.207031 71.519531 239.945312 C 71.519531 237.679688 69.554688 235.71875 67.292969 235.71875 Z M 67.292969 235.71875 " fill-opacity="1" fill-rule="evenodd"/><g clip-path="url(#7cc646ed0e)"><path fill="#35668f" d="M 142.148438 188.027344 C 141.242188 188.027344 140.335938 187.726562 139.582031 187.121094 C 138.527344 186.066406 138.074219 184.554688 138.527344 183.199219 L 143.960938 167.351562 L 134.601562 167.503906 C 126 167.503906 119.058594 160.558594 119.058594 151.957031 L 119.058594 96.117188 C 119.058594 87.515625 126 80.722656 134.601562 80.722656 L 238.285156 80.722656 C 246.886719 80.722656 253.828125 87.515625 253.828125 96.117188 L 253.828125 152.109375 C 253.828125 160.710938 246.886719 167.652344 238.285156 167.652344 L 183.347656 167.652344 L 143.808594 187.726562 C 143.054688 188.027344 142.449219 188.027344 142.148438 188.027344 Z M 134.601562 87.96875 C 129.921875 87.96875 126.300781 91.589844 126.300781 96.117188 L 126.300781 152.109375 C 126.300781 156.484375 130.074219 160.257812 134.601562 160.257812 L 148.941406 160.257812 C 150.296875 160.257812 151.355469 160.863281 151.957031 161.769531 C 152.5625 162.824219 152.710938 164.03125 152.410156 165.089844 L 148.183594 177.011719 L 180.480469 160.710938 C 180.785156 160.558594 181.539062 160.257812 182.140625 160.257812 L 238.132812 160.257812 C 242.507812 160.257812 246.28125 156.789062 246.28125 152.109375 L 246.28125 96.117188 C 246.28125 91.742188 242.660156 87.96875 238.132812 87.96875 Z M 134.601562 87.96875 " fill-opacity="1" fill-rule="evenodd"/></g><path fill="#35668f" d="M 155.429688 126.753906 L 151.050781 126.753906 C 148.941406 126.753906 147.28125 125.09375 147.28125 122.980469 C 147.28125 120.867188 148.941406 119.207031 151.050781 119.207031 L 155.429688 119.207031 C 157.542969 119.207031 159.203125 120.867188 159.203125 122.980469 C 159.203125 125.09375 157.542969 126.753906 155.429688 126.753906 Z M 155.429688 126.753906 " fill-opacity="1" fill-rule="evenodd"/><path fill="#35668f" d="M 188.632812 126.753906 L 184.253906 126.753906 C 182.140625 126.753906 180.480469 125.09375 180.480469 122.980469 C 180.480469 120.867188 182.140625 119.207031 184.253906 119.207031 L 188.632812 119.207031 C 190.742188 119.207031 192.402344 120.867188 192.402344 122.980469 C 192.402344 125.09375 190.742188 126.753906 188.632812 126.753906 Z M 188.632812 126.753906 " fill-opacity="1" fill-rule="evenodd"/><path fill="#35668f" d="M 221.683594 126.753906 L 217.304688 126.753906 C 215.191406 126.753906 213.53125 125.09375 213.53125 122.980469 C 213.53125 120.867188 215.191406 119.207031 217.304688 119.207031 L 221.683594 119.207031 C 223.796875 119.207031 225.457031 120.867188 225.457031 122.980469 C 225.457031 125.09375 223.796875 126.753906 221.683594 126.753906 Z M 221.683594 126.753906 " fill-opacity="1" fill-rule="evenodd"/><g clip-path="url(#3db8dd12ce)"><path fill="#494949" d="M 142.148438 188.027344 C 141.242188 188.027344 140.335938 187.726562 139.582031 187.121094 C 138.527344 186.066406 138.074219 184.554688 138.527344 183.199219 L 143.960938 167.351562 L 134.601562 167.503906 C 126 167.503906 119.058594 160.558594 119.058594 151.957031 L 119.058594 96.117188 C 119.058594 87.515625 126 80.722656 134.601562 80.722656 L 238.285156 80.722656 C 246.886719 80.722656 253.828125 87.515625 253.828125 96.117188 L 253.828125 152.109375 C 253.828125 160.710938 246.886719 167.652344 238.285156 167.652344 L 183.347656 167.652344 L 143.808594 187.726562 C 143.054688 188.027344 142.449219 188.027344 142.148438 188.027344 Z M 134.601562 87.96875 C 129.921875 87.96875 126.300781 91.589844 126.300781 96.117188 L 126.300781 152.109375 C 126.300781 156.484375 130.074219 160.257812 134.601562 160.257812 L 148.941406 160.257812 C 150.296875 160.257812 151.355469 160.863281 151.957031 161.769531 C 152.5625 162.824219 152.710938 164.03125 152.410156 165.089844 L 148.183594 177.011719 L 180.480469 160.710938 C 180.785156 160.558594 181.539062 160.257812 182.140625 160.257812 L 238.132812 160.257812 C 242.507812 160.257812 246.28125 156.789062 246.28125 152.109375 L 246.28125 96.117188 C 246.28125 91.742188 242.660156 87.96875 238.132812 87.96875 Z M 134.601562 87.96875 " fill-opacity="1" fill-rule="evenodd"/></g><path fill="#494949" d="M 155.429688 126.753906 L 151.050781 126.753906 C 148.941406 126.753906 147.28125 125.09375 147.28125 122.980469 C 147.28125 120.867188 148.941406 119.207031 151.050781 119.207031 L 155.429688 119.207031 C 157.542969 119.207031 159.203125 120.867188 159.203125 122.980469 C 159.203125 125.09375 157.542969 126.753906 155.429688 126.753906 Z M 155.429688 126.753906 " fill-opacity="1" fill-rule="evenodd"/><path fill="#494949" d="M 188.632812 126.753906 L 184.253906 126.753906 C 182.140625 126.753906 180.480469 125.09375 180.480469 122.980469 C 180.480469 120.867188 182.140625 119.207031 184.253906 119.207031 L 188.632812 119.207031 C 190.742188 119.207031 192.402344 120.867188 192.402344 122.980469 C 192.402344 125.09375 190.742188 126.753906 188.632812 126.753906 Z M 188.632812 126.753906 " fill-opacity="1" fill-rule="evenodd"/><path fill="#494949" d="M 221.683594 126.753906 L 217.304688 126.753906 C 215.191406 126.753906 213.53125 125.09375 213.53125 122.980469 C 213.53125 120.867188 215.191406 119.207031 217.304688 119.207031 L 221.683594 119.207031 C 223.796875 119.207031 225.457031 120.867188 225.457031 122.980469 C 225.457031 125.09375 223.796875 126.753906 221.683594 126.753906 Z M 221.683594 126.753906 " fill-opacity="1" fill-rule="evenodd"/><path fill="#35668f" d="M 186.714844 71.15625 C 186.921875 62.378906 189.261719 50.582031 200.550781 42.652344 C 203.203125 40.789062 206.125 39.34375 209.132812 38.144531 C 219.457031 34.035156 231.796875 32.730469 241.269531 38.546875 C 244.378906 40.457031 247.023438 43.042969 249.375 45.839844 C 254.371094 51.789062 258.160156 58.902344 259.359375 66.574219 C 260.558594 74.25 258.976562 82.496094 254.265625 88.667969 C 249.140625 95.378906 240.648438 99.449219 237.214844 107.160156 C 233.929688 114.527344 236.183594 123.253906 233.96875 131.003906 C 233.773438 131.683594 233.523438 132.382812 232.992188 132.851562 C 232.339844 133.417969 231.417969 133.515625 230.550781 133.582031 C 227.597656 133.816406 224.648438 134.050781 221.695312 134.28125 C 203.175781 135.742188 207.46875 120.289062 203.824219 107.671875 C 199.664062 93.257812 186.34375 86.769531 186.714844 71.15625 Z M 186.714844 71.15625 " fill-opacity="1" fill-rule="nonzero"/><path fill="#494949" d="M 236.550781 111.144531 C 237.054688 111.109375 237.648438 111.101562 237.972656 111.496094 C 238.1875 111.761719 238.214844 112.132812 238.226562 112.476562 C 238.433594 117.59375 238.636719 122.707031 238.839844 127.824219 C 238.910156 129.496094 238.96875 131.21875 238.386719 132.789062 C 236.792969 137.082031 231.070312 138.742188 229.519531 143.050781 C 228.964844 144.585938 229.378906 143.988281 228.558594 145.398438 C 227.347656 147.484375 224.703125 148.167969 222.320312 148.542969 C 219.753906 148.945312 217.054688 149.210938 214.621094 148.304688 C 213.667969 147.949219 212.707031 147.339844 212.382812 146.371094 C 212.074219 145.4375 212.441406 144.417969 212.40625 143.4375 C 212.347656 141.734375 210.738281 142.648438 209.386719 141.613281 C 208.035156 140.578125 206.496094 139.761719 205.363281 138.492188 C 202.71875 135.539062 202.992188 131.113281 202.589844 127.171875 C 202.078125 122.238281 200.167969 113.625 206.691406 111.527344 C 208.613281 110.90625 210.820312 111.59375 212.757812 111.769531 C 216.25 112.082031 219.820312 111.882812 223.3125 111.792969 C 227.730469 111.675781 232.144531 111.457031 236.550781 111.144531 Z M 236.550781 111.144531 " fill-opacity="1" fill-rule="nonzero"/><path stroke-linecap="round" transform="matrix(0.530335, 0, 0, 0.530335, 111.88469, -31.483676)" fill="none" stroke-linejoin="round" d="M 197.130041 267.532904 C 197.623538 251.822027 190.861894 236.921368 184.490629 222.551034 C 183.14272 219.501665 182.177823 215.141216 185.087244 213.498681 C 186.737144 212.570613 188.910004 213.189325 190.316838 214.463578 C 191.723672 215.730466 192.526525 217.512947 193.307282 219.229137 C 194.036479 220.849575 195.22971 222.749906 196.99746 222.580497 C 197.82241 222.499475 198.522144 221.96915 199.162953 221.431459 C 201.770385 219.229137 204.120019 216.732191 206.1382 213.977447 C 207.7881 216.061919 209.496925 218.19795 211.839194 219.457472 C 214.181462 220.716994 217.319218 220.886403 219.307937 219.133384 C 220.361221 218.212681 221.05359 216.813212 222.357306 216.319716 C 224.382853 215.561056 226.570443 217.623431 226.791412 219.781559 C 227.012381 221.939687 225.907537 223.979965 224.846887 225.8582 C 217.658037 238.622827 210.100906 252.632246 212.457906 267.083601 " stroke="#144778" stroke-width="5" stroke-opacity="1" stroke-miterlimit="10"/><g clip-path="url(#bc0f26efe9)"><path stroke-linecap="round" transform="matrix(0.530335, 0, 0, 0.530335, 111.88469, -31.483676)" fill="none" stroke-linejoin="round" d="M 144.907761 139.871896 C 143.810283 137.286562 141.909952 135.143165 140.016987 133.058693 C 135.207234 127.770175 130.279631 122.577409 125.241543 117.509859 C 125.882353 117.421472 126.55999 117.583516 127.090315 117.951797 " stroke="#144778" stroke-width="5" stroke-opacity="1" stroke-miterlimit="10"/></g><path stroke-linecap="round" transform="matrix(0.530335, 0, 0, 0.530335, 111.88469, -31.483676)" fill="none" stroke-linejoin="round" d="M 178.332967 116.419747 C 178.752807 116.169316 178.671785 115.550603 178.531838 115.079203 C 175.791826 106.07841 170.510673 97.733157 169.759379 88.349351 " stroke="#144778" stroke-width="5" stroke-opacity="1" stroke-miterlimit="10"/><path stroke-linecap="round" transform="matrix(0.530335, 0, 0, 0.530335, 111.88469, -31.483676)" fill="none" stroke-linejoin="round" d="M 214.431893 109.930632 C 213.98259 101.438066 215.507275 92.849748 218.858634 85.042185 " stroke="#144778" stroke-width="5" stroke-opacity="1" stroke-miterlimit="10"/><path stroke-linecap="round" transform="matrix(0.530335, 0, 0, 0.530335, 111.88469, -31.483676)" fill="none" stroke-linejoin="round" d="M 253.94847 122.768915 C 258.029026 114.939256 262.382111 107.25691 266.992992 99.729241 C 267.56751 100.436341 267.751651 101.460163 267.449661 102.321941 " stroke="#144778" stroke-width="5" stroke-opacity="1" stroke-miterlimit="10"/><g clip-path="url(#6b260c3ce4)"><path stroke-linecap="round" transform="matrix(0.530335, 0, 0, 0.530335, 111.88469, -31.483676)" fill="none" stroke-linejoin="round" d="M 279.102079 144.733209 C 278.962132 145.079393 279.610307 145.108855 279.919663 144.902618 C 286.850716 140.291737 293.538703 135.31994 299.961528 130.031421 " stroke="#144778" stroke-width="5" stroke-opacity="1" stroke-miterlimit="10"/></g><path stroke-linecap="round" transform="matrix(0.530335, 0, 0, 0.530335, 111.88469, -31.483676)" fill="none" stroke-linejoin="round" d="M 174.701714 310.776487 C 181.330776 312.168591 188.217635 313.553328 194.809869 311.991816 " stroke="#144778" stroke-width="5" stroke-opacity="1" stroke-miterlimit="10"/><path stroke-linecap="round" transform="matrix(0.530335, 0, 0, 0.530335, 111.88469, -31.483676)" fill="none" stroke-linejoin="round" d="M 175.106823 298.262291 C 178.568667 298.689497 182.037876 299.109338 185.499719 299.536544 " stroke="#144778" stroke-width="5" stroke-opacity="1" stroke-miterlimit="10"/><path stroke-linecap="round" transform="matrix(0.530335, 0, 0, 0.530335, 111.88469, -31.483676)" fill="none" stroke-linejoin="round" d="M 215.91975 299.647028 C 218.453525 299.49235 220.9873 299.322941 223.521074 299.160897 C 227.491146 298.9031 231.60853 298.60111 235.070374 296.641854 " stroke="#144778" stroke-width="5" stroke-opacity="1" stroke-miterlimit="10"/><path stroke-linecap="round" transform="matrix(0.530335, 0, 0, 0.530335, 111.88469, -31.483676)" fill="none" stroke-linejoin="round" d="M 218.210459 314.569784 C 221.598646 312.816766 225.318287 311.697191 229.111584 311.27735 " stroke="#144778" stroke-width="5" stroke-opacity="1" stroke-miterlimit="10"/></svg>