<svg xmlns="http://www.w3.org/2000/svg" xmlns:xlink="http://www.w3.org/1999/xlink" width="500" zoomAndPan="magnify" viewBox="0 0 375 374.999991" height="500" preserveAspectRatio="xMidYMid meet" version="1.0"><defs><clipPath id="2603e8e856"><path d="M 52.199219 12 L 320 12 L 320 362.992188 L 52.199219 362.992188 Z M 52.199219 12 " clip-rule="nonzero"/></clipPath><clipPath id="4d05f17df9"><path d="M 52.199219 12 L 321 12 L 321 362.992188 L 52.199219 362.992188 Z M 52.199219 12 " clip-rule="nonzero"/></clipPath><clipPath id="9506ce8ca8"><path d="M 236.011719 57.160156 L 278.761719 57.160156 L 278.761719 99.910156 L 236.011719 99.910156 Z M 236.011719 57.160156 " clip-rule="nonzero"/></clipPath><clipPath id="51b34cabca"><path d="M 185.714844 23.804688 L 215.835938 23.804688 L 215.835938 53.925781 L 185.714844 53.925781 Z M 185.714844 23.804688 " clip-rule="nonzero"/></clipPath><clipPath id="84ac3d3486"><path d="M 200.773438 23.804688 C 192.457031 23.804688 185.714844 30.546875 185.714844 38.863281 C 185.714844 47.179688 192.457031 53.925781 200.773438 53.925781 C 209.09375 53.925781 215.835938 47.179688 215.835938 38.863281 C 215.835938 30.546875 209.09375 23.804688 200.773438 23.804688 Z M 200.773438 23.804688 " clip-rule="nonzero"/></clipPath><clipPath id="a413c616da"><path d="M 194 31 L 217.214844 31 L 217.214844 54.550781 L 194 54.550781 Z M 194 31 " clip-rule="nonzero"/></clipPath><clipPath id="9b66c3c1ad"><path d="M 185.714844 23.050781 L 209 23.050781 L 209 47 L 185.714844 47 Z M 185.714844 23.050781 " clip-rule="nonzero"/></clipPath><clipPath id="7a38c3ebc4"><path d="M 237.308594 65.558594 L 277 65.558594 L 277 87 L 237.308594 87 Z M 237.308594 65.558594 " clip-rule="nonzero"/></clipPath><clipPath id="27bea23e5f"><path d="M 250.167969 77 L 264.457031 77 L 264.457031 91.058594 L 250.167969 91.058594 Z M 250.167969 77 " clip-rule="nonzero"/></clipPath><clipPath id="12ba80efbe"><path d="M 78.136719 239.941406 L 147.886719 239.941406 L 147.886719 307.441406 L 78.136719 307.441406 Z M 78.136719 239.941406 " clip-rule="nonzero"/></clipPath></defs><path fill="#e1dddb" d="M 164.042969 59.714844 C 198.144531 54.46875 233.660156 38.878906 264.832031 53.628906 C 297.847656 69.261719 322.324219 102.609375 330.011719 138.269531 C 337.402344 172.535156 324.136719 208.582031 304.511719 237.652344 C 287.902344 262.246094 255.636719 267.476562 231.292969 284.480469 C 207.597656 301.019531 192.195312 329.175781 164.042969 335.738281 C 132.210938 343.167969 92.117188 345.644531 69.296875 322.261719 C 46.28125 298.679688 64.347656 258.847656 57.53125 226.628906 C 51.851562 199.574219 28.011719 176.769531 32.882812 149.554688 C 37.996094 121.046875 59.628906 97.910156 83.558594 81.523438 C 107.058594 65.4375 135.878906 64.050781 164.042969 59.714844 Z M 164.042969 59.714844 " fill-opacity="1" fill-rule="evenodd"/><g clip-path="url(#2603e8e856)"><path fill="#f5f6f7" d="M 319.699219 197.277344 C 319.113281 192.367188 314.128906 185.476562 306.578125 178.148438 C 299.027344 170.816406 293.972656 167.371094 287.523438 166.199219 C 281.070312 165.027344 277.039062 165.320312 277.039062 165.320312 L 277.113281 160.554688 C 277.113281 160.554688 272.863281 159.164062 273.375 152.492188 C 274.988281 153.59375 279.019531 153.59375 279.824219 150.441406 C 280.632812 147.289062 278.652344 145.457031 274.476562 145.96875 C 273.960938 145.675781 272.496094 140.621094 273.742188 135.78125 C 272.640625 135.929688 270.808594 139.007812 270.808594 139.007812 L 261.28125 135.855469 C 261.28125 135.855469 259.230469 140.179688 258.789062 142.304688 C 257.03125 143.476562 255.929688 145.382812 255.929688 145.382812 C 255.929688 145.382812 256.152344 146.703125 257.324219 147.289062 C 257.25 148.535156 257.582031 153.28125 258.460938 154.4375 C 259.777344 155.480469 266.375 157.183594 266.375 157.183594 L 266.265625 165.484375 C 266.265625 165.484375 261.429688 165.761719 259.066406 165.816406 C 256.699219 165.871094 251.535156 166.53125 251.535156 166.53125 L 251.535156 105.074219 C 253.464844 105.5 255.269531 104.964844 257.328125 104.964844 C 272.539062 104.964844 283.824219 94.007812 283.824219 78.796875 C 283.824219 63.585938 272.816406 51.117188 257.605469 51.117188 C 242.742188 51.117188 230.558594 63.136719 230.011719 77.863281 L 230 77.847656 L 90.167969 77.847656 C 87.027344 77.847656 84.480469 80.394531 84.480469 83.535156 L 84.480469 180.679688 L 84.605469 180.832031 C 78.535156 180.886719 72.484375 183.226562 67.851562 187.859375 C 58.472656 197.238281 58.472656 212.445312 67.851562 221.824219 C 77.230469 231.203125 92.4375 231.203125 101.816406 221.824219 C 105.628906 218.007812 107.894531 213.230469 108.605469 208.269531 L 247.648438 208.269531 L 248.089844 236.855469 L 291.917969 237.003906 L 292.210938 230.40625 C 292.210938 230.40625 294.410156 230.40625 296.683594 228.941406 C 298.957031 227.476562 310.609375 216.113281 313.980469 211.351562 C 317.351562 206.585938 320.285156 202.1875 319.699219 197.277344 Z M 292.621094 217.382812 L 293.390625 189.730469 L 302.625 200.339844 L 305.429688 199.570312 Z M 175.769531 220.570312 L 170.597656 220.570312 L 170.597656 224.953125 L 166.21875 224.953125 L 166.21875 271.746094 L 208.378906 271.746094 L 208.378906 267.363281 L 212.761719 267.363281 L 212.761719 227.769531 L 205.460938 220.570312 Z M 62.210938 178.402344 L 57.042969 173.070312 L 56.273438 176.535156 L 52.753906 177.140625 L 58.03125 182.472656 L 62.15625 182.25 Z M 202.058594 59.042969 C 213.3125 59.042969 222.433594 49.917969 222.433594 38.664062 C 222.433594 27.410156 213.3125 18.289062 202.058594 18.289062 C 190.804688 18.289062 181.683594 27.410156 181.683594 38.664062 C 181.683594 49.917969 190.804688 59.042969 202.058594 59.042969 Z M 238.707031 23.164062 C 238.707031 23.164062 240.683594 23.457031 241.125 25.070312 C 241.566406 26.679688 242.480469 30.601562 242.480469 30.601562 C 242.480469 30.601562 243.105469 25.542969 244.058594 24.480469 C 245.011719 23.417969 249.042969 21.769531 249.042969 21.769531 C 249.042969 21.769531 245.558594 20.964844 244.535156 19.644531 C 243.507812 18.324219 242.40625 12.535156 242.40625 12.535156 L 242.1875 13.195312 C 242.1875 13.195312 241.820312 18.289062 240.464844 19.242188 C 239.109375 20.195312 235.957031 21.550781 235.957031 21.550781 L 236.472656 22.171875 Z M 292.789062 346.402344 L 279.996094 346.019531 L 279.90625 349.015625 L 270.636719 352.925781 L 267.859375 353.550781 L 267.398438 346.019531 L 254.222656 346.019531 L 254.3125 348.925781 C 254.3125 348.925781 252.042969 349.835938 246.222656 352.289062 C 238.058594 355.449219 235.589844 357.742188 235.679688 359.652344 C 235.773438 361.558594 237.863281 362.558594 237.863281 362.558594 C 237.863281 362.558594 288.902344 362.558594 291.902344 362.558594 C 294.902344 362.558594 294.175781 360.015625 294.175781 360.015625 Z M 292.789062 346.402344 " fill-opacity="1" fill-rule="nonzero"/></g><path fill="#ffcd77" d="M 257.523438 51.125 C 242.507812 51.125 230.332031 63.300781 230.332031 78.316406 C 230.332031 93.335938 242.507812 105.511719 257.523438 105.511719 C 272.542969 105.511719 284.71875 93.335938 284.71875 78.316406 C 284.71875 63.300781 272.542969 51.125 257.523438 51.125 Z M 257.523438 102.484375 C 244.179688 102.484375 233.359375 91.664062 233.359375 78.316406 C 233.359375 64.972656 244.179688 54.152344 257.523438 54.152344 C 270.871094 54.152344 281.691406 64.972656 281.691406 78.316406 C 281.691406 91.664062 270.871094 102.484375 257.523438 102.484375 Z M 181.515625 234.0625 C 180.363281 235.214844 178.5 235.214844 177.351562 234.0625 C 176.199219 232.914062 176.199219 231.050781 177.351562 229.902344 C 178.5 228.75 180.363281 228.75 181.515625 229.902344 C 182.664062 231.050781 182.664062 232.914062 181.515625 234.0625 Z M 84.664062 196.207031 C 82.464844 196.207031 80.265625 197.042969 78.59375 198.71875 C 75.246094 202.066406 75.246094 207.511719 78.59375 210.859375 C 80.214844 212.480469 82.371094 213.375 84.664062 213.375 C 86.957031 213.375 89.113281 212.480469 90.734375 210.859375 C 92.359375 209.238281 93.25 207.082031 93.25 204.789062 C 93.25 202.496094 92.359375 200.339844 90.734375 198.71875 C 89.0625 197.042969 86.863281 196.207031 84.664062 196.207031 Z M 292.121094 237.546875 L 248.074219 237.128906 L 248.632812 272.308594 L 250.152344 346.339844 L 270.082031 346.339844 L 270.324219 279.390625 L 275.289062 346.339844 L 295.21875 346.339844 Z M 242.371094 13.15625 C 242.371094 13.15625 241.308594 18.324219 240.648438 19.277344 C 239.988281 20.230469 235.8125 21.695312 235.8125 21.695312 L 239.109375 23.050781 C 239.109375 23.050781 240.832031 23.601562 241.125 25.214844 C 241.417969 26.828125 242.40625 30.457031 242.40625 30.457031 C 242.40625 30.457031 243.582031 25.214844 244.167969 24.335938 C 244.753906 23.457031 248.96875 21.84375 249.078125 21.769531 C 249.1875 21.695312 245.339844 20.597656 244.277344 19.316406 C 243.214844 18.03125 242.371094 13.15625 242.371094 13.15625 Z M 195.800781 131.40625 L 177.863281 131.40625 L 177.863281 111.265625 L 198.003906 111.265625 L 198.003906 129.867188 C 198.003906 129.867188 197.039062 128.671875 196.046875 129.257812 C 195.058594 129.84375 195.800781 131.40625 195.800781 131.40625 Z M 158.480469 163.28125 L 138.339844 163.28125 L 138.339844 143.140625 L 158.480469 143.140625 Z M 158.480469 163.28125 " fill-opacity="1" fill-rule="nonzero"/><g clip-path="url(#4d05f17df9)"><path fill="#35668f" d="M 295.023438 168.589844 C 288.75 164.683594 279.597656 164.929688 277.414062 165.054688 L 277.460938 161.292969 C 279.257812 162.191406 281.527344 162.480469 283.675781 162.480469 C 287.132812 162.480469 290.257812 161.753906 290.484375 161.699219 C 290.675781 161.652344 290.808594 161.488281 290.816406 161.292969 C 290.820312 161.097656 290.699219 160.925781 290.511719 160.867188 C 290.492188 160.863281 288.722656 160.304688 287.84375 158.4375 C 287.058594 156.761719 287.21875 154.574219 288.320312 151.9375 C 290.664062 146.320312 291.015625 141.691406 289.402344 137.78125 C 287.816406 133.945312 284.238281 130.859375 278.769531 128.601562 C 273.53125 126.433594 266.582031 125.855469 262.875 129.4375 C 260.21875 132.003906 259.046875 134.769531 258.996094 134.886719 C 258.953125 134.996094 258.953125 135.121094 259.003906 135.226562 C 259.050781 135.335938 259.144531 135.421875 259.257812 135.460938 L 260.8125 135.992188 C 260.113281 137.292969 259.636719 138.234375 258.304688 142.195312 C 257.800781 142.550781 255.945312 143.902344 255.574219 144.855469 C 255.171875 145.894531 256.503906 147.15625 257.078125 147.640625 C 256.8125 150.125 257.058594 152.285156 257.824219 154.238281 C 258.492188 155.941406 264.234375 157.277344 265.984375 157.644531 L 265.984375 165.363281 C 265.4375 165.347656 264.042969 165.316406 262.125 165.25 C 260.058594 165.171875 256.339844 165.550781 252.132812 166.070312 L 252.132812 105.695312 C 253.886719 106.042969 255.695312 106.230469 257.550781 106.230469 C 272.890625 106.230469 285.371094 93.75 285.371094 78.410156 C 285.371094 63.070312 272.890625 50.589844 257.550781 50.589844 C 242.542969 50.589844 230.277344 62.535156 229.753906 77.417969 L 90.167969 77.417969 C 86.792969 77.417969 84.050781 80.164062 84.050781 83.535156 L 84.050781 180.355469 C 77.894531 180.507812 72.121094 182.921875 67.6875 187.203125 L 62.691406 182.207031 L 62.878906 178.25 C 62.886719 178.128906 62.839844 178.011719 62.753906 177.925781 L 57.28125 172.453125 C 57.164062 172.335938 56.996094 172.296875 56.839844 172.347656 C 56.683594 172.398438 56.570312 172.535156 56.550781 172.699219 L 56.074219 176.195312 L 52.574219 176.675781 C 52.410156 176.699219 52.277344 176.808594 52.222656 176.964844 C 52.171875 177.121094 52.210938 177.289062 52.328125 177.40625 L 57.800781 182.878906 C 57.878906 182.960938 57.992188 183.003906 58.105469 183.003906 C 58.109375 183.003906 58.117188 183.003906 58.125 183.003906 L 62.078125 182.808594 L 67.082031 187.8125 C 57.851562 197.371094 57.945312 212.644531 67.378906 222.074219 C 72.144531 226.84375 78.402344 229.226562 84.664062 229.226562 C 90.925781 229.226562 97.183594 226.84375 101.949219 222.074219 C 105.710938 218.316406 107.980469 213.628906 108.773438 208.742188 L 246.015625 208.742188 C 246.425781 208.742188 246.832031 208.6875 247.230469 208.609375 C 247.40625 219.0625 247.5625 230.609375 247.644531 237.136719 C 247.644531 237.136719 247.644531 237.136719 247.644531 237.140625 L 249.722656 346.347656 C 249.726562 346.585938 249.917969 346.773438 250.152344 346.773438 L 253.789062 346.773438 L 253.933594 348.839844 C 251.648438 349.707031 237.9375 354.964844 236.027344 357.332031 C 234.898438 358.722656 235.105469 359.589844 235.273438 360.285156 L 235.316406 360.480469 C 235.445312 361.070312 235.808594 361.621094 236.289062 362.054688 L 217.46875 362.054688 C 217.230469 362.054688 217.035156 362.246094 217.035156 362.484375 C 217.035156 362.722656 217.230469 362.914062 217.46875 362.914062 L 238.28125 362.914062 C 238.300781 362.914062 238.320312 362.921875 238.339844 362.921875 L 291.953125 362.921875 C 291.976562 362.921875 291.992188 362.914062 292.011719 362.914062 L 306.695312 362.914062 C 306.933594 362.914062 307.125 362.722656 307.125 362.484375 C 307.125 362.246094 306.933594 362.054688 306.695312 362.054688 L 293.925781 362.054688 C 294.378906 361.566406 294.660156 360.910156 294.660156 360.175781 L 293.421875 346.773438 L 295.21875 346.773438 C 295.335938 346.773438 295.445312 346.722656 295.527344 346.640625 C 295.609375 346.558594 295.652344 346.445312 295.648438 346.328125 L 292.726562 237 L 292.898438 230.6875 C 293.3125 230.613281 293.726562 230.535156 294.105469 230.441406 C 295.742188 230.050781 298.597656 228.351562 301.296875 225.445312 C 301.875 224.824219 302.75 223.976562 303.859375 222.90625 C 308.886719 218.039062 318.242188 208.988281 320.21875 200.640625 C 322.765625 189.894531 302.347656 173.152344 295.023438 168.589844 Z M 61.839844 181.960938 L 58.273438 182.136719 L 53.546875 177.410156 L 56.515625 177.003906 C 56.707031 176.976562 56.855469 176.824219 56.882812 176.632812 L 57.285156 173.675781 L 62.011719 178.398438 Z M 258.625 153.925781 C 257.886719 152.046875 257.671875 149.945312 257.960938 147.503906 C 257.980469 147.355469 257.917969 147.207031 257.796875 147.113281 C 257.097656 146.566406 256.214844 145.585938 256.378906 145.164062 C 256.609375 144.566406 258.054688 143.410156 258.914062 142.820312 C 258.914062 142.820312 258.914062 142.820312 258.917969 142.816406 C 258.917969 142.816406 258.921875 142.8125 258.925781 142.808594 C 258.988281 142.761719 259.03125 142.695312 259.0625 142.625 C 259.066406 142.617188 259.074219 142.613281 259.078125 142.601562 C 260.460938 138.464844 260.910156 137.621094 261.640625 136.277344 L 270.644531 139.363281 C 270.84375 139.429688 271.058594 139.347656 271.160156 139.164062 C 271.171875 139.144531 272.003906 137.660156 273.023438 136.582031 C 272.199219 139.710938 272.652344 144.628906 274.523438 146.355469 C 274.640625 146.460938 274.808594 146.496094 274.960938 146.441406 C 275.082031 146.398438 277.988281 145.414062 279.382812 148.160156 C 280 149.371094 279.777344 150.726562 278.808594 151.695312 C 277.835938 152.671875 275.960938 153.289062 273.609375 152.101562 C 273.496094 152.046875 273.359375 152.042969 273.246094 152.09375 C 273.125 152.144531 273.039062 152.246094 273 152.367188 C 272.949219 152.546875 271.785156 156.765625 276.109375 160.429688 C 276.277344 160.566406 276.460938 160.6875 276.640625 160.8125 C 276.617188 160.863281 276.605469 160.917969 276.605469 160.972656 L 276.550781 165.371094 C 276.15625 165.875 274.128906 168.195312 270.027344 168.195312 C 266.910156 168.195312 266.847656 166.050781 266.847656 165.960938 L 266.847656 157.292969 C 266.847656 157.070312 266.675781 156.894531 266.460938 156.871094 C 266.453125 156.867188 266.449219 156.863281 266.441406 156.863281 C 263.433594 156.25 259.023438 154.933594 258.625 153.925781 Z M 257.550781 51.449219 C 272.414062 51.449219 284.507812 63.542969 284.507812 78.410156 C 284.507812 93.273438 272.414062 105.367188 257.550781 105.367188 C 242.683594 105.367188 230.589844 93.273438 230.589844 78.410156 C 230.589844 63.542969 242.683594 51.449219 257.550781 51.449219 Z M 84.910156 83.535156 C 84.910156 80.636719 87.269531 78.28125 90.167969 78.28125 L 229.730469 78.28125 C 229.730469 78.324219 229.730469 78.367188 229.730469 78.410156 C 229.730469 85.886719 232.699219 92.675781 237.511719 97.679688 L 84.910156 97.679688 Z M 108.035156 207.957031 C 107.917969 208.035156 107.835938 208.160156 107.835938 208.3125 C 107.835938 208.417969 107.878906 208.511719 107.941406 208.585938 C 107.160156 213.441406 104.886719 217.921875 101.339844 221.46875 C 92.148438 230.664062 77.183594 230.664062 67.984375 221.46875 C 63.53125 217.011719 61.078125 211.089844 61.078125 204.789062 C 61.078125 198.632812 63.425781 192.839844 67.6875 188.421875 L 72.5625 193.296875 C 66.351562 199.832031 66.441406 210.191406 72.851562 216.601562 C 76.007812 219.757812 80.203125 221.496094 84.664062 221.496094 C 89.125 221.496094 93.324219 219.757812 96.476562 216.601562 C 102.992188 210.089844 102.992188 199.488281 96.476562 192.976562 C 93.324219 189.820312 89.125 188.082031 84.664062 188.082031 C 80.347656 188.082031 76.289062 189.722656 73.167969 192.6875 L 68.296875 187.8125 C 72.714844 183.550781 78.507812 181.203125 84.664062 181.203125 C 90.964844 181.203125 96.886719 183.65625 101.339844 188.109375 C 103.445312 190.214844 105.097656 192.648438 106.261719 195.292969 C 106.269531 195.316406 106.277344 195.335938 106.289062 195.355469 C 107.570312 198.292969 108.25 201.488281 108.25 204.789062 C 108.25 205.859375 108.171875 206.917969 108.035156 207.957031 Z M 84.96875 204.484375 L 79.253906 198.769531 C 80.789062 197.386719 82.722656 196.6875 84.664062 196.6875 C 86.742188 196.6875 88.816406 197.476562 90.398438 199.058594 C 93.558594 202.21875 93.558594 207.359375 90.398438 210.519531 C 87.238281 213.679688 82.09375 213.683594 78.933594 210.519531 C 75.875 207.464844 75.785156 202.554688 78.644531 199.375 L 84.359375 205.09375 C 84.445312 205.175781 84.554688 205.21875 84.664062 205.21875 C 84.773438 205.21875 84.882812 205.175781 84.96875 205.09375 C 85.136719 204.925781 85.136719 204.652344 84.96875 204.484375 Z M 78.324219 211.128906 C 80.070312 212.878906 82.367188 213.753906 84.664062 213.753906 C 86.960938 213.753906 89.257812 212.878906 91.003906 211.128906 C 94.5 207.632812 94.5 201.945312 91.003906 198.449219 C 87.609375 195.054688 82.160156 194.964844 78.644531 198.160156 L 73.777344 193.292969 C 76.734375 190.492188 80.574219 188.941406 84.664062 188.941406 C 88.898438 188.941406 92.875 190.589844 95.867188 193.585938 C 102.046875 199.761719 102.046875 209.816406 95.867188 215.992188 C 92.875 218.988281 88.898438 220.632812 84.664062 220.632812 C 80.429688 220.632812 76.453125 218.988281 73.460938 215.992188 C 67.382812 209.917969 67.296875 200.105469 73.171875 193.902344 L 78.035156 198.769531 C 74.839844 202.28125 74.929688 207.738281 78.324219 211.128906 Z M 99.246094 185.164062 L 99.246094 175.445312 L 118.527344 175.445312 L 118.527344 194.726562 L 106.941406 194.726562 C 105.761719 192.105469 104.101562 189.652344 101.949219 187.5 C 101.097656 186.648438 100.195312 185.871094 99.246094 185.164062 Z M 246.015625 207.882812 L 108.898438 207.882812 C 109.421875 203.746094 108.898438 199.503906 107.3125 195.585938 L 118.957031 195.585938 C 119.195312 195.585938 119.390625 195.394531 119.390625 195.15625 L 119.390625 175.015625 C 119.390625 174.777344 119.195312 174.585938 118.957031 174.585938 L 98.816406 174.585938 C 98.578125 174.585938 98.386719 174.777344 98.386719 175.015625 L 98.386719 184.550781 C 94.4375 181.863281 89.789062 180.394531 84.910156 180.347656 L 84.910156 98.542969 L 238.367188 98.542969 C 238.371094 98.542969 238.375 98.539062 238.375 98.539062 C 241.917969 101.914062 246.347656 104.367188 251.273438 105.507812 L 251.273438 166.175781 C 249.378906 166.414062 247.40625 166.675781 245.453125 166.933594 C 238.597656 167.839844 229.210938 169.082031 228.339844 168.382812 C 226.945312 166.789062 225.59375 165.226562 224.296875 163.710938 L 237.527344 163.710938 C 237.765625 163.710938 237.957031 163.519531 237.957031 163.28125 L 237.957031 143.140625 C 237.957031 142.902344 237.765625 142.710938 237.527344 142.710938 L 217.386719 142.710938 C 217.148438 142.710938 216.953125 142.902344 216.953125 143.140625 L 216.953125 154.996094 C 213.570312 150.910156 211.269531 148.03125 210.664062 147.269531 C 210.660156 147.203125 210.648438 147.136719 210.613281 147.074219 C 210.578125 147.015625 207.289062 141.179688 205.390625 138.273438 C 203.84375 135.90625 200.253906 131.902344 198.425781 129.921875 C 198.425781 129.902344 198.433594 129.886719 198.433594 129.867188 L 198.433594 111.265625 C 198.433594 111.027344 198.242188 110.835938 198.003906 110.835938 L 177.863281 110.835938 C 177.625 110.835938 177.433594 111.027344 177.433594 111.265625 L 177.433594 131.40625 C 177.433594 131.644531 177.625 131.835938 177.863281 131.835938 L 195.636719 131.835938 C 195.929688 132.523438 196.390625 133.339844 197.085938 134.320312 C 197.707031 135.203125 198.234375 136.035156 198.6875 136.820312 C 197.730469 137.1875 195.226562 138.21875 194.507812 139.164062 C 194.070312 139.738281 194.371094 141.316406 194.757812 142.710938 L 194.039062 142.710938 C 194.03125 142.710938 194.023438 142.714844 194.011719 142.714844 C 192.984375 141.945312 191.957031 141.378906 190.625 142.0625 C 190.492188 142.132812 190.273438 142.3125 190.234375 142.710938 L 177.863281 142.710938 C 177.625 142.710938 177.433594 142.902344 177.433594 143.140625 L 177.433594 163.28125 C 177.433594 163.519531 177.625 163.710938 177.863281 163.710938 L 198.003906 163.710938 C 198.242188 163.710938 198.433594 163.519531 198.433594 163.28125 L 198.433594 152.609375 C 199.429688 153.128906 200.285156 153.503906 200.617188 153.644531 C 201.6875 155.75 212.640625 177.15625 216.953125 182.425781 L 216.953125 195.15625 C 216.953125 195.394531 217.148438 195.585938 217.386719 195.585938 L 237.527344 195.585938 C 237.765625 195.585938 237.957031 195.394531 237.957031 195.15625 L 237.957031 186.539062 C 242.101562 186.632812 245.535156 186.566406 246.691406 186.539062 C 246.847656 188.398438 247.039062 197.449219 247.214844 207.734375 C 246.824219 207.828125 246.421875 207.882812 246.015625 207.882812 Z M 237.097656 186.519531 L 237.097656 194.726562 L 217.816406 194.726562 L 217.816406 183.339844 C 220.585938 185.601562 229.746094 186.320312 237.097656 186.519531 Z M 218.359375 182.671875 C 214.945312 179.878906 201.449219 153.382812 201.3125 153.113281 C 201.304688 153.097656 201.289062 153.085938 201.277344 153.070312 C 201.257812 153.042969 201.242188 153.015625 201.21875 152.996094 C 201.195312 152.976562 201.171875 152.960938 201.144531 152.945312 C 201.125 152.9375 201.113281 152.917969 201.089844 152.910156 C 201.070312 152.902344 198.898438 152.011719 197.085938 150.839844 C 193.699219 148.648438 190.941406 143.644531 191.082031 142.800781 C 192.046875 142.335938 192.777344 142.839844 193.960938 143.757812 C 194.703125 144.335938 195.546875 144.992188 196.621094 145.371094 C 198.324219 145.972656 200.636719 144.695312 201.222656 144.105469 C 202.484375 142.847656 200.976562 138.332031 197.789062 133.824219 C 195.765625 130.960938 195.890625 129.648438 196.242188 129.359375 C 196.402344 129.222656 196.628906 129.273438 196.753906 129.402344 C 197.714844 130.382812 202.839844 135.941406 204.667969 138.746094 C 206.347656 141.3125 209.132812 146.207031 209.738281 147.277344 C 209.722656 147.386719 209.75 147.503906 209.824219 147.601562 C 209.902344 147.699219 217.710938 157.542969 227.695312 168.953125 C 227.976562 169.277344 228.75 169.425781 230.09375 169.425781 C 230.566406 169.425781 231.109375 169.40625 231.726562 169.371094 L 231.832031 185.417969 C 226.023438 185.054688 220.328125 184.28125 218.359375 182.671875 Z M 197.574219 152.136719 L 197.574219 162.851562 L 178.292969 162.851562 L 178.292969 143.570312 L 190.359375 143.570312 C 190.988281 145.664062 193.765625 149.71875 196.617188 151.5625 C 196.933594 151.765625 197.253906 151.957031 197.574219 152.136719 Z M 198.347656 141.46875 C 198.511719 141.488281 198.691406 141.488281 198.882812 141.492188 C 199.46875 141.492188 200.074219 141.5 200.789062 142.214844 C 200.867188 142.867188 200.796875 143.316406 200.613281 143.496094 C 200.164062 143.949219 198.191406 145.011719 196.90625 144.558594 C 196.636719 144.460938 196.382812 144.339844 196.136719 144.210938 C 195.40625 142.136719 194.96875 140.03125 195.195312 139.683594 C 195.742188 138.964844 198.035156 137.992188 199.109375 137.582031 C 199.71875 138.738281 200.148438 139.761719 200.421875 140.621094 C 199.714844 140.585938 198.597656 140.542969 198.289062 140.625 C 198.089844 140.675781 197.953125 140.863281 197.96875 141.070312 C 197.984375 141.277344 198.140625 141.441406 198.347656 141.46875 Z M 195.324219 130.976562 L 178.292969 130.976562 L 178.292969 111.695312 L 197.574219 111.695312 L 197.574219 129.011719 C 197.484375 128.921875 197.414062 128.84375 197.367188 128.796875 C 196.914062 128.335938 196.175781 128.289062 195.691406 128.695312 C 195.386719 128.953125 194.941406 129.585938 195.324219 130.976562 Z M 217.710938 155.90625 C 217.773438 155.832031 217.816406 155.738281 217.816406 155.632812 L 217.816406 143.570312 L 237.097656 143.570312 L 237.097656 162.851562 L 223.558594 162.851562 C 221.414062 160.335938 219.4375 157.988281 217.710938 155.90625 Z M 247.453125 185.917969 C 247.382812 185.761719 247.207031 185.660156 247.050781 185.667969 C 246.949219 185.671875 242.855469 185.785156 237.75 185.667969 C 237.683594 185.625 237.609375 185.597656 237.527344 185.597656 C 237.453125 185.597656 237.382812 185.621094 237.320312 185.65625 C 235.832031 185.617188 234.265625 185.558594 232.691406 185.46875 L 232.585938 169.3125 C 235.476562 169.09375 239.714844 168.5625 245.566406 167.789062 C 252.191406 166.914062 259.039062 166.011719 262.097656 166.109375 C 264.082031 166.179688 265.503906 166.210938 266.011719 166.222656 C 266.121094 166.96875 266.722656 169.058594 270.023438 169.058594 C 274.441406 169.058594 276.664062 166.621094 277.207031 165.929688 C 278.660156 165.839844 288.289062 165.414062 294.566406 169.320312 C 301.226562 173.46875 314.777344 184.839844 318.566406 194.191406 L 302.660156 199.941406 L 293.882812 189.410156 C 293.769531 189.273438 293.578125 189.21875 293.410156 189.277344 C 293.242188 189.339844 293.125 189.496094 293.121094 189.675781 L 292.425781 216.980469 C 291.917969 217.667969 291.425781 218.339844 290.953125 218.984375 C 288.460938 219.613281 287.058594 220.171875 284.054688 221.359375 L 283.285156 221.664062 C 281.277344 222.457031 277.90625 224.511719 275.609375 226.753906 C 273.917969 228.40625 273.722656 229.769531 274.277344 230.390625 C 274.421875 230.554688 274.640625 230.671875 274.914062 230.707031 C 274.488281 231.503906 274.636719 232.179688 275.015625 232.605469 C 275.320312 232.949219 275.765625 233.128906 276.207031 233.128906 C 276.515625 233.128906 276.808594 233.023438 277.070312 232.855469 C 277.121094 233.113281 277.230469 233.394531 277.46875 233.621094 C 277.742188 233.882812 278.117188 234.015625 278.59375 234.015625 C 278.878906 234.015625 279.203125 233.96875 279.5625 233.871094 C 279.886719 233.785156 280.253906 233.648438 280.636719 233.484375 C 280.746094 234.011719 281.070312 234.28125 281.289062 234.398438 C 281.519531 234.519531 281.808594 234.578125 282.144531 234.578125 C 283.65625 234.578125 286.160156 233.367188 289.140625 231.164062 C 289.527344 231.132812 290.730469 231.023438 292.03125 230.828125 L 291.875 236.570312 L 248.5 236.699219 C 248.347656 224.433594 247.851562 186.78125 247.453125 185.917969 Z M 304.332031 200.253906 C 303.140625 202.207031 297.875 209.523438 293.316406 215.757812 L 293.953125 190.839844 L 302.191406 200.726562 C 302.304688 200.863281 302.496094 200.914062 302.667969 200.855469 Z M 254.539062 349.535156 C 254.71875 349.46875 254.832031 349.289062 254.816406 349.101562 L 254.652344 346.773438 L 266.953125 346.773438 L 267.386719 353.320312 L 261.195312 353.320312 L 252.527344 350.304688 C 253.292969 350.003906 253.976562 349.746094 254.539062 349.535156 Z M 238.285156 362.054688 C 237.371094 362.023438 236.351562 361.1875 236.160156 360.300781 L 236.109375 360.085938 C 235.96875 359.496094 235.835938 358.9375 236.695312 357.871094 C 237.726562 356.597656 243.15625 354.128906 248.027344 352.109375 C 248.027344 352.113281 248.027344 352.113281 248.027344 352.113281 L 251.390625 353.683594 C 251.449219 353.710938 251.511719 353.722656 251.574219 353.722656 C 251.734375 353.722656 251.890625 353.628906 251.964844 353.472656 C 252.0625 353.257812 251.96875 353.003906 251.753906 352.902344 L 249.109375 351.667969 C 249.886719 351.347656 250.644531 351.042969 251.355469 350.765625 C 251.398438 350.804688 251.445312 350.835938 251.507812 350.859375 L 260.980469 354.160156 C 261.023438 354.175781 261.074219 354.183594 261.121094 354.183594 L 266.726562 354.183594 C 264.246094 355.375 262.214844 356.523438 261.558594 357.332031 C 260.433594 358.726562 260.640625 359.589844 260.804688 360.285156 L 260.851562 360.480469 C 260.976562 361.070312 261.34375 361.621094 261.824219 362.054688 Z M 293.800781 360.214844 C 293.800781 361.210938 293.003906 362.023438 292.011719 362.054688 L 263.820312 362.054688 C 262.90625 362.023438 261.882812 361.1875 261.695312 360.300781 L 261.644531 360.085938 C 261.503906 359.496094 261.371094 358.9375 262.230469 357.871094 C 263.261719 356.597656 268.691406 354.128906 273.558594 352.109375 C 273.5625 352.113281 273.5625 352.113281 273.5625 352.113281 L 276.925781 353.683594 C 276.984375 353.710938 277.046875 353.722656 277.105469 353.722656 C 277.269531 353.722656 277.425781 353.628906 277.496094 353.472656 C 277.597656 353.257812 277.503906 353.003906 277.289062 352.902344 L 274.640625 351.667969 C 275.421875 351.347656 276.179688 351.042969 276.886719 350.765625 C 276.929688 350.804688 276.980469 350.835938 277.039062 350.859375 L 286.511719 354.160156 C 286.558594 354.175781 286.605469 354.183594 286.65625 354.183594 L 293.242188 354.183594 Z M 280.1875 346.773438 L 292.558594 346.773438 L 293.164062 353.320312 L 286.726562 353.320312 L 278.0625 350.304688 C 278.828125 350.003906 279.511719 349.746094 280.074219 349.535156 C 280.25 349.46875 280.367188 349.289062 280.351562 349.101562 Z M 268.257812 353.464844 L 267.816406 346.773438 L 270.082031 346.773438 C 270.320312 346.773438 270.511719 346.578125 270.515625 346.34375 L 270.683594 289.453125 L 274.859375 346.371094 C 274.859375 346.402344 274.871094 346.425781 274.878906 346.453125 C 274.886719 346.472656 274.886719 346.496094 274.898438 346.519531 C 274.910156 346.546875 274.929688 346.570312 274.949219 346.597656 C 274.964844 346.613281 274.972656 346.636719 274.992188 346.652344 C 275.015625 346.675781 275.046875 346.691406 275.078125 346.707031 C 275.09375 346.71875 275.105469 346.730469 275.125 346.738281 C 275.175781 346.761719 275.230469 346.773438 275.285156 346.773438 C 275.289062 346.773438 275.289062 346.773438 275.289062 346.773438 L 279.324219 346.773438 L 279.46875 348.839844 C 278.121094 349.351562 272.792969 351.390625 268.257812 353.464844 Z M 294.777344 345.910156 L 275.6875 345.910156 L 269.671875 263.902344 C 269.652344 263.664062 269.429688 263.480469 269.210938 263.5 C 268.972656 263.519531 268.796875 263.726562 268.8125 263.960938 L 269.890625 278.691406 C 269.867188 278.746094 269.851562 278.804688 269.851562 278.867188 L 269.65625 345.910156 L 250.574219 345.910156 L 248.511719 237.558594 L 291.875 237.429688 Z M 319.382812 200.445312 C 317.464844 208.542969 308.222656 217.484375 303.261719 222.285156 C 302.140625 223.367188 301.261719 224.222656 300.664062 224.859375 C 298.105469 227.621094 295.367188 229.253906 293.90625 229.605469 C 291.90625 230.085938 288.976562 230.316406 288.949219 230.316406 C 288.867188 230.324219 288.789062 230.351562 288.726562 230.402344 C 284.976562 233.191406 282.445312 234.035156 281.6875 233.632812 C 281.621094 233.597656 281.449219 233.5 281.453125 233.105469 C 283.75 231.960938 286.367188 230.097656 286.511719 229.996094 C 286.703125 229.859375 286.746094 229.589844 286.609375 229.398438 C 286.472656 229.203125 286.203125 229.160156 286.007812 229.296875 C 285.964844 229.328125 281.609375 232.429688 279.335938 233.039062 C 278.71875 233.207031 278.265625 233.195312 278.066406 233.003906 C 277.820312 232.773438 277.917969 232.273438 277.921875 232.269531 C 277.925781 232.246094 277.921875 232.222656 277.921875 232.199219 C 281.40625 229.417969 284.773438 227.625 284.808594 227.605469 C 285.019531 227.492188 285.097656 227.234375 284.988281 227.023438 C 284.875 226.8125 284.613281 226.734375 284.40625 226.84375 C 284.367188 226.863281 280.460938 228.941406 276.667969 232.109375 C 276.347656 232.375 275.878906 232.28125 275.660156 232.035156 C 275.332031 231.667969 275.566406 231.027344 276.269531 230.371094 C 280.3125 226.578125 283.769531 225.332031 283.804688 225.320312 C 284.027344 225.242188 284.148438 224.996094 284.066406 224.773438 C 283.988281 224.546875 283.746094 224.429688 283.519531 224.507812 C 283.378906 224.558594 280.09375 225.742188 276.097656 229.367188 C 276.074219 229.378906 276.050781 229.382812 276.03125 229.402344 C 275.449219 229.878906 275.019531 229.929688 274.917969 229.816406 C 274.730469 229.601562 274.914062 228.636719 276.210938 227.371094 C 278.34375 225.285156 281.644531 223.238281 283.601562 222.464844 L 284.371094 222.160156 C 287.488281 220.925781 288.78125 220.414062 291.3125 219.78125 C 291.410156 219.757812 291.496094 219.699219 291.554688 219.617188 C 304.59375 201.894531 305.410156 200.195312 305.421875 199.859375 L 318.867188 195 C 319.542969 196.945312 319.773438 198.789062 319.382812 200.445312 Z M 201.914062 59.480469 C 213.367188 59.480469 222.6875 50.160156 222.6875 38.707031 C 222.6875 27.253906 213.367188 17.933594 201.914062 17.933594 C 190.460938 17.933594 181.140625 27.253906 181.140625 38.707031 C 181.140625 50.160156 190.460938 59.480469 201.914062 59.480469 Z M 201.914062 18.796875 C 212.894531 18.796875 221.828125 27.726562 221.828125 38.707031 C 221.828125 49.6875 212.894531 58.617188 201.914062 58.617188 C 190.9375 58.617188 182.003906 49.6875 182.003906 38.707031 C 182.003906 27.726562 190.933594 18.796875 201.914062 18.796875 Z M 200.480469 49.148438 L 200.480469 50.863281 L 203.285156 50.863281 L 203.285156 49.148438 C 205.6875 48.589844 207.246094 46.59375 207.246094 43.945312 C 207.246094 41.167969 205.21875 39.238281 203.253906 37.554688 C 201.601562 36.121094 200.136719 34.839844 200.136719 33.3125 C 200.136719 31.941406 200.792969 31.226562 201.945312 31.226562 C 203.097656 31.226562 203.753906 32.097656 203.753906 33.78125 L 203.753906 34.40625 L 206.933594 34.0625 L 206.933594 33.5 C 206.933594 30.726562 205.59375 28.792969 203.285156 28.265625 L 203.285156 26.550781 L 200.480469 26.550781 L 200.480469 28.265625 C 198.207031 28.824219 196.894531 30.757812 196.894531 33.46875 C 196.894531 36.246094 198.890625 38.207031 200.886719 39.859375 C 202.570312 41.261719 204.003906 42.574219 204.003906 44.101562 C 204.003906 45.378906 203.191406 46.1875 201.882812 46.1875 C 200.574219 46.1875 199.765625 45.222656 199.765625 43.632812 L 199.765625 42.820312 L 196.585938 43.164062 L 196.585938 43.945312 C 196.585938 46.5625 198.113281 48.558594 200.480469 49.148438 Z M 257.199219 78.660156 C 257.28125 78.773438 257.410156 78.839844 257.550781 78.839844 C 257.5625 78.839844 257.574219 78.839844 257.585938 78.839844 C 257.734375 78.828125 257.871094 78.734375 257.9375 78.597656 L 265.945312 62.261719 C 266.050781 62.046875 265.960938 61.789062 265.746094 61.6875 C 265.535156 61.582031 265.277344 61.667969 265.171875 61.882812 L 257.480469 77.574219 L 252.132812 70.148438 C 251.992188 69.957031 251.722656 69.914062 251.53125 70.050781 C 251.339844 70.191406 251.292969 70.460938 251.433594 70.652344 Z M 257.550781 102.707031 C 270.945312 102.707031 281.84375 91.808594 281.84375 78.410156 C 281.84375 65.011719 270.945312 54.113281 257.550781 54.113281 C 244.152344 54.113281 233.253906 65.011719 233.253906 78.410156 C 233.253906 91.808594 244.152344 102.707031 257.550781 102.707031 Z M 257.550781 54.976562 C 270.472656 54.976562 280.984375 65.488281 280.984375 78.410156 C 280.984375 91.332031 270.472656 101.84375 257.550781 101.84375 C 244.625 101.84375 234.113281 91.332031 234.113281 78.410156 C 234.113281 65.488281 244.625 54.976562 257.550781 54.976562 Z M 235.285156 22.148438 L 239.265625 23.679688 C 240.027344 23.972656 240.644531 24.800781 240.871094 25.839844 L 242.03125 31.089844 C 242.074219 31.289062 242.25 31.429688 242.453125 31.429688 C 242.65625 31.429688 242.828125 31.289062 242.875 31.089844 L 244.035156 25.839844 C 244.261719 24.800781 244.878906 23.972656 245.640625 23.679688 L 249.621094 22.148438 C 249.789062 22.085938 249.898438 21.925781 249.898438 21.746094 C 249.898438 21.570312 249.789062 21.410156 249.621094 21.347656 L 245.640625 19.816406 C 244.878906 19.523438 244.261719 18.695312 244.035156 17.65625 L 242.875 12.40625 C 242.828125 12.207031 242.65625 12.066406 242.453125 12.066406 C 242.25 12.066406 242.074219 12.207031 242.03125 12.40625 L 240.871094 17.65625 C 240.644531 18.695312 240.027344 19.523438 239.265625 19.816406 L 235.285156 21.347656 C 235.117188 21.410156 235.007812 21.570312 235.007812 21.75 C 235.007812 21.925781 235.117188 22.085938 235.285156 22.148438 Z M 239.574219 20.621094 C 240.617188 20.21875 241.417969 19.179688 241.710938 17.84375 L 242.453125 14.492188 L 243.191406 17.84375 C 243.488281 19.179688 244.289062 20.21875 245.328125 20.621094 L 248.265625 21.75 L 245.328125 22.875 C 244.289062 23.277344 243.488281 24.316406 243.191406 25.652344 L 242.453125 29.003906 L 241.710938 25.65625 C 241.417969 24.316406 240.617188 23.277344 239.574219 22.875 L 236.636719 21.75 Z M 118.957031 110.835938 L 98.816406 110.835938 C 98.578125 110.835938 98.386719 111.027344 98.386719 111.265625 L 98.386719 131.40625 C 98.386719 131.644531 98.578125 131.839844 98.816406 131.839844 L 118.957031 131.839844 C 119.195312 131.839844 119.390625 131.644531 119.390625 131.40625 L 119.390625 111.265625 C 119.390625 111.027344 119.195312 110.835938 118.957031 110.835938 Z M 158.480469 110.835938 L 138.339844 110.835938 C 138.101562 110.835938 137.910156 111.027344 137.910156 111.265625 L 137.910156 131.40625 C 137.910156 131.644531 138.101562 131.839844 138.339844 131.839844 L 158.480469 131.839844 C 158.71875 131.839844 158.910156 131.644531 158.910156 131.40625 L 158.910156 111.265625 C 158.910156 111.027344 158.71875 110.835938 158.480469 110.835938 Z M 158.050781 130.976562 L 138.769531 130.976562 L 138.769531 111.695312 L 158.050781 111.695312 Z M 217.386719 131.839844 L 237.527344 131.839844 C 237.765625 131.839844 237.957031 131.644531 237.957031 131.40625 L 237.957031 111.265625 C 237.957031 111.027344 237.765625 110.835938 237.527344 110.835938 L 217.386719 110.835938 C 217.148438 110.835938 216.953125 111.027344 216.953125 111.265625 L 216.953125 131.40625 C 216.953125 131.644531 217.148438 131.839844 217.386719 131.839844 Z M 217.816406 111.695312 L 237.097656 111.695312 L 237.097656 130.976562 L 217.816406 130.976562 Z M 118.957031 142.710938 L 98.816406 142.710938 C 98.578125 142.710938 98.386719 142.902344 98.386719 143.140625 L 98.386719 163.28125 C 98.386719 163.519531 98.578125 163.710938 98.816406 163.710938 L 118.957031 163.710938 C 119.195312 163.710938 119.390625 163.519531 119.390625 163.28125 L 119.390625 143.140625 C 119.390625 142.902344 119.195312 142.710938 118.957031 142.710938 Z M 118.527344 162.851562 L 99.246094 162.851562 L 99.246094 143.570312 L 118.527344 143.570312 Z M 158.480469 142.710938 L 138.339844 142.710938 C 138.101562 142.710938 137.910156 142.902344 137.910156 143.140625 L 137.910156 163.28125 C 137.910156 163.519531 138.101562 163.710938 138.339844 163.710938 L 158.480469 163.710938 C 158.71875 163.710938 158.910156 163.519531 158.910156 163.28125 L 158.910156 143.140625 C 158.910156 142.902344 158.71875 142.710938 158.480469 142.710938 Z M 158.050781 162.851562 L 138.769531 162.851562 L 138.769531 143.570312 L 158.050781 143.570312 Z M 158.480469 174.585938 L 138.339844 174.585938 C 138.101562 174.585938 137.910156 174.777344 137.910156 175.015625 L 137.910156 195.15625 C 137.910156 195.394531 138.101562 195.585938 138.339844 195.585938 L 158.480469 195.585938 C 158.71875 195.585938 158.910156 195.394531 158.910156 195.15625 L 158.910156 175.015625 C 158.910156 174.777344 158.71875 174.585938 158.480469 174.585938 Z M 158.050781 194.726562 L 138.769531 194.726562 L 138.769531 175.445312 L 158.050781 175.445312 Z M 198.003906 174.585938 L 177.863281 174.585938 C 177.625 174.585938 177.433594 174.777344 177.433594 175.015625 L 177.433594 195.15625 C 177.433594 195.394531 177.625 195.585938 177.863281 195.585938 L 198.003906 195.585938 C 198.242188 195.585938 198.433594 195.394531 198.433594 195.15625 L 198.433594 175.015625 C 198.433594 174.777344 198.242188 174.585938 198.003906 174.585938 Z M 182.753906 228.054688 L 181.484375 229.324219 C 180.160156 228.304688 178.257812 228.386719 177.046875 229.597656 C 175.835938 230.808594 175.753906 232.710938 176.773438 234.03125 L 175.425781 235.378906 C 175.257812 235.546875 175.257812 235.820312 175.425781 235.988281 C 175.511719 236.070312 175.621094 236.113281 175.730469 236.113281 C 175.839844 236.113281 175.953125 236.070312 176.035156 235.988281 L 177.382812 234.640625 C 177.984375 235.109375 178.707031 235.355469 179.433594 235.355469 C 180.296875 235.355469 181.160156 235.027344 181.820312 234.367188 C 183.03125 233.15625 183.113281 231.253906 182.09375 229.929688 L 183.359375 228.664062 C 183.527344 228.496094 183.527344 228.222656 183.359375 228.054688 C 183.191406 227.886719 182.921875 227.886719 182.753906 228.054688 Z M 177.65625 230.203125 C 178.144531 229.714844 178.789062 229.46875 179.433594 229.46875 C 179.9375 229.46875 180.441406 229.628906 180.875 229.929688 L 177.382812 233.425781 C 176.691406 232.445312 176.78125 231.082031 177.65625 230.203125 Z M 181.210938 233.757812 C 180.332031 234.636719 178.972656 234.722656 177.992188 234.03125 L 181.484375 230.539062 C 182.171875 231.519531 182.085938 232.882812 181.210938 233.757812 Z M 185.207031 234.910156 C 185.207031 235.148438 185.398438 235.339844 185.636719 235.339844 L 207.335938 235.339844 C 207.574219 235.339844 207.765625 235.148438 207.765625 234.910156 C 207.765625 234.671875 207.574219 234.480469 207.335938 234.480469 L 185.636719 234.480469 C 185.398438 234.480469 185.207031 234.671875 185.207031 234.910156 Z M 179.433594 248.332031 C 180.296875 248.332031 181.160156 248 181.820312 247.34375 C 183.132812 246.027344 183.132812 243.886719 181.820312 242.570312 C 180.503906 241.257812 178.363281 241.257812 177.046875 242.570312 C 175.730469 243.886719 175.730469 246.027344 177.046875 247.34375 C 177.703125 248 178.570312 248.332031 179.433594 248.332031 Z M 177.65625 243.179688 C 178.144531 242.691406 178.789062 242.445312 179.433594 242.445312 C 180.074219 242.445312 180.71875 242.691406 181.210938 243.179688 C 182.191406 244.160156 182.191406 245.753906 181.210938 246.734375 C 180.230469 247.714844 178.636719 247.714844 177.65625 246.734375 C 176.675781 245.753906 176.675781 244.160156 177.65625 243.179688 Z M 207.335938 247.457031 L 185.636719 247.457031 C 185.398438 247.457031 185.207031 247.648438 185.207031 247.886719 C 185.207031 248.125 185.398438 248.316406 185.636719 248.316406 L 207.335938 248.316406 C 207.574219 248.316406 207.765625 248.125 207.765625 247.886719 C 207.765625 247.648438 207.574219 247.457031 207.335938 247.457031 Z M 177.046875 255.546875 C 175.730469 256.863281 175.730469 259.003906 177.046875 260.320312 C 177.703125 260.976562 178.570312 261.308594 179.433594 261.308594 C 180.296875 261.308594 181.160156 260.976562 181.820312 260.320312 C 183.136719 259.003906 183.136719 256.863281 181.820312 255.546875 C 180.503906 254.230469 178.363281 254.230469 177.046875 255.546875 Z M 181.210938 259.710938 C 180.230469 260.691406 178.636719 260.691406 177.65625 259.710938 C 176.675781 258.730469 176.675781 257.136719 177.65625 256.15625 C 178.144531 255.664062 178.789062 255.421875 179.433594 255.421875 C 180.074219 255.421875 180.71875 255.664062 181.210938 256.15625 C 182.191406 257.136719 182.191406 258.730469 181.210938 259.710938 Z M 207.335938 260.429688 L 185.636719 260.429688 C 185.398438 260.429688 185.207031 260.625 185.207031 260.863281 C 185.207031 261.101562 185.398438 261.292969 185.636719 261.292969 L 207.335938 261.292969 C 207.574219 261.292969 207.765625 261.101562 207.765625 260.863281 C 207.765625 260.625 207.574219 260.429688 207.335938 260.429688 Z M 205.867188 220.265625 C 205.785156 220.1875 205.675781 220.140625 205.5625 220.140625 L 170.597656 220.140625 C 170.359375 220.140625 170.167969 220.332031 170.167969 220.570312 L 170.167969 224.40625 L 166.332031 224.40625 C 166.09375 224.40625 165.902344 224.597656 165.902344 224.835938 L 165.902344 271.628906 C 165.902344 271.867188 166.09375 272.0625 166.332031 272.0625 L 208.492188 272.0625 C 208.730469 272.0625 208.925781 271.867188 208.925781 271.628906 L 208.925781 267.796875 L 212.757812 267.796875 C 212.996094 267.796875 213.191406 267.601562 213.191406 267.363281 L 213.191406 227.769531 C 213.191406 227.652344 213.144531 227.542969 213.0625 227.464844 Z M 205.890625 221.507812 L 211.71875 227.335938 L 205.890625 227.335938 Z M 212.328125 266.933594 L 171.027344 266.933594 L 171.027344 221.003906 L 205.03125 221.003906 L 205.03125 227.769531 C 205.03125 228.007812 205.222656 228.199219 205.460938 228.199219 L 212.328125 228.199219 Z M 265.269531 148.046875 C 264.132812 148.21875 261.890625 148.640625 259.628906 149.539062 C 259.464844 149.605469 259.355469 149.765625 259.359375 149.941406 C 259.363281 150.988281 260.515625 152.152344 261.824219 152.433594 C 261.984375 152.464844 262.191406 152.496094 262.4375 152.496094 C 263.433594 152.496094 265.003906 152.003906 266.214844 149.335938 C 266.355469 149.015625 266.320312 148.65625 266.117188 148.386719 C 265.917969 148.125 265.609375 147.996094 265.269531 148.046875 Z M 265.429688 148.980469 C 264.539062 150.941406 263.324219 151.871094 262.003906 151.589844 C 261.109375 151.398438 260.464844 150.722656 260.273438 150.210938 C 262.34375 149.433594 264.355469 149.058594 265.398438 148.898438 " fill-opacity="1" fill-rule="nonzero"/></g><g clip-path="url(#9506ce8ca8)"><path fill="#f5f6f7" d="M 278.621094 78.464844 C 278.621094 79.160156 278.585938 79.859375 278.519531 80.550781 C 278.449219 81.246094 278.347656 81.9375 278.210938 82.621094 C 278.074219 83.304688 277.90625 83.980469 277.703125 84.648438 C 277.5 85.316406 277.265625 85.972656 277 86.617188 C 276.730469 87.261719 276.433594 87.890625 276.105469 88.507812 C 275.777344 89.121094 275.417969 89.71875 275.03125 90.300781 C 274.644531 90.878906 274.226562 91.441406 273.785156 91.980469 C 273.34375 92.519531 272.875 93.035156 272.378906 93.527344 C 271.886719 94.023438 271.371094 94.488281 270.832031 94.933594 C 270.292969 95.375 269.734375 95.789062 269.152344 96.179688 C 268.570312 96.566406 267.972656 96.921875 267.359375 97.253906 C 266.742188 97.582031 266.113281 97.878906 265.46875 98.148438 C 264.824219 98.414062 264.167969 98.648438 263.5 98.851562 C 262.832031 99.054688 262.15625 99.222656 261.472656 99.359375 C 260.789062 99.496094 260.097656 99.597656 259.40625 99.664062 C 258.710938 99.734375 258.015625 99.769531 257.316406 99.769531 C 256.617188 99.769531 255.921875 99.734375 255.226562 99.664062 C 254.535156 99.597656 253.84375 99.496094 253.160156 99.359375 C 252.476562 99.222656 251.800781 99.054688 251.132812 98.851562 C 250.464844 98.648438 249.808594 98.414062 249.164062 98.148438 C 248.519531 97.878906 247.886719 97.582031 247.273438 97.253906 C 246.65625 96.921875 246.058594 96.566406 245.480469 96.179688 C 244.898438 95.789062 244.339844 95.375 243.800781 94.933594 C 243.261719 94.488281 242.746094 94.023438 242.25 93.527344 C 241.757812 93.035156 241.289062 92.519531 240.847656 91.980469 C 240.40625 91.441406 239.988281 90.878906 239.601562 90.300781 C 239.214844 89.71875 238.855469 89.121094 238.527344 88.507812 C 238.199219 87.890625 237.898438 87.261719 237.632812 86.617188 C 237.367188 85.972656 237.132812 85.316406 236.929688 84.648438 C 236.726562 83.980469 236.558594 83.304688 236.421875 82.621094 C 236.285156 81.9375 236.183594 81.246094 236.113281 80.550781 C 236.046875 79.859375 236.011719 79.160156 236.011719 78.464844 C 236.011719 77.765625 236.046875 77.070312 236.113281 76.375 C 236.183594 75.679688 236.285156 74.992188 236.421875 74.308594 C 236.558594 73.621094 236.726562 72.945312 236.929688 72.277344 C 237.132812 71.613281 237.367188 70.957031 237.632812 70.3125 C 237.898438 69.667969 238.199219 69.035156 238.527344 68.421875 C 238.855469 67.804688 239.214844 67.207031 239.601562 66.628906 C 239.988281 66.046875 240.40625 65.488281 240.847656 64.949219 C 241.289062 64.410156 241.757812 63.890625 242.25 63.398438 C 242.746094 62.90625 243.261719 62.4375 243.800781 61.996094 C 244.339844 61.550781 244.898438 61.136719 245.480469 60.75 C 246.058594 60.363281 246.65625 60.003906 247.273438 59.675781 C 247.886719 59.347656 248.519531 59.046875 249.164062 58.78125 C 249.808594 58.515625 250.464844 58.277344 251.132812 58.078125 C 251.800781 57.875 252.476562 57.703125 253.160156 57.570312 C 253.84375 57.433594 254.535156 57.328125 255.226562 57.261719 C 255.921875 57.191406 256.617188 57.160156 257.316406 57.160156 C 258.015625 57.160156 258.710938 57.191406 259.40625 57.261719 C 260.097656 57.328125 260.789062 57.433594 261.472656 57.570312 C 262.15625 57.703125 262.832031 57.875 263.5 58.078125 C 264.167969 58.277344 264.824219 58.515625 265.46875 58.78125 C 266.113281 59.046875 266.742188 59.347656 267.359375 59.675781 C 267.972656 60.003906 268.570312 60.363281 269.152344 60.75 C 269.734375 61.136719 270.292969 61.550781 270.832031 61.996094 C 271.371094 62.4375 271.886719 62.90625 272.378906 63.398438 C 272.875 63.890625 273.34375 64.410156 273.785156 64.949219 C 274.226562 65.488281 274.644531 66.046875 275.03125 66.628906 C 275.417969 67.207031 275.777344 67.804688 276.105469 68.421875 C 276.433594 69.035156 276.730469 69.667969 277 70.3125 C 277.265625 70.957031 277.5 71.613281 277.703125 72.277344 C 277.90625 72.945312 278.074219 73.621094 278.210938 74.308594 C 278.347656 74.992188 278.449219 75.679688 278.519531 76.375 C 278.585938 77.070312 278.621094 77.765625 278.621094 78.464844 Z M 278.621094 78.464844 " fill-opacity="1" fill-rule="nonzero"/></g><g clip-path="url(#51b34cabca)"><g clip-path="url(#84ac3d3486)"><path fill="#f5f6f7" d="M 185.714844 23.804688 L 215.835938 23.804688 L 215.835938 53.925781 L 185.714844 53.925781 Z M 185.714844 23.804688 " fill-opacity="1" fill-rule="nonzero"/></g></g><g clip-path="url(#a413c616da)"><path fill="#ffcd77" d="M 212.777344 46.273438 C 214.945312 46.273438 215.746094 44.761719 216.5 42.492188 C 217.277344 40.160156 217.246094 37.914062 216.5 34.925781 C 215.960938 32.769531 214.945312 31.144531 212.777344 31.144531 L 209.980469 31.144531 L 209.980469 34.453125 C 209.980469 37.015625 207.808594 39.175781 205.328125 39.175781 L 197.882812 39.175781 C 195.84375 39.175781 194.160156 40.917969 194.160156 42.960938 L 194.160156 50.058594 C 194.160156 52.078125 195.914062 53.265625 197.882812 53.84375 C 200.238281 54.535156 202.503906 54.65625 205.324219 53.84375 C 207.199219 53.300781 209.046875 52.203125 209.046875 50.058594 L 209.046875 47.222656 L 201.609375 47.222656 L 201.609375 46.273438 Z M 205.792969 49.109375 C 206.566406 49.109375 207.195312 49.746094 207.195312 50.527344 C 207.195312 51.3125 206.566406 51.949219 205.792969 51.949219 C 205.023438 51.949219 204.390625 51.304688 204.390625 50.527344 C 204.398438 49.738281 205.027344 49.109375 205.792969 49.109375 Z M 205.792969 49.109375 " fill-opacity="1" fill-rule="nonzero"/></g><g clip-path="url(#9b66c3c1ad)"><path fill="#366994" d="M 190.324219 46.273438 L 192.882812 46.273438 L 192.882812 42.871094 C 192.882812 40.410156 195.007812 38.242188 197.539062 38.242188 L 204.980469 38.242188 C 207.050781 38.242188 208.703125 36.535156 208.703125 34.457031 L 208.703125 27.355469 C 208.703125 25.335938 207.003906 23.820312 204.980469 23.480469 C 202.488281 23.066406 199.773438 23.089844 197.539062 23.488281 C 194.386719 24.042969 193.820312 25.207031 193.820312 27.359375 L 193.820312 30.199219 L 201.269531 30.199219 L 201.269531 31.148438 L 191.023438 31.148438 C 188.855469 31.148438 186.957031 32.449219 186.367188 34.925781 C 185.683594 37.761719 185.65625 39.53125 186.367188 42.496094 C 186.894531 44.699219 188.160156 46.273438 190.324219 46.273438 Z M 197.074219 28.300781 C 196.300781 28.300781 195.671875 27.667969 195.671875 26.886719 C 195.679688 26.097656 196.300781 25.464844 197.074219 25.464844 C 197.839844 25.464844 198.472656 26.105469 198.472656 26.886719 C 198.472656 27.667969 197.847656 28.300781 197.074219 28.300781 Z M 197.074219 28.300781 " fill-opacity="1" fill-rule="nonzero"/></g><g clip-path="url(#7a38c3ebc4)"><path fill="#35668f" d="M 270.597656 71.785156 C 269.804688 69.96875 268.5 68.417969 266.839844 67.328125 C 265.175781 66.238281 263.238281 65.652344 261.253906 65.648438 C 258.363281 65.640625 255.613281 66.871094 253.6875 69.019531 C 252.867188 68.796875 252.011719 68.714844 251.164062 68.789062 C 249.085938 68.980469 247.1875 70.058594 245.964844 71.746094 C 245.675781 71.714844 245.390625 71.699219 245.105469 71.699219 C 242.445312 71.699219 239.992188 73.113281 238.664062 75.417969 C 237.332031 77.722656 237.332031 80.558594 238.664062 82.859375 C 239.992188 85.164062 242.445312 86.582031 245.105469 86.582031 L 248.628906 86.582031 L 248.625 86.582031 C 249.152344 86.582031 249.578125 86.15625 249.578125 85.632812 C 249.578125 85.105469 249.152344 84.679688 248.625 84.679688 L 245.105469 84.679688 C 243.125 84.679688 241.296875 83.625 240.304688 81.910156 C 239.316406 80.195312 239.316406 78.082031 240.304688 76.367188 C 241.296875 74.652344 243.125 73.59375 245.105469 73.59375 C 245.484375 73.597656 245.859375 73.636719 246.230469 73.710938 L 246.890625 73.851562 L 247.238281 73.265625 C 248.101562 71.804688 249.621094 70.84375 251.3125 70.683594 C 252.101562 70.613281 252.902344 70.722656 253.644531 71.007812 L 254.292969 71.25 L 254.722656 70.707031 C 255.949219 69.160156 257.6875 68.105469 259.628906 67.722656 C 261.5625 67.34375 263.574219 67.667969 265.289062 68.636719 C 267.007812 69.609375 268.328125 71.15625 269.007812 73.007812 L 269.222656 73.59375 L 269.839844 73.632812 C 271.8125 73.695312 273.601562 74.8125 274.535156 76.554688 C 275.46875 78.296875 275.398438 80.410156 274.351562 82.085938 C 273.308594 83.765625 271.449219 84.757812 269.472656 84.691406 L 265.878906 84.691406 C 265.355469 84.691406 264.929688 85.117188 264.929688 85.640625 C 264.929688 86.164062 265.355469 86.589844 265.878906 86.589844 L 269.5 86.589844 C 272.03125 86.597656 274.394531 85.316406 275.765625 83.191406 C 277.144531 81.0625 277.339844 78.386719 276.296875 76.078125 C 275.25 73.777344 273.101562 72.160156 270.597656 71.796875 L 270.597656 71.785156 " fill-opacity="1" fill-rule="nonzero"/></g><g clip-path="url(#27bea23e5f)"><path fill="#35668f" d="M 261.515625 83.914062 C 261.496094 83.273438 261.410156 82.632812 261.25 82.007812 L 263.035156 82.007812 C 263.269531 82.625 263.40625 83.269531 263.429688 83.921875 Z M 262.894531 86.734375 L 261.167969 86.734375 C 261.347656 86.117188 261.460938 85.476562 261.503906 84.835938 L 263.417969 84.835938 C 263.347656 85.496094 263.164062 86.136719 262.882812 86.734375 Z M 259.605469 89.835938 C 260.121094 89.164062 260.539062 88.433594 260.867188 87.652344 L 262.371094 87.652344 C 261.6875 88.636719 260.722656 89.394531 259.605469 89.835938 Z M 258.105469 90.214844 L 257.839844 90.234375 L 257.839844 87.652344 L 259.832031 87.652344 C 259.40625 88.554688 258.84375 89.378906 258.160156 90.101562 C 258.136719 90.136719 258.121094 90.171875 258.105469 90.214844 Z M 257.839844 84.835938 L 260.601562 84.835938 C 260.550781 85.480469 260.421875 86.117188 260.21875 86.734375 L 257.839844 86.734375 Z M 257.839844 82.007812 L 260.316406 82.007812 C 260.488281 82.628906 260.582031 83.269531 260.601562 83.914062 L 257.839844 83.914062 Z M 257.839844 78.121094 L 258.066406 78.121094 C 258.894531 78.972656 259.554688 79.972656 260.007812 81.070312 L 257.839844 81.070312 Z M 262.585938 81.089844 L 260.988281 81.089844 C 260.65625 80.167969 260.1875 79.300781 259.605469 78.519531 C 260.863281 79.019531 261.914062 79.921875 262.601562 81.089844 Z M 256.894531 81.089844 L 254.742188 81.089844 C 255.195312 79.984375 255.851562 78.976562 256.6875 78.121094 L 256.917969 78.121094 Z M 256.894531 83.914062 L 254.132812 83.914062 C 254.152344 83.269531 254.25 82.628906 254.417969 82.007812 L 256.902344 82.007812 Z M 256.894531 86.734375 L 254.539062 86.734375 C 254.335938 86.117188 254.207031 85.480469 254.15625 84.835938 L 256.921875 84.835938 Z M 256.894531 90.234375 L 256.625 90.210938 C 256.609375 90.179688 256.59375 90.148438 256.570312 90.121094 C 255.882812 89.390625 255.320312 88.5625 254.898438 87.652344 L 256.894531 87.652344 Z M 252.378906 87.652344 L 253.878906 87.652344 C 254.207031 88.433594 254.628906 89.164062 255.136719 89.835938 C 254.027344 89.390625 253.078125 88.632812 252.394531 87.652344 Z M 251.3125 84.835938 L 253.226562 84.835938 C 253.269531 85.476562 253.382812 86.117188 253.5625 86.734375 L 251.867188 86.734375 C 251.578125 86.136719 251.390625 85.496094 251.3125 84.835938 Z M 251.707031 82.023438 L 253.488281 82.023438 C 253.335938 82.648438 253.242188 83.285156 253.226562 83.929688 L 251.3125 83.929688 C 251.335938 83.269531 251.46875 82.617188 251.707031 82.003906 Z M 255.164062 78.542969 C 254.582031 79.328125 254.117188 80.191406 253.78125 81.113281 L 252.148438 81.113281 C 252.832031 79.933594 253.894531 79.019531 255.164062 78.519531 Z M 257.378906 77.199219 C 255.527344 77.207031 253.757812 77.941406 252.449219 79.25 C 251.140625 80.558594 250.402344 82.328125 250.390625 84.175781 L 250.390625 84.332031 C 250.390625 84.347656 250.390625 84.359375 250.390625 84.375 C 250.390625 84.394531 250.390625 84.417969 250.390625 84.4375 C 250.453125 86.894531 251.800781 89.132812 253.933594 90.34375 C 256.074219 91.550781 258.6875 91.550781 260.820312 90.34375 C 262.960938 89.132812 264.304688 86.894531 264.367188 84.4375 C 264.367188 84.417969 264.367188 84.394531 264.367188 84.375 C 264.367188 84.359375 264.367188 84.347656 264.367188 84.332031 L 264.367188 84.175781 C 264.359375 82.328125 263.617188 80.554688 262.308594 79.246094 C 261.003906 77.9375 259.226562 77.207031 257.378906 77.199219 " fill-opacity="1" fill-rule="nonzero"/></g><path fill="#366994" d="M 142.363281 278.464844 L 144.699219 278.464844 L 144.699219 280.800781 L 142.363281 280.800781 Z M 142.363281 278.464844 " fill-opacity="1" fill-rule="nonzero"/><path fill="#366994" d="M 138.859375 278.464844 L 141.195312 278.464844 L 141.195312 280.800781 L 138.859375 280.800781 Z M 138.859375 278.464844 " fill-opacity="1" fill-rule="nonzero"/><path fill="#366994" d="M 142.363281 274.960938 L 144.699219 274.960938 L 144.699219 277.296875 L 142.363281 277.296875 Z M 142.363281 274.960938 " fill-opacity="1" fill-rule="nonzero"/><g clip-path="url(#12ba80efbe)"><path fill="#366994" d="M 143.53125 239.941406 L 82.824219 239.941406 C 82.515625 239.941406 82.214844 239.96875 81.914062 240.03125 C 81.613281 240.089844 81.320312 240.179688 81.035156 240.296875 C 80.753906 240.414062 80.484375 240.554688 80.230469 240.726562 C 79.976562 240.898438 79.738281 241.089844 79.523438 241.308594 C 79.304688 241.523438 79.113281 241.761719 78.941406 242.015625 C 78.769531 242.269531 78.628906 242.539062 78.511719 242.824219 C 78.390625 243.105469 78.304688 243.398438 78.242188 243.699219 C 78.183594 244 78.15625 244.304688 78.15625 244.609375 L 78.15625 279.632812 C 78.15625 279.9375 78.183594 280.242188 78.242188 280.542969 C 78.304688 280.84375 78.390625 281.136719 78.511719 281.417969 C 78.628906 281.703125 78.769531 281.972656 78.941406 282.226562 C 79.113281 282.480469 79.304688 282.71875 79.523438 282.933594 C 79.738281 283.152344 79.976562 283.34375 80.230469 283.515625 C 80.484375 283.6875 80.753906 283.828125 81.035156 283.945312 C 81.320312 284.0625 81.613281 284.152344 81.914062 284.210938 C 82.214844 284.273438 82.515625 284.300781 82.824219 284.300781 L 83.992188 284.300781 L 83.992188 305.316406 C 83.992188 305.625 84.050781 305.921875 84.167969 306.210938 C 84.289062 306.496094 84.457031 306.746094 84.675781 306.96875 C 84.894531 307.1875 85.148438 307.355469 85.433594 307.472656 C 85.71875 307.589844 86.015625 307.652344 86.328125 307.652344 L 107.339844 307.652344 C 107.648438 307.652344 107.949219 307.589844 108.234375 307.472656 C 108.519531 307.355469 108.773438 307.1875 108.992188 306.96875 C 109.210938 306.746094 109.378906 306.496094 109.496094 306.210938 C 109.617188 305.921875 109.675781 305.625 109.675781 305.316406 L 109.675781 284.300781 L 143.53125 284.300781 C 143.835938 284.300781 144.140625 284.273438 144.441406 284.210938 C 144.742188 284.152344 145.035156 284.0625 145.316406 283.945312 C 145.601562 283.828125 145.871094 283.6875 146.125 283.515625 C 146.378906 283.34375 146.617188 283.152344 146.832031 282.933594 C 147.050781 282.71875 147.242188 282.480469 147.414062 282.226562 C 147.582031 281.972656 147.726562 281.703125 147.84375 281.417969 C 147.960938 281.136719 148.050781 280.84375 148.109375 280.542969 C 148.171875 280.242188 148.199219 279.9375 148.199219 279.632812 L 148.199219 244.609375 C 148.199219 244.304688 148.171875 244 148.109375 243.699219 C 148.050781 243.398438 147.960938 243.105469 147.84375 242.824219 C 147.726562 242.539062 147.582031 242.269531 147.414062 242.015625 C 147.242188 241.761719 147.050781 241.523438 146.832031 241.308594 C 146.617188 241.089844 146.378906 240.898438 146.125 240.726562 C 145.871094 240.554688 145.601562 240.414062 145.316406 240.296875 C 145.035156 240.179688 144.742188 240.089844 144.441406 240.03125 C 144.140625 239.96875 143.835938 239.941406 143.53125 239.941406 Z M 82.824219 242.273438 L 143.53125 242.273438 C 143.839844 242.273438 144.136719 242.335938 144.425781 242.453125 C 144.710938 242.570312 144.960938 242.738281 145.179688 242.957031 C 145.398438 243.175781 145.570312 243.429688 145.6875 243.714844 C 145.804688 244.003906 145.867188 244.300781 145.867188 244.609375 L 145.867188 249.28125 L 80.488281 249.28125 L 80.488281 244.609375 C 80.488281 244.300781 80.546875 244.003906 80.667969 243.714844 C 80.785156 243.429688 80.953125 243.175781 81.171875 242.957031 C 81.390625 242.738281 81.644531 242.570312 81.929688 242.453125 C 82.214844 242.335938 82.515625 242.273438 82.824219 242.273438 Z M 86.328125 305.316406 L 86.328125 276.128906 L 107.339844 276.128906 L 107.339844 305.316406 Z M 143.53125 281.96875 L 109.675781 281.96875 L 109.675781 276.128906 C 109.675781 275.820312 109.617188 275.523438 109.496094 275.238281 C 109.378906 274.949219 109.210938 274.699219 108.992188 274.480469 C 108.773438 274.261719 108.519531 274.089844 108.234375 273.972656 C 107.949219 273.855469 107.648438 273.796875 107.339844 273.796875 L 86.328125 273.796875 C 86.015625 273.796875 85.71875 273.855469 85.433594 273.972656 C 85.148438 274.089844 84.894531 274.261719 84.675781 274.480469 C 84.457031 274.699219 84.289062 274.949219 84.167969 275.238281 C 84.050781 275.523438 83.992188 275.820312 83.992188 276.128906 L 83.992188 281.96875 L 82.824219 281.96875 C 82.515625 281.96875 82.214844 281.90625 81.929688 281.789062 C 81.644531 281.671875 81.390625 281.503906 81.171875 281.285156 C 80.953125 281.066406 80.785156 280.8125 80.667969 280.527344 C 80.546875 280.238281 80.488281 279.941406 80.488281 279.632812 L 80.488281 251.613281 L 145.867188 251.613281 L 145.867188 279.632812 C 145.867188 279.941406 145.804688 280.238281 145.6875 280.527344 C 145.570312 280.8125 145.398438 281.066406 145.179688 281.285156 C 144.960938 281.503906 144.710938 281.671875 144.425781 281.789062 C 144.136719 281.90625 143.839844 281.96875 143.53125 281.96875 Z M 143.53125 281.96875 " fill-opacity="1" fill-rule="nonzero"/></g><path fill="#366994" d="M 82.824219 244.609375 L 85.160156 244.609375 L 85.160156 246.945312 L 82.824219 246.945312 Z M 82.824219 244.609375 " fill-opacity="1" fill-rule="nonzero"/><path fill="#366994" d="M 86.328125 244.609375 L 88.660156 244.609375 L 88.660156 246.945312 L 86.328125 246.945312 Z M 86.328125 244.609375 " fill-opacity="1" fill-rule="nonzero"/><path fill="#366994" d="M 89.828125 244.609375 L 92.164062 244.609375 L 92.164062 246.945312 L 89.828125 246.945312 Z M 89.828125 244.609375 " fill-opacity="1" fill-rule="nonzero"/><path fill="#366994" d="M 132.375 246.75 L 135.878906 249.082031 L 137.171875 247.140625 L 135.125 245.777344 L 137.171875 244.414062 L 135.875 242.472656 L 132.371094 244.804688 C 132.210938 244.914062 132.082031 245.054688 131.992188 245.226562 C 131.898438 245.398438 131.851562 245.582031 131.851562 245.777344 C 131.851562 245.972656 131.898438 246.15625 131.992188 246.328125 C 132.082031 246.5 132.210938 246.640625 132.371094 246.75 Z M 132.375 246.75 " fill-opacity="1" fill-rule="nonzero"/><path fill="#366994" d="M 140.675781 249.082031 L 144.179688 246.75 C 144.339844 246.640625 144.46875 246.5 144.558594 246.328125 C 144.652344 246.15625 144.699219 245.972656 144.699219 245.777344 C 144.699219 245.582031 144.652344 245.398438 144.558594 245.226562 C 144.46875 245.054688 144.339844 244.914062 144.179688 244.804688 L 140.675781 242.472656 L 139.378906 244.414062 L 141.429688 245.777344 L 139.382812 247.140625 Z M 140.675781 249.082031 " fill-opacity="1" fill-rule="nonzero"/><path fill="#366994" d="M 90.171875 253.125 L 83.167969 260.128906 C 83.058594 260.238281 82.972656 260.363281 82.914062 260.507812 C 82.855469 260.648438 82.824219 260.800781 82.824219 260.953125 C 82.824219 261.109375 82.855469 261.257812 82.914062 261.398438 C 82.972656 261.542969 83.058594 261.667969 83.167969 261.777344 L 90.171875 268.785156 L 91.820312 267.132812 L 85.640625 260.953125 L 91.820312 254.773438 Z M 90.171875 253.125 " fill-opacity="1" fill-rule="nonzero"/><path fill="#366994" d="M 98.824219 253.125 L 97.175781 254.773438 L 103.355469 260.953125 L 97.175781 267.132812 L 98.824219 268.785156 L 105.832031 261.777344 C 105.941406 261.667969 106.023438 261.542969 106.082031 261.398438 C 106.144531 261.257812 106.171875 261.109375 106.171875 260.953125 C 106.171875 260.800781 106.144531 260.648438 106.082031 260.507812 C 106.023438 260.363281 105.941406 260.238281 105.832031 260.128906 Z M 98.824219 253.125 " fill-opacity="1" fill-rule="nonzero"/><path fill="#366994" d="M 113.175781 252.78125 L 124.851562 252.78125 L 124.851562 255.117188 L 113.175781 255.117188 Z M 113.175781 252.78125 " fill-opacity="1" fill-rule="nonzero"/><path fill="#366994" d="M 113.175781 256.285156 L 119.015625 256.285156 L 119.015625 258.617188 L 113.175781 258.617188 Z M 113.175781 256.285156 " fill-opacity="1" fill-rule="nonzero"/><path fill="#366994" d="M 113.175781 259.785156 L 126.019531 259.785156 L 126.019531 262.121094 L 113.175781 262.121094 Z M 113.175781 259.785156 " fill-opacity="1" fill-rule="nonzero"/><path fill="#366994" d="M 127.1875 259.785156 L 133.023438 259.785156 L 133.023438 262.121094 L 127.1875 262.121094 Z M 127.1875 259.785156 " fill-opacity="1" fill-rule="nonzero"/><path fill="#366994" d="M 113.175781 277.296875 L 126.019531 277.296875 L 126.019531 279.632812 L 113.175781 279.632812 Z M 113.175781 277.296875 " fill-opacity="1" fill-rule="nonzero"/><path fill="#366994" d="M 127.1875 277.296875 L 133.023438 277.296875 L 133.023438 279.632812 L 127.1875 279.632812 Z M 127.1875 277.296875 " fill-opacity="1" fill-rule="nonzero"/><path fill="#366994" d="M 120.183594 256.285156 L 126.019531 256.285156 L 126.019531 258.617188 L 120.183594 258.617188 Z M 120.183594 256.285156 " fill-opacity="1" fill-rule="nonzero"/><path fill="#366994" d="M 113.175781 263.289062 L 126.019531 263.289062 L 126.019531 265.625 L 113.175781 265.625 Z M 113.175781 263.289062 " fill-opacity="1" fill-rule="nonzero"/><path fill="#366994" d="M 127.1875 263.289062 L 136.527344 263.289062 L 136.527344 265.625 L 127.1875 265.625 Z M 127.1875 263.289062 " fill-opacity="1" fill-rule="nonzero"/><path fill="#366994" d="M 113.175781 273.796875 L 126.019531 273.796875 L 126.019531 276.128906 L 113.175781 276.128906 Z M 113.175781 273.796875 " fill-opacity="1" fill-rule="nonzero"/><path fill="#366994" d="M 127.1875 273.796875 L 136.527344 273.796875 L 136.527344 276.128906 L 127.1875 276.128906 Z M 127.1875 273.796875 " fill-opacity="1" fill-rule="nonzero"/><path fill="#366994" d="M 113.175781 266.789062 L 126.019531 266.789062 L 126.019531 269.125 L 113.175781 269.125 Z M 113.175781 266.789062 " fill-opacity="1" fill-rule="nonzero"/><path fill="#366994" d="M 127.1875 266.789062 L 136.527344 266.789062 L 136.527344 269.125 L 127.1875 269.125 Z M 127.1875 266.789062 " fill-opacity="1" fill-rule="nonzero"/><path fill="#366994" d="M 113.175781 270.292969 L 122.515625 270.292969 L 122.515625 272.628906 L 113.175781 272.628906 Z M 113.175781 270.292969 " fill-opacity="1" fill-rule="nonzero"/><path fill="#366994" d="M 137.691406 266.789062 L 143.53125 266.789062 L 143.53125 269.125 L 137.691406 269.125 Z M 137.691406 266.789062 " fill-opacity="1" fill-rule="nonzero"/><path fill="#366994" d="M 123.683594 270.292969 L 129.519531 270.292969 L 129.519531 272.628906 L 123.683594 272.628906 Z M 123.683594 270.292969 " fill-opacity="1" fill-rule="nonzero"/><path fill="#366994" d="M 98 287.804688 L 101.503906 287.804688 L 101.503906 285.46875 L 94.5 285.46875 L 94.5 283.136719 L 96.832031 283.136719 L 96.832031 280.800781 L 90.996094 280.800781 L 90.996094 277.296875 L 88.660156 277.296875 L 88.660156 281.96875 C 88.660156 282.121094 88.691406 282.269531 88.75 282.414062 C 88.808594 282.558594 88.894531 282.683594 89.003906 282.792969 C 89.113281 282.902344 89.238281 282.988281 89.382812 283.046875 C 89.523438 283.105469 89.675781 283.136719 89.828125 283.136719 L 92.164062 283.136719 L 92.164062 286.636719 C 92.164062 286.792969 92.191406 286.941406 92.253906 287.082031 C 92.3125 287.226562 92.394531 287.351562 92.503906 287.460938 C 92.613281 287.570312 92.742188 287.65625 92.882812 287.714844 C 93.027344 287.773438 93.175781 287.804688 93.332031 287.804688 L 95.664062 287.804688 L 95.664062 292.472656 C 95.664062 292.628906 95.695312 292.777344 95.753906 292.921875 C 95.8125 293.0625 95.898438 293.191406 96.007812 293.300781 C 96.117188 293.410156 96.242188 293.492188 96.386719 293.554688 C 96.53125 293.613281 96.679688 293.640625 96.832031 293.640625 L 105.003906 293.640625 L 105.003906 291.308594 L 98 291.308594 Z M 98 287.804688 " fill-opacity="1" fill-rule="nonzero"/><path fill="#366994" d="M 94.5 298.3125 L 96.832031 298.3125 L 96.832031 295.976562 L 90.996094 295.976562 L 90.996094 292.472656 L 88.660156 292.472656 L 88.660156 297.144531 C 88.660156 297.296875 88.691406 297.449219 88.75 297.589844 C 88.808594 297.734375 88.894531 297.859375 89.003906 297.96875 C 89.113281 298.078125 89.238281 298.164062 89.382812 298.222656 C 89.523438 298.28125 89.675781 298.3125 89.828125 298.3125 L 92.164062 298.3125 L 92.164062 301.8125 C 92.164062 301.96875 92.191406 302.117188 92.253906 302.261719 C 92.3125 302.402344 92.394531 302.53125 92.503906 302.640625 C 92.613281 302.75 92.742188 302.832031 92.882812 302.890625 C 93.027344 302.953125 93.175781 302.980469 93.332031 302.980469 L 105.003906 302.980469 L 105.003906 300.644531 L 94.5 300.644531 Z M 94.5 298.3125 " fill-opacity="1" fill-rule="nonzero"/></svg>