<svg xmlns="http://www.w3.org/2000/svg" xmlns:xlink="http://www.w3.org/1999/xlink" width="500" zoomAndPan="magnify" viewBox="0 0 375 374.999991" height="500" preserveAspectRatio="xMidYMid meet" version="1.0"><defs><clipPath id="ea9de31cfd"><path d="M 22.835938 41.566406 L 352.085938 41.566406 L 352.085938 333.316406 L 22.835938 333.316406 Z M 22.835938 41.566406 " clip-rule="nonzero"/></clipPath><clipPath id="de8028ebf2"><path d="M 22.835938 139.640625 L 352.085938 139.640625 L 352.085938 236.390625 L 22.835938 236.390625 Z M 22.835938 139.640625 " clip-rule="nonzero"/></clipPath></defs><g clip-path="url(#ea9de31cfd)"><path fill="#35668f" d="M 68.691406 41.59375 C 89.527344 41.59375 107.21875 55.792969 112.722656 74.945312 L 352.15625 74.945312 L 352.15625 99.957031 L 112.722656 99.957031 C 107.210938 119.09375 89.515625 133.304688 68.691406 133.304688 C 43.515625 133.304688 22.835938 112.625 22.835938 87.449219 C 22.835938 62.273438 43.515625 41.59375 68.691406 41.59375 Z M 243.773438 141.640625 C 264.609375 141.640625 282.300781 155.835938 287.804688 174.992188 L 352.15625 174.992188 L 352.15625 200.003906 L 287.804688 200.003906 C 282.292969 219.140625 264.597656 233.351562 243.773438 233.351562 C 222.949219 233.351562 205.253906 219.140625 199.742188 200.003906 L 23.210938 199.949219 L 23.210938 174.9375 L 199.742188 174.992188 C 205.246094 155.835938 222.9375 141.640625 243.773438 141.640625 Z M 135.390625 241.6875 C 156.226562 241.6875 173.917969 255.882812 179.421875 275.039062 L 352.15625 275.039062 L 352.15625 300.050781 L 179.421875 300.050781 C 173.90625 319.1875 156.214844 333.398438 135.390625 333.398438 C 114.566406 333.398438 96.871094 319.1875 91.359375 300.050781 L 23.210938 299.996094 L 23.210938 274.984375 L 91.359375 275.039062 C 96.863281 255.882812 114.554688 241.6875 135.390625 241.6875 Z M 135.390625 241.6875 " fill-opacity="1" fill-rule="nonzero"/></g><g clip-path="url(#de8028ebf2)"><path fill="#ffcd77" d="M 68.691406 41.59375 C 89.527344 41.59375 107.21875 55.792969 112.722656 74.945312 L 352.15625 74.945312 L 352.15625 99.957031 L 112.722656 99.957031 C 107.210938 119.09375 89.515625 133.304688 68.691406 133.304688 C 43.515625 133.304688 22.835938 112.625 22.835938 87.449219 C 22.835938 62.273438 43.515625 41.59375 68.691406 41.59375 Z M 243.773438 141.640625 C 264.609375 141.640625 282.300781 155.835938 287.804688 174.992188 L 352.15625 174.992188 L 352.15625 200.003906 L 287.804688 200.003906 C 282.292969 219.140625 264.597656 233.351562 243.773438 233.351562 C 222.949219 233.351562 205.253906 219.140625 199.742188 200.003906 L 23.210938 199.949219 L 23.210938 174.9375 L 199.742188 174.992188 C 205.246094 155.835938 222.9375 141.640625 243.773438 141.640625 Z M 135.390625 241.6875 C 156.226562 241.6875 173.917969 255.882812 179.421875 275.039062 L 352.15625 275.039062 L 352.15625 300.050781 L 179.421875 300.050781 C 173.90625 319.1875 156.214844 333.398438 135.390625 333.398438 C 114.566406 333.398438 96.871094 319.1875 91.359375 300.050781 L 23.210938 299.996094 L 23.210938 274.984375 L 91.359375 275.039062 C 96.863281 255.882812 114.554688 241.6875 135.390625 241.6875 Z M 135.390625 241.6875 " fill-opacity="1" fill-rule="nonzero"/></g></svg>