<svg xmlns="http://www.w3.org/2000/svg" xmlns:xlink="http://www.w3.org/1999/xlink" width="500" zoomAndPan="magnify" viewBox="0 0 375 374.999991" height="500" preserveAspectRatio="xMidYMid meet" version="1.0"><defs><clipPath id="2180156fe0"><path d="M 30 44.71875 L 345 44.71875 L 345 235 L 30 235 Z M 30 44.71875 " clip-rule="nonzero"/></clipPath><clipPath id="8aa26ef5a9"><path d="M 46 205 L 100 205 L 100 330.46875 L 46 330.46875 Z M 46 205 " clip-rule="nonzero"/></clipPath><clipPath id="4508e42d48"><path d="M 119 175 L 173 175 L 173 330.46875 L 119 330.46875 Z M 119 175 " clip-rule="nonzero"/></clipPath><clipPath id="67d8b5880b"><path d="M 192 200 L 246 200 L 246 330.46875 L 192 330.46875 Z M 192 200 " clip-rule="nonzero"/></clipPath><clipPath id="5fd704d0c7"><path d="M 265 127 L 319 127 L 319 330.46875 L 265 330.46875 Z M 265 127 " clip-rule="nonzero"/></clipPath></defs><g clip-path="url(#2180156fe0)"><path fill="#ffcd77" d="M 342.476562 44.886719 L 273.921875 50.777344 C 272.378906 50.914062 271.707031 52.8125 272.839844 53.886719 L 290.128906 70.191406 L 286.300781 74.109375 L 283.730469 76.726562 L 270.734375 90.226562 C 265.722656 95.503906 260.730469 100.789062 255.757812 106.105469 C 252.203125 109.925781 248.648438 113.757812 245.144531 117.617188 C 236.707031 126.839844 228.367188 136.144531 220.175781 145.605469 C 216.089844 150.339844 212.027344 155.097656 208.007812 159.902344 C 206.945312 161.179688 205.890625 162.472656 204.839844 163.75 L 200.546875 161.339844 L 133.628906 123.730469 L 122.945312 117.722656 L 115.296875 126.0625 L 105.714844 136.5 L 30.308594 218.628906 L 46.152344 234.066406 L 127.730469 155.34375 L 127.738281 155.34375 L 175.488281 186.40625 L 199.914062 202.296875 L 208.765625 208.054688 L 210.792969 209.375 L 222.324219 199.273438 C 227.039062 195.136719 231.6875 190.933594 236.253906 186.660156 C 240.84375 182.386719 245.371094 178.074219 249.871094 173.734375 C 258.871094 165.039062 267.710938 156.210938 276.472656 147.308594 C 285.246094 138.398438 293.851562 129.351562 302.433594 120.273438 L 315.214844 106.558594 L 316.9375 104.667969 L 321.457031 99.738281 L 337.976562 115.3125 C 339.089844 116.367188 340.929688 115.625 341.007812 114.089844 L 344.425781 46.769531 C 344.484375 45.6875 343.570312 44.789062 342.476562 44.886719 " fill-opacity="1" fill-rule="nonzero"/></g><g clip-path="url(#8aa26ef5a9)"><path fill="#35668f" d="M 46.484375 324.476562 C 46.484375 327.695312 49.105469 330.375 52.382812 330.375 L 93.242188 330.375 C 96.449219 330.375 99.128906 327.765625 99.128906 324.476562 L 99.128906 205.277344 L 46.484375 256.070312 L 46.484375 324.476562 " fill-opacity="1" fill-rule="nonzero"/></g><g clip-path="url(#4508e42d48)"><path fill="#35668f" d="M 119.488281 185.628906 L 119.488281 324.476562 C 119.488281 327.695312 122.097656 330.375 125.386719 330.375 L 166.234375 330.375 C 169.445312 330.375 172.121094 327.765625 172.121094 324.476562 L 172.121094 203.386719 L 129.6875 175.78125 L 119.488281 185.628906 " fill-opacity="1" fill-rule="nonzero"/></g><g clip-path="url(#67d8b5880b)"><path fill="#35668f" d="M 212.253906 229.46875 L 192.484375 216.628906 L 192.484375 324.476562 C 192.484375 327.695312 195.089844 330.375 198.378906 330.375 L 239.226562 330.375 C 242.449219 330.375 245.125 327.765625 245.125 324.476562 L 245.125 200.367188 C 241.199219 204 237.089844 207.699219 232.917969 211.363281 L 212.253906 229.46875 " fill-opacity="1" fill-rule="nonzero"/></g><g clip-path="url(#5fd704d0c7)"><path fill="#35668f" d="M 287.914062 158.59375 C 279.832031 166.824219 272.425781 174.195312 265.476562 180.980469 L 265.476562 324.476562 C 265.476562 327.695312 268.09375 330.375 271.375 330.375 L 312.222656 330.375 C 315.441406 330.375 318.117188 327.765625 318.117188 324.476562 L 318.117188 127.019531 L 314.113281 131.320312 C 305.8125 140.082031 296.960938 149.417969 287.914062 158.59375 " fill-opacity="1" fill-rule="nonzero"/></g></svg>