<svg xmlns="http://www.w3.org/2000/svg" xmlns:xlink="http://www.w3.org/1999/xlink" width="500" zoomAndPan="magnify" viewBox="0 0 375 374.999991" height="500" preserveAspectRatio="xMidYMid meet" version="1.0"><defs><clipPath id="de062d60d4"><path d="M 67.558594 55 L 300.808594 55 L 300.808594 343.175781 L 67.558594 343.175781 Z M 67.558594 55 " clip-rule="nonzero"/></clipPath><clipPath id="78991bb935"><path d="M 127 19.925781 L 241 19.925781 L 241 97 L 127 97 Z M 127 19.925781 " clip-rule="nonzero"/></clipPath><clipPath id="e90d38ae4a"><path d="M 267.984375 86.996094 L 334.1875 86.996094 L 334.1875 310 L 267.984375 310 Z M 267.984375 86.996094 " clip-rule="nonzero"/></clipPath><clipPath id="c396f2394b"><path d="M 266 239 L 301 239 L 301 294 L 266 294 Z M 266 239 " clip-rule="nonzero"/></clipPath><clipPath id="9bd6e105f9"><path d="M 187.5 172.601562 L 316.144531 95.453125 L 392.515625 222.808594 L 263.875 299.953125 Z M 187.5 172.601562 " clip-rule="nonzero"/></clipPath><clipPath id="5f91040368"><path d="M 187.5 172.601562 L 316.144531 95.453125 L 392.515625 222.808594 L 263.875 299.953125 Z M 187.5 172.601562 " clip-rule="nonzero"/></clipPath><clipPath id="3575ff3e02"><path d="M 267 110 L 330 110 L 330 241 L 267 241 Z M 267 110 " clip-rule="nonzero"/></clipPath><clipPath id="a6da7419fa"><path d="M 187.5 172.601562 L 316.144531 95.453125 L 392.515625 222.808594 L 263.875 299.953125 Z M 187.5 172.601562 " clip-rule="nonzero"/></clipPath><clipPath id="9ec5c49c0d"><path d="M 187.5 172.601562 L 316.144531 95.453125 L 392.515625 222.808594 L 263.875 299.953125 Z M 187.5 172.601562 " clip-rule="nonzero"/></clipPath></defs><g clip-path="url(#de062d60d4)"><path fill="#35668f" d="M 280.632812 343.070312 L 87.738281 343.070312 C 76.921875 343.070312 67.90625 334.054688 67.90625 323.238281 L 67.90625 75.359375 C 67.90625 64.542969 76.921875 55.53125 87.738281 55.53125 L 106.664062 55.53125 C 110.269531 55.53125 113.425781 58.683594 113.425781 62.289062 C 113.425781 65.894531 110.269531 69.050781 106.664062 69.050781 L 87.738281 69.050781 C 84.132812 69.050781 81.425781 71.753906 81.425781 75.359375 L 81.425781 323.238281 C 81.425781 326.84375 84.132812 329.550781 87.738281 329.550781 L 280.632812 329.550781 C 284.238281 329.550781 286.941406 326.84375 286.941406 323.238281 L 286.941406 75.359375 C 286.941406 71.753906 284.238281 69.050781 280.632812 69.050781 L 261.703125 69.050781 C 258.097656 69.050781 254.941406 65.894531 254.941406 62.289062 C 254.941406 58.683594 258.097656 55.53125 261.703125 55.53125 L 280.632812 55.53125 C 291.449219 55.53125 300.460938 64.542969 300.460938 75.359375 L 300.460938 323.238281 C 300.460938 334.507812 291.449219 343.070312 280.632812 343.070312 Z M 280.632812 343.070312 " fill-opacity="1" fill-rule="nonzero"/></g><g clip-path="url(#78991bb935)"><path fill="#35668f" d="M 228.351562 96.542969 L 140.015625 96.542969 C 133.257812 96.542969 127.398438 91.132812 127.398438 83.921875 L 127.398438 50.574219 C 127.398438 43.8125 132.804688 37.953125 140.015625 37.953125 L 160.296875 37.953125 C 163.453125 27.585938 172.917969 19.925781 184.183594 19.925781 C 195.453125 19.925781 205.367188 27.585938 208.070312 37.953125 L 227.902344 37.953125 C 234.660156 37.953125 240.519531 43.363281 240.519531 50.574219 L 240.519531 83.921875 C 240.972656 91.132812 235.113281 96.542969 228.351562 96.542969 Z M 140.917969 83.023438 L 227 83.023438 L 227 51.472656 L 202.210938 51.472656 C 198.605469 51.472656 195.453125 48.320312 195.453125 44.714844 C 195.453125 38.402344 190.492188 33.445312 184.183594 33.445312 C 177.875 33.445312 172.917969 38.402344 172.917969 44.714844 C 172.917969 48.320312 169.761719 51.472656 166.15625 51.472656 L 140.917969 51.472656 Z M 140.917969 83.023438 " fill-opacity="1" fill-rule="nonzero"/></g><path fill="#35668f" d="M 156.691406 234.003906 L 111.171875 234.003906 L 111.171875 188.484375 L 156.691406 188.484375 Z M 124.691406 220.484375 L 143.171875 220.484375 L 143.171875 202.003906 L 124.691406 202.003906 Z M 124.691406 220.484375 " fill-opacity="1" fill-rule="nonzero"/><path fill="#35668f" d="M 250.4375 217.777344 L 182.832031 217.777344 C 179.226562 217.777344 176.070312 214.625 176.070312 211.019531 C 176.070312 207.414062 179.226562 204.257812 182.832031 204.257812 L 250.4375 204.257812 C 254.042969 204.257812 257.195312 207.414062 257.195312 211.019531 C 257.195312 214.625 254.042969 217.777344 250.4375 217.777344 Z M 250.4375 217.777344 " fill-opacity="1" fill-rule="nonzero"/><path fill="#35668f" d="M 156.691406 301.15625 L 111.171875 301.15625 L 111.171875 255.636719 L 156.691406 255.636719 Z M 124.691406 287.636719 L 143.171875 287.636719 L 143.171875 269.15625 L 124.691406 269.15625 Z M 124.691406 287.636719 " fill-opacity="1" fill-rule="nonzero"/><path fill="#35668f" d="M 242.324219 285.382812 L 182.832031 285.382812 C 179.226562 285.382812 176.070312 282.226562 176.070312 278.621094 C 176.070312 275.015625 179.226562 271.859375 182.832031 271.859375 L 242.324219 271.859375 C 245.929688 271.859375 249.082031 275.015625 249.082031 278.621094 C 249.082031 282.226562 246.378906 285.382812 242.324219 285.382812 Z M 242.324219 285.382812 " fill-opacity="1" fill-rule="nonzero"/><path fill="#35668f" d="M 156.691406 166.851562 L 111.171875 166.851562 L 111.171875 121.332031 L 156.691406 121.332031 Z M 124.691406 153.328125 L 143.171875 153.328125 L 143.171875 134.851562 L 124.691406 134.851562 Z M 124.691406 153.328125 " fill-opacity="1" fill-rule="nonzero"/><path fill="#35668f" d="M 250.4375 137.554688 L 182.832031 137.554688 C 179.226562 137.554688 176.070312 134.402344 176.070312 130.796875 C 176.070312 127.191406 179.226562 124.035156 182.832031 124.035156 L 250.4375 124.035156 C 254.042969 124.035156 257.195312 127.191406 257.195312 130.796875 C 257.195312 134.402344 254.042969 137.554688 250.4375 137.554688 Z M 250.4375 137.554688 " fill-opacity="1" fill-rule="nonzero"/><path fill="#35668f" d="M 232.859375 163.695312 L 182.832031 163.695312 C 179.226562 163.695312 176.070312 160.539062 176.070312 156.933594 C 176.070312 153.328125 179.226562 150.175781 182.832031 150.175781 L 232.859375 150.175781 C 236.464844 150.175781 239.621094 153.328125 239.621094 156.933594 C 239.621094 160.539062 236.464844 163.695312 232.859375 163.695312 Z M 232.859375 163.695312 " fill-opacity="1" fill-rule="nonzero"/><g clip-path="url(#e90d38ae4a)"><path fill="#ffffff" d="M 267.984375 86.996094 L 334.1875 86.996094 L 334.1875 309.914062 L 267.984375 309.914062 Z M 267.984375 86.996094 " fill-opacity="1" fill-rule="nonzero"/></g><g clip-path="url(#c396f2394b)"><g clip-path="url(#9bd6e105f9)"><g clip-path="url(#5f91040368)"><path fill="#ffcd77" d="M 266.945312 246.558594 C 266.863281 246.878906 266.832031 247.214844 266.855469 247.542969 L 269.441406 290.933594 C 269.527344 292.355469 270.519531 293.554688 271.90625 293.90625 C 272.761719 294.117188 273.648438 293.972656 274.375 293.539062 C 274.8125 293.277344 275.199219 292.910156 275.480469 292.441406 L 298.191406 255.382812 C 298.367188 255.109375 298.488281 254.796875 298.574219 254.472656 L 300.425781 247.078125 L 268.796875 239.167969 Z M 266.945312 246.558594 " fill-opacity="1" fill-rule="nonzero"/></g></g></g><g clip-path="url(#3575ff3e02)"><g clip-path="url(#a6da7419fa)"><g clip-path="url(#9ec5c49c0d)"><path fill="#ffcd77" d="M 317.761719 110.621094 C 309.308594 108.5 299.6875 115.652344 297.125 125.910156 L 294.113281 137.9375 L 284.621094 135.5625 C 283.785156 135.351562 282.898438 135.480469 282.15625 135.925781 C 281.414062 136.371094 280.878906 137.089844 280.675781 137.929688 L 267.214844 191.714844 C 266.78125 193.460938 267.84375 195.230469 269.589844 195.667969 C 270.460938 195.886719 271.34375 195.734375 272.058594 195.304688 C 272.777344 194.875 273.324219 194.171875 273.539062 193.300781 L 286.199219 142.6875 L 292.535156 144.273438 L 270.371094 232.851562 L 301.996094 240.761719 L 324.171875 152.191406 C 325.917969 152.628906 327.171875 151.875 327.613281 150.128906 C 328.054688 148.378906 325.378906 147.578125 324.726562 146.488281 L 324.71875 146.480469 L 328.242188 134.140625 C 330.902344 123.515625 326.492188 112.8125 317.761719 110.621094 Z M 317.761719 110.621094 " fill-opacity="1" fill-rule="nonzero"/></g></g></g></svg>