<svg xmlns="http://www.w3.org/2000/svg" xmlns:xlink="http://www.w3.org/1999/xlink" width="500" zoomAndPan="magnify" viewBox="0 0 375 374.999991" height="500" preserveAspectRatio="xMidYMid meet" version="1.0"><defs><clipPath id="ec7f840f25"><path d="M 214.941406 147.246094 L 337.136719 147.246094 L 337.136719 293.789062 L 214.941406 293.789062 Z M 214.941406 147.246094 " clip-rule="nonzero"/></clipPath><clipPath id="cb67b3d150"><path d="M 73 27.394531 L 306 27.394531 L 306 352.894531 L 73 352.894531 Z M 73 27.394531 " clip-rule="nonzero"/></clipPath><clipPath id="f183b64cca"><path d="M 203.867188 117.3125 L 328.644531 117.3125 L 328.644531 288 L 203.867188 288 Z M 203.867188 117.3125 " clip-rule="nonzero"/></clipPath><clipPath id="71c60da71e"><path d="M 240 147.246094 L 343 147.246094 L 343 253.746094 L 240 253.746094 Z M 240 147.246094 " clip-rule="nonzero"/></clipPath><clipPath id="6a6b0abfa8"><path d="M 224.691406 191 L 237 191 L 237 229 L 224.691406 229 Z M 224.691406 191 " clip-rule="nonzero"/></clipPath><clipPath id="e43033c55a"><path d="M 347 191 L 358.941406 191 L 358.941406 229 L 347 229 Z M 347 191 " clip-rule="nonzero"/></clipPath></defs><g clip-path="url(#ec7f840f25)"><path fill="#ffffff" d="M 214.941406 147.246094 L 337.136719 147.246094 L 337.136719 293.785156 L 214.941406 293.785156 Z M 214.941406 147.246094 " fill-opacity="1" fill-rule="nonzero"/></g><g clip-path="url(#cb67b3d150)"><path fill="#35668f" d="M 302.15625 91.050781 L 241.695312 30.582031 C 239.707031 28.578125 236.832031 27.386719 234.007812 27.394531 C 234.007812 27.394531 84.484375 27.394531 84.484375 27.394531 C 78.488281 27.394531 73.628906 32.25 73.628906 38.25 L 73.628906 342.292969 C 73.628906 348.292969 78.488281 353.152344 84.484375 353.152344 L 294.488281 353.152344 C 300.484375 353.152344 305.347656 348.292969 305.347656 342.292969 L 305.347656 98.738281 C 305.355469 95.914062 304.160156 93.039062 302.15625 91.050781 Z M 244.867188 64.464844 L 268.277344 87.878906 L 244.867188 87.878906 Z M 283.628906 331.433594 L 95.34375 331.433594 L 95.34375 49.109375 L 223.148438 49.109375 L 223.148438 98.738281 C 223.148438 104.738281 228.011719 109.597656 234.007812 109.597656 L 283.628906 109.597656 Z M 283.628906 331.433594 " fill-opacity="1" fill-rule="nonzero"/></g><path fill="#35668f" d="M 130.832031 135.980469 C 130.832031 141.980469 135.691406 146.835938 141.691406 146.835938 L 237.285156 146.835938 C 243.28125 146.835938 248.144531 141.980469 248.144531 135.980469 C 248.144531 129.976562 243.28125 125.121094 237.285156 125.121094 L 141.691406 125.121094 C 135.691406 125.121094 130.832031 129.976562 130.832031 135.980469 Z M 130.832031 135.980469 " fill-opacity="1" fill-rule="nonzero"/><path fill="#35668f" d="M 237.285156 189.253906 L 141.691406 189.253906 C 135.691406 189.253906 130.832031 194.109375 130.832031 200.113281 C 130.832031 206.113281 135.691406 210.972656 141.691406 210.972656 L 237.285156 210.972656 C 243.28125 210.972656 248.144531 206.113281 248.144531 200.113281 C 248.144531 194.109375 243.28125 189.253906 237.285156 189.253906 Z M 237.285156 189.253906 " fill-opacity="1" fill-rule="nonzero"/><path fill="#35668f" d="M 237.285156 253.386719 L 141.691406 253.386719 C 135.691406 253.386719 130.832031 258.246094 130.832031 264.246094 C 130.832031 270.25 135.691406 275.105469 141.691406 275.105469 L 237.285156 275.105469 C 243.28125 275.105469 248.144531 270.25 248.144531 264.246094 C 248.144531 258.246094 243.28125 253.386719 237.285156 253.386719 Z M 237.285156 253.386719 " fill-opacity="1" fill-rule="nonzero"/><g clip-path="url(#f183b64cca)"><path fill="#ffffff" d="M 203.867188 117.3125 L 328.644531 117.3125 L 328.644531 287.90625 L 203.867188 287.90625 Z M 203.867188 117.3125 " fill-opacity="1" fill-rule="nonzero"/></g><g clip-path="url(#71c60da71e)"><path fill="#ffcd77" d="M 319.960938 253.902344 L 263.300781 253.902344 C 250.824219 253.902344 240.699219 243.777344 240.699219 231.378906 L 240.699219 194.652344 C 240.699219 182.175781 250.824219 172.050781 263.300781 172.050781 L 289.199219 172.050781 L 289.277344 163.417969 C 285.902344 162.398438 283.390625 159.257812 283.390625 155.492188 C 283.390625 150.941406 287.15625 147.253906 291.710938 147.253906 C 296.261719 147.253906 300.027344 150.941406 300.027344 155.492188 C 300.027344 159.257812 297.4375 162.476562 293.984375 163.496094 L 293.90625 172.050781 L 319.960938 172.050781 C 332.359375 172.050781 342.484375 182.175781 342.484375 194.652344 L 342.484375 231.457031 C 342.484375 243.855469 332.359375 253.902344 319.960938 253.902344 Z M 270.363281 218.273438 C 263.695312 218.273438 258.4375 213.015625 258.4375 206.421875 C 258.4375 199.753906 263.695312 194.496094 270.363281 194.496094 C 277.035156 194.496094 282.214844 199.753906 282.214844 206.421875 C 282.214844 213.015625 277.035156 218.273438 270.363281 218.273438 Z M 270.363281 199.203125 C 266.28125 199.203125 263.144531 202.34375 263.144531 206.421875 C 263.144531 210.425781 266.28125 213.5625 270.363281 213.5625 C 274.367188 213.5625 277.582031 210.425781 277.582031 206.421875 C 277.582031 202.34375 274.367188 199.203125 270.363281 199.203125 Z M 312.976562 217.800781 C 306.304688 217.800781 300.96875 212.464844 300.96875 205.875 C 300.96875 199.28125 306.304688 193.945312 312.976562 193.945312 C 319.488281 193.945312 324.824219 199.28125 324.824219 205.875 C 324.824219 212.464844 319.488281 217.800781 312.976562 217.800781 Z M 312.976562 198.652344 C 308.894531 198.652344 305.675781 201.949219 305.675781 205.875 C 305.675781 209.875 308.894531 213.171875 312.976562 213.171875 C 316.976562 213.171875 320.117188 209.875 320.117188 205.875 C 320.117188 201.792969 316.898438 198.652344 312.976562 198.652344 Z M 290.765625 232.085938 C 286.292969 232.085938 282.371094 229.964844 280.171875 228.082031 C 279.152344 227.21875 279.074219 225.648438 279.9375 224.785156 C 280.800781 223.84375 282.214844 223.6875 283.234375 224.628906 C 283.941406 225.257812 290.765625 230.671875 297.28125 224.707031 C 298.222656 223.84375 299.636719 223.84375 300.65625 224.785156 C 301.519531 225.804688 301.519531 227.21875 300.578125 228.160156 C 297.28125 230.984375 293.90625 232.085938 290.765625 232.085938 Z M 290.765625 232.085938 " fill-opacity="1" fill-rule="evenodd"/></g><g clip-path="url(#6a6b0abfa8)"><path fill="#ffcd77" d="M 235.992188 228.710938 L 235.050781 228.710938 C 229.398438 228.710938 224.691406 224.078125 224.691406 218.351562 L 224.691406 202.34375 C 224.691406 196.613281 229.398438 191.90625 235.050781 191.90625 L 236.148438 191.90625 C 236.070312 192.769531 235.992188 193.710938 235.992188 194.652344 Z M 235.992188 228.710938 " fill-opacity="1" fill-rule="evenodd"/></g><g clip-path="url(#e43033c55a)"><path fill="#ffcd77" d="M 348.132812 228.710938 L 347.191406 228.710938 L 347.191406 194.652344 C 347.191406 193.632812 347.113281 192.691406 347.035156 191.828125 L 348.132812 191.828125 C 353.941406 191.828125 358.648438 196.457031 358.648438 202.265625 L 358.648438 218.351562 C 358.648438 224.160156 353.941406 228.710938 348.132812 228.710938 Z M 348.132812 228.710938 " fill-opacity="1" fill-rule="evenodd"/></g></svg>