<svg xmlns="http://www.w3.org/2000/svg" xmlns:xlink="http://www.w3.org/1999/xlink" width="500" zoomAndPan="magnify" viewBox="0 0 375 374.999991" height="500" preserveAspectRatio="xMidYMid meet" version="1.0"><defs><clipPath id="6f56ac748f"><path d="M 71 61 L 304 61 L 304 349.175781 L 71 349.175781 Z M 71 61 " clip-rule="nonzero"/></clipPath><clipPath id="539912870b"><path d="M 130 25.925781 L 244 25.925781 L 244 103 L 130 103 Z M 130 25.925781 " clip-rule="nonzero"/></clipPath><clipPath id="ba61c3c515"><path d="M 224.003906 151.675781 L 337.613281 151.675781 L 337.613281 299.578125 L 224.003906 299.578125 Z M 224.003906 151.675781 " clip-rule="nonzero"/></clipPath><clipPath id="1f68cf3aa2"><path d="M 238.402344 173.148438 L 341 173.148438 L 341 276 L 238.402344 276 Z M 238.402344 173.148438 " clip-rule="nonzero"/></clipPath></defs><g clip-path="url(#6f56ac748f)"><path fill="#35668f" d="M 284.058594 349.070312 L 91.164062 349.070312 C 80.347656 349.070312 71.335938 340.054688 71.335938 329.238281 L 71.335938 81.359375 C 71.335938 70.542969 80.347656 61.53125 91.164062 61.53125 L 110.09375 61.53125 C 113.699219 61.53125 116.855469 64.683594 116.855469 68.289062 C 116.855469 71.894531 113.699219 75.050781 110.09375 75.050781 L 91.164062 75.050781 C 87.558594 75.050781 84.855469 77.753906 84.855469 81.359375 L 84.855469 329.238281 C 84.855469 332.84375 87.558594 335.550781 91.164062 335.550781 L 284.058594 335.550781 C 287.664062 335.550781 290.371094 332.84375 290.371094 329.238281 L 290.371094 81.359375 C 290.371094 77.753906 287.664062 75.050781 284.058594 75.050781 L 265.132812 75.050781 C 261.527344 75.050781 258.371094 71.894531 258.371094 68.289062 C 258.371094 64.683594 261.527344 61.53125 265.132812 61.53125 L 284.058594 61.53125 C 294.875 61.53125 303.890625 70.542969 303.890625 81.359375 L 303.890625 329.238281 C 303.890625 340.507812 294.875 349.070312 284.058594 349.070312 Z M 284.058594 349.070312 " fill-opacity="1" fill-rule="nonzero"/></g><g clip-path="url(#539912870b)"><path fill="#35668f" d="M 231.78125 102.542969 L 143.445312 102.542969 C 136.683594 102.542969 130.824219 97.132812 130.824219 89.921875 L 130.824219 56.574219 C 130.824219 49.8125 136.234375 43.953125 143.445312 43.953125 L 163.726562 43.953125 C 166.882812 33.585938 176.34375 25.925781 187.613281 25.925781 C 198.878906 25.925781 208.796875 33.585938 211.5 43.953125 L 231.328125 43.953125 C 238.089844 43.953125 243.949219 49.363281 243.949219 56.574219 L 243.949219 89.921875 C 244.398438 97.132812 238.539062 102.542969 231.78125 102.542969 Z M 144.347656 89.023438 L 230.429688 89.023438 L 230.429688 57.472656 L 205.640625 57.472656 C 202.035156 57.472656 198.878906 54.320312 198.878906 50.714844 C 198.878906 44.402344 193.921875 39.445312 187.613281 39.445312 C 181.304688 39.445312 176.34375 44.402344 176.34375 50.714844 C 176.34375 54.320312 173.191406 57.472656 169.585938 57.472656 L 144.347656 57.472656 Z M 144.347656 89.023438 " fill-opacity="1" fill-rule="nonzero"/></g><path fill="#35668f" d="M 160.121094 240.003906 L 114.601562 240.003906 L 114.601562 194.484375 L 160.121094 194.484375 Z M 128.121094 226.484375 L 146.601562 226.484375 L 146.601562 208.003906 L 128.121094 208.003906 Z M 128.121094 226.484375 " fill-opacity="1" fill-rule="nonzero"/><path fill="#35668f" d="M 253.863281 223.777344 L 186.261719 223.777344 C 182.65625 223.777344 179.5 220.625 179.5 217.019531 C 179.5 213.414062 182.65625 210.257812 186.261719 210.257812 L 253.863281 210.257812 C 257.46875 210.257812 260.625 213.414062 260.625 217.019531 C 260.625 220.625 257.46875 223.777344 253.863281 223.777344 Z M 253.863281 223.777344 " fill-opacity="1" fill-rule="nonzero"/><path fill="#35668f" d="M 160.121094 307.15625 L 114.601562 307.15625 L 114.601562 261.636719 L 160.121094 261.636719 Z M 128.121094 293.636719 L 146.601562 293.636719 L 146.601562 275.15625 L 128.121094 275.15625 Z M 128.121094 293.636719 " fill-opacity="1" fill-rule="nonzero"/><path fill="#35668f" d="M 245.75 291.382812 L 186.261719 291.382812 C 182.65625 291.382812 179.5 288.226562 179.5 284.621094 C 179.5 281.015625 182.65625 277.859375 186.261719 277.859375 L 245.75 277.859375 C 249.355469 277.859375 252.511719 281.015625 252.511719 284.621094 C 252.511719 288.226562 249.808594 291.382812 245.75 291.382812 Z M 245.75 291.382812 " fill-opacity="1" fill-rule="nonzero"/><path fill="#35668f" d="M 160.121094 172.851562 L 114.601562 172.851562 L 114.601562 127.332031 L 160.121094 127.332031 Z M 128.121094 159.328125 L 146.601562 159.328125 L 146.601562 140.851562 L 128.121094 140.851562 Z M 128.121094 159.328125 " fill-opacity="1" fill-rule="nonzero"/><path fill="#35668f" d="M 253.863281 143.554688 L 186.261719 143.554688 C 182.65625 143.554688 179.5 140.402344 179.5 136.796875 C 179.5 133.191406 182.65625 130.035156 186.261719 130.035156 L 253.863281 130.035156 C 257.46875 130.035156 260.625 133.191406 260.625 136.796875 C 260.625 140.402344 257.46875 143.554688 253.863281 143.554688 Z M 253.863281 143.554688 " fill-opacity="1" fill-rule="nonzero"/><path fill="#35668f" d="M 236.289062 169.695312 L 186.261719 169.695312 C 182.65625 169.695312 179.5 166.539062 179.5 162.933594 C 179.5 159.328125 182.65625 156.175781 186.261719 156.175781 L 236.289062 156.175781 C 239.894531 156.175781 243.046875 159.328125 243.046875 162.933594 C 243.046875 166.539062 239.894531 169.695312 236.289062 169.695312 Z M 236.289062 169.695312 " fill-opacity="1" fill-rule="nonzero"/><g clip-path="url(#ba61c3c515)"><path fill="#ffffff" d="M 224.003906 151.675781 L 337.613281 151.675781 L 337.613281 299.457031 L 224.003906 299.457031 Z M 224.003906 151.675781 " fill-opacity="1" fill-rule="nonzero"/></g><path fill="#ffcd77" d="M 316.738281 259.878906 L 325.128906 251.488281 L 342.164062 268.523438 L 333.773438 276.914062 Z M 316.738281 259.878906 " fill-opacity="1" fill-rule="nonzero"/><path fill="#ffcd77" d="M 369.066406 285.90625 C 372.773438 289.613281 372.773438 295.628906 369.066406 299.339844 L 364.589844 303.8125 C 360.875 307.527344 354.863281 307.527344 351.15625 303.8125 L 327.167969 279.816406 C 323.453125 276.105469 323.453125 270.09375 327.160156 266.386719 L 331.636719 261.910156 C 335.34375 258.203125 341.367188 258.203125 345.074219 261.910156 Z M 369.066406 285.90625 " fill-opacity="1" fill-rule="nonzero"/><g clip-path="url(#1f68cf3aa2)"><path fill="#ffcd77" d="M 289.359375 173.085938 C 261.175781 173.085938 238.339844 195.925781 238.339844 224.105469 C 238.339844 252.289062 261.175781 275.132812 289.359375 275.132812 C 317.542969 275.132812 340.382812 252.289062 340.382812 224.105469 C 340.382812 195.925781 317.542969 173.085938 289.359375 173.085938 Z M 289.359375 265.6875 C 266.386719 265.6875 247.773438 247.078125 247.773438 224.105469 C 247.773438 201.132812 266.386719 182.523438 289.359375 182.523438 C 312.332031 182.523438 330.945312 201.132812 330.945312 224.105469 C 330.945312 247.078125 312.332031 265.6875 289.359375 265.6875 Z M 289.359375 265.6875 " fill-opacity="1" fill-rule="nonzero"/></g><path fill="#ffcd77" d="M 299.820312 249.363281 C 279.46875 249.363281 262.960938 232.859375 262.960938 212.5 C 262.960938 211.960938 263.019531 211.429688 263.042969 210.890625 C 260.355469 215.234375 258.78125 220.347656 258.78125 225.828125 C 258.78125 241.566406 271.539062 254.324219 287.273438 254.324219 C 293.351562 254.324219 298.96875 252.410156 303.601562 249.167969 C 302.359375 249.304688 301.09375 249.363281 299.820312 249.363281 Z M 299.820312 249.363281 " fill-opacity="1" fill-rule="nonzero"/></svg>