<svg xmlns="http://www.w3.org/2000/svg" xmlns:xlink="http://www.w3.org/1999/xlink" width="500" zoomAndPan="magnify" viewBox="0 0 375 374.999991" height="500" preserveAspectRatio="xMidYMid meet" version="1.0"><defs><clipPath id="f61a605ae9"><path d="M 57 29 L 302 29 L 302 349 L 57 349 Z M 57 29 " clip-rule="nonzero"/></clipPath><clipPath id="ed1e290c84"><path d="M -55.824219 211.617188 L 211.609375 -20.320312 L 396.371094 192.722656 L 128.9375 424.660156 Z M -55.824219 211.617188 " clip-rule="nonzero"/></clipPath><clipPath id="0bda6ba1f4"><path d="M -55.824219 211.617188 L 211.609375 -20.320312 L 396.371094 192.722656 L 128.9375 424.660156 Z M -55.824219 211.617188 " clip-rule="nonzero"/></clipPath><clipPath id="f1ca625a39"><path d="M 94 135 L 238 135 L 238 307 L 94 307 Z M 94 135 " clip-rule="nonzero"/></clipPath><clipPath id="f391f4a5d2"><path d="M 46.15625 205.980469 L 241.347656 110.03125 L 291.636719 212.339844 L 96.445312 308.289062 Z M 46.15625 205.980469 " clip-rule="nonzero"/></clipPath><clipPath id="cb48a75e64"><path d="M 46.15625 205.980469 L 241.347656 110.03125 L 291.636719 212.339844 L 96.445312 308.289062 Z M 46.15625 205.980469 " clip-rule="nonzero"/></clipPath><clipPath id="2590aef8b5"><path d="M 201 117 L 269 117 L 269 173 L 201 173 Z M 201 117 " clip-rule="nonzero"/></clipPath><clipPath id="cdcd320006"><path d="M 46.15625 205.980469 L 241.347656 110.03125 L 291.636719 212.339844 L 96.445312 308.289062 Z M 46.15625 205.980469 " clip-rule="nonzero"/></clipPath><clipPath id="5d45607574"><path d="M 46.15625 205.980469 L 241.347656 110.03125 L 291.636719 212.339844 L 96.445312 308.289062 Z M 46.15625 205.980469 " clip-rule="nonzero"/></clipPath><clipPath id="a40a5b1852"><path d="M 94 135 L 238 135 L 238 307 L 94 307 Z M 94 135 " clip-rule="nonzero"/></clipPath><clipPath id="5fe66c940a"><path d="M 46.15625 205.980469 L 241.347656 110.03125 L 291.636719 212.339844 L 96.445312 308.289062 Z M 46.15625 205.980469 " clip-rule="nonzero"/></clipPath><clipPath id="51291e039c"><path d="M 46.15625 205.980469 L 241.347656 110.03125 L 291.636719 212.339844 L 96.445312 308.289062 Z M 46.15625 205.980469 " clip-rule="nonzero"/></clipPath><clipPath id="8fe796ce47"><path d="M 201 117 L 269 117 L 269 173 L 201 173 Z M 201 117 " clip-rule="nonzero"/></clipPath><clipPath id="dd80a52940"><path d="M 46.15625 205.980469 L 241.347656 110.03125 L 291.636719 212.339844 L 96.445312 308.289062 Z M 46.15625 205.980469 " clip-rule="nonzero"/></clipPath><clipPath id="932771d869"><path d="M 46.15625 205.980469 L 241.347656 110.03125 L 291.636719 212.339844 L 96.445312 308.289062 Z M 46.15625 205.980469 " clip-rule="nonzero"/></clipPath></defs><g clip-path="url(#f61a605ae9)"><g clip-path="url(#ed1e290c84)"><g clip-path="url(#0bda6ba1f4)"><path fill="#e1dddb" d="M 119.414062 139.609375 C 151.695312 99.859375 167.351562 18.34375 217.03125 31.042969 C 267.59375 43.96875 239.171875 125.316406 256.359375 174.605469 C 267.609375 206.90625 314.597656 233.226562 297.757812 262.921875 C 280.742188 292.925781 232.109375 261.433594 199.984375 273.996094 C 156.332031 291.074219 130.390625 363.269531 86.988281 345.347656 C 45.160156 328.058594 57.898438 262.871094 64.941406 218.199219 C 70.164062 185.046875 98.273438 165.636719 119.414062 139.609375 Z M 119.414062 139.609375 " fill-opacity="1" fill-rule="evenodd"/></g></g></g><g clip-path="url(#f1ca625a39)"><g clip-path="url(#f391f4a5d2)"><g clip-path="url(#cb48a75e64)"><path fill="#494949" d="M 102.328125 305.644531 C 101.339844 306.132812 100.210938 306.339844 99.027344 306.167969 C 95.933594 305.703125 93.804688 302.84375 94.242188 299.765625 C 94.570312 297.617188 102.019531 246.722656 109.765625 220.527344 C 111.773438 213.714844 115.417969 209.152344 120.625 206.875 C 131.984375 201.921875 146.984375 209.445312 164.378906 218.117188 C 176.988281 224.421875 190.011719 230.929688 201.351562 232.34375 C 206.046875 232.933594 209.683594 231.871094 212.824219 228.972656 C 218.546875 223.703125 222.414062 212.546875 224.308594 195.773438 C 225.855469 182.074219 226.121094 164.9375 225.117188 141.816406 C 224.972656 138.707031 227.390625 136.066406 230.527344 135.910156 C 233.664062 135.757812 236.273438 138.1875 236.429688 141.324219 C 237.445312 165.039062 237.175781 182.742188 235.546875 197.050781 C 233.289062 216.863281 228.359375 230.027344 220.5 237.289062 C 214.917969 242.460938 207.992188 244.574219 199.960938 243.546875 C 186.738281 241.890625 172.808594 234.945312 159.355469 228.207031 C 151.636719 224.351562 144.367188 220.710938 138.050781 218.558594 C 132.136719 216.519531 127.832031 216.085938 125.183594 217.234375 C 124.433594 217.570312 122.179688 218.550781 120.652344 223.710938 C 113.136719 249.164062 105.558594 300.878906 105.492188 301.382812 C 105.148438 303.3125 103.949219 304.847656 102.328125 305.644531 Z M 102.328125 305.644531 " fill-opacity="1" fill-rule="nonzero"/></g></g></g><g clip-path="url(#2590aef8b5)"><g clip-path="url(#cdcd320006)"><g clip-path="url(#5d45607574)"><path fill="#494949" d="M 264.875 172.023438 C 262.871094 173.007812 260.382812 172.753906 258.625 171.160156 C 244.265625 158.347656 234.707031 145.824219 229.054688 137.203125 C 225.699219 145.371094 220 156.265625 210.902344 165.679688 C 208.726562 167.914062 205.148438 168.003906 202.914062 165.828125 C 200.679688 163.652344 200.589844 160.074219 202.765625 157.839844 C 217.324219 142.75 222.0625 122.535156 222.101562 122.359375 C 222.648438 120.011719 224.617188 118.253906 227.007812 117.992188 C 229.398438 117.730469 231.703125 119.023438 232.738281 121.191406 C 232.835938 121.394531 242.683594 141.808594 266.125 162.71875 C 268.460938 164.78125 268.652344 168.371094 266.589844 170.707031 C 266.105469 171.261719 265.507812 171.710938 264.875 172.023438 Z M 264.875 172.023438 " fill-opacity="1" fill-rule="nonzero"/></g></g></g><g clip-path="url(#a40a5b1852)"><g clip-path="url(#5fe66c940a)"><g clip-path="url(#51291e039c)"><path fill="#494949" d="M 102.328125 305.644531 C 101.339844 306.132812 100.210938 306.339844 99.027344 306.167969 C 95.933594 305.703125 93.804688 302.84375 94.242188 299.765625 C 94.570312 297.617188 102.019531 246.722656 109.765625 220.527344 C 111.773438 213.714844 115.417969 209.152344 120.625 206.875 C 131.984375 201.921875 146.984375 209.445312 164.378906 218.117188 C 176.988281 224.421875 190.011719 230.929688 201.351562 232.34375 C 206.046875 232.933594 209.683594 231.871094 212.824219 228.972656 C 218.546875 223.703125 222.414062 212.546875 224.308594 195.773438 C 225.855469 182.074219 226.121094 164.9375 225.117188 141.816406 C 224.972656 138.707031 227.390625 136.066406 230.527344 135.910156 C 233.664062 135.757812 236.273438 138.1875 236.429688 141.324219 C 237.445312 165.039062 237.175781 182.742188 235.546875 197.050781 C 233.289062 216.863281 228.359375 230.027344 220.5 237.289062 C 214.917969 242.460938 207.992188 244.574219 199.960938 243.546875 C 186.738281 241.890625 172.808594 234.945312 159.355469 228.207031 C 151.636719 224.351562 144.367188 220.710938 138.050781 218.558594 C 132.136719 216.519531 127.832031 216.085938 125.183594 217.234375 C 124.433594 217.570312 122.179688 218.550781 120.652344 223.710938 C 113.136719 249.164062 105.558594 300.878906 105.492188 301.382812 C 105.148438 303.3125 103.949219 304.847656 102.328125 305.644531 Z M 102.328125 305.644531 " fill-opacity="1" fill-rule="nonzero"/></g></g></g><g clip-path="url(#8fe796ce47)"><g clip-path="url(#dd80a52940)"><g clip-path="url(#932771d869)"><path fill="#494949" d="M 264.875 172.023438 C 262.871094 173.007812 260.382812 172.753906 258.625 171.160156 C 244.265625 158.347656 234.707031 145.824219 229.054688 137.203125 C 225.699219 145.371094 220 156.265625 210.902344 165.679688 C 208.726562 167.914062 205.148438 168.003906 202.914062 165.828125 C 200.679688 163.652344 200.589844 160.074219 202.765625 157.839844 C 217.324219 142.75 222.0625 122.535156 222.101562 122.359375 C 222.648438 120.011719 224.617188 118.253906 227.007812 117.992188 C 229.398438 117.730469 231.703125 119.023438 232.738281 121.191406 C 232.835938 121.394531 242.683594 141.808594 266.125 162.71875 C 268.460938 164.78125 268.652344 168.371094 266.589844 170.707031 C 266.105469 171.261719 265.507812 171.710938 264.875 172.023438 Z M 264.875 172.023438 " fill-opacity="1" fill-rule="nonzero"/></g></g></g><path fill="#35668f" d="M 179.894531 71.117188 C 117.582031 71.796875 67.617188 122.878906 68.304688 185.191406 C 68.984375 247.496094 120.058594 297.464844 182.378906 296.78125 C 205.390625 296.53125 227.773438 289.242188 246.539062 275.898438 L 310.984375 340.332031 C 318.363281 347.617188 330.261719 347.539062 337.542969 340.152344 C 344.753906 332.84375 344.753906 321.089844 337.542969 313.773438 L 273.097656 249.335938 C 309.214844 198.558594 297.320312 128.109375 246.539062 91.988281 C 227.082031 78.164062 203.757812 70.851562 179.894531 71.117188 Z M 178.539062 90.644531 C 230 89.207031 272.886719 129.75 274.324219 181.222656 C 274.34375 182.125 274.363281 183.03125 274.363281 183.933594 C 274.382812 235.414062 232.664062 277.167969 181.1875 277.195312 C 129.707031 277.214844 87.949219 235.503906 87.925781 184.019531 C 87.925781 183.992188 87.925781 183.96875 87.925781 183.9375 C 87.867188 133.429688 128.046875 92.058594 178.539062 90.644531 Z M 178.539062 90.644531 " fill-opacity="1" fill-rule="nonzero"/><path fill="#35668f" d="M 155.976562 114.808594 C 161.082031 112.980469 166.695312 115.632812 168.527344 120.734375 C 170.339844 125.800781 167.742188 131.386719 162.691406 133.253906 C 141.378906 141.011719 127.191406 161.269531 127.191406 183.945312 C 127.191406 189.367188 122.796875 193.761719 117.378906 193.761719 C 111.960938 193.761719 107.566406 189.367188 107.566406 183.945312 C 107.570312 153.015625 126.910156 125.386719 155.976562 114.808594 Z M 155.976562 114.808594 " fill-opacity="1" fill-rule="nonzero"/></svg>