<svg xmlns="http://www.w3.org/2000/svg" xmlns:xlink="http://www.w3.org/1999/xlink" width="500" zoomAndPan="magnify" viewBox="0 0 375 374.999991" height="500" preserveAspectRatio="xMidYMid meet" version="1.0"><defs><clipPath id="649918adf7"><path d="M 177 69 L 345.320312 69 L 345.320312 264 L 177 264 Z M 177 69 " clip-rule="nonzero"/></clipPath><clipPath id="98b98d0b9f"><path d="M 68 34.507812 L 214 34.507812 L 214 215 L 68 215 Z M 68 34.507812 " clip-rule="nonzero"/></clipPath><clipPath id="7734481bcb"><path d="M 38 137 L 227 137 L 227 340.503906 L 38 340.503906 Z M 38 137 " clip-rule="nonzero"/></clipPath><clipPath id="13c167f66b"><path d="M 29.570312 199 L 47 199 L 47 212 L 29.570312 212 Z M 29.570312 199 " clip-rule="nonzero"/></clipPath></defs><rect x="-37.5" width="450" fill="#ffffff" y="-37.499999" height="449.999989" fill-opacity="1"/><rect x="-37.5" width="450" fill="#ffffff" y="-37.499999" height="449.999989" fill-opacity="1"/><g clip-path="url(#649918adf7)"><path fill="#0b253a" d="M 228.628906 69.28125 L 345.425781 107.710938 L 294.183594 263.4375 L 177.390625 225.007812 Z M 228.628906 69.28125 " fill-opacity="1" fill-rule="nonzero"/></g><path fill="#35668f" d="M 225.726562 63.53125 L 342.519531 101.960938 L 291.28125 257.6875 L 174.488281 219.257812 Z M 225.726562 63.53125 " fill-opacity="1" fill-rule="nonzero"/><path fill="#f9f8d2" d="M 237.925781 93.3125 L 315.027344 118.683594 L 305.859375 146.546875 L 228.757812 121.175781 Z M 237.925781 93.3125 " fill-opacity="1" fill-rule="nonzero"/><path fill="#0b253a" d="M 226.929688 79.152344 L 215.480469 75.386719 C 213.898438 74.867188 213.039062 73.164062 213.558594 71.582031 C 214.078125 70 215.78125 69.140625 217.363281 69.660156 L 228.8125 73.429688 C 230.394531 73.949219 231.253906 75.652344 230.734375 77.234375 C 230.214844 78.8125 228.511719 79.675781 226.929688 79.152344 Z M 226.929688 79.152344 " fill-opacity="1" fill-rule="nonzero"/><path fill="#0b253a" d="M 219.582031 101.480469 L 208.132812 97.714844 C 206.550781 97.195312 205.691406 95.492188 206.210938 93.910156 C 206.734375 92.328125 208.4375 91.46875 210.015625 91.988281 L 221.464844 95.757812 C 223.046875 96.277344 223.90625 97.980469 223.386719 99.5625 C 222.867188 101.144531 221.164062 102.003906 219.582031 101.480469 Z M 219.582031 101.480469 " fill-opacity="1" fill-rule="nonzero"/><path fill="#0b253a" d="M 212.234375 123.808594 L 200.785156 120.042969 C 199.203125 119.523438 198.34375 117.820312 198.863281 116.238281 C 199.382812 114.65625 201.085938 113.796875 202.667969 114.316406 L 214.117188 118.085938 C 215.699219 118.605469 216.558594 120.308594 216.039062 121.890625 C 215.519531 123.472656 213.816406 124.332031 212.234375 123.808594 Z M 212.234375 123.808594 " fill-opacity="1" fill-rule="nonzero"/><path fill="#0b253a" d="M 204.886719 146.136719 L 193.4375 142.371094 C 191.855469 141.847656 190.996094 140.144531 191.515625 138.566406 C 192.035156 136.984375 193.738281 136.125 195.320312 136.644531 L 206.769531 140.414062 C 208.351562 140.933594 209.210938 142.636719 208.691406 144.21875 C 208.167969 145.796875 206.464844 146.65625 204.886719 146.136719 Z M 204.886719 146.136719 " fill-opacity="1" fill-rule="nonzero"/><path fill="#0b253a" d="M 197.539062 168.464844 L 186.085938 164.699219 C 184.507812 164.175781 183.648438 162.472656 184.167969 160.894531 C 184.6875 159.3125 186.390625 158.453125 187.972656 158.972656 L 199.421875 162.742188 C 201.003906 163.261719 201.863281 164.964844 201.339844 166.546875 C 200.820312 168.125 199.117188 168.984375 197.539062 168.464844 Z M 197.539062 168.464844 " fill-opacity="1" fill-rule="nonzero"/><path fill="#0b253a" d="M 190.1875 190.792969 L 178.738281 187.027344 C 177.160156 186.503906 176.300781 184.800781 176.820312 183.222656 C 177.339844 181.640625 179.042969 180.78125 180.625 181.300781 L 192.074219 185.070312 C 193.652344 185.589844 194.511719 187.292969 193.992188 188.875 C 193.472656 190.453125 191.769531 191.3125 190.1875 190.792969 Z M 190.1875 190.792969 " fill-opacity="1" fill-rule="nonzero"/><path fill="#0b253a" d="M 182.839844 213.121094 L 171.390625 209.351562 C 169.808594 208.832031 168.949219 207.128906 169.472656 205.550781 C 169.992188 203.96875 171.695312 203.109375 173.273438 203.628906 L 184.726562 207.398438 C 186.304688 207.917969 187.164062 209.621094 186.644531 211.203125 C 186.125 212.78125 184.421875 213.640625 182.839844 213.121094 Z M 182.839844 213.121094 " fill-opacity="1" fill-rule="nonzero"/><path fill="#0b253a" d="M 73.449219 55.886719 L 195.152344 38.371094 L 218.507812 200.636719 L 96.804688 218.152344 Z M 73.449219 55.886719 " fill-opacity="1" fill-rule="nonzero"/><g clip-path="url(#98b98d0b9f)"><path fill="#ffcd77" d="M 68.292969 52.027344 L 189.996094 34.511719 L 213.351562 196.777344 L 91.648438 214.292969 Z M 68.292969 52.027344 " fill-opacity="1" fill-rule="nonzero"/></g><path fill="#f9f8d2" d="M 92.464844 73.277344 L 172.804688 61.714844 L 176.984375 90.75 L 96.644531 102.3125 Z M 92.464844 73.277344 " fill-opacity="1" fill-rule="nonzero"/><path fill="#0b253a" d="M 76.324219 65.484375 L 64.394531 67.203125 C 62.746094 67.441406 61.21875 66.296875 60.980469 64.648438 C 60.742188 63 61.886719 61.472656 63.535156 61.234375 L 75.46875 59.519531 C 77.113281 59.28125 78.640625 60.425781 78.878906 62.074219 C 79.117188 63.722656 77.972656 65.25 76.324219 65.484375 Z M 76.324219 65.484375 " fill-opacity="1" fill-rule="nonzero"/><path fill="#0b253a" d="M 79.671875 88.753906 L 67.738281 90.46875 C 66.09375 90.707031 64.566406 89.5625 64.328125 87.914062 C 64.089844 86.269531 65.234375 84.738281 66.882812 84.503906 L 78.8125 82.785156 C 80.460938 82.546875 81.988281 83.691406 82.226562 85.339844 C 82.460938 86.988281 81.320312 88.515625 79.671875 88.753906 Z M 79.671875 88.753906 " fill-opacity="1" fill-rule="nonzero"/><path fill="#0b253a" d="M 83.019531 112.019531 L 71.085938 113.734375 C 69.4375 113.972656 67.910156 112.832031 67.675781 111.183594 C 67.4375 109.535156 68.578125 108.007812 70.226562 107.769531 L 82.160156 106.054688 C 83.804688 105.816406 85.335938 106.960938 85.570312 108.609375 C 85.808594 110.253906 84.664062 111.78125 83.019531 112.019531 Z M 83.019531 112.019531 " fill-opacity="1" fill-rule="nonzero"/><path fill="#0b253a" d="M 86.363281 135.285156 L 74.433594 137.003906 C 72.785156 137.238281 71.257812 136.097656 71.019531 134.449219 C 70.78125 132.800781 71.925781 131.273438 73.574219 131.035156 L 85.507812 129.320312 C 87.152344 129.082031 88.679688 130.226562 88.917969 131.875 C 89.15625 133.523438 88.011719 135.050781 86.363281 135.285156 Z M 86.363281 135.285156 " fill-opacity="1" fill-rule="nonzero"/><path fill="#0b253a" d="M 89.710938 158.550781 L 77.777344 160.269531 C 76.132812 160.507812 74.605469 159.363281 74.367188 157.714844 C 74.128906 156.066406 75.273438 154.539062 76.921875 154.300781 L 88.851562 152.585938 C 90.5 152.347656 92.027344 153.492188 92.265625 155.140625 C 92.503906 156.789062 91.359375 158.316406 89.710938 158.550781 Z M 89.710938 158.550781 " fill-opacity="1" fill-rule="nonzero"/><path fill="#0b253a" d="M 93.058594 181.820312 L 81.125 183.535156 C 79.480469 183.773438 77.953125 182.628906 77.714844 180.980469 C 77.476562 179.335938 78.621094 177.804688 80.269531 177.570312 L 92.199219 175.851562 C 93.847656 175.617188 95.375 176.757812 95.613281 178.40625 C 95.847656 180.054688 94.703125 181.582031 93.058594 181.820312 Z M 93.058594 181.820312 " fill-opacity="1" fill-rule="nonzero"/><path fill="#0b253a" d="M 96.40625 205.085938 L 84.472656 206.800781 C 82.824219 207.039062 81.296875 205.894531 81.058594 204.246094 C 80.824219 202.601562 81.964844 201.074219 83.613281 200.835938 L 95.546875 199.117188 C 97.191406 198.882812 98.722656 200.023438 98.957031 201.671875 C 99.195312 203.320312 98.050781 204.847656 96.40625 205.085938 Z M 96.40625 205.085938 " fill-opacity="1" fill-rule="nonzero"/><g clip-path="url(#7734481bcb)"><path fill="#0b253a" d="M 38.882812 197.28125 L 146.273438 137.402344 L 226.113281 280.585938 L 118.722656 340.464844 Z M 38.882812 197.28125 " fill-opacity="1" fill-rule="nonzero"/></g><path fill="#35668f" d="M 32.6875 195.519531 L 140.078125 135.640625 L 219.917969 278.824219 L 112.527344 338.707031 Z M 32.6875 195.519531 " fill-opacity="1" fill-rule="nonzero"/><path fill="#f9f8d2" d="M 62.859375 206.722656 L 133.75 167.195312 L 148.035156 192.8125 L 77.144531 232.339844 Z M 62.859375 206.722656 " fill-opacity="1" fill-rule="nonzero"/><g clip-path="url(#13c167f66b)"><path fill="#0b253a" d="M 45.003906 205.210938 L 34.476562 211.082031 C 33.023438 211.894531 31.1875 211.371094 30.375 209.917969 C 29.566406 208.464844 30.085938 206.628906 31.539062 205.820312 L 42.066406 199.949219 C 43.523438 199.136719 45.355469 199.660156 46.167969 201.113281 C 46.980469 202.566406 46.457031 204.402344 45.003906 205.210938 Z M 45.003906 205.210938 " fill-opacity="1" fill-rule="nonzero"/></g><path fill="#0b253a" d="M 56.453125 225.742188 L 45.925781 231.613281 C 44.472656 232.421875 42.636719 231.902344 41.824219 230.449219 C 41.015625 228.996094 41.535156 227.160156 42.988281 226.347656 L 53.515625 220.476562 C 54.96875 219.667969 56.804688 220.191406 57.617188 221.640625 C 58.429688 223.097656 57.90625 224.929688 56.453125 225.742188 Z M 56.453125 225.742188 " fill-opacity="1" fill-rule="nonzero"/><path fill="#0b253a" d="M 67.902344 246.269531 L 57.375 252.140625 C 55.917969 252.953125 54.085938 252.429688 53.273438 250.976562 C 52.464844 249.523438 52.984375 247.6875 54.4375 246.878906 L 64.964844 241.007812 C 66.417969 240.195312 68.253906 240.71875 69.066406 242.171875 C 69.875 243.625 69.355469 245.460938 67.902344 246.269531 Z M 67.902344 246.269531 " fill-opacity="1" fill-rule="nonzero"/><path fill="#0b253a" d="M 79.351562 266.800781 L 68.820312 272.671875 C 67.367188 273.480469 65.535156 272.960938 64.722656 271.507812 C 63.910156 270.054688 64.433594 268.21875 65.886719 267.40625 L 76.414062 261.539062 C 77.867188 260.726562 79.703125 261.25 80.515625 262.699219 C 81.324219 264.15625 80.804688 265.992188 79.351562 266.800781 Z M 79.351562 266.800781 " fill-opacity="1" fill-rule="nonzero"/><path fill="#0b253a" d="M 90.796875 287.332031 L 80.269531 293.203125 C 78.816406 294.011719 76.980469 293.492188 76.171875 292.039062 C 75.359375 290.585938 75.882812 288.75 77.335938 287.9375 L 87.863281 282.066406 C 89.316406 281.257812 91.152344 281.777344 91.960938 283.230469 C 92.773438 284.683594 92.253906 286.519531 90.796875 287.332031 Z M 90.796875 287.332031 " fill-opacity="1" fill-rule="nonzero"/><path fill="#0b253a" d="M 102.246094 307.859375 L 91.71875 313.730469 C 90.265625 314.542969 88.429688 314.019531 87.617188 312.566406 C 86.808594 311.113281 87.332031 309.277344 88.78125 308.46875 L 99.3125 302.597656 C 100.765625 301.785156 102.601562 302.308594 103.410156 303.761719 C 104.222656 305.214844 103.699219 307.050781 102.246094 307.859375 Z M 102.246094 307.859375 " fill-opacity="1" fill-rule="nonzero"/><path fill="#0b253a" d="M 113.695312 328.390625 L 103.167969 334.261719 C 101.714844 335.070312 99.878906 334.550781 99.066406 333.097656 C 98.257812 331.644531 98.777344 329.808594 100.230469 328.996094 L 110.757812 323.125 C 112.214844 322.316406 114.046875 322.835938 114.859375 324.289062 C 115.671875 325.742188 115.148438 327.582031 113.695312 328.390625 Z M 113.695312 328.390625 " fill-opacity="1" fill-rule="nonzero"/></svg>