<svg xmlns="http://www.w3.org/2000/svg" xmlns:xlink="http://www.w3.org/1999/xlink" width="500" zoomAndPan="magnify" viewBox="0 0 375 374.999991" height="500" preserveAspectRatio="xMidYMid meet" version="1.0"><defs><clipPath id="eee1751a0b"><path d="M 28.179688 40 L 346 40 L 346 335 L 28.179688 335 Z M 28.179688 40 " clip-rule="nonzero"/></clipPath><clipPath id="3139160597"><path d="M 74 16.160156 L 312.453125 16.160156 L 312.453125 358.910156 L 74 358.910156 Z M 74 16.160156 " clip-rule="nonzero"/></clipPath><clipPath id="14d8cacebc"><path d="M 74 57 L 259 57 L 259 358.910156 L 74 358.910156 Z M 74 57 " clip-rule="nonzero"/></clipPath><clipPath id="0375ca25d2"><path d="M 73.203125 16.160156 L 312.453125 16.160156 L 312.453125 358.910156 L 73.203125 358.910156 Z M 73.203125 16.160156 " clip-rule="nonzero"/></clipPath></defs><g clip-path="url(#eee1751a0b)"><path fill="#e1dddb" d="M 228.078125 40.695312 C 169.050781 44.707031 109.941406 64.351562 65.160156 103.023438 C 50.929688 115.316406 37.925781 129.957031 31.980469 147.796875 C 29.011719 156.71875 27.902344 166.332031 29.40625 175.613281 C 30.914062 184.894531 35.109375 193.816406 41.761719 200.460938 C 48.566406 207.257812 57.527344 211.402344 66.429688 215.042969 C 75.332031 218.683594 84.496094 222.027344 92.308594 227.636719 C 100.863281 233.777344 107.398438 242.382812 112.515625 251.585938 C 117.636719 260.789062 121.441406 270.648438 125.449219 280.390625 C 129.453125 290.128906 133.710938 299.84375 139.625 308.558594 C 145.539062 317.269531 153.242188 325.007812 162.742188 329.542969 C 173.054688 334.464844 185.019531 335.351562 196.25 333.25 C 207.480469 331.148438 218.027344 326.191406 227.601562 319.957031 C 246.75 307.488281 262.125 290.046875 280.351562 276.265625 C 296.355469 264.164062 314.644531 254.804688 328.378906 240.179688 C 335.246094 232.867188 340.890625 224.214844 343.613281 214.558594 C 346.335938 204.902344 345.957031 194.1875 341.4375 185.230469 C 338.34375 179.097656 333.476562 174.019531 328.148438 169.6875 C 322.816406 165.359375 316.980469 161.699219 311.367188 157.742188 C 305.757812 153.78125 300.304688 149.464844 296.039062 144.085938 C 291.769531 138.707031 288.726562 132.148438 288.507812 125.285156 C 288.285156 118.203125 291.023438 111.386719 293.941406 104.929688 C 296.855469 98.46875 300.046875 91.957031 300.808594 84.910156 C 301.6875 76.832031 299.207031 68.558594 294.585938 61.871094 C 289.964844 55.1875 283.304688 50.046875 275.941406 46.609375 C 261.214844 39.726562 244.296875 39.59375 228.078125 40.695312 Z M 228.078125 40.695312 " fill-opacity="1" fill-rule="nonzero"/></g><g clip-path="url(#3139160597)"><path fill="#ffffff" d="M 312.015625 258.882812 C 312.226562 243.5 310.898438 232.800781 309.351562 225.082031 C 307.808594 217.363281 305.203125 211.457031 301.6875 209.21875 C 302.378906 203.523438 300.410156 190.164062 299.1875 185.691406 C 297.960938 181.222656 295.355469 170.839844 291.359375 166.6875 C 287.367188 162.535156 278.320312 159.554688 268.898438 159.398438 C 268.683594 155.136719 268.738281 153.167969 268.738281 153.167969 C 268.738281 153.167969 263.308594 150.933594 262.136719 142.308594 C 264.480469 142.789062 268.046875 142.789062 269.589844 139.808594 C 271.132812 136.828125 269.960938 134.058594 266.980469 132.570312 C 264.480469 131.875 262.457031 133.367188 262.457031 133.367188 C 262.457031 133.367188 257.828125 132.835938 254.6875 131.078125 C 251.546875 129.320312 247.710938 127.617188 243.933594 118.355469 C 242.816406 119.207031 239.675781 127.777344 239.78125 133.261719 C 237.4375 135.496094 236.800781 137.304688 236.90625 137.996094 C 237.011719 138.691406 239.25 140.128906 239.25 140.128906 C 239.25 140.128906 240.367188 147.578125 242.816406 149.335938 C 245.050781 150.613281 254.101562 150.933594 254.101562 150.933594 L 254.257812 159.238281 C 254.257812 159.238281 243.027344 161.101562 237.226562 165.359375 C 231.421875 169.617188 228.441406 176.429688 225.355469 185.105469 C 224.089844 188.664062 222.359375 193.898438 220.757812 198.839844 L 214.199219 143.59375 C 214.109375 142.8125 213.445312 142.222656 212.660156 142.222656 L 138.925781 142.222656 C 137.996094 142.222656 137.277344 143.035156 137.386719 143.960938 L 144.824219 206.605469 C 144.914062 207.386719 145.578125 207.972656 146.363281 207.972656 L 167.671875 207.972656 L 162.097656 227.1875 L 179.882812 227.1875 L 179.871094 227.246094 L 101.320312 227.246094 L 101.320312 234 L 104.613281 234 L 104.613281 235.757812 C 104.613281 237.191406 105.773438 238.351562 107.207031 238.351562 L 232.011719 238.351562 C 229.449219 240.167969 221.339844 246.316406 217.691406 253.878906 C 214.070312 261.011719 215.667969 265.589844 215.667969 271.128906 C 215.667969 276.664062 217.265625 296.039062 217.265625 296.039062 L 220.566406 339.902344 L 225.996094 340.113281 L 226.261719 344.371094 L 217.796875 347.671875 L 217.050781 347.832031 L 221.46875 351.984375 L 224.71875 351.824219 L 225.570312 352.039062 C 225.570312 352.039062 231.851562 348.789062 235.148438 347.9375 C 236.320312 349.109375 239.460938 351.929688 239.460938 351.929688 L 258.835938 351.71875 L 258.890625 343.574219 L 259.261719 340.113281 L 263.628906 339.953125 L 264.480469 325.15625 L 265.917969 302.800781 L 267.460938 285.660156 L 284.058594 285.460938 L 288.992188 356.804688 C 289.054688 357.695312 289.792969 358.386719 290.6875 358.386719 L 292.691406 358.386719 C 293.671875 358.386719 294.449219 357.558594 294.382812 356.578125 L 289.460938 285.445312 L 293.492188 285.445312 L 298.121094 322.386719 L 302.433594 357.414062 C 302.433594 357.414062 302.566406 358.425781 303.578125 358.371094 C 304.589844 358.320312 305.203125 358.480469 305.386719 358.132812 C 305.574219 357.785156 305.839844 357.46875 305.652344 356.269531 C 305.46875 355.070312 296.933594 285.039062 296.933594 285.039062 C 296.933594 285.039062 301.867188 284.042969 304.492188 281.84375 C 307.117188 279.644531 311.800781 274.269531 312.015625 258.882812 Z M 216.414062 212.46875 L 182.746094 222.246094 L 186.886719 207.972656 L 217.832031 207.972656 C 216.972656 210.6875 216.414062 212.46875 216.414062 212.46875 Z M 244.96875 344.5 L 240.664062 345.816406 L 240.832031 340.074219 C 240.832031 340.074219 245.050781 339.867188 245.121094 339.867188 C 245.191406 339.867188 244.96875 344.5 244.96875 344.5 Z M 257.847656 90.796875 C 269.222656 90.796875 278.445312 81.574219 278.445312 70.199219 C 278.445312 58.824219 269.222656 49.605469 257.847656 49.605469 C 246.472656 49.605469 237.25 58.824219 237.25 70.199219 C 237.25 81.574219 246.472656 90.796875 257.847656 90.796875 Z M 106.980469 356.578125 C 106.914062 357.558594 107.6875 358.386719 108.671875 358.386719 L 110.675781 358.386719 C 111.566406 358.386719 112.308594 357.695312 112.367188 356.804688 L 120.554688 238.445312 L 115.152344 238.445312 Z M 180.046875 268.019531 L 134.558594 268.019531 C 133.105469 268.019531 131.925781 269.199219 131.925781 270.652344 L 131.925781 355.796875 C 131.925781 357.25 133.105469 358.429688 134.558594 358.429688 L 180.046875 358.429688 C 181.503906 358.429688 182.683594 357.25 182.683594 355.796875 L 182.683594 270.652344 C 182.683594 269.199219 181.503906 268.019531 180.046875 268.019531 Z M 115.5 129.445312 C 116.40625 127.539062 116.964844 125.5625 117.210938 123.574219 L 117.328125 123.683594 L 191.015625 123.683594 C 191.792969 123.683594 192.421875 123.054688 192.421875 122.277344 L 192.421875 76.886719 L 196.46875 76.886719 L 196.46875 71.441406 C 197.644531 71.292969 198.792969 71.070312 199.910156 70.765625 L 201.972656 75.804688 L 207.65625 73.480469 L 205.589844 68.429688 C 206.675781 67.816406 207.707031 67.125 208.679688 66.363281 L 212.546875 70.226562 L 216.890625 65.882812 L 213.019531 62.011719 C 213.734375 61.09375 214.386719 60.125 214.96875 59.109375 L 220.015625 61.226562 L 222.390625 55.5625 L 217.339844 53.445312 C 217.671875 52.261719 217.914062 51.046875 218.066406 49.804688 L 223.550781 49.804688 L 223.550781 43.660156 L 218.054688 43.660156 C 217.910156 42.496094 217.683594 41.351562 217.378906 40.242188 L 222.46875 38.160156 L 220.144531 32.472656 L 215.035156 34.5625 C 214.425781 33.484375 213.738281 32.460938 212.980469 31.492188 L 216.890625 27.582031 L 212.546875 23.238281 L 208.632812 27.152344 C 207.71875 26.445312 206.757812 25.796875 205.75 25.21875 L 207.890625 20.113281 L 202.226562 17.738281 L 200.085938 22.839844 C 198.914062 22.511719 197.703125 22.273438 196.46875 22.117188 L 196.46875 16.578125 L 190.324219 16.578125 L 190.324219 22.113281 C 189.164062 22.261719 188.023438 22.480469 186.917969 22.777344 L 184.824219 17.660156 L 179.136719 19.988281 L 181.234375 25.109375 C 180.15625 25.714844 179.132812 26.398438 178.160156 27.152344 L 174.246094 23.238281 L 169.902344 27.582031 L 173.8125 31.492188 C 173.097656 32.402344 172.449219 33.367188 171.867188 34.371094 L 166.777344 32.238281 L 164.402344 37.902344 L 169.476562 40.03125 C 169.140625 41.210938 168.894531 42.421875 168.738281 43.660156 L 163.242188 43.660156 L 163.242188 47.800781 L 95.953125 47.800781 C 95.175781 47.800781 94.546875 48.433594 94.546875 49.210938 L 94.546875 101.898438 L 94.765625 102.105469 C 88.777344 103.144531 83.359375 106.96875 80.5625 112.863281 C 76.4375 121.558594 79.40625 131.804688 87.109375 137.082031 L 74.535156 163.570312 C 73.816406 165.089844 74.460938 166.902344 75.980469 167.621094 C 77.496094 168.339844 79.308594 167.695312 80.027344 166.179688 L 92.601562 139.6875 C 101.558594 142.316406 111.375 138.140625 115.5 129.445312 Z M 193.398438 29.1875 C 203.09375 29.1875 210.984375 37.078125 210.984375 46.777344 C 210.984375 56.476562 203.09375 64.363281 193.398438 64.363281 C 193.066406 64.363281 192.746094 64.332031 192.421875 64.316406 L 192.421875 49.210938 C 192.421875 48.433594 191.792969 47.800781 191.015625 47.800781 L 175.859375 47.800781 C 175.839844 47.460938 175.808594 47.125 175.808594 46.777344 C 175.808594 37.078125 183.699219 29.1875 193.398438 29.1875 Z M 110.007812 126.835938 C 106.875 133.441406 98.953125 136.265625 92.347656 133.128906 C 85.742188 129.996094 82.921875 122.074219 86.054688 115.46875 C 87.738281 111.921875 90.804688 109.476562 94.304688 108.445312 C 94.304688 108.449219 94.300781 108.453125 94.300781 108.453125 L 94.300781 121.65625 C 94.300781 122.832031 95.253906 123.785156 96.429688 123.785156 L 111.007812 123.785156 C 110.800781 124.816406 110.480469 125.84375 110.007812 126.835938 Z M 110.007812 126.835938 " fill-opacity="1" fill-rule="nonzero"/></g><g clip-path="url(#14d8cacebc)"><path fill="#ffcd77" d="M 254.890625 72.914062 L 257.941406 73.230469 L 257.894531 62.289062 L 252.023438 63.230469 L 252.023438 64.332031 L 249.113281 64.449219 C 249.113281 64.449219 247.421875 65.8125 247.421875 67.734375 C 247.421875 69.660156 249.207031 71.210938 249.207031 71.210938 L 250.148438 71.398438 L 250.335938 84.308594 L 253.808594 84.355469 L 253.621094 75.058594 L 254.890625 75.25 Z M 204.355469 227 L 204.355469 224.449219 L 247.8125 224.449219 L 247.8125 227 M 88.625 147.382812 L 83.515625 144.898438 L 74.5 164.0625 C 74.5 164.0625 73.363281 166.546875 75.847656 167.613281 C 78.332031 168.675781 79.753906 166.972656 80.320312 165.910156 C 80.886719 164.84375 88.625 147.382812 88.625 147.382812 Z M 117.582031 60.652344 L 117.617188 57.105469 C 117.617188 57.105469 122.550781 57.140625 125.386719 60.300781 C 128.226562 63.457031 129.007812 65.871094 128.867188 68.566406 C 126.347656 68.710938 125.707031 68.53125 125.707031 68.53125 C 125.707031 68.53125 126.203125 61.71875 117.582031 60.652344 Z M 144.695312 76.285156 C 144.695312 77.335938 143.84375 78.183594 142.796875 78.183594 C 141.746094 78.183594 140.898438 77.335938 140.898438 76.285156 C 140.898438 75.238281 141.746094 74.386719 142.796875 74.386719 C 143.84375 74.386719 144.695312 75.238281 144.695312 76.285156 Z M 130.816406 118.355469 L 125.921875 118.355469 L 125.921875 92.804688 L 130.816406 92.804688 Z M 117.617188 118.570312 L 117.03125 118.570312 C 117.03125 118.570312 116.503906 114.164062 115.753906 112.925781 C 114.316406 110.558594 112.933594 108.613281 112.933594 108.613281 L 112.933594 97.277344 L 117.617188 97.277344 Z M 156.296875 64.929688 C 156.296875 66 155.433594 66.863281 154.363281 66.863281 C 153.296875 66.863281 152.429688 66 152.429688 64.929688 C 152.429688 63.863281 153.296875 62.996094 154.363281 62.996094 C 155.433594 62.996094 156.296875 63.863281 156.296875 64.929688 Z M 165.914062 77.316406 C 165.914062 78.382812 165.050781 79.25 163.980469 79.25 C 162.914062 79.25 162.046875 78.382812 162.046875 77.316406 C 162.046875 76.246094 162.914062 75.382812 163.980469 75.382812 C 165.050781 75.382812 165.914062 76.246094 165.914062 77.316406 Z M 235.308594 347.886719 C 235.308594 347.886719 230.785156 349.109375 225.78125 351.929688 C 223.121094 351.824219 221.257812 351.878906 221.257812 351.878906 L 217.210938 348.046875 C 217.210938 348.046875 210.34375 349.695312 205.765625 353.476562 C 204.96875 355.019531 205.339844 357.839844 207.152344 358.210938 C 208.960938 358.585938 213.75 358.480469 213.75 358.480469 L 256.335938 358.480469 C 256.335938 358.480469 258.730469 358.320312 258.835938 355.710938 C 258.996094 354.007812 258.785156 351.773438 258.785156 351.773438 L 239.300781 351.929688 Z M 235.308594 347.886719 " fill-opacity="1" fill-rule="nonzero"/></g><g clip-path="url(#0375ca25d2)"><path fill="#35668f" d="M 297.320312 285.371094 C 307.15625 283.425781 312.402344 276.332031 312.402344 255.636719 C 312.402344 217.179688 303.894531 210.007812 302.160156 208.949219 C 302.703125 193.359375 296.925781 173.605469 292.84375 167.863281 C 287.386719 160.1875 271.855469 159 269.105469 158.847656 L 269.105469 153.105469 C 269.328125 152.492188 271.109375 147.675781 274.746094 141.34375 C 279.949219 132.273438 282.898438 120.332031 275.554688 114.023438 C 273.542969 112.296875 270.113281 111.1875 267.902344 111.523438 C 266.464844 109.910156 258.527344 102 243.988281 105.945312 C 233.671875 108.742188 230.957031 115.613281 231.648438 119.546875 C 232.023438 121.671875 233.273438 123.140625 234.996094 123.617188 C 232.378906 125.007812 231.71875 126.957031 231.570312 128.101562 C 231.292969 130.230469 232.347656 132.496094 234.199219 133.742188 C 235.367188 134.53125 236.683594 134.785156 237.960938 134.519531 C 237.234375 135.441406 236.46875 136.566406 236.34375 137.347656 C 236.117188 138.792969 238.394531 140.109375 239.15625 140.503906 C 239.511719 143.921875 240.460938 146.75 242.054688 149.140625 C 243.394531 151.148438 251.636719 151.253906 253.800781 151.25 L 253.800781 158.890625 C 251.40625 159.265625 238.796875 161.542969 233.304688 168.230469 C 228.738281 173.789062 225.054688 184.773438 221.804688 194.464844 C 221.519531 195.3125 221.238281 196.148438 220.957031 196.976562 L 214.613281 143.542969 C 214.496094 142.554688 213.65625 141.808594 212.660156 141.808594 L 138.925781 141.808594 C 138.363281 141.808594 137.828125 142.046875 137.453125 142.46875 C 137.082031 142.890625 136.90625 143.449219 136.972656 144.007812 L 144.410156 206.65625 C 144.527344 207.644531 145.367188 208.390625 146.363281 208.390625 L 167.117188 208.390625 L 161.769531 226.828125 L 101.320312 226.828125 C 101.089844 226.828125 100.902344 227.015625 100.902344 227.246094 L 100.902344 234 C 100.902344 234.230469 101.089844 234.417969 101.320312 234.417969 L 104.195312 234.417969 L 104.195312 235.757812 C 104.195312 237.417969 105.546875 238.769531 107.207031 238.769531 L 114.710938 238.769531 L 106.5625 356.550781 C 106.523438 357.132812 106.730469 357.707031 107.128906 358.132812 C 107.523438 358.5625 108.089844 358.804688 108.671875 358.804688 L 110.675781 358.804688 C 111.78125 358.804688 112.710938 357.9375 112.785156 356.835938 L 120.949219 238.769531 L 230.9375 238.769531 C 227.878906 240.992188 216.402344 249.945312 215.199219 260.089844 C 214.195312 268.578125 219.910156 337.191406 220.152344 340.109375 C 220.171875 340.324219 220.351562 340.492188 220.566406 340.492188 L 225.660156 340.492188 L 225.875 344.390625 C 220.746094 346.058594 205.671875 351.160156 205.316406 353.535156 C 205.199219 354.320312 205.148438 355.191406 205.160156 356.109375 C 205.160156 356.117188 205.15625 356.121094 205.15625 356.128906 C 205.15625 356.132812 205.160156 356.140625 205.160156 356.144531 C 205.160156 356.175781 205.15625 356.203125 205.160156 356.234375 C 205.183594 357.613281 206.367188 358.730469 207.792969 358.730469 L 256.394531 358.730469 C 257.878906 358.730469 259.09375 357.664062 259.269531 356.292969 C 259.292969 356.242188 259.304688 356.1875 259.304688 356.128906 C 259.304688 356.109375 259.296875 356.089844 259.292969 356.070312 C 259.296875 356.03125 259.304688 355.996094 259.304688 355.960938 L 259.304688 351.832031 C 259.304688 351.828125 259.304688 351.828125 259.304688 351.828125 L 259.304688 343.859375 L 259.574219 340.492188 L 263.574219 340.492188 C 263.796875 340.492188 263.976562 340.320312 263.992188 340.101562 C 265.0625 323.109375 266.5625 300.65625 267.6875 286 L 283.675781 286 L 288.578125 356.835938 C 288.652344 357.9375 289.578125 358.804688 290.6875 358.804688 L 292.691406 358.804688 C 293.273438 358.804688 293.835938 358.5625 294.234375 358.136719 C 294.632812 357.707031 294.835938 357.132812 294.796875 356.550781 L 289.917969 285.996094 C 291.066406 285.992188 292.171875 285.957031 293.234375 285.886719 L 301.988281 357.382812 C 302.085938 358.195312 302.773438 358.804688 303.589844 358.804688 L 304.523438 358.804688 C 304.984375 358.804688 305.425781 358.605469 305.734375 358.257812 C 306.039062 357.914062 306.183594 357.449219 306.128906 356.992188 Z M 111.953125 356.777344 C 111.90625 357.445312 111.34375 357.972656 110.675781 357.972656 L 108.671875 357.972656 C 108.3125 357.972656 107.980469 357.828125 107.738281 357.566406 C 107.492188 357.304688 107.371094 356.960938 107.394531 356.605469 L 115.539062 238.863281 L 120.109375 238.863281 Z M 242.75 148.675781 C 241.199219 146.351562 240.289062 143.574219 239.964844 140.195312 C 239.953125 140.050781 239.863281 139.921875 239.730469 139.859375 C 238.839844 139.429688 237.042969 138.285156 237.167969 137.476562 C 237.328125 136.457031 239.214844 134.269531 239.925781 133.511719 C 239.941406 133.496094 239.945312 133.480469 239.953125 133.464844 C 239.96875 133.445312 239.984375 133.421875 239.996094 133.398438 C 240.007812 133.371094 240.015625 133.34375 240.023438 133.3125 C 240.027344 133.296875 240.035156 133.285156 240.039062 133.269531 C 240.738281 126.785156 242.789062 121.191406 243.816406 119.128906 C 248.78125 132.828125 262.117188 133.722656 262.253906 133.730469 C 262.332031 133.734375 262.421875 133.714844 262.496094 133.667969 C 262.652344 133.570312 266.394531 131.347656 269.144531 134.722656 C 270.351562 136.199219 270.457031 138.203125 269.417969 139.824219 C 268.363281 141.464844 265.964844 142.886719 262.382812 141.957031 C 262.25 141.921875 262.109375 141.953125 262.003906 142.042969 C 261.902344 142.132812 261.847656 142.269531 261.863281 142.40625 C 261.898438 142.71875 262.785156 150.0625 268.273438 153.261719 L 268.273438 159.144531 C 267.933594 159.777344 265.625 163.636719 259.710938 163.636719 C 257.824219 163.636719 254.660156 163.066406 254.660156 159.246094 C 254.660156 159.203125 254.644531 159.164062 254.636719 159.128906 L 254.636719 150.832031 C 254.636719 150.71875 254.589844 150.613281 254.511719 150.535156 C 254.433594 150.457031 254.328125 150.414062 254.21875 150.414062 C 254.214844 150.414062 254.214844 150.414062 254.210938 150.414062 C 250.265625 150.46875 243.660156 150.039062 242.75 148.675781 Z M 146.363281 207.558594 C 145.789062 207.558594 145.304688 207.125 145.238281 206.554688 L 137.800781 143.910156 C 137.761719 143.589844 137.863281 143.265625 138.078125 143.023438 C 138.292969 142.78125 138.601562 142.640625 138.925781 142.640625 L 212.660156 142.640625 C 213.234375 142.640625 213.71875 143.070312 213.785156 143.640625 L 221.222656 206.289062 C 221.261719 206.609375 221.160156 206.933594 220.945312 207.175781 C 220.730469 207.417969 220.421875 207.558594 220.097656 207.558594 L 187.441406 207.558594 L 190.421875 197.28125 C 190.457031 197.15625 190.433594 197.019531 190.351562 196.914062 C 190.273438 196.808594 190.152344 196.75 190.019531 196.75 L 170.804688 196.75 C 170.621094 196.75 170.457031 196.871094 170.40625 197.050781 L 167.359375 207.558594 Z M 187.199219 208.390625 L 217.210938 208.390625 L 216.109375 211.84375 C 213.949219 212.523438 195.449219 218.335938 183.371094 221.582031 Z M 171.117188 197.582031 L 189.464844 197.582031 L 181.695312 224.371094 C 181.660156 224.496094 181.683594 224.632812 181.761719 224.738281 C 181.839844 224.839844 181.964844 224.902344 182.097656 224.902344 L 197.257812 224.902344 L 197.257812 226.769531 L 162.652344 226.769531 Z M 197.675781 224.070312 L 182.652344 224.070312 L 183.105469 222.5 C 183.109375 222.5 183.113281 222.5 183.113281 222.5 C 183.148438 222.5 183.1875 222.496094 183.222656 222.488281 C 195.992188 219.070312 216.363281 212.640625 216.566406 212.574219 C 216.695312 212.535156 216.796875 212.433594 216.835938 212.304688 L 218.085938 208.390625 L 220.097656 208.390625 C 220.660156 208.390625 221.195312 208.148438 221.570312 207.730469 C 221.941406 207.308594 222.117188 206.746094 222.050781 206.191406 L 221.1875 198.898438 C 221.1875 198.898438 221.1875 198.898438 221.1875 198.894531 C 221.648438 197.546875 222.117188 196.152344 222.59375 194.730469 C 225.820312 185.105469 229.480469 174.199219 233.949219 168.757812 C 239.113281 162.472656 251.324219 160.148438 253.839844 159.730469 C 254.042969 162.75 256.15625 164.46875 259.710938 164.46875 C 265.761719 164.46875 268.34375 160.691406 268.929688 159.675781 C 271.121094 159.796875 286.902344 160.945312 292.164062 168.347656 C 296.195312 174.019531 301.90625 193.59375 301.328125 209 C 301.328125 209.003906 301.324219 209.007812 301.324219 209.007812 C 301.277344 209.113281 301.28125 209.230469 301.320312 209.328125 C 301.21875 211.609375 300.984375 213.796875 300.578125 215.824219 C 299.515625 221.140625 297.40625 224.835938 294.316406 226.828125 L 277.648438 226.828125 C 265.9375 224.25 252.441406 218.871094 250.164062 217.945312 L 253.390625 205.148438 L 283.492188 209.328125 C 283.710938 209.359375 283.933594 209.203125 283.964844 208.972656 C 283.996094 208.746094 283.835938 208.535156 283.609375 208.503906 L 253.136719 204.273438 C 252.925781 204.242188 252.726562 204.375 252.675781 204.582031 L 252.527344 205.171875 C 248.164062 203.183594 244.117188 202.398438 240.503906 202.871094 C 237.992188 203.195312 233.566406 204.566406 230.3125 206.460938 C 227.957031 207.828125 227.34375 209.277344 227.777344 210.109375 C 227.902344 210.347656 228.144531 210.550781 228.488281 210.652344 C 227.707031 211.441406 227.675781 212.257812 227.980469 212.851562 C 228.292969 213.449219 228.9375 213.800781 229.589844 213.800781 C 229.824219 213.800781 230.0625 213.75 230.285156 213.652344 C 230.246094 213.976562 230.265625 214.359375 230.484375 214.710938 C 230.839844 215.273438 231.558594 215.558594 232.632812 215.558594 C 232.664062 215.558594 232.695312 215.558594 232.726562 215.558594 C 233.148438 215.550781 233.636719 215.492188 234.152344 215.410156 C 234.085938 216.039062 234.347656 216.441406 234.609375 216.675781 C 235.035156 217.054688 235.746094 217.242188 236.691406 217.242188 C 238.503906 217.242188 241.191406 216.554688 244.417969 215.230469 C 245.019531 215.386719 247.542969 216.039062 249.640625 216.613281 L 249.269531 218.089844 C 249.214844 218.292969 249.320312 218.5 249.511719 218.578125 C 249.648438 218.636719 262.117188 223.78125 274.058594 226.828125 L 248.230469 226.828125 L 248.230469 224.449219 C 248.230469 224.21875 248.042969 224.03125 247.8125 224.03125 L 204.355469 224.03125 C 204.125 224.03125 203.9375 224.21875 203.9375 224.449219 L 203.9375 226.828125 L 198.09375 226.828125 L 198.09375 224.484375 C 198.09375 224.253906 197.90625 224.070312 197.675781 224.070312 Z M 235.027344 215.253906 C 235.03125 215.25 235.027344 215.246094 235.027344 215.238281 C 237.988281 214.601562 241.554688 213.214844 241.746094 213.140625 C 241.960938 213.058594 242.066406 212.816406 241.980469 212.601562 C 241.898438 212.386719 241.65625 212.28125 241.441406 212.363281 C 241.382812 212.386719 235.496094 214.679688 232.714844 214.722656 C 231.9375 214.746094 231.390625 214.578125 231.195312 214.269531 C 230.957031 213.894531 231.234375 213.308594 231.234375 213.304688 C 231.253906 213.269531 231.257812 213.234375 231.265625 213.199219 C 236.070312 211.011719 240.457031 209.925781 240.503906 209.914062 C 240.726562 209.859375 240.863281 209.632812 240.808594 209.410156 C 240.753906 209.1875 240.53125 209.050781 240.304688 209.105469 C 240.253906 209.117188 235.207031 210.363281 229.972656 212.882812 C 229.480469 213.117188 228.921875 212.851562 228.722656 212.46875 C 228.429688 211.90625 228.894531 211.199219 229.9375 210.621094 C 235.664062 207.445312 239.984375 207.019531 240.027344 207.015625 C 240.257812 206.996094 240.425781 206.792969 240.40625 206.5625 C 240.382812 206.332031 240.175781 206.171875 239.953125 206.183594 C 239.777344 206.199219 235.699219 206.605469 230.101562 209.589844 C 230.074219 209.59375 230.046875 209.59375 230.023438 209.605469 C 229.210938 209.992188 228.640625 209.949219 228.515625 209.71875 C 228.359375 209.417969 228.699219 208.363281 230.730469 207.179688 C 233.777344 205.410156 238.148438 204.019531 240.613281 203.699219 C 244.105469 203.246094 248.042969 204.019531 252.320312 205.992188 L 249.84375 215.804688 C 247.441406 215.148438 244.492188 214.386719 244.492188 214.386719 C 244.402344 214.363281 244.308594 214.371094 244.226562 214.40625 C 239.078125 216.539062 235.96875 216.769531 235.164062 216.054688 C 235.039062 215.941406 234.890625 215.738281 235.027344 215.253906 Z M 247.394531 226.828125 L 204.773438 226.828125 L 204.773438 224.867188 L 247.394531 224.867188 Z M 105.03125 235.757812 L 105.03125 234.417969 L 295.085938 234.417969 L 295.085938 235.757812 C 295.085938 236.957031 294.109375 237.9375 292.910156 237.9375 L 107.207031 237.9375 C 106.007812 237.9375 105.03125 236.957031 105.03125 235.757812 Z M 287.925781 255.261719 C 287.925781 255.628906 287.902344 255.988281 287.867188 256.34375 L 286.652344 238.769531 L 287.933594 238.769531 C 287.933594 238.78125 287.925781 238.792969 287.925781 238.804688 Z M 226.4375 345.085938 C 226.617188 345.027344 226.734375 344.855469 226.726562 344.667969 L 226.496094 340.492188 L 240.394531 340.492188 L 240.234375 343.828125 L 240.246094 345.617188 C 235.519531 347.222656 229.183594 349.527344 225.699219 351.414062 C 225.695312 351.414062 225.691406 351.414062 225.691406 351.414062 L 221.292969 351.414062 L 217.800781 348.078125 C 220.53125 347.066406 223.503906 346.035156 226.4375 345.085938 Z M 244.542969 340.492188 L 244.550781 344.195312 C 243.652344 344.484375 242.449219 344.875 241.078125 345.335938 L 241.066406 343.84375 L 241.230469 340.492188 Z M 258.472656 355.710938 L 223.820312 355.710938 C 223.828125 354.984375 223.867188 354.285156 223.960938 353.660156 C 224.09375 352.792969 228.785156 350.683594 234.898438 348.410156 L 238.84375 352.132812 C 238.921875 352.207031 239.023438 352.246094 239.128906 352.246094 L 258.472656 352.246094 Z M 216.929688 348.402344 L 220.835938 352.132812 C 220.914062 352.207031 221.015625 352.246094 221.125 352.246094 L 224.3125 352.246094 C 223.617188 352.730469 223.195312 353.167969 223.136719 353.535156 C 223.035156 354.203125 222.996094 354.941406 222.988281 355.710938 L 206 355.710938 C 206.007812 354.984375 206.046875 354.289062 206.140625 353.660156 C 206.273438 352.777344 210.925781 350.660156 216.929688 348.402344 Z M 258.472656 343.824219 L 258.472656 351.414062 L 239.292969 351.414062 L 235.769531 348.089844 C 238.707031 347.011719 241.921875 345.910156 245.09375 344.894531 C 245.265625 344.839844 245.382812 344.679688 245.382812 344.496094 L 245.378906 340.492188 L 258.738281 340.492188 Z M 263.183594 339.65625 L 240.875 339.65625 C 240.863281 334.261719 240.757812 266.082031 241.472656 259.660156 C 242.195312 253.164062 252.015625 245.910156 252.113281 245.839844 C 252.296875 245.703125 252.339844 245.441406 252.203125 245.257812 C 252.066406 245.070312 251.804688 245.03125 251.621094 245.167969 C 251.203125 245.46875 241.40625 252.707031 240.644531 259.566406 C 239.917969 266.109375 240.027344 333.628906 240.039062 339.65625 L 220.953125 339.65625 C 220.484375 334.003906 215.070312 268.269531 216.027344 260.1875 C 217.339844 249.101562 231.988281 239.042969 232.136719 238.941406 C 232.199219 238.898438 232.242188 238.835938 232.273438 238.769531 L 280.410156 238.769531 L 282.199219 264.628906 C 278.878906 266.804688 274.753906 268.097656 272.007812 268.949219 C 269.710938 269.664062 268.683594 270.003906 268.390625 270.515625 C 267.484375 272.101562 263.726562 331.09375 263.183594 339.65625 Z M 267.75 285.164062 C 268.378906 277.046875 268.878906 271.5 269.113281 270.933594 C 269.3125 270.664062 270.875 270.175781 272.257812 269.746094 C 274.941406 268.910156 278.921875 267.65625 282.265625 265.570312 L 283.621094 285.164062 Z M 293.625 357.566406 C 293.378906 357.828125 293.046875 357.972656 292.691406 357.972656 L 290.6875 357.972656 C 290.015625 357.972656 289.453125 357.445312 289.410156 356.777344 L 281.253906 238.863281 L 285.820312 238.863281 L 287.21875 259.070312 C 287.21875 259.085938 287.222656 259.097656 287.222656 259.113281 L 293.964844 356.605469 C 293.992188 356.960938 293.871094 357.304688 293.625 357.566406 Z M 288.058594 259.121094 C 288.523438 257.914062 288.761719 256.617188 288.761719 255.261719 L 288.761719 238.804688 C 288.761719 238.792969 288.753906 238.78125 288.753906 238.769531 L 292.910156 238.769531 C 294.570312 238.769531 295.921875 237.417969 295.921875 235.757812 L 295.921875 234.417969 L 298.796875 234.417969 C 299.027344 234.417969 299.210938 234.230469 299.210938 234 L 299.210938 227.246094 C 299.210938 227.015625 299.027344 226.828125 298.796875 226.828125 L 295.738281 226.828125 C 298.496094 224.605469 300.402344 220.96875 301.394531 215.988281 C 301.773438 214.097656 302.003906 212.070312 302.117188 209.957031 C 304.253906 211.71875 311.570312 220.335938 311.570312 255.636719 C 311.570312 280.5 304.257812 285.128906 289.859375 285.164062 Z M 305.109375 357.707031 C 304.957031 357.878906 304.75 357.972656 304.523438 357.972656 L 303.589844 357.972656 C 303.195312 357.972656 302.863281 357.675781 302.816406 357.28125 L 294.066406 285.820312 C 294.90625 285.746094 295.714844 285.644531 296.5 285.515625 L 305.300781 357.09375 C 305.328125 357.316406 305.261719 357.535156 305.109375 357.707031 Z M 251.800781 139.894531 C 248.34375 140.332031 245.195312 141.394531 243.628906 141.992188 C 243.242188 142.136719 242.972656 142.46875 242.902344 142.875 C 242.832031 143.292969 242.984375 143.699219 243.304688 143.96875 C 245.144531 145.511719 246.675781 146.007812 247.882812 146.007812 C 249.03125 146.007812 249.886719 145.558594 250.433594 145.144531 C 252.140625 143.84375 252.800781 141.382812 252.230469 140.132812 C 252.15625 139.96875 251.976562 139.871094 251.800781 139.894531 Z M 249.925781 144.480469 C 248.335938 145.695312 246.171875 145.285156 243.839844 143.332031 C 243.746094 143.253906 243.703125 143.136719 243.726562 143.015625 C 243.734375 142.960938 243.773438 142.828125 243.921875 142.769531 C 245.40625 142.207031 248.324219 141.21875 251.5625 140.765625 C 251.75 141.722656 251.234375 143.484375 249.925781 144.480469 Z M 115.878906 129.621094 C 116.730469 127.828125 117.28125 125.972656 117.5625 124.101562 L 191.015625 124.101562 C 192.019531 124.101562 192.839844 123.285156 192.839844 122.277344 L 192.839844 77.304688 L 196.886719 77.304688 L 196.886719 71.804688 C 197.824219 71.675781 198.753906 71.492188 199.660156 71.261719 L 201.742188 76.347656 L 208.199219 73.707031 L 206.113281 68.609375 C 206.988281 68.097656 207.835938 67.53125 208.644531 66.914062 L 212.546875 70.816406 L 217.480469 65.882812 L 213.574219 61.976562 C 214.136719 61.226562 214.664062 60.441406 215.144531 59.636719 L 220.238281 61.773438 L 222.9375 55.339844 L 217.839844 53.199219 C 218.097656 52.222656 218.292969 51.226562 218.433594 50.222656 L 223.96875 50.222656 L 223.96875 43.242188 L 218.421875 43.242188 C 218.289062 42.3125 218.105469 41.390625 217.875 40.488281 L 223.011719 38.386719 L 220.371094 31.929688 L 215.214844 34.039062 C 214.707031 33.175781 214.144531 32.332031 213.535156 31.527344 L 217.480469 27.582031 L 212.546875 22.648438 L 208.59375 26.601562 C 207.851562 26.039062 207.078125 25.519531 206.277344 25.042969 L 208.4375 19.890625 L 202.003906 17.191406 L 199.84375 22.339844 C 198.894531 22.09375 197.90625 21.894531 196.886719 21.753906 L 196.886719 16.160156 L 189.90625 16.160156 L 189.90625 21.75 C 188.96875 21.878906 188.046875 22.058594 187.164062 22.285156 L 185.050781 17.117188 L 178.59375 19.757812 L 180.707031 24.929688 C 179.84375 25.433594 179 25.996094 178.199219 26.601562 L 174.246094 22.648438 L 169.3125 27.582031 L 173.257812 31.527344 C 172.695312 32.269531 172.171875 33.046875 171.691406 33.847656 L 166.554688 31.691406 L 163.855469 38.128906 L 168.976562 40.273438 C 168.71875 41.246094 168.515625 42.242188 168.375 43.242188 L 162.828125 43.242188 L 162.828125 47.386719 L 95.953125 47.386719 C 94.949219 47.386719 94.128906 48.203125 94.128906 49.210938 L 94.128906 101.796875 C 88.238281 102.992188 82.957031 106.847656 80.1875 112.683594 C 76.054688 121.390625 78.746094 131.652344 86.578125 137.222656 L 74.160156 163.394531 C 73.761719 164.226562 73.714844 165.164062 74.027344 166.035156 C 74.335938 166.90625 74.964844 167.601562 75.800781 167.996094 C 76.269531 168.222656 76.773438 168.332031 77.28125 168.332031 C 77.671875 168.332031 78.0625 168.265625 78.441406 168.132812 C 79.3125 167.820312 80.007812 167.191406 80.40625 166.355469 L 92.824219 140.1875 C 102.09375 142.730469 111.746094 138.328125 115.878906 129.621094 Z M 117.308594 116.894531 C 116.628906 113.835938 115.230469 110.953125 113.207031 108.515625 L 113.21875 97.757812 L 117.320312 97.769531 Z M 176.253906 47.386719 C 176.242188 47.183594 176.226562 46.980469 176.226562 46.777344 C 176.226562 37.308594 183.929688 29.605469 193.398438 29.605469 C 202.867188 29.605469 210.570312 37.308594 210.570312 46.777344 C 210.570312 56.246094 202.863281 63.949219 193.398438 63.949219 C 193.207031 63.949219 193.023438 63.933594 192.839844 63.921875 L 192.839844 49.210938 C 192.839844 48.203125 192.019531 47.386719 191.015625 47.386719 Z M 163.660156 44.078125 L 169.109375 44.078125 L 169.152344 43.710938 C 169.304688 42.507812 169.546875 41.308594 169.875 40.144531 L 169.976562 39.789062 L 164.949219 37.679688 L 167 32.785156 L 172.042969 34.898438 L 172.226562 34.582031 C 172.796875 33.597656 173.441406 32.644531 174.140625 31.75 L 174.367188 31.457031 L 170.492188 27.582031 L 174.246094 23.828125 L 178.128906 27.707031 L 178.417969 27.484375 C 179.371094 26.738281 180.386719 26.0625 181.4375 25.472656 L 181.757812 25.292969 L 179.679688 20.214844 L 184.59375 18.203125 L 186.671875 23.277344 L 187.027344 23.179688 C 188.09375 22.894531 189.21875 22.671875 190.378906 22.527344 L 190.742188 22.484375 L 190.742188 16.996094 L 196.050781 16.996094 L 196.050781 22.484375 L 196.417969 22.53125 C 197.652344 22.6875 198.851562 22.925781 199.972656 23.242188 L 200.328125 23.339844 L 202.449219 18.28125 L 207.347656 20.335938 L 205.222656 25.394531 L 205.542969 25.578125 C 206.527344 26.144531 207.480469 26.785156 208.375 27.480469 L 208.664062 27.707031 L 212.546875 23.828125 L 216.300781 27.582031 L 212.425781 31.457031 L 212.652344 31.75 C 213.402344 32.707031 214.082031 33.722656 214.671875 34.769531 L 214.855469 35.085938 L 219.914062 33.015625 L 221.925781 37.929688 L 216.878906 39.996094 L 216.976562 40.351562 C 217.273438 41.445312 217.5 42.574219 217.640625 43.714844 L 217.6875 44.078125 L 223.132812 44.078125 L 223.132812 49.386719 L 217.695312 49.386719 L 217.652344 49.753906 C 217.503906 50.960938 217.265625 52.164062 216.941406 53.332031 L 216.84375 53.6875 L 221.847656 55.785156 L 219.792969 60.683594 L 214.789062 58.585938 L 214.605469 58.902344 C 214.039062 59.894531 213.394531 60.855469 212.691406 61.757812 L 212.464844 62.046875 L 216.300781 65.882812 L 212.546875 69.636719 L 208.714844 65.804688 L 208.425781 66.03125 C 207.460938 66.785156 206.441406 67.46875 205.386719 68.066406 L 205.066406 68.246094 L 207.113281 73.25 L 202.199219 75.261719 L 200.15625 70.265625 L 199.800781 70.363281 C 198.703125 70.660156 197.566406 70.882812 196.417969 71.027344 L 196.050781 71.070312 L 196.050781 76.46875 L 192.839844 76.46875 L 192.839844 64.761719 C 193.023438 64.773438 193.207031 64.78125 193.398438 64.78125 C 203.324219 64.78125 211.402344 56.703125 211.402344 46.777344 C 211.402344 36.847656 203.324219 28.773438 193.398438 28.773438 C 183.46875 28.773438 175.390625 36.847656 175.390625 46.777344 C 175.390625 46.980469 175.402344 47.183594 175.414062 47.386719 L 163.660156 47.386719 Z M 94.964844 49.210938 C 94.964844 48.664062 95.410156 48.21875 95.953125 48.21875 L 191.015625 48.21875 C 191.558594 48.21875 192.003906 48.664062 192.003906 49.210938 L 192.003906 122.277344 C 192.003906 122.824219 191.558594 123.269531 191.015625 123.269531 L 117.667969 123.269531 C 117.828125 121.777344 117.8125 120.285156 117.636719 118.820312 C 117.941406 118.691406 118.152344 118.386719 118.152344 118.039062 L 118.152344 97.769531 C 118.152344 97.304688 117.773438 96.921875 117.308594 96.921875 L 113.21875 96.921875 C 112.753906 96.921875 112.371094 97.304688 112.371094 97.769531 L 112.371094 107.574219 C 110.742188 105.847656 108.773438 104.386719 106.5 103.308594 C 106.035156 103.085938 105.566406 102.894531 105.09375 102.710938 L 105.09375 92.027344 C 105.09375 91.5625 104.714844 91.179688 104.246094 91.179688 L 100.160156 91.179688 C 99.691406 91.179688 99.3125 91.5625 99.3125 92.027344 L 99.3125 101.445312 C 97.851562 101.351562 96.390625 101.421875 94.964844 101.648438 Z M 104.261719 102.414062 C 102.90625 101.960938 101.527344 101.664062 100.148438 101.515625 L 100.160156 92.015625 L 104.261719 92.027344 Z M 79.652344 166 C 79.351562 166.632812 78.820312 167.109375 78.164062 167.347656 C 77.503906 167.578125 76.792969 167.542969 76.15625 167.246094 C 75.523438 166.945312 75.046875 166.414062 74.8125 165.753906 C 74.578125 165.09375 74.613281 164.382812 74.914062 163.75 L 83.621094 145.402344 L 88.359375 147.648438 Z M 92.71875 139.289062 L 92.375 139.1875 L 88.71875 146.898438 L 83.980469 144.648438 L 87.636719 136.9375 L 87.34375 136.738281 C 79.625 131.449219 76.933594 121.484375 80.9375 113.042969 C 84.171875 106.226562 90.976562 102.234375 98.0625 102.234375 C 100.777344 102.234375 103.53125 102.820312 106.144531 104.0625 C 115.566406 108.535156 119.597656 119.839844 115.125 129.265625 C 111.117188 137.707031 101.695312 141.921875 92.71875 139.289062 Z M 103.894531 108.800781 C 102.59375 108.179688 101.226562 107.789062 99.835938 107.601562 C 99.800781 107.59375 99.765625 107.582031 99.730469 107.582031 C 99.714844 107.582031 99.707031 107.585938 99.691406 107.589844 C 97.609375 107.332031 95.480469 107.550781 93.445312 108.277344 C 90 109.503906 87.242188 111.996094 85.679688 115.289062 C 84.113281 118.585938 83.929688 122.296875 85.15625 125.742188 C 86.382812 129.1875 88.875 131.945312 92.167969 133.507812 C 94.023438 134.386719 96.011719 134.832031 98.011719 134.832031 C 99.558594 134.832031 101.117188 134.566406 102.621094 134.027344 C 106.0625 132.800781 108.820312 130.3125 110.386719 127.015625 C 113.617188 120.203125 110.707031 112.03125 103.894531 108.800781 Z M 104.257812 109.941406 L 104.246094 118.050781 L 100.144531 118.039062 L 100.144531 108.503906 C 101.304688 108.699219 102.445312 109.035156 103.535156 109.554688 C 103.785156 109.671875 104.019531 109.808594 104.257812 109.941406 Z M 109.632812 126.660156 C 108.164062 129.753906 105.574219 132.089844 102.339844 133.242188 C 99.105469 134.398438 95.621094 134.222656 92.527344 132.753906 C 89.433594 131.285156 87.09375 128.695312 85.941406 125.460938 C 84.789062 122.226562 84.964844 118.742188 86.433594 115.648438 C 87.898438 112.554688 90.488281 110.214844 93.722656 109.0625 C 93.859375 109.015625 93.996094 108.980469 94.128906 108.9375 L 94.128906 122.277344 C 94.128906 123.285156 94.949219 124.101562 95.953125 124.101562 L 110.527344 124.101562 C 110.320312 124.96875 110.027344 125.824219 109.632812 126.660156 Z M 110.6875 123.269531 L 95.953125 123.269531 C 95.410156 123.269531 94.964844 122.824219 94.964844 122.277344 L 94.964844 108.695312 C 95.984375 108.441406 97.019531 108.308594 98.054688 108.308594 C 98.472656 108.308594 98.894531 108.339844 99.3125 108.378906 L 99.3125 118.039062 C 99.3125 118.503906 99.691406 118.886719 100.160156 118.886719 L 104.246094 118.886719 C 104.714844 118.886719 105.09375 118.503906 105.09375 118.039062 L 105.09375 110.445312 C 109.359375 113.257812 111.507812 118.328125 110.6875 123.269531 Z M 162.4375 92.003906 L 162.4375 118.0625 C 162.4375 118.515625 162.808594 118.886719 163.261719 118.886719 L 186.90625 118.886719 C 187.359375 118.886719 187.730469 118.515625 187.730469 118.0625 L 187.730469 92.003906 C 187.730469 91.550781 187.359375 91.179688 186.90625 91.179688 L 163.261719 91.179688 C 162.808594 91.179688 162.4375 91.550781 162.4375 92.003906 Z M 163.273438 92.015625 L 186.894531 92.003906 L 186.90625 118.050781 L 163.273438 118.0625 Z M 156.511719 91.179688 L 152.375 91.179688 C 151.921875 91.179688 151.550781 91.550781 151.550781 92.003906 L 151.550781 118.0625 C 151.550781 118.515625 151.921875 118.886719 152.375 118.886719 L 156.511719 118.886719 C 156.964844 118.886719 157.332031 118.515625 157.332031 118.0625 L 157.332031 92.003906 C 157.332031 91.550781 156.964844 91.179688 156.511719 91.179688 Z M 139.316406 118.886719 L 143.449219 118.886719 C 143.902344 118.886719 144.273438 118.515625 144.273438 118.0625 L 144.273438 102.699219 C 144.273438 102.246094 143.902344 101.878906 143.449219 101.878906 L 139.316406 101.878906 C 138.863281 101.878906 138.492188 102.246094 138.492188 102.699219 L 138.492188 118.0625 C 138.492188 118.515625 138.863281 118.886719 139.316406 118.886719 Z M 139.324219 102.710938 L 143.441406 102.699219 L 143.449219 118.050781 L 139.324219 118.0625 Z M 125.433594 93.320312 L 125.433594 118.0625 C 125.433594 118.515625 125.800781 118.886719 126.253906 118.886719 L 130.390625 118.886719 C 130.84375 118.886719 131.214844 118.515625 131.214844 118.0625 L 131.214844 93.320312 C 131.214844 92.863281 130.84375 92.496094 130.390625 92.496094 L 126.253906 92.496094 C 125.800781 92.496094 125.433594 92.863281 125.433594 93.320312 Z M 126.265625 93.328125 L 130.378906 93.320312 L 130.390625 118.050781 L 126.265625 118.0625 Z M 117.570312 80.664062 C 124.144531 80.664062 129.492188 75.316406 129.492188 68.742188 C 129.492188 62.171875 124.144531 56.824219 117.570312 56.824219 C 111 56.824219 105.652344 62.171875 105.652344 68.742188 C 105.652344 75.316406 111 80.664062 117.570312 80.664062 Z M 106.503906 69.097656 L 109.171875 69.097656 C 109.351562 73.4375 112.824219 76.925781 117.152344 77.140625 L 117.152344 79.808594 C 111.355469 79.589844 106.6875 74.90625 106.503906 69.097656 Z M 117.570312 61.160156 C 121.753906 61.160156 125.15625 64.5625 125.15625 68.742188 C 125.15625 72.925781 121.753906 76.328125 117.570312 76.328125 C 113.390625 76.328125 109.988281 72.925781 109.988281 68.742188 C 109.988281 64.5625 113.390625 61.160156 117.570312 61.160156 Z M 117.988281 79.808594 L 117.988281 77.140625 C 122.316406 76.925781 125.789062 73.4375 125.972656 69.097656 L 128.640625 69.097656 C 128.453125 74.90625 123.789062 79.589844 117.988281 79.808594 Z M 128.632812 68.265625 L 125.964844 68.265625 C 125.722656 63.984375 122.277344 60.558594 117.988281 60.347656 L 117.988281 57.679688 C 123.746094 57.894531 128.382812 62.515625 128.632812 68.265625 Z M 117.152344 57.679688 L 117.152344 60.347656 C 112.867188 60.558594 109.417969 63.984375 109.175781 68.265625 L 106.507812 68.265625 C 106.757812 62.515625 111.394531 57.894531 117.152344 57.679688 Z M 257.847656 91.214844 C 269.433594 91.214844 278.859375 81.785156 278.859375 70.199219 C 278.859375 58.613281 269.433594 49.1875 257.847656 49.1875 C 246.261719 49.1875 236.835938 58.613281 236.835938 70.199219 C 236.835938 81.785156 246.261719 91.214844 257.847656 91.214844 Z M 257.847656 50.019531 C 268.976562 50.019531 278.027344 59.074219 278.027344 70.199219 C 278.027344 81.328125 268.976562 90.378906 257.847656 90.378906 C 246.722656 90.378906 237.667969 81.328125 237.667969 70.199219 C 237.667969 59.074219 246.722656 50.019531 257.847656 50.019531 Z M 248.8125 71.578125 C 248.890625 71.65625 248.996094 71.703125 249.113281 71.703125 L 249.820312 71.703125 L 249.820312 84.226562 C 249.820312 84.457031 250.007812 84.644531 250.238281 84.644531 L 253.914062 84.644531 C 254.03125 84.644531 254.140625 84.597656 254.21875 84.515625 C 254.296875 84.433594 254.339844 84.320312 254.332031 84.207031 L 253.894531 75.683594 L 254.964844 75.683594 C 255.195312 75.683594 255.382812 75.496094 255.382812 75.265625 L 255.382812 73.316406 L 263.046875 74.683594 L 267.167969 77.917969 C 267.242188 77.980469 267.332031 78.007812 267.425781 78.007812 C 267.488281 78.007812 267.550781 77.996094 267.609375 77.96875 C 267.75 77.898438 267.84375 77.75 267.84375 77.59375 L 267.84375 58.152344 C 267.84375 57.992188 267.75 57.847656 267.609375 57.777344 C 267.464844 57.707031 267.292969 57.726562 267.167969 57.824219 L 263.046875 61.0625 L 252.191406 62.996094 C 251.992188 63.03125 251.847656 63.203125 251.847656 63.40625 L 251.847656 64.039062 L 249.113281 64.039062 C 249.09375 64.039062 249.078125 64.046875 249.058594 64.050781 C 249.03125 64.054688 249.003906 64.058594 248.976562 64.066406 C 248.949219 64.078125 248.925781 64.09375 248.898438 64.105469 C 248.882812 64.117188 248.867188 64.121094 248.851562 64.132812 C 248.785156 64.183594 247.214844 65.457031 247.070312 67.484375 C 246.972656 68.867188 247.558594 70.246094 248.808594 71.574219 C 248.808594 71.574219 248.8125 71.574219 248.8125 71.578125 Z M 250.65625 83.8125 L 250.65625 71.703125 L 251.847656 71.703125 L 251.847656 72.339844 C 251.847656 72.539062 251.992188 72.714844 252.191406 72.75 L 252.914062 72.878906 L 253.476562 83.8125 Z M 254.550781 74.847656 L 253.851562 74.847656 L 253.757812 73.027344 L 254.550781 73.167969 Z M 263.296875 61.867188 C 263.363281 61.855469 263.425781 61.824219 263.480469 61.78125 L 267.007812 59.011719 L 267.007812 76.734375 L 263.480469 73.960938 C 263.425781 73.917969 263.363281 73.890625 263.296875 73.878906 L 258.3125 72.992188 L 258.3125 62.753906 Z M 252.683594 63.753906 L 257.476562 62.902344 L 257.476562 72.84375 L 252.683594 71.988281 Z M 249.53125 64.875 L 251.847656 64.875 L 251.847656 70.871094 L 249.53125 70.871094 Z M 180.046875 267.601562 L 134.5625 267.601562 C 132.878906 267.601562 131.507812 268.972656 131.507812 270.65625 L 131.507812 355.796875 C 131.507812 357.476562 132.878906 358.847656 134.5625 358.847656 L 180.046875 358.847656 C 181.730469 358.847656 183.097656 357.476562 183.097656 355.796875 L 183.097656 270.65625 C 183.101562 268.972656 181.730469 267.601562 180.046875 267.601562 Z M 182.265625 355.792969 C 182.265625 357.015625 181.269531 358.011719 180.046875 358.011719 L 134.5625 358.011719 C 133.335938 358.011719 132.34375 357.015625 132.34375 355.792969 L 132.34375 270.65625 C 132.34375 269.429688 133.335938 268.4375 134.5625 268.4375 L 180.046875 268.4375 C 181.269531 268.4375 182.265625 269.429688 182.265625 270.65625 Z M 176.550781 273.519531 L 138.054688 273.519531 C 137.824219 273.519531 137.640625 273.707031 137.640625 273.9375 L 137.640625 288.578125 C 137.640625 288.808594 137.824219 288.996094 138.054688 288.996094 L 176.550781 288.996094 C 176.78125 288.996094 176.96875 288.808594 176.96875 288.578125 L 176.96875 273.9375 C 176.96875 273.707031 176.78125 273.519531 176.550781 273.519531 Z M 176.136719 274.355469 L 176.136719 288.160156 L 138.472656 288.160156 L 138.472656 274.355469 M 176.550781 294.832031 L 138.054688 294.832031 C 137.824219 294.832031 137.640625 295.019531 137.640625 295.25 L 137.640625 309.890625 C 137.640625 310.121094 137.824219 310.308594 138.054688 310.308594 L 176.550781 310.308594 C 176.78125 310.308594 176.96875 310.121094 176.96875 309.890625 L 176.96875 295.25 C 176.96875 295.019531 176.78125 294.832031 176.550781 294.832031 Z M 176.136719 309.472656 L 138.472656 309.472656 L 138.472656 295.664062 L 176.136719 295.664062 Z M 176.550781 316.144531 L 138.054688 316.144531 C 137.824219 316.144531 137.640625 316.328125 137.640625 316.558594 L 137.640625 331.199219 C 137.640625 331.429688 137.824219 331.617188 138.054688 331.617188 L 176.550781 331.617188 C 176.78125 331.617188 176.96875 331.429688 176.96875 331.199219 L 176.96875 316.558594 C 176.96875 316.328125 176.78125 316.144531 176.550781 316.144531 Z M 176.136719 330.785156 L 138.472656 330.785156 L 138.472656 316.976562 L 176.136719 316.976562 Z M 176.550781 337.453125 L 138.054688 337.453125 C 137.824219 337.453125 137.640625 337.640625 137.640625 337.871094 L 137.640625 352.511719 C 137.640625 352.742188 137.824219 352.929688 138.054688 352.929688 L 176.550781 352.929688 C 176.78125 352.929688 176.96875 352.742188 176.96875 352.511719 L 176.96875 337.871094 C 176.96875 337.640625 176.78125 337.453125 176.550781 337.453125 Z M 176.136719 352.09375 L 138.472656 352.09375 L 138.472656 338.289062 L 176.136719 338.289062 Z M 142.941406 78.476562 C 144.195312 78.476562 145.214844 77.457031 145.214844 76.203125 C 145.214844 75.902344 145.152344 75.621094 145.046875 75.359375 C 145.046875 75.355469 145.046875 75.351562 145.046875 75.351562 C 145.046875 75.351562 145.046875 75.347656 145.046875 75.347656 C 144.984375 75.203125 144.914062 75.0625 144.828125 74.933594 L 153.0625 66.863281 C 153.066406 66.867188 153.074219 66.867188 153.078125 66.871094 C 153.230469 66.976562 153.398438 67.058594 153.574219 67.125 C 153.605469 67.136719 153.636719 67.144531 153.671875 67.15625 C 153.828125 67.203125 153.988281 67.238281 154.15625 67.253906 C 154.183594 67.257812 154.210938 67.261719 154.238281 67.261719 C 154.28125 67.265625 154.324219 67.273438 154.367188 67.273438 C 154.730469 67.273438 155.066406 67.183594 155.371094 67.03125 C 155.382812 67.027344 155.390625 67.023438 155.402344 67.019531 L 162.203125 75.824219 C 161.886719 76.214844 161.691406 76.703125 161.691406 77.242188 C 161.691406 78.496094 162.710938 79.519531 163.964844 79.519531 C 165.21875 79.519531 166.238281 78.496094 166.238281 77.242188 C 166.238281 76.804688 166.109375 76.398438 165.894531 76.050781 L 180.535156 61.707031 L 180.351562 66.109375 C 180.34375 66.339844 180.519531 66.53125 180.75 66.542969 C 180.757812 66.542969 180.761719 66.542969 180.769531 66.542969 C 180.992188 66.542969 181.175781 66.367188 181.1875 66.144531 L 181.410156 60.683594 C 181.417969 60.558594 181.367188 60.441406 181.277344 60.359375 C 181.1875 60.273438 181.066406 60.238281 180.941406 60.25 L 174.75 61.039062 C 174.519531 61.070312 174.359375 61.277344 174.386719 61.503906 C 174.417969 61.734375 174.628906 61.890625 174.855469 61.867188 L 179.824219 61.234375 L 165.332031 75.433594 C 165.324219 75.425781 165.316406 75.421875 165.308594 75.417969 C 165.242188 75.371094 165.175781 75.328125 165.105469 75.289062 C 165.070312 75.265625 165.035156 75.246094 165 75.226562 C 164.6875 75.066406 164.339844 74.96875 163.964844 74.96875 C 163.90625 74.96875 163.847656 74.980469 163.789062 74.988281 C 163.777344 74.988281 163.769531 74.988281 163.757812 74.988281 C 163.449219 75.019531 163.164062 75.105469 162.90625 75.242188 C 162.882812 75.253906 162.859375 75.265625 162.835938 75.277344 L 156.058594 66.507812 C 156.417969 66.105469 156.640625 65.578125 156.640625 65 C 156.640625 63.746094 155.621094 62.726562 154.367188 62.726562 C 153.113281 62.726562 152.09375 63.746094 152.09375 65 C 152.09375 65.46875 152.234375 65.902344 152.480469 66.265625 L 144.242188 74.34375 C 143.871094 74.082031 143.425781 73.925781 142.941406 73.925781 C 141.6875 73.925781 140.664062 74.949219 140.664062 76.203125 C 140.664062 77.457031 141.6875 78.476562 142.941406 78.476562 Z M 163.964844 78.683594 C 163.171875 78.683594 162.523438 78.039062 162.523438 77.242188 C 162.523438 76.8125 162.71875 76.429688 163.019531 76.167969 C 163.019531 76.164062 163.023438 76.164062 163.023438 76.164062 C 163.164062 76.042969 163.371094 75.90625 163.644531 75.84375 C 163.648438 75.839844 163.65625 75.835938 163.664062 75.835938 C 163.757812 75.816406 163.855469 75.804688 163.964844 75.804688 C 164.066406 75.804688 164.167969 75.8125 164.265625 75.835938 C 164.269531 75.835938 164.273438 75.839844 164.28125 75.839844 C 164.371094 75.859375 164.460938 75.890625 164.546875 75.929688 C 164.546875 75.929688 164.546875 75.929688 164.550781 75.929688 C 164.730469 76.011719 164.894531 76.132812 165.03125 76.285156 C 165.035156 76.285156 165.035156 76.289062 165.035156 76.289062 C 165.261719 76.542969 165.40625 76.875 165.40625 77.246094 C 165.40625 78.039062 164.761719 78.683594 163.964844 78.683594 Z M 154.367188 63.558594 C 155.160156 63.558594 155.808594 64.207031 155.808594 65 C 155.808594 65.460938 155.585938 65.867188 155.25 66.132812 C 155.246094 66.132812 155.246094 66.132812 155.242188 66.132812 C 154.738281 66.527344 154.039062 66.523438 153.542969 66.175781 C 153.535156 66.171875 153.53125 66.167969 153.523438 66.160156 C 153.457031 66.117188 153.398438 66.066406 153.339844 66.007812 C 153.085938 65.746094 152.925781 65.390625 152.925781 65 C 152.925781 64.207031 153.574219 63.558594 154.367188 63.558594 Z M 142.941406 74.761719 C 143.34375 74.761719 143.707031 74.929688 143.96875 75.199219 C 144.101562 75.332031 144.203125 75.488281 144.273438 75.664062 C 144.34375 75.832031 144.382812 76.011719 144.382812 76.203125 C 144.382812 76.996094 143.734375 77.644531 142.941406 77.644531 C 142.144531 77.644531 141.5 76.996094 141.5 76.203125 C 141.5 75.40625 142.144531 74.761719 142.941406 74.761719 Z M 142.941406 74.761719 " fill-opacity="1" fill-rule="nonzero"/></g></svg>