<svg xmlns="http://www.w3.org/2000/svg" xmlns:xlink="http://www.w3.org/1999/xlink" width="500" zoomAndPan="magnify" viewBox="0 0 375 374.999991" height="500" preserveAspectRatio="xMidYMid meet" version="1.0"><defs><clipPath id="a2ee54c67a"><path d="M 22.683594 94.789062 L 352 94.789062 L 352 240 L 22.683594 240 Z M 22.683594 94.789062 " clip-rule="nonzero"/></clipPath><clipPath id="58158a27d1"><path d="M 22.683594 94.789062 L 352 94.789062 L 352 226 L 22.683594 226 Z M 22.683594 94.789062 " clip-rule="nonzero"/></clipPath></defs><path fill="#35668f" d="M 78.90625 197.3125 C 78.90625 197.3125 55.683594 254.003906 89.835938 271.078125 C 108.046875 280.183594 152.910156 266.183594 197.757812 261.515625 C 241.207031 256.992188 290.410156 264.167969 299.527344 248.539062 C 313.871094 223.949219 292.011719 178.871094 292.011719 178.871094 Z M 78.90625 197.3125 " fill-opacity="1" fill-rule="nonzero"/><path fill="#1e2e49" d="M 285.863281 218.484375 C 308.46875 230.652344 296.25 254.148438 267.574219 258.890625 C 283.472656 257.929688 295.46875 255.488281 299.523438 248.535156 C 313.871094 223.945312 292.011719 178.863281 292.011719 178.863281 L 78.90625 197.3125 C 78.90625 197.3125 55.683594 254.003906 89.835938 271.078125 C 95.613281 273.964844 104.078125 274.527344 114.363281 273.800781 C 104.335938 272.703125 89.570312 268.488281 87.789062 253.316406 C 85.054688 230.09375 121.257812 245.121094 153.359375 249.21875 C 185.457031 253.316406 259.226562 204.140625 285.863281 218.484375 Z M 285.863281 218.484375 " fill-opacity="1" fill-rule="nonzero"/><path fill="#1e2e49" d="M 250.757812 259.472656 C 248.214844 259.253906 246.226562 259.300781 244.722656 259.566406 C 246.757812 259.539062 248.773438 259.507812 250.757812 259.472656 Z M 250.757812 259.472656 " fill-opacity="1" fill-rule="nonzero"/><g clip-path="url(#a2ee54c67a)"><path fill="#35668f" d="M 26.84375 193.640625 L 150.554688 239.554688 C 151.511719 239.910156 152.542969 240.019531 153.542969 239.882812 C 153.964844 239.824219 154.390625 239.722656 154.796875 239.574219 L 347.707031 170.039062 C 350.953125 168.867188 352.292969 165.613281 351.621094 162.769531 C 351.214844 161.042969 350.074219 159.472656 348.171875 158.605469 L 209.285156 95.378906 C 208.5625 95.050781 207.792969 94.871094 207.023438 94.832031 C 205.996094 94.78125 204.957031 94.988281 204.015625 95.449219 L 26.285156 182.300781 C 24.074219 183.378906 22.9375 185.414062 22.828125 187.5 C 22.691406 190.019531 24.058594 192.605469 26.84375 193.640625 Z M 26.84375 193.640625 " fill-opacity="1" fill-rule="nonzero"/></g><g clip-path="url(#58158a27d1)"><path fill="#1e2e49" d="M 351.621094 162.769531 C 351.214844 161.042969 350.074219 159.472656 348.171875 158.605469 L 209.285156 95.378906 C 208.5625 95.050781 207.792969 94.871094 207.023438 94.832031 C 205.996094 94.78125 204.957031 94.988281 204.015625 95.449219 L 26.28125 182.300781 C 24.070312 183.378906 22.9375 185.414062 22.824219 187.5 C 22.6875 190.019531 24.058594 192.605469 26.84375 193.640625 L 45.882812 200.707031 C 42.472656 196.46875 41.433594 191.320312 46.804688 185.699219 C 61.148438 170.671875 181.359375 101.6875 215.511719 113.296875 C 249.660156 124.90625 317.574219 153.847656 323.230469 167.382812 C 326.507812 175.210938 301.351562 184.460938 268.792969 196.050781 C 263.984375 191.984375 234.105469 167.539062 205.945312 163.15625 C 205.945312 163.15625 190.921875 155.644531 184.089844 158.375 C 177.261719 161.109375 187.300781 165.402344 187.300781 165.402344 C 187.300781 165.402344 189.101562 167.539062 204.09375 167.382812 C 213.558594 167.285156 236.929688 179.378906 250.585938 190.535156 C 253.605469 193.003906 254.03125 197.0625 252.3125 200.039062 C 251.492188 201.457031 250.183594 202.628906 248.441406 203.269531 C 230.394531 209.890625 209.578125 217.953125 194.015625 225.441406 L 347.707031 170.039062 C 350.953125 168.867188 352.289062 165.613281 351.621094 162.769531 Z M 351.621094 162.769531 " fill-opacity="1" fill-rule="nonzero"/></g><path fill="#ffcd77" d="M 187.304688 160.132812 C 187.304688 160.132812 253.511719 164.332031 276.238281 195.800781 C 290.644531 215.75 291.621094 239.9375 291.621094 239.9375 L 281.085938 239.65625 C 281.085938 239.65625 277.683594 208.9375 261.957031 193.210938 C 241.46875 172.722656 193.65625 163.839844 193.65625 163.839844 Z M 187.304688 160.132812 " fill-opacity="1" fill-rule="nonzero"/><path fill="#ffcd77" d="M 304.957031 265.503906 C 304.957031 279.027344 296.714844 271.964844 286.546875 271.964844 C 276.382812 271.964844 268.140625 279.023438 268.140625 265.503906 C 268.140625 251.988281 276.382812 241.023438 286.546875 241.023438 C 296.714844 241.023438 304.957031 251.984375 304.957031 265.503906 Z M 304.957031 265.503906 " fill-opacity="1" fill-rule="nonzero"/><path fill="#f8cb4a" d="M 283.132812 266.976562 C 272.6875 270.191406 272.886719 254.003906 283.816406 251.953125 C 291.828125 250.453125 294.335938 246.058594 295.097656 243.828125 C 292.546875 242.039062 289.636719 241.027344 286.546875 241.027344 C 276.378906 241.027344 268.140625 251.988281 268.140625 265.507812 C 268.140625 279.03125 276.382812 271.96875 286.546875 271.96875 C 291.027344 271.96875 295.128906 273.335938 298.320312 273.714844 C 293.59375 268.355469 292.011719 264.246094 283.132812 266.976562 Z M 283.132812 266.976562 " fill-opacity="1" fill-rule="nonzero"/><path fill="#f8cb4a" d="M 280.335938 234.78125 L 286.546875 234.78125 C 286.546875 234.78125 289.964844 214.386719 261.957031 189.796875 C 244.578125 174.535156 218.945312 168.253906 202.003906 165.683594 C 216.628906 169.230469 246.785156 178.035156 261.957031 193.210938 C 273.824219 205.074219 278.667969 225.476562 280.335938 234.78125 Z M 280.335938 234.78125 " fill-opacity="1" fill-rule="nonzero"/><path fill="#ffcd77" d="M 295.429688 239.65625 C 295.429688 240.242188 295.371094 240.816406 295.257812 241.390625 C 295.144531 241.960938 294.976562 242.515625 294.753906 243.054688 C 294.53125 243.59375 294.257812 244.105469 293.933594 244.589844 C 293.609375 245.074219 293.238281 245.523438 292.828125 245.9375 C 292.414062 246.347656 291.96875 246.714844 291.480469 247.039062 C 290.996094 247.363281 290.484375 247.636719 289.945312 247.859375 C 289.410156 248.085938 288.851562 248.253906 288.28125 248.367188 C 287.710938 248.480469 287.132812 248.539062 286.546875 248.539062 C 285.964844 248.539062 285.386719 248.480469 284.816406 248.367188 C 284.246094 248.253906 283.6875 248.085938 283.152344 247.859375 C 282.613281 247.636719 282.101562 247.363281 281.617188 247.039062 C 281.128906 246.714844 280.683594 246.347656 280.269531 245.9375 C 279.859375 245.523438 279.488281 245.074219 279.164062 244.589844 C 278.839844 244.105469 278.566406 243.59375 278.34375 243.054688 C 278.121094 242.515625 277.953125 241.960938 277.839844 241.390625 C 277.726562 240.816406 277.667969 240.242188 277.667969 239.65625 C 277.667969 239.074219 277.726562 238.496094 277.839844 237.925781 C 277.953125 237.351562 278.121094 236.796875 278.34375 236.257812 C 278.566406 235.71875 278.839844 235.207031 279.164062 234.722656 C 279.488281 234.238281 279.859375 233.789062 280.269531 233.378906 C 280.683594 232.964844 281.128906 232.597656 281.617188 232.273438 C 282.101562 231.949219 282.613281 231.675781 283.152344 231.453125 C 283.6875 231.230469 284.246094 231.0625 284.816406 230.949219 C 285.386719 230.835938 285.964844 230.777344 286.546875 230.777344 C 287.132812 230.777344 287.710938 230.835938 288.28125 230.949219 C 288.851562 231.0625 289.410156 231.230469 289.945312 231.453125 C 290.484375 231.675781 290.996094 231.949219 291.480469 232.273438 C 291.96875 232.597656 292.414062 232.964844 292.828125 233.378906 C 293.238281 233.789062 293.609375 234.238281 293.933594 234.722656 C 294.257812 235.207031 294.53125 235.71875 294.753906 236.257812 C 294.976562 236.796875 295.144531 237.351562 295.257812 237.925781 C 295.371094 238.496094 295.429688 239.074219 295.429688 239.65625 Z M 295.429688 239.65625 " fill-opacity="1" fill-rule="nonzero"/><path fill="#f8cb4a" d="M 288.59375 245.121094 C 284.445312 245.121094 281.082031 241.757812 281.082031 237.609375 C 281.082031 234.65625 282.785156 232.109375 285.261719 230.882812 C 280.96875 231.503906 277.664062 235.191406 277.664062 239.65625 C 277.664062 244.5625 281.640625 248.539062 286.546875 248.539062 C 291.011719 248.539062 294.699219 245.234375 295.320312 240.9375 C 294.09375 243.417969 291.546875 245.121094 288.59375 245.121094 Z M 288.59375 245.121094 " fill-opacity="1" fill-rule="nonzero"/></svg>