<svg xmlns="http://www.w3.org/2000/svg" xmlns:xlink="http://www.w3.org/1999/xlink" zoomAndPan="magnify" preserveAspectRatio="xMidYMid meet" version="1.0" viewBox="4.59 13.48 362.86 63.11"><defs><g/></defs><g fill="#535c66" fill-opacity="1"><g transform="translate(0.0000045, 75.750389)"><g><path d="M 31.890625 0.84375 C 26.515625 0.84375 21.773438 -0.269531 17.671875 -2.5 C 13.578125 -4.738281 10.375 -8.097656 8.0625 -12.578125 C 5.75 -17.066406 4.59375 -22.597656 4.59375 -29.171875 C 4.59375 -35.742188 5.75 -41.269531 8.0625 -45.75 C 10.375 -50.238281 13.578125 -53.597656 17.671875 -55.828125 C 21.773438 -58.066406 26.515625 -59.1875 31.890625 -59.1875 C 37.503906 -59.1875 42.269531 -58.085938 46.1875 -55.890625 C 50.113281 -53.691406 52.914062 -50.347656 54.59375 -45.859375 L 46.171875 -40.703125 L 45.171875 -40.75 C 43.921875 -43.78125 42.222656 -45.953125 40.078125 -47.265625 C 37.941406 -48.585938 35.210938 -49.25 31.890625 -49.25 C 27.046875 -49.25 23.265625 -47.644531 20.546875 -44.4375 C 17.835938 -41.226562 16.484375 -36.140625 16.484375 -29.171875 C 16.484375 -22.222656 17.835938 -17.144531 20.546875 -13.9375 C 23.265625 -10.738281 27.046875 -9.140625 31.890625 -9.140625 C 39.472656 -9.140625 44.113281 -12.820312 45.8125 -20.1875 L 46.8125 -20.1875 L 55.3125 -15.765625 C 53.71875 -10.234375 50.988281 -6.082031 47.125 -3.3125 C 43.269531 -0.539062 38.191406 0.84375 31.890625 0.84375 Z M 31.890625 0.84375 "/></g></g></g><g fill="#535c66" fill-opacity="1"><g transform="translate(57.224557, 75.750389)"><g><path d="M 43.5 -19.515625 L 15.203125 -19.515625 C 15.523438 -15.679688 16.613281 -12.894531 18.46875 -11.15625 C 20.332031 -9.414062 22.875 -8.546875 26.09375 -8.546875 C 28.625 -8.546875 30.671875 -9.015625 32.234375 -9.953125 C 33.804688 -10.898438 35.070312 -12.332031 36.03125 -14.25 L 36.875 -14.25 L 44.21875 -9.53125 C 42.78125 -6.445312 40.609375 -3.945312 37.703125 -2.03125 C 34.804688 -0.113281 30.9375 0.84375 26.09375 0.84375 C 21.550781 0.84375 17.625 -0.0195312 14.3125 -1.75 C 11 -3.476562 8.441406 -6.050781 6.640625 -9.46875 C 4.847656 -12.894531 3.953125 -17.066406 3.953125 -21.984375 C 3.953125 -26.992188 4.894531 -31.210938 6.78125 -34.640625 C 8.675781 -38.078125 11.234375 -40.640625 14.453125 -42.328125 C 17.671875 -44.015625 21.285156 -44.859375 25.296875 -44.859375 C 31.523438 -44.859375 36.296875 -43.207031 39.609375 -39.90625 C 42.921875 -36.601562 44.578125 -31.757812 44.578125 -25.375 C 44.578125 -23.0625 44.5 -21.269531 44.34375 -20 Z M 34 -26.65625 C 33.894531 -30.007812 33.117188 -32.453125 31.671875 -33.984375 C 30.222656 -35.515625 28.097656 -36.28125 25.296875 -36.28125 C 19.710938 -36.28125 16.425781 -33.070312 15.4375 -26.65625 Z M 34 -26.65625 "/></g></g></g><g fill="#535c66" fill-opacity="1"><g transform="translate(105.071306, 75.750389)"><g><path d="M 6.34375 0 L 6.34375 -44.015625 L 17.078125 -44.015625 L 17.078125 -37.46875 L 17.921875 -37.3125 C 18.984375 -39.757812 20.378906 -41.554688 22.109375 -42.703125 C 23.835938 -43.847656 25.941406 -44.421875 28.421875 -44.421875 C 30.921875 -44.421875 32.820312 -43.992188 34.125 -43.140625 L 32.25 -33.609375 L 31.40625 -33.4375 C 30.6875 -33.738281 29.992188 -33.953125 29.328125 -34.078125 C 28.660156 -34.210938 27.851562 -34.28125 26.90625 -34.28125 C 23.8125 -34.28125 21.453125 -33.195312 19.828125 -31.03125 C 18.210938 -28.863281 17.40625 -25.382812 17.40625 -20.59375 L 17.40625 0 Z M 6.34375 0 "/></g></g></g><g fill="#535c66" fill-opacity="1"><g transform="translate(139.589603, 75.750389)"><g><path d="M 30.375 -10.5 L 33.25 -2.3125 C 32.050781 -1.332031 30.546875 -0.5625 28.734375 0 C 26.921875 0.5625 24.875 0.84375 22.59375 0.84375 C 17.820312 0.84375 14.195312 -0.453125 11.71875 -3.046875 C 9.25 -5.640625 8.015625 -9.414062 8.015625 -14.375 L 8.015625 -35.28125 L 1.3125 -35.28125 L 1.3125 -44.0625 L 8.015625 -44.0625 L 8.015625 -52.640625 L 19.078125 -54.4375 L 19.078125 -44.0625 L 31.5625 -44.0625 L 31.5625 -35.28125 L 19.078125 -35.28125 L 19.078125 -15.171875 C 19.078125 -12.984375 19.53125 -11.390625 20.4375 -10.390625 C 21.34375 -9.398438 22.660156 -8.90625 24.390625 -8.90625 C 26.359375 -8.90625 28.070312 -9.4375 29.53125 -10.5 Z M 30.375 -10.5 "/></g></g></g><g fill="#535c66" fill-opacity="1"><g transform="translate(173.788656, 75.750389)"><g><path d="M 11.859375 -49.28125 C 9.859375 -49.28125 8.234375 -49.882812 6.984375 -51.09375 C 5.734375 -52.3125 5.109375 -53.878906 5.109375 -55.796875 C 5.109375 -57.679688 5.734375 -59.226562 6.984375 -60.4375 C 8.234375 -61.65625 9.859375 -62.265625 11.859375 -62.265625 C 13.179688 -62.265625 14.363281 -61.984375 15.40625 -61.421875 C 16.445312 -60.859375 17.25 -60.09375 17.8125 -59.125 C 18.382812 -58.15625 18.671875 -57.046875 18.671875 -55.796875 C 18.671875 -54.546875 18.382812 -53.425781 17.8125 -52.4375 C 17.25 -51.457031 16.445312 -50.6875 15.40625 -50.125 C 14.363281 -49.5625 13.179688 -49.28125 11.859375 -49.28125 Z M 6.34375 0 L 6.34375 -44.015625 L 17.40625 -44.015625 L 17.40625 0 Z M 6.34375 0 "/></g></g></g><g fill="#366994" fill-opacity="1"><g transform="translate(197.496089, 75.750389)"><g><path d="M 28.578125 -58.34375 C 38.046875 -58.34375 45.273438 -55.894531 50.265625 -51 C 55.253906 -46.101562 57.75 -38.828125 57.75 -29.171875 C 57.75 -19.535156 55.253906 -12.265625 50.265625 -7.359375 C 45.273438 -2.453125 38.046875 0 28.578125 0 L 7.578125 0 L 7.578125 -58.34375 Z M 27.890625 -9.703125 C 33.910156 -9.703125 38.410156 -11.238281 41.390625 -14.3125 C 44.367188 -17.382812 45.859375 -22.335938 45.859375 -29.171875 C 45.859375 -36.015625 44.367188 -40.972656 41.390625 -44.046875 C 38.410156 -47.117188 33.910156 -48.65625 27.890625 -48.65625 L 19.109375 -48.65625 L 19.109375 -9.703125 Z M 27.890625 -9.703125 "/></g></g></g><g fill="#366994" fill-opacity="1"><g transform="translate(259.868456, 75.750389)"><g><path d="M 6.34375 0 L 6.34375 -44.015625 L 17.078125 -44.015625 L 17.078125 -37.46875 L 17.921875 -37.3125 C 18.984375 -39.757812 20.378906 -41.554688 22.109375 -42.703125 C 23.835938 -43.847656 25.941406 -44.421875 28.421875 -44.421875 C 30.921875 -44.421875 32.820312 -43.992188 34.125 -43.140625 L 32.25 -33.609375 L 31.40625 -33.4375 C 30.6875 -33.738281 29.992188 -33.953125 29.328125 -34.078125 C 28.660156 -34.210938 27.851562 -34.28125 26.90625 -34.28125 C 23.8125 -34.28125 21.453125 -33.195312 19.828125 -31.03125 C 18.210938 -28.863281 17.40625 -25.382812 17.40625 -20.59375 L 17.40625 0 Z M 6.34375 0 "/></g></g></g><g fill="#366994" fill-opacity="1"><g transform="translate(294.386753, 75.750389)"><g><path d="M 11.859375 -49.28125 C 9.859375 -49.28125 8.234375 -49.882812 6.984375 -51.09375 C 5.734375 -52.3125 5.109375 -53.878906 5.109375 -55.796875 C 5.109375 -57.679688 5.734375 -59.226562 6.984375 -60.4375 C 8.234375 -61.65625 9.859375 -62.265625 11.859375 -62.265625 C 13.179688 -62.265625 14.363281 -61.984375 15.40625 -61.421875 C 16.445312 -60.859375 17.25 -60.09375 17.8125 -59.125 C 18.382812 -58.15625 18.671875 -57.046875 18.671875 -55.796875 C 18.671875 -54.546875 18.382812 -53.425781 17.8125 -52.4375 C 17.25 -51.457031 16.445312 -50.6875 15.40625 -50.125 C 14.363281 -49.5625 13.179688 -49.28125 11.859375 -49.28125 Z M 6.34375 0 L 6.34375 -44.015625 L 17.40625 -44.015625 L 17.40625 0 Z M 6.34375 0 "/></g></g></g><g fill="#366994" fill-opacity="1"><g transform="translate(318.090647, 75.750389)"><g><path d="M 18.28125 0.84375 C 14.3125 0.84375 11.28125 -0.226562 9.1875 -2.375 C 7.101562 -4.519531 6.0625 -7.769531 6.0625 -12.125 L 6.0625 -61.703125 L 17.125 -61.703125 L 17.125 -12.578125 C 17.125 -9.890625 18.238281 -8.546875 20.46875 -8.546875 C 21.113281 -8.546875 21.796875 -8.648438 22.515625 -8.859375 L 23.0625 -8.703125 L 24.0625 -0.203125 C 23.445312 0.117188 22.632812 0.375 21.625 0.5625 C 20.613281 0.75 19.5 0.84375 18.28125 0.84375 Z M 18.28125 0.84375 "/></g></g></g><g fill="#366994" fill-opacity="1"><g transform="translate(343.390763, 75.750389)"><g><path d="M 18.28125 0.84375 C 14.3125 0.84375 11.28125 -0.226562 9.1875 -2.375 C 7.101562 -4.519531 6.0625 -7.769531 6.0625 -12.125 L 6.0625 -61.703125 L 17.125 -61.703125 L 17.125 -12.578125 C 17.125 -9.890625 18.238281 -8.546875 20.46875 -8.546875 C 21.113281 -8.546875 21.796875 -8.648438 22.515625 -8.859375 L 23.0625 -8.703125 L 24.0625 -0.203125 C 23.445312 0.117188 22.632812 0.375 21.625 0.5625 C 20.613281 0.75 19.5 0.84375 18.28125 0.84375 Z M 18.28125 0.84375 "/></g></g></g></svg>