<svg xmlns="http://www.w3.org/2000/svg" xmlns:xlink="http://www.w3.org/1999/xlink" width="500" zoomAndPan="magnify" viewBox="0 0 375 374.999991" height="500" preserveAspectRatio="xMidYMid meet" version="1.0"><defs><g/><clipPath id="a6ba71020c"><path d="M 196 13.503906 L 321.882812 13.503906 L 321.882812 139 L 196 139 Z M 196 13.503906 " clip-rule="nonzero"/></clipPath><clipPath id="4bfe6806a8"><path d="M 53.382812 21 L 179 21 L 179 147 L 53.382812 147 Z M 53.382812 21 " clip-rule="nonzero"/></clipPath><clipPath id="7490ffbe09"><path d="M 53.382812 156 L 179 156 L 179 282 L 53.382812 282 Z M 53.382812 156 " clip-rule="nonzero"/></clipPath></defs><g clip-path="url(#a6ba71020c)"><path fill="#cbcbcb" d="M 204.289062 138.578125 L 313.375 138.578125 C 317.976562 138.578125 321.613281 134.621094 321.128906 130.078125 C 314.765625 68.902344 266.210938 20.347656 205.035156 13.984375 C 200.492188 13.503906 196.535156 17.136719 196.535156 21.738281 L 196.535156 130.824219 C 196.535156 135.105469 200.011719 138.578125 204.289062 138.578125 Z M 204.289062 138.578125 " fill-opacity="1" fill-rule="nonzero"/></g><g clip-path="url(#4bfe6806a8)"><path fill="#ffcd77" d="M 178.460938 138.578125 L 178.460938 29.4375 C 178.460938 24.839844 174.503906 21.203125 169.957031 21.683594 C 108.78125 28.101562 60.226562 76.65625 53.863281 137.832031 C 53.382812 142.375 57.019531 146.332031 61.617188 146.332031 L 170.707031 146.332031 C 174.984375 146.332031 178.460938 142.859375 178.460938 138.578125 Z M 178.460938 138.578125 " fill-opacity="1" fill-rule="nonzero"/></g><path fill="#35668f" d="M 188.78125 164.410156 L 188.78125 273.496094 C 188.78125 278.097656 192.738281 281.734375 197.28125 281.25 C 258.457031 274.886719 307.011719 226.332031 313.375 165.15625 C 313.859375 160.613281 310.222656 156.65625 305.621094 156.65625 L 196.535156 156.65625 C 192.257812 156.65625 188.78125 160.128906 188.78125 164.410156 Z M 188.78125 164.410156 " fill-opacity="1" fill-rule="nonzero"/><g clip-path="url(#7490ffbe09)"><path fill="#ff847e" d="M 170.707031 156.65625 L 61.617188 156.65625 C 57.019531 156.65625 53.382812 160.613281 53.863281 165.15625 C 60.226562 226.332031 108.78125 274.886719 169.957031 281.25 C 174.503906 281.734375 178.460938 278.097656 178.460938 273.496094 L 178.460938 164.410156 C 178.460938 160.128906 174.984375 156.65625 170.707031 156.65625 Z M 170.707031 156.65625 " fill-opacity="1" fill-rule="nonzero"/></g><path fill="#000000" d="M 250.4375 76.335938 C 246.050781 76.335938 242.523438 79.8125 242.308594 84.140625 L 251.023438 81.789062 C 251.71875 81.628906 252.414062 81.789062 252.898438 82.269531 C 253.378906 82.753906 253.589844 83.449219 253.378906 84.140625 L 251.132812 92.589844 C 255.355469 92.269531 258.726562 88.792969 258.726562 84.515625 C 258.617188 80.023438 254.980469 76.335938 250.4375 76.335938 Z M 250.4375 76.335938 " fill-opacity="1" fill-rule="nonzero"/><path fill="#000000" d="M 248.082031 96.386719 L 251.507812 83.714844 L 238.777344 87.082031 L 241.398438 89.703125 L 226.90625 104.195312 L 222.738281 103.019531 L 212.683594 113.179688 L 218.941406 114.996094 L 219.847656 115.90625 L 221.71875 122.164062 L 231.828125 112.003906 L 230.757812 108.472656 L 245.464844 93.769531 Z M 248.082031 96.386719 " fill-opacity="1" fill-rule="nonzero"/><path fill="#000000" d="M 250.4375 64.410156 C 239.3125 64.410156 230.332031 73.449219 230.332031 84.570312 C 230.332031 88.421875 231.453125 92.003906 233.378906 95.105469 L 237.601562 90.878906 C 236.640625 88.957031 236.105469 86.816406 236.105469 84.570312 C 236.105469 76.65625 242.574219 70.183594 250.488281 70.183594 C 258.40625 70.183594 264.875 76.65625 264.875 84.570312 C 264.875 92.484375 258.40625 98.953125 250.488281 98.953125 C 248.296875 98.953125 246.265625 98.421875 244.449219 97.566406 L 240.222656 101.789062 C 243.21875 103.605469 246.746094 104.675781 250.488281 104.675781 C 261.613281 104.675781 270.597656 95.640625 270.597656 84.570312 C 270.542969 73.449219 261.507812 64.410156 250.4375 64.410156 Z M 250.4375 64.410156 " fill-opacity="1" fill-rule="nonzero"/><path fill="#000000" d="M 250.4375 53.554688 C 233.324219 53.554688 219.421875 67.457031 219.421875 84.570312 C 219.421875 91.46875 221.71875 97.726562 225.570312 102.914062 L 229.636719 98.847656 C 226.855469 94.785156 225.195312 89.863281 225.195312 84.570312 C 225.195312 70.613281 236.535156 59.277344 250.488281 59.277344 C 264.445312 59.277344 275.785156 70.613281 275.785156 84.570312 C 275.785156 98.527344 264.445312 109.863281 250.488281 109.863281 C 245.304688 109.863281 240.492188 108.257812 236.425781 105.585938 L 232.363281 109.648438 C 237.441406 113.339844 243.699219 115.585938 250.488281 115.585938 C 267.601562 115.585938 281.503906 101.683594 281.503906 84.570312 C 281.398438 67.457031 267.496094 53.554688 250.4375 53.554688 Z M 250.4375 53.554688 " fill-opacity="1" fill-rule="nonzero"/><path fill="#000000" d="M 231.453125 205.050781 L 212.789062 190.984375 L 213.109375 185.371094 L 230.492188 198.527344 L 245.945312 177.722656 L 249.6875 180.503906 Z M 231.453125 205.050781 " fill-opacity="1" fill-rule="nonzero"/><path fill="#000000" d="M 236.960938 201.789062 C 236.960938 205.101562 234.289062 207.777344 230.972656 207.777344 C 227.65625 207.777344 224.984375 205.101562 224.984375 201.789062 C 224.984375 198.472656 227.65625 195.796875 230.972656 195.796875 C 234.289062 195.796875 236.960938 198.472656 236.960938 201.789062 Z M 236.960938 201.789062 " fill-opacity="1" fill-rule="nonzero"/><path fill="#000000" d="M 254.980469 179.113281 C 254.980469 182.429688 252.308594 185.101562 248.992188 185.101562 C 245.675781 185.101562 243.003906 182.429688 243.003906 179.113281 C 243.003906 175.796875 245.675781 173.125 248.992188 173.125 C 252.308594 173.070312 254.980469 175.796875 254.980469 179.113281 Z M 254.980469 179.113281 " fill-opacity="1" fill-rule="nonzero"/><path fill="#000000" d="M 218.992188 188.203125 C 218.992188 191.519531 216.320312 194.195312 213.003906 194.195312 C 209.6875 194.195312 207.015625 191.519531 207.015625 188.203125 C 207.015625 184.890625 209.6875 182.214844 213.003906 182.214844 C 216.265625 182.160156 218.992188 184.890625 218.992188 188.203125 Z M 218.992188 188.203125 " fill-opacity="1" fill-rule="nonzero"/><path fill="#000000" d="M 206.90625 200.878906 L 218.992188 200.878906 L 218.992188 235.476562 L 206.90625 235.476562 Z M 206.90625 200.878906 " fill-opacity="1" fill-rule="nonzero"/><path fill="#000000" d="M 224.714844 213.015625 L 236.800781 213.015625 L 236.800781 235.101562 L 224.714844 235.101562 Z M 224.714844 213.015625 " fill-opacity="1" fill-rule="nonzero"/><path fill="#000000" d="M 242.949219 192.109375 L 255.035156 192.109375 L 255.035156 235.421875 L 242.949219 235.421875 Z M 242.949219 192.109375 " fill-opacity="1" fill-rule="nonzero"/><path fill="#000000" d="M 149.421875 183.230469 L 149.421875 176.867188 C 149.421875 175.210938 148.03125 173.820312 146.375 173.820312 L 120.226562 173.820312 C 120.117188 173.820312 120.066406 173.875 120.011719 173.875 C 119.742188 173.875 119.476562 173.925781 119.210938 174.035156 C 119.101562 174.085938 118.996094 174.085938 118.886719 174.140625 C 118.621094 174.246094 118.40625 174.40625 118.191406 174.621094 C 118.140625 174.675781 118.085938 174.730469 118.03125 174.78125 C 118.03125 174.78125 117.980469 174.78125 117.980469 174.835938 L 104.023438 189.648438 C 103.914062 189.753906 103.863281 189.914062 103.753906 190.023438 C 103.648438 190.183594 103.488281 190.398438 103.378906 190.609375 C 103.273438 190.824219 103.273438 191.09375 103.21875 191.304688 C 103.21875 191.414062 103.113281 191.574219 103.113281 191.734375 L 103.113281 230.769531 C 103.113281 232.480469 104.503906 233.820312 106.160156 233.820312 L 146.320312 233.820312 C 147.980469 233.820312 149.367188 232.480469 149.367188 230.769531 L 149.367188 223.980469 C 147.335938 224.246094 145.25 224.140625 143.273438 223.765625 L 143.273438 227.722656 L 109.261719 227.722656 L 109.261719 194.78125 L 120.171875 194.78125 C 121.828125 194.78125 123.21875 193.390625 123.21875 191.734375 L 123.21875 179.96875 L 143.273438 179.96875 L 143.273438 183.550781 C 145.359375 183.070312 147.390625 183.019531 149.421875 183.230469 Z M 149.421875 183.230469 " fill-opacity="1" fill-rule="nonzero"/><path fill="#000000" d="M 127.285156 198.898438 C 126.800781 200.878906 126.640625 202.964844 126.800781 204.996094 L 117.230469 204.996094 C 115.574219 204.996094 114.183594 203.605469 114.183594 201.949219 C 114.183594 200.289062 115.574219 198.898438 117.230469 198.898438 Z M 127.285156 198.898438 " fill-opacity="1" fill-rule="nonzero"/><path fill="#000000" d="M 129.636719 214.140625 L 117.230469 214.140625 C 115.574219 214.140625 114.183594 212.75 114.183594 211.09375 C 114.183594 209.433594 115.574219 208.042969 117.230469 208.042969 L 127.230469 208.042969 C 127.710938 210.128906 128.515625 212.214844 129.636719 214.140625 Z M 129.636719 214.140625 " fill-opacity="1" fill-rule="nonzero"/><path fill="#000000" d="M 137.980469 221.894531 C 137.445312 222.695312 136.480469 223.285156 135.410156 223.285156 L 117.230469 223.285156 C 115.574219 223.285156 114.183594 221.894531 114.183594 220.234375 C 114.183594 218.578125 115.574219 217.1875 117.230469 217.1875 L 131.828125 217.1875 C 133.59375 219.167969 135.734375 220.769531 137.980469 221.894531 Z M 137.980469 221.894531 " fill-opacity="1" fill-rule="nonzero"/><path fill="#000000" d="M 165.679688 221.679688 L 157.976562 210.824219 C 157.121094 212.109375 156.054688 213.230469 154.714844 214.195312 C 153.378906 215.15625 151.9375 215.746094 150.492188 216.117188 L 158.191406 226.972656 C 159.101562 228.257812 160.492188 228.898438 161.9375 228.898438 C 162.84375 228.898438 163.753906 228.632812 164.554688 228.042969 C 166.640625 226.652344 167.121094 223.765625 165.679688 221.679688 Z M 165.679688 221.679688 " fill-opacity="1" fill-rule="nonzero"/><path fill="#000000" d="M 147.285156 219.703125 C 146.375 219.703125 145.464844 219.648438 144.554688 219.488281 C 140.332031 218.738281 136.640625 216.441406 134.128906 212.910156 C 131.667969 209.378906 130.652344 205.15625 131.402344 200.933594 C 132.148438 196.707031 134.449219 193.015625 137.980469 190.503906 C 145.199219 185.371094 155.25 187.082031 160.386719 194.355469 C 162.84375 197.882812 163.859375 202.109375 163.113281 206.332031 C 162.363281 210.558594 160.0625 214.246094 156.535156 216.761719 C 153.808594 218.683594 150.597656 219.703125 147.285156 219.703125 Z M 147.230469 193.660156 C 145.25 193.660156 143.21875 194.246094 141.507812 195.476562 C 139.316406 197.027344 137.871094 199.328125 137.445312 201.949219 C 137.015625 204.566406 137.605469 207.1875 139.15625 209.378906 C 140.707031 211.574219 143.003906 213.015625 145.625 213.445312 C 148.246094 213.925781 150.867188 213.285156 153.058594 211.734375 C 155.25 210.183594 156.695312 207.882812 157.121094 205.261719 C 157.550781 202.644531 156.960938 200.023438 155.410156 197.832031 C 153.433594 195.101562 150.332031 193.660156 147.230469 193.660156 Z M 147.230469 193.660156 " fill-opacity="1" fill-rule="nonzero"/><path fill="#000000" d="M 106.480469 75.90625 C 105.894531 76.496094 104.878906 76.496094 104.289062 75.90625 L 99.53125 71.148438 C 98.941406 70.558594 98.941406 69.542969 99.53125 68.957031 C 100.117188 68.367188 101.132812 68.367188 101.722656 68.957031 L 106.480469 73.714844 C 107.125 74.355469 107.125 75.320312 106.480469 75.90625 Z M 106.480469 75.90625 " fill-opacity="1" fill-rule="nonzero"/><path fill="#000000" d="M 97.605469 93.019531 C 97.285156 93.339844 96.804688 93.554688 96.269531 93.445312 L 89.53125 92.484375 C 88.675781 92.378906 88.085938 91.574219 88.195312 90.71875 C 88.300781 89.863281 89.101562 89.277344 89.957031 89.382812 L 96.695312 90.34375 C 97.550781 90.453125 98.140625 91.253906 98.03125 92.109375 C 98.03125 92.484375 97.871094 92.804688 97.605469 93.019531 Z M 97.605469 93.019531 " fill-opacity="1" fill-rule="nonzero"/><path fill="#000000" d="M 100.386719 111.789062 C 100.277344 111.894531 100.171875 112.003906 100.011719 112.054688 L 93.914062 115.210938 C 93.167969 115.585938 92.203125 115.316406 91.828125 114.570312 C 91.457031 113.820312 91.722656 112.859375 92.472656 112.484375 L 98.566406 109.328125 C 99.316406 108.953125 100.277344 109.222656 100.652344 109.972656 C 100.972656 110.613281 100.867188 111.308594 100.386719 111.789062 Z M 100.386719 111.789062 " fill-opacity="1" fill-rule="nonzero"/><path fill="#000000" d="M 161.773438 80.078125 C 161.667969 80.183594 161.507812 80.292969 161.347656 80.347656 L 155.199219 83.394531 C 154.449219 83.769531 153.488281 83.449219 153.113281 82.699219 C 152.738281 81.949219 153.058594 80.988281 153.808594 80.613281 L 159.957031 77.566406 C 160.707031 77.191406 161.667969 77.511719 162.042969 78.261719 C 162.417969 78.847656 162.257812 79.597656 161.773438 80.078125 Z M 161.773438 80.078125 " fill-opacity="1" fill-rule="nonzero"/><path fill="#000000" d="M 142.363281 69.8125 C 141.882812 70.292969 141.132812 70.398438 140.546875 70.078125 C 139.796875 69.703125 139.476562 68.742188 139.902344 67.992188 L 143.164062 61.683594 C 143.539062 60.933594 144.503906 60.613281 145.25 61.042969 C 146 61.414062 146.320312 62.378906 145.894531 63.125 L 142.632812 69.4375 C 142.578125 69.597656 142.472656 69.703125 142.363281 69.8125 Z M 142.363281 69.8125 " fill-opacity="1" fill-rule="nonzero"/><path fill="#000000" d="M 110.652344 131.253906 C 110.171875 131.734375 109.476562 131.84375 108.835938 131.574219 C 108.085938 131.199219 107.710938 130.238281 108.140625 129.488281 L 111.132812 123.339844 C 111.507812 122.539062 112.472656 122.214844 113.21875 122.644531 C 113.96875 123.019531 114.34375 123.980469 113.914062 124.730469 L 110.921875 130.878906 C 110.867188 130.988281 110.761719 131.148438 110.652344 131.253906 Z M 110.652344 131.253906 " fill-opacity="1" fill-rule="nonzero"/><path fill="#000000" d="M 123.59375 67.082031 C 123.378906 67.296875 123.058594 67.457031 122.738281 67.511719 C 121.882812 67.617188 121.082031 67.03125 120.972656 66.175781 L 120.011719 59.4375 C 119.902344 58.582031 120.492188 57.777344 121.347656 57.671875 C 122.203125 57.566406 123.003906 58.152344 123.113281 59.007812 L 124.074219 65.746094 C 124.074219 66.226562 123.914062 66.710938 123.59375 67.082031 Z M 123.59375 67.082031 " fill-opacity="1" fill-rule="nonzero"/><path fill="#000000" d="M 108.40625 78.261719 C 103.167969 83.5 100.011719 89.917969 99.476562 96.386719 C 98.886719 103.445312 101.402344 109.972656 106.695312 115.265625 C 112.683594 121.253906 121.9375 125.265625 130.921875 125.746094 L 132.042969 125.800781 C 133.113281 125.800781 134.183594 125.746094 135.304688 125.691406 C 136.535156 125.691406 137.445312 125.90625 138.300781 126.28125 L 138.300781 126.441406 L 139.742188 127.191406 C 140.757812 128.097656 142.042969 128.582031 143.328125 128.472656 C 144.609375 128.417969 145.839844 127.832031 146.695312 126.921875 L 157.230469 116.386719 C 158.566406 114.785156 158.78125 112.589844 157.816406 110.613281 C 157.710938 110.398438 157.605469 110.183594 157.445312 110.023438 L 157.070312 109.488281 C 156.105469 108.046875 155.839844 106.871094 155.839844 105.53125 C 156.855469 95.425781 152.738281 83.820312 145.625 76.601562 C 135.144531 66.121094 119.902344 66.761719 108.40625 78.261719 Z M 140.867188 81.253906 C 146.640625 87.082031 150.0625 96.816406 149.207031 104.996094 L 149.207031 105.371094 C 149.261719 107.351562 149.53125 109.972656 151.402344 112.859375 L 142.898438 121.308594 C 139.957031 119.382812 137.230469 119.113281 135.144531 119.113281 L 134.878906 119.113281 C 134.289062 119.167969 133.699219 119.222656 133.113281 119.222656 L 132.042969 119.222656 C 124.503906 119.0625 116.375 115.691406 111.347656 110.667969 C 107.5 106.761719 105.625 102.054688 106.054688 96.976562 C 106.429688 92.058594 108.941406 87.082031 113.113281 82.914062 C 121.777344 74.195312 133.21875 73.554688 140.867188 81.253906 Z M 140.867188 81.253906 " fill-opacity="1" fill-rule="nonzero"/><path fill="#000000" d="M 149.691406 132.164062 L 162.203125 119.703125 C 163.003906 118.902344 162.953125 117.5625 162.097656 116.707031 L 161.722656 116.335938 C 160.867188 115.480469 159.527344 115.425781 158.726562 116.226562 L 146.214844 128.6875 C 145.410156 129.488281 145.464844 130.824219 146.320312 131.683594 L 146.695312 132.054688 C 147.550781 132.910156 148.886719 132.964844 149.691406 132.164062 Z M 149.691406 132.164062 " fill-opacity="1" fill-rule="nonzero"/><path fill="#000000" d="M 159.367188 124.035156 L 160.011719 124.675781 C 161.027344 125.691406 161.027344 127.242188 160.117188 128.152344 L 158.191406 130.078125 C 157.285156 130.988281 155.679688 130.933594 154.714844 129.96875 L 154.074219 129.328125 Z M 159.367188 124.035156 " fill-opacity="1" fill-rule="nonzero"/><path fill="#000000" d="M 135.734375 88.6875 C 133.753906 89.542969 133.113281 91.84375 133.433594 93.714844 C 133.699219 95.371094 134.289062 96.976562 134.929688 98.472656 C 134.128906 99.542969 133.328125 100.558594 132.472656 101.414062 L 132.308594 101.574219 C 132.203125 101.683594 132.148438 101.734375 132.042969 101.84375 C 131.9375 101.949219 131.777344 102.109375 131.667969 102.21875 C 130.757812 103.074219 129.796875 103.875 128.726562 104.675781 C 127.65625 104.25 126.589844 103.929688 125.574219 103.605469 C 123.113281 102.804688 121.1875 103.019531 119.851562 104.300781 C 118.40625 105.640625 118.246094 107.777344 119.53125 109.328125 C 121.082031 111.199219 123.378906 111.523438 126.320312 110.238281 C 126.480469 110.183594 126.695312 110.132812 126.910156 110.023438 C 127.070312 109.917969 127.285156 109.808594 127.445312 109.703125 L 127.65625 109.597656 C 128.191406 109.328125 128.726562 109.007812 129.316406 108.582031 C 131.507812 109.542969 133.808594 110.773438 136.429688 112.324219 C 140.386719 114.730469 144.128906 117.671875 147.496094 121.039062 C 147.550781 121.09375 147.65625 121.148438 147.710938 121.253906 L 147.980469 121.46875 L 151.828125 117.617188 L 151.613281 117.351562 C 151.5625 117.296875 151.507812 117.191406 151.402344 117.136719 C 147.980469 113.820312 145.039062 110.078125 142.632812 106.121094 C 141.082031 103.554688 139.851562 101.253906 138.886719 99.117188 C 141.347656 95.425781 141.882812 92.589844 140.492188 90.398438 C 139.53125 88.902344 137.605469 87.832031 135.734375 88.6875 Z M 137.65625 93.394531 C 137.605469 93.820312 137.445312 94.25 137.230469 94.785156 C 137.125 94.410156 137.015625 94.035156 136.910156 93.660156 C 136.75 93.125 136.75 92.164062 136.960938 91.894531 C 136.960938 91.894531 137.015625 91.84375 137.175781 91.84375 C 137.710938 92.003906 137.765625 92.914062 137.65625 93.394531 Z M 136.535156 102.164062 C 137.230469 103.660156 138.03125 105.15625 138.835938 106.601562 C 140.011719 108.582031 141.292969 110.558594 142.683594 112.429688 C 139.421875 110.023438 136 107.992188 132.417969 106.335938 C 132.792969 106.015625 133.167969 105.640625 133.59375 105.265625 C 133.859375 105.050781 134.074219 104.785156 134.34375 104.570312 L 134.664062 104.25 C 135.304688 103.554688 135.945312 102.859375 136.535156 102.164062 Z M 125.039062 107.082031 C 124.503906 107.296875 124.074219 107.457031 123.648438 107.511719 C 123.167969 107.617188 122.257812 107.566406 122.148438 107.082031 C 122.097656 106.921875 122.148438 106.871094 122.203125 106.871094 C 122.472656 106.601562 123.378906 106.65625 123.96875 106.816406 C 124.289062 106.871094 124.664062 106.976562 125.039062 107.082031 Z M 125.039062 107.082031 " fill-opacity="1" fill-rule="nonzero"/><g fill="#000000" fill-opacity="1"><g transform="translate(78.996477, 346.274782)"><g><path d="M 4.890625 0 L 4.890625 -37.625 L 20.953125 -37.625 C 23.265625 -37.625 25.222656 -37.257812 26.828125 -36.53125 C 28.429688 -35.800781 29.644531 -34.757812 30.46875 -33.40625 C 31.289062 -32.0625 31.703125 -30.472656 31.703125 -28.640625 C 31.703125 -26.972656 31.296875 -25.503906 30.484375 -24.234375 C 29.679688 -22.972656 28.523438 -21.953125 27.015625 -21.171875 L 27.015625 -20.640625 C 29.390625 -20.023438 31.21875 -18.898438 32.5 -17.265625 C 33.789062 -15.640625 34.4375 -13.640625 34.4375 -11.265625 C 34.4375 -7.671875 33.347656 -4.894531 31.171875 -2.9375 C 29.003906 -0.976562 25.785156 0 21.515625 0 Z M 19.40625 -22.625 C 22.875 -22.625 24.609375 -24.179688 24.609375 -27.296875 C 24.609375 -28.898438 24.175781 -30.085938 23.3125 -30.859375 C 22.457031 -31.640625 21.15625 -32.03125 19.40625 -32.03125 L 12.328125 -32.03125 L 12.328125 -22.625 Z M 20.765625 -5.890625 C 24.867188 -5.890625 26.921875 -7.753906 26.921875 -11.484375 C 26.921875 -15.222656 24.867188 -17.09375 20.765625 -17.09375 L 12.328125 -17.09375 L 12.328125 -5.890625 Z M 20.765625 -5.890625 "/></g></g></g><g fill="#000000" fill-opacity="1"><g transform="translate(115.799705, 346.274782)"><g><path d="M 13 0.546875 C 9.800781 0.546875 7.441406 -0.320312 5.921875 -2.0625 C 4.410156 -3.8125 3.65625 -6.316406 3.65625 -9.578125 L 3.65625 -28.390625 L 10.78125 -28.390625 L 10.78125 -10.46875 C 10.78125 -8.738281 11.148438 -7.472656 11.890625 -6.671875 C 12.640625 -5.878906 13.796875 -5.484375 15.359375 -5.484375 C 17.335938 -5.484375 18.875 -6.128906 19.96875 -7.421875 C 21.0625 -8.710938 21.609375 -10.75 21.609375 -13.53125 L 21.609375 -28.390625 L 28.75 -28.390625 L 28.75 0 L 21.90625 0 L 21.90625 -4.171875 L 21.359375 -4.296875 C 20.453125 -2.671875 19.34375 -1.457031 18.03125 -0.65625 C 16.71875 0.144531 15.039062 0.546875 13 0.546875 Z M 13 0.546875 "/></g></g></g><g fill="#000000" fill-opacity="1"><g transform="translate(148.639508, 346.274782)"><g><path d="M 13.28125 0.546875 C 11.34375 0.546875 9.566406 0.316406 7.953125 -0.140625 C 6.335938 -0.597656 4.957031 -1.222656 3.8125 -2.015625 C 2.675781 -2.816406 1.832031 -3.734375 1.28125 -4.765625 L 5.25 -9.03125 L 5.796875 -9.03125 C 6.734375 -7.757812 7.84375 -6.804688 9.125 -6.171875 C 10.414062 -5.535156 11.816406 -5.21875 13.328125 -5.21875 C 14.722656 -5.21875 15.769531 -5.46875 16.46875 -5.96875 C 17.175781 -6.46875 17.53125 -7.179688 17.53125 -8.109375 C 17.53125 -8.828125 17.273438 -9.429688 16.765625 -9.921875 C 16.253906 -10.410156 15.4375 -10.789062 14.3125 -11.0625 L 10.546875 -11.96875 C 7.734375 -12.632812 5.675781 -13.65625 4.375 -15.03125 C 3.082031 -16.414062 2.4375 -18.171875 2.4375 -20.296875 C 2.4375 -22.066406 2.882812 -23.601562 3.78125 -24.90625 C 4.6875 -26.207031 5.957031 -27.203125 7.59375 -27.890625 C 9.238281 -28.578125 11.148438 -28.921875 13.328125 -28.921875 C 15.890625 -28.921875 18.007812 -28.550781 19.6875 -27.8125 C 21.363281 -27.082031 22.675781 -26.097656 23.625 -24.859375 L 19.8125 -20.734375 L 19.296875 -20.734375 C 18.503906 -21.628906 17.613281 -22.28125 16.625 -22.6875 C 15.644531 -23.101562 14.546875 -23.3125 13.328125 -23.3125 C 10.515625 -23.3125 9.109375 -22.4375 9.109375 -20.6875 C 9.109375 -19.945312 9.367188 -19.34375 9.890625 -18.875 C 10.410156 -18.414062 11.332031 -18.039062 12.65625 -17.75 L 16.15625 -16.984375 C 19.039062 -16.367188 21.144531 -15.378906 22.46875 -14.015625 C 23.800781 -12.648438 24.46875 -10.816406 24.46875 -8.515625 C 24.46875 -6.710938 24.019531 -5.125 23.125 -3.75 C 22.238281 -2.382812 20.953125 -1.328125 19.265625 -0.578125 C 17.585938 0.171875 15.59375 0.546875 13.28125 0.546875 Z M 13.28125 0.546875 "/></g></g></g><g fill="#000000" fill-opacity="1"><g transform="translate(174.813559, 346.274782)"><g><path d="M 7.640625 -31.78125 C 6.359375 -31.78125 5.3125 -32.171875 4.5 -32.953125 C 3.695312 -33.734375 3.296875 -34.738281 3.296875 -35.96875 C 3.296875 -37.1875 3.695312 -38.1875 4.5 -38.96875 C 5.3125 -39.75 6.359375 -40.140625 7.640625 -40.140625 C 8.492188 -40.140625 9.253906 -39.957031 9.921875 -39.59375 C 10.597656 -39.238281 11.117188 -38.75 11.484375 -38.125 C 11.859375 -37.5 12.046875 -36.78125 12.046875 -35.96875 C 12.046875 -35.164062 11.859375 -34.445312 11.484375 -33.8125 C 11.117188 -33.175781 10.597656 -32.675781 9.921875 -32.3125 C 9.253906 -31.957031 8.492188 -31.78125 7.640625 -31.78125 Z M 4.09375 0 L 4.09375 -28.390625 L 11.21875 -28.390625 L 11.21875 0 Z M 4.09375 0 "/></g></g></g><g fill="#000000" fill-opacity="1"><g transform="translate(190.101054, 346.274782)"><g><path d="M 4.09375 0 L 4.09375 -28.390625 L 10.9375 -28.390625 L 10.9375 -24.21875 L 11.484375 -24.09375 C 13.242188 -27.3125 16.109375 -28.921875 20.078125 -28.921875 C 23.347656 -28.921875 25.75 -28.03125 27.28125 -26.25 C 28.820312 -24.46875 29.59375 -21.867188 29.59375 -18.453125 L 29.59375 0 L 22.46875 0 L 22.46875 -17.578125 C 22.46875 -19.460938 22.085938 -20.820312 21.328125 -21.65625 C 20.578125 -22.488281 19.367188 -22.90625 17.703125 -22.90625 C 15.660156 -22.90625 14.066406 -22.242188 12.921875 -20.921875 C 11.785156 -19.597656 11.21875 -17.519531 11.21875 -14.6875 L 11.21875 0 Z M 4.09375 0 "/></g></g></g><g fill="#000000" fill-opacity="1"><g transform="translate(223.352642, 346.274782)"><g><path d="M 28.046875 -12.578125 L 9.796875 -12.578125 C 10.003906 -10.109375 10.707031 -8.3125 11.90625 -7.1875 C 13.113281 -6.0625 14.753906 -5.5 16.828125 -5.5 C 18.460938 -5.5 19.785156 -5.800781 20.796875 -6.40625 C 21.804688 -7.019531 22.617188 -7.945312 23.234375 -9.1875 L 23.78125 -9.1875 L 28.515625 -6.15625 C 27.585938 -4.164062 26.1875 -2.550781 24.3125 -1.3125 C 22.445312 -0.0703125 19.953125 0.546875 16.828125 0.546875 C 13.890625 0.546875 11.351562 -0.0078125 9.21875 -1.125 C 7.082031 -2.25 5.4375 -3.910156 4.28125 -6.109375 C 3.125 -8.316406 2.546875 -11.003906 2.546875 -14.171875 C 2.546875 -17.398438 3.15625 -20.117188 4.375 -22.328125 C 5.59375 -24.546875 7.238281 -26.195312 9.3125 -27.28125 C 11.382812 -28.375 13.71875 -28.921875 16.3125 -28.921875 C 20.332031 -28.921875 23.410156 -27.859375 25.546875 -25.734375 C 27.679688 -23.609375 28.75 -20.484375 28.75 -16.359375 C 28.75 -14.867188 28.695312 -13.710938 28.59375 -12.890625 Z M 21.921875 -17.1875 C 21.859375 -19.351562 21.359375 -20.925781 20.421875 -21.90625 C 19.484375 -22.894531 18.113281 -23.390625 16.3125 -23.390625 C 12.707031 -23.390625 10.585938 -21.320312 9.953125 -17.1875 Z M 21.921875 -17.1875 "/></g></g></g><g fill="#000000" fill-opacity="1"><g transform="translate(254.21074, 346.274782)"><g><path d="M 13.28125 0.546875 C 11.34375 0.546875 9.566406 0.316406 7.953125 -0.140625 C 6.335938 -0.597656 4.957031 -1.222656 3.8125 -2.015625 C 2.675781 -2.816406 1.832031 -3.734375 1.28125 -4.765625 L 5.25 -9.03125 L 5.796875 -9.03125 C 6.734375 -7.757812 7.84375 -6.804688 9.125 -6.171875 C 10.414062 -5.535156 11.816406 -5.21875 13.328125 -5.21875 C 14.722656 -5.21875 15.769531 -5.46875 16.46875 -5.96875 C 17.175781 -6.46875 17.53125 -7.179688 17.53125 -8.109375 C 17.53125 -8.828125 17.273438 -9.429688 16.765625 -9.921875 C 16.253906 -10.410156 15.4375 -10.789062 14.3125 -11.0625 L 10.546875 -11.96875 C 7.734375 -12.632812 5.675781 -13.65625 4.375 -15.03125 C 3.082031 -16.414062 2.4375 -18.171875 2.4375 -20.296875 C 2.4375 -22.066406 2.882812 -23.601562 3.78125 -24.90625 C 4.6875 -26.207031 5.957031 -27.203125 7.59375 -27.890625 C 9.238281 -28.578125 11.148438 -28.921875 13.328125 -28.921875 C 15.890625 -28.921875 18.007812 -28.550781 19.6875 -27.8125 C 21.363281 -27.082031 22.675781 -26.097656 23.625 -24.859375 L 19.8125 -20.734375 L 19.296875 -20.734375 C 18.503906 -21.628906 17.613281 -22.28125 16.625 -22.6875 C 15.644531 -23.101562 14.546875 -23.3125 13.328125 -23.3125 C 10.515625 -23.3125 9.109375 -22.4375 9.109375 -20.6875 C 9.109375 -19.945312 9.367188 -19.34375 9.890625 -18.875 C 10.410156 -18.414062 11.332031 -18.039062 12.65625 -17.75 L 16.15625 -16.984375 C 19.039062 -16.367188 21.144531 -15.378906 22.46875 -14.015625 C 23.800781 -12.648438 24.46875 -10.816406 24.46875 -8.515625 C 24.46875 -6.710938 24.019531 -5.125 23.125 -3.75 C 22.238281 -2.382812 20.953125 -1.328125 19.265625 -0.578125 C 17.585938 0.171875 15.59375 0.546875 13.28125 0.546875 Z M 13.28125 0.546875 "/></g></g></g><g fill="#000000" fill-opacity="1"><g transform="translate(280.384791, 346.274782)"><g><path d="M 13.28125 0.546875 C 11.34375 0.546875 9.566406 0.316406 7.953125 -0.140625 C 6.335938 -0.597656 4.957031 -1.222656 3.8125 -2.015625 C 2.675781 -2.816406 1.832031 -3.734375 1.28125 -4.765625 L 5.25 -9.03125 L 5.796875 -9.03125 C 6.734375 -7.757812 7.84375 -6.804688 9.125 -6.171875 C 10.414062 -5.535156 11.816406 -5.21875 13.328125 -5.21875 C 14.722656 -5.21875 15.769531 -5.46875 16.46875 -5.96875 C 17.175781 -6.46875 17.53125 -7.179688 17.53125 -8.109375 C 17.53125 -8.828125 17.273438 -9.429688 16.765625 -9.921875 C 16.253906 -10.410156 15.4375 -10.789062 14.3125 -11.0625 L 10.546875 -11.96875 C 7.734375 -12.632812 5.675781 -13.65625 4.375 -15.03125 C 3.082031 -16.414062 2.4375 -18.171875 2.4375 -20.296875 C 2.4375 -22.066406 2.882812 -23.601562 3.78125 -24.90625 C 4.6875 -26.207031 5.957031 -27.203125 7.59375 -27.890625 C 9.238281 -28.578125 11.148438 -28.921875 13.328125 -28.921875 C 15.890625 -28.921875 18.007812 -28.550781 19.6875 -27.8125 C 21.363281 -27.082031 22.675781 -26.097656 23.625 -24.859375 L 19.8125 -20.734375 L 19.296875 -20.734375 C 18.503906 -21.628906 17.613281 -22.28125 16.625 -22.6875 C 15.644531 -23.101562 14.546875 -23.3125 13.328125 -23.3125 C 10.515625 -23.3125 9.109375 -22.4375 9.109375 -20.6875 C 9.109375 -19.945312 9.367188 -19.34375 9.890625 -18.875 C 10.410156 -18.414062 11.332031 -18.039062 12.65625 -17.75 L 16.15625 -16.984375 C 19.039062 -16.367188 21.144531 -15.378906 22.46875 -14.015625 C 23.800781 -12.648438 24.46875 -10.816406 24.46875 -8.515625 C 24.46875 -6.710938 24.019531 -5.125 23.125 -3.75 C 22.238281 -2.382812 20.953125 -1.328125 19.265625 -0.578125 C 17.585938 0.171875 15.59375 0.546875 13.28125 0.546875 Z M 13.28125 0.546875 "/></g></g></g></svg>