<svg xmlns="http://www.w3.org/2000/svg" xmlns:xlink="http://www.w3.org/1999/xlink" width="500" zoomAndPan="magnify" viewBox="0 0 375 374.999991" height="500" preserveAspectRatio="xMidYMid meet" version="1.0"><defs><g/><clipPath id="ca8ae5f6ef"><path d="M 47.296875 14.804688 L 327.796875 14.804688 L 327.796875 295.304688 L 47.296875 295.304688 Z M 47.296875 14.804688 " clip-rule="nonzero"/></clipPath></defs><path fill="#f2bb30" d="M 53.695312 21.203125 L 187.460938 21.203125 L 187.460938 154.96875 L 53.695312 154.96875 Z M 53.695312 21.203125 " fill-opacity="1" fill-rule="evenodd"/><path fill="#35668f" d="M 187.460938 21.203125 L 321.230469 21.203125 L 321.230469 154.96875 L 187.460938 154.96875 Z M 187.460938 21.203125 " fill-opacity="1" fill-rule="evenodd"/><path fill="#ff847e" d="M 187.460938 154.96875 L 321.230469 154.96875 L 321.230469 288.738281 L 187.460938 288.738281 Z M 187.460938 154.96875 " fill-opacity="1" fill-rule="evenodd"/><path fill="#0b253a" d="M 53.695312 154.96875 L 187.460938 154.96875 L 187.460938 288.738281 L 53.695312 288.738281 Z M 53.695312 154.96875 " fill-opacity="1" fill-rule="evenodd"/><g clip-path="url(#ca8ae5f6ef)"><path fill="#ffffff" d="M 47.273438 21.199219 L 47.273438 288.738281 C 47.273438 292.285156 50.148438 295.15625 53.695312 295.15625 L 321.230469 295.15625 C 322.988281 295.15625 324.582031 294.449219 325.742188 293.304688 L 326.007812 293.027344 L 326.257812 292.730469 L 326.640625 292.199219 L 326.894531 291.765625 L 327.082031 291.378906 C 327.195312 291.132812 327.292969 290.875 327.371094 290.613281 L 327.375 290.609375 C 327.5 290.195312 327.585938 289.761719 327.625 289.320312 L 327.652344 288.738281 L 327.652344 21.199219 C 327.652344 17.65625 324.777344 14.78125 321.230469 14.78125 L 53.695312 14.78125 C 50.148438 14.78125 47.273438 17.65625 47.273438 21.199219 Z M 181.042969 282.316406 L 181.042969 161.390625 L 60.113281 161.390625 L 60.113281 282.316406 Z M 248.589844 282.316406 L 193.882812 282.316406 L 193.882812 161.390625 C 193.882812 161.390625 314.808594 161.390625 314.808594 161.390625 C 314.808594 161.390625 314.808594 282.316406 314.808594 282.316406 Z M 117.613281 212.773438 L 102.785156 197.949219 C 100.28125 195.445312 96.210938 195.445312 93.707031 197.949219 C 91.203125 200.453125 91.203125 204.523438 93.707031 207.027344 L 108.53125 221.851562 L 93.707031 236.675781 C 91.203125 239.183594 91.203125 243.25 93.707031 245.757812 C 96.210938 248.261719 100.28125 248.261719 102.785156 245.757812 L 117.613281 230.933594 L 132.4375 245.757812 C 134.941406 248.261719 139.007812 248.261719 141.515625 245.757812 C 144.019531 243.25 144.019531 239.183594 141.515625 236.675781 L 126.691406 221.851562 L 141.515625 207.027344 C 144.019531 204.523438 144.019531 200.453125 141.515625 197.949219 C 139.007812 195.445312 134.941406 195.445312 132.4375 197.949219 Z M 232.300781 241.964844 L 277.722656 241.964844 C 281.265625 241.964844 284.140625 239.089844 284.140625 235.546875 C 284.140625 232.003906 281.265625 229.125 277.722656 229.125 L 232.300781 229.125 C 228.757812 229.125 225.878906 232.003906 225.878906 235.546875 C 225.878906 239.089844 228.757812 241.964844 232.300781 241.964844 Z M 230.972656 214.582031 L 276.390625 214.582031 C 279.933594 214.582031 282.8125 211.703125 282.8125 208.160156 C 282.8125 204.617188 279.933594 201.738281 276.390625 201.738281 L 230.972656 201.738281 C 227.429688 201.738281 224.550781 204.617188 224.550781 208.160156 C 224.550781 211.703125 227.429688 214.582031 230.972656 214.582031 Z M 60.113281 27.621094 L 60.113281 148.550781 L 181.042969 148.550781 L 181.042969 27.621094 Z M 193.882812 27.621094 L 314.808594 27.621094 L 314.808594 148.550781 L 193.882812 148.550781 Z M 111.191406 81.664062 L 90.226562 81.664062 C 86.683594 81.664062 83.804688 84.542969 83.804688 88.085938 C 83.804688 91.628906 86.683594 94.503906 90.226562 94.503906 L 111.191406 94.503906 L 111.191406 115.46875 C 111.191406 119.015625 114.066406 121.890625 117.613281 121.890625 C 121.15625 121.890625 124.03125 119.015625 124.03125 115.46875 L 124.03125 94.503906 L 144.996094 94.503906 C 148.539062 94.503906 151.417969 91.628906 151.417969 88.085938 C 151.417969 84.542969 148.539062 81.664062 144.996094 81.664062 L 124.03125 81.664062 L 124.03125 60.699219 C 124.03125 57.15625 121.15625 54.28125 117.613281 54.28125 C 114.066406 54.28125 111.191406 57.15625 111.191406 60.699219 Z M 273.710938 98.34375 C 268.6875 98.34375 264.605469 102.425781 264.605469 107.449219 C 264.605469 112.472656 268.6875 116.554688 273.710938 116.554688 C 278.734375 116.554688 282.8125 112.472656 282.8125 107.449219 C 282.8125 102.425781 278.734375 98.34375 273.710938 98.34375 Z M 269.171875 64.179688 L 230.441406 102.910156 C 227.9375 105.414062 227.9375 109.484375 230.441406 111.988281 C 232.949219 114.496094 237.015625 114.496094 239.523438 111.988281 L 278.25 73.261719 C 280.757812 70.753906 280.757812 66.6875 278.25 64.179688 C 275.746094 61.675781 271.675781 61.675781 269.171875 64.179688 Z M 234.980469 59.617188 C 229.957031 59.617188 225.878906 63.695312 225.878906 68.71875 C 225.878906 73.746094 229.957031 77.824219 234.980469 77.824219 C 240.007812 77.824219 244.085938 73.746094 244.085938 68.71875 C 244.085938 63.695312 240.007812 59.617188 234.980469 59.617188 Z M 234.980469 59.617188 " fill-opacity="1" fill-rule="evenodd"/></g><g fill="#000000" fill-opacity="1"><g transform="translate(125.867262, 346.274811)"><g><path d="M 11.703125 0 L 4.890625 0 L 4.890625 -37.625 L 14.609375 -37.625 L 24.140625 -9.953125 L 24.671875 -9.953125 L 34.15625 -37.625 L 43.640625 -37.625 L 43.640625 0 L 36.59375 0 L 36.59375 -24.859375 L 35.953125 -24.96875 L 27.25 0 L 21.046875 0 L 12.359375 -24.96875 L 11.703125 -24.859375 Z M 11.703125 0 "/></g></g></g><g fill="#000000" fill-opacity="1"><g transform="translate(174.432088, 346.274811)"><g><path d="M 11.0625 0.546875 C 9.25 0.546875 7.671875 0.210938 6.328125 -0.453125 C 4.992188 -1.128906 3.960938 -2.113281 3.234375 -3.40625 C 2.515625 -4.707031 2.15625 -6.265625 2.15625 -8.078125 C 2.15625 -9.765625 2.515625 -11.175781 3.234375 -12.3125 C 3.960938 -13.457031 5.082031 -14.394531 6.59375 -15.125 C 8.101562 -15.851562 10.070312 -16.410156 12.5 -16.796875 C 14.195312 -17.078125 15.488281 -17.378906 16.375 -17.703125 C 17.257812 -18.023438 17.851562 -18.390625 18.15625 -18.796875 C 18.46875 -19.210938 18.625 -19.738281 18.625 -20.375 C 18.625 -21.289062 18.304688 -21.988281 17.671875 -22.46875 C 17.046875 -22.945312 15.992188 -23.1875 14.515625 -23.1875 C 12.929688 -23.1875 11.425781 -22.832031 10 -22.125 C 8.582031 -21.425781 7.351562 -20.503906 6.3125 -19.359375 L 5.796875 -19.359375 L 2.8125 -23.859375 C 4.25 -25.453125 6.003906 -26.691406 8.078125 -27.578125 C 10.148438 -28.472656 12.414062 -28.921875 14.875 -28.921875 C 18.632812 -28.921875 21.351562 -28.125 23.03125 -26.53125 C 24.707031 -24.9375 25.546875 -22.671875 25.546875 -19.734375 L 25.546875 -7.40625 C 25.546875 -6.132812 26.101562 -5.5 27.21875 -5.5 C 27.65625 -5.5 28.078125 -5.578125 28.484375 -5.734375 L 28.84375 -5.640625 L 29.359375 -0.671875 C 28.960938 -0.410156 28.410156 -0.195312 27.703125 -0.03125 C 27.003906 0.125 26.238281 0.203125 25.40625 0.203125 C 23.707031 0.203125 22.378906 -0.117188 21.421875 -0.765625 C 20.472656 -1.421875 19.789062 -2.441406 19.375 -3.828125 L 18.84375 -3.890625 C 17.445312 -0.929688 14.851562 0.546875 11.0625 0.546875 Z M 13.328125 -4.78125 C 14.972656 -4.78125 16.289062 -5.332031 17.28125 -6.4375 C 18.269531 -7.550781 18.765625 -9.09375 18.765625 -11.0625 L 18.765625 -13.953125 L 18.265625 -14.046875 C 17.835938 -13.703125 17.273438 -13.414062 16.578125 -13.1875 C 15.890625 -12.957031 14.894531 -12.726562 13.59375 -12.5 C 12.039062 -12.25 10.925781 -11.804688 10.25 -11.171875 C 9.570312 -10.546875 9.234375 -9.660156 9.234375 -8.515625 C 9.234375 -7.296875 9.59375 -6.367188 10.3125 -5.734375 C 11.039062 -5.097656 12.046875 -4.78125 13.328125 -4.78125 Z M 13.328125 -4.78125 "/></g></g></g><g fill="#000000" fill-opacity="1"><g transform="translate(204.363672, 346.274811)"><g><path d="M 19.578125 -6.765625 L 21.4375 -1.5 C 20.664062 -0.863281 19.695312 -0.363281 18.53125 0 C 17.363281 0.363281 16.039062 0.546875 14.5625 0.546875 C 11.488281 0.546875 9.15625 -0.289062 7.5625 -1.96875 C 5.96875 -3.644531 5.171875 -6.078125 5.171875 -9.265625 L 5.171875 -22.75 L 0.84375 -22.75 L 0.84375 -28.40625 L 5.171875 -28.40625 L 5.171875 -33.9375 L 12.296875 -35.09375 L 12.296875 -28.40625 L 20.359375 -28.40625 L 20.359375 -22.75 L 12.296875 -22.75 L 12.296875 -9.78125 C 12.296875 -8.375 12.585938 -7.347656 13.171875 -6.703125 C 13.753906 -6.054688 14.601562 -5.734375 15.71875 -5.734375 C 16.988281 -5.734375 18.097656 -6.078125 19.046875 -6.765625 Z M 19.578125 -6.765625 "/></g></g></g><g fill="#000000" fill-opacity="1"><g transform="translate(226.419879, 346.274811)"><g><path d="M 4.09375 0 L 4.09375 -39.78125 L 11.21875 -39.78125 L 11.21875 -24.671875 L 11.765625 -24.578125 C 12.703125 -25.960938 13.859375 -27.03125 15.234375 -27.78125 C 16.609375 -28.539062 18.265625 -28.921875 20.203125 -28.921875 C 26.460938 -28.921875 29.59375 -25.367188 29.59375 -18.265625 L 29.59375 0 L 22.46875 0 L 22.46875 -17.375 C 22.46875 -19.3125 22.082031 -20.71875 21.3125 -21.59375 C 20.539062 -22.46875 19.335938 -22.90625 17.703125 -22.90625 C 15.710938 -22.90625 14.132812 -22.238281 12.96875 -20.90625 C 11.800781 -19.582031 11.21875 -17.507812 11.21875 -14.6875 L 11.21875 0 Z M 4.09375 0 "/></g></g></g></svg>