<svg xmlns="http://www.w3.org/2000/svg" xmlns:xlink="http://www.w3.org/1999/xlink" width="500" zoomAndPan="magnify" viewBox="0 0 375 374.999991" height="500" preserveAspectRatio="xMidYMid meet" version="1.0"><defs><g/><clipPath id="a8fbdd7ef8"><path d="M 70 21 L 286 21 L 286 276.859375 L 70 276.859375 Z M 70 21 " clip-rule="nonzero"/></clipPath></defs><g clip-path="url(#a8fbdd7ef8)"><path fill="#35668f" d="M 279.5 77.433594 C 270.550781 54.757812 250.65625 37.253906 223.40625 28.101562 C 191.378906 17.359375 154.378906 20.144531 128.71875 35.265625 C 106.636719 48.394531 80.976562 85.789062 90.921875 114.234375 C 90.921875 114.433594 72.226562 141.886719 72.226562 141.886719 C 70.035156 145.070312 70.035156 149.84375 71.628906 153.226562 C 73.21875 156.605469 76.402344 158.992188 81.375 160.1875 C 81.375 160.1875 78.191406 169.734375 78.191406 169.734375 C 77.199219 172.519531 78.988281 175.304688 81.574219 176.300781 L 84.359375 177.292969 C 84.359375 177.292969 81.574219 179.878906 81.375 180.078125 C 80.378906 181.472656 80.179688 183.261719 80.777344 185.050781 L 82.371094 189.628906 C 83.363281 192.214844 83.164062 196.589844 82.765625 199.375 L 81.972656 203.550781 C 80.777344 209.320312 83.363281 215.289062 88.335938 218.472656 C 93.507812 221.851562 101.265625 223.445312 111.414062 223.246094 C 119.964844 223.046875 135.480469 225.035156 142.445312 240.949219 C 145.429688 247.515625 146.820312 258.253906 146.621094 271.980469 C 146.621094 274.167969 148.410156 275.960938 150.601562 275.960938 C 152.789062 275.960938 154.578125 274.167969 154.578125 271.980469 C 154.777344 256.863281 153.1875 245.324219 149.804688 237.566406 C 143.238281 222.847656 129.316406 214.691406 111.214844 215.089844 C 100.671875 215.289062 95.300781 213.300781 92.515625 211.507812 C 90.328125 210.117188 89.132812 207.332031 89.730469 204.746094 L 90.527344 200.566406 C 91.320312 196.789062 91.320312 190.820312 89.929688 186.644531 L 88.933594 183.660156 C 88.933594 183.660156 93.113281 179.679688 93.113281 179.679688 C 95.5 177.292969 94.902344 172.320312 91.71875 171.128906 L 86.746094 169.136719 C 86.746094 169.136719 89.730469 159.988281 89.730469 159.789062 C 90.527344 155.015625 87.34375 152.628906 84.160156 152.03125 C 80.777344 151.234375 77.398438 149.445312 78.988281 145.46875 L 97.6875 119.011719 C 99.078125 116.820312 99.476562 114.039062 98.679688 111.648438 C 90.128906 87.382812 113.601562 53.765625 133.09375 42.226562 C 156.367188 28.101562 190.980469 25.515625 220.820312 35.660156 C 245.683594 44.015625 263.785156 59.929688 271.941406 80.417969 C 282.085938 105.882812 277.910156 136.316406 261.199219 159.988281 C 234.941406 196.789062 229.375 233.988281 243.894531 273.574219 C 244.691406 275.5625 246.878906 276.753906 249.066406 275.960938 C 251.054688 275.164062 252.25 272.976562 251.453125 270.789062 C 237.925781 233.789062 243.296875 198.976562 267.765625 164.5625 C 286.066406 138.703125 290.640625 105.285156 279.5 77.433594 Z M 279.5 77.433594 " fill-opacity="1" fill-rule="nonzero"/></g><path fill="#35668f" d="M 229.769531 114.632812 C 229.769531 109.859375 226.191406 106.082031 221.617188 106.082031 L 218.832031 106.082031 C 218.234375 104.089844 217.4375 102.101562 216.441406 100.113281 L 218.433594 98.125 C 220.023438 96.53125 220.820312 94.34375 220.621094 91.957031 C 220.421875 89.769531 219.625 87.78125 218.035156 86.1875 L 214.851562 83.003906 C 213.261719 81.414062 211.269531 80.417969 209.082031 80.417969 C 206.695312 80.21875 204.507812 81.015625 202.917969 82.609375 L 200.925781 84.597656 C 198.9375 83.601562 196.949219 82.804688 194.960938 82.210938 L 194.960938 79.425781 C 194.960938 75.046875 191.179688 71.269531 186.40625 71.269531 L 181.832031 71.269531 C 177.058594 71.269531 173.277344 74.847656 173.277344 79.425781 L 173.277344 82.210938 C 171.289062 82.804688 169.296875 83.601562 167.308594 84.597656 L 165.320312 82.609375 C 162.136719 79.425781 156.765625 79.625 153.582031 83.003906 L 150.402344 86.1875 C 147.019531 89.570312 146.820312 94.941406 150.003906 97.925781 L 151.992188 99.914062 C 150.996094 101.902344 150.203125 103.691406 149.605469 105.882812 L 146.820312 105.882812 C 142.445312 105.882812 138.664062 109.660156 138.664062 114.433594 L 138.664062 119.011719 C 138.664062 123.785156 142.246094 127.5625 146.820312 127.5625 L 149.605469 127.5625 C 150.203125 129.554688 150.996094 131.542969 151.992188 133.53125 L 150.003906 135.519531 C 146.820312 138.703125 147.019531 144.074219 150.402344 147.257812 L 153.78125 150.640625 C 157.164062 154.019531 162.535156 154.21875 165.519531 151.035156 L 167.507812 149.046875 C 169.496094 150.042969 171.488281 150.835938 173.476562 151.433594 L 173.476562 154.21875 C 173.476562 158.597656 177.253906 162.375 182.03125 162.375 L 186.605469 162.375 C 191.378906 162.375 195.160156 158.792969 195.160156 154.21875 L 195.160156 151.433594 C 197.148438 150.835938 199.136719 150.042969 201.125 149.046875 L 203.117188 151.035156 C 206.296875 154.21875 211.667969 154.019531 214.851562 150.640625 L 218.035156 147.457031 C 219.625 145.863281 220.621094 143.476562 220.621094 141.289062 C 220.621094 139.101562 219.824219 137.113281 218.433594 135.71875 L 216.441406 133.730469 C 217.4375 131.742188 218.234375 129.753906 218.832031 127.761719 L 221.617188 127.761719 C 225.992188 127.761719 229.769531 123.984375 229.769531 119.210938 Z M 221.8125 119.40625 C 221.8125 119.804688 221.617188 120.003906 221.617188 120.003906 L 215.648438 120.003906 C 213.855469 120.003906 212.066406 121.398438 211.667969 123.1875 C 210.875 126.371094 209.679688 129.554688 207.890625 132.535156 C 206.894531 134.128906 207.09375 136.117188 208.488281 137.511719 L 212.664062 141.6875 C 212.664062 141.6875 212.664062 142.085938 212.265625 142.285156 L 209.082031 145.46875 C 208.882812 145.664062 208.488281 145.863281 208.488281 145.863281 L 204.308594 141.6875 C 202.917969 140.292969 200.925781 140.097656 199.335938 141.089844 C 196.550781 142.882812 193.367188 144.273438 189.988281 144.871094 C 188.195312 145.269531 186.804688 146.859375 186.804688 148.847656 L 186.804688 154.617188 C 186.804688 154.617188 186.605469 154.816406 186.207031 154.816406 L 181.632812 154.816406 C 181.234375 154.816406 181.035156 154.617188 181.035156 154.617188 L 181.035156 148.648438 C 181.035156 146.859375 179.644531 145.070312 177.851562 144.671875 C 174.667969 143.875 171.488281 142.683594 168.503906 140.890625 C 166.910156 139.898438 164.921875 140.097656 163.53125 141.488281 L 159.351562 145.664062 C 159.351562 145.664062 158.953125 145.664062 158.753906 145.269531 L 155.574219 141.886719 C 155.375 141.6875 155.175781 141.289062 155.175781 141.289062 L 159.351562 137.113281 C 160.746094 135.71875 160.945312 133.730469 159.949219 132.140625 C 158.160156 129.355469 156.765625 126.171875 156.167969 122.988281 C 155.773438 121.199219 154.179688 119.804688 152.191406 119.804688 L 146.421875 119.804688 C 146.421875 119.804688 146.222656 119.40625 146.222656 119.210938 L 146.222656 114.632812 C 146.222656 114.234375 146.421875 114.039062 146.421875 114.039062 L 152.390625 114.039062 C 154.179688 114.039062 155.972656 112.644531 156.367188 110.855469 C 157.164062 107.472656 158.359375 104.488281 160.148438 101.503906 C 161.144531 99.914062 160.945312 97.925781 159.550781 96.53125 L 155.375 92.355469 C 155.375 92.355469 155.375 91.957031 155.773438 91.757812 L 158.953125 88.574219 C 159.351562 88.175781 159.550781 88.175781 159.550781 88.175781 L 163.730469 92.355469 C 165.121094 93.746094 167.109375 93.945312 168.703125 92.953125 C 171.488281 91.160156 174.667969 89.769531 178.050781 89.171875 C 179.839844 88.773438 181.234375 87.183594 181.234375 85.195312 L 181.234375 79.425781 C 181.234375 79.425781 181.433594 79.226562 181.832031 79.226562 L 186.40625 79.226562 C 186.804688 79.226562 187.003906 79.425781 187.003906 79.425781 L 187.003906 85.390625 C 187.003906 87.183594 188.394531 88.972656 190.183594 89.371094 C 193.367188 90.167969 196.550781 91.359375 199.335938 93.148438 C 200.925781 94.144531 202.917969 93.945312 204.308594 92.554688 L 208.488281 88.375 C 208.488281 88.375 208.882812 88.375 209.082031 88.773438 L 212.265625 91.957031 C 212.664062 92.355469 212.464844 92.554688 212.664062 92.554688 L 208.488281 96.730469 C 207.09375 98.125 206.894531 100.113281 207.890625 101.703125 C 209.679688 104.488281 211.074219 107.671875 211.667969 111.054688 C 212.066406 112.84375 213.660156 114.234375 215.648438 114.234375 L 221.417969 114.234375 C 221.417969 114.234375 221.617188 114.433594 221.617188 114.832031 L 221.617188 119.40625 Z M 221.8125 119.40625 " fill-opacity="1" fill-rule="nonzero"/><path fill="#35668f" d="M 184.019531 97.925781 C 173.476562 97.925781 164.921875 106.476562 164.921875 117.019531 C 164.921875 127.5625 173.476562 136.117188 184.019531 136.117188 C 194.5625 136.117188 203.117188 127.5625 203.117188 117.019531 C 203.117188 106.476562 194.5625 97.925781 184.019531 97.925781 Z M 184.019531 128.160156 C 177.851562 128.160156 172.878906 123.1875 172.878906 117.019531 C 172.878906 110.855469 177.851562 105.882812 184.019531 105.882812 C 190.183594 105.882812 195.160156 110.855469 195.160156 117.019531 C 195.160156 123.1875 190.183594 128.160156 184.019531 128.160156 Z M 184.019531 128.160156 " fill-opacity="1" fill-rule="nonzero"/><path fill="#35668f" d="M 195.753906 51.773438 C 195.753906 52.035156 195.730469 52.292969 195.679688 52.550781 C 195.628906 52.808594 195.550781 53.054688 195.453125 53.296875 C 195.351562 53.539062 195.230469 53.769531 195.085938 53.984375 C 194.941406 54.203125 194.773438 54.402344 194.589844 54.585938 C 194.40625 54.773438 194.203125 54.9375 193.988281 55.082031 C 193.769531 55.226562 193.539062 55.351562 193.300781 55.449219 C 193.058594 55.550781 192.808594 55.625 192.554688 55.675781 C 192.296875 55.726562 192.039062 55.753906 191.777344 55.753906 C 191.515625 55.753906 191.257812 55.726562 191 55.675781 C 190.746094 55.625 190.496094 55.550781 190.253906 55.449219 C 190.011719 55.351562 189.785156 55.226562 189.566406 55.082031 C 189.347656 54.9375 189.148438 54.773438 188.964844 54.585938 C 188.777344 54.402344 188.613281 54.203125 188.46875 53.984375 C 188.324219 53.769531 188.203125 53.539062 188.101562 53.296875 C 188 53.054688 187.925781 52.808594 187.875 52.550781 C 187.824219 52.292969 187.796875 52.035156 187.796875 51.773438 C 187.796875 51.511719 187.824219 51.253906 187.875 51 C 187.925781 50.742188 188 50.492188 188.101562 50.253906 C 188.203125 50.011719 188.324219 49.78125 188.46875 49.5625 C 188.613281 49.347656 188.777344 49.144531 188.964844 48.960938 C 189.148438 48.777344 189.347656 48.613281 189.566406 48.464844 C 189.785156 48.320312 190.011719 48.199219 190.253906 48.097656 C 190.496094 48 190.746094 47.921875 191 47.871094 C 191.257812 47.820312 191.515625 47.796875 191.777344 47.796875 C 192.039062 47.796875 192.296875 47.820312 192.554688 47.871094 C 192.808594 47.921875 193.058594 48 193.300781 48.097656 C 193.539062 48.199219 193.769531 48.320312 193.988281 48.464844 C 194.203125 48.613281 194.40625 48.777344 194.589844 48.960938 C 194.773438 49.144531 194.941406 49.347656 195.085938 49.5625 C 195.230469 49.78125 195.351562 50.011719 195.453125 50.253906 C 195.550781 50.492188 195.628906 50.742188 195.679688 51 C 195.730469 51.253906 195.753906 51.511719 195.753906 51.773438 Z M 195.753906 51.773438 " fill-opacity="1" fill-rule="nonzero"/><path fill="#35668f" d="M 211.074219 55.554688 C 211.074219 55.816406 211.046875 56.074219 210.996094 56.332031 C 210.945312 56.585938 210.871094 56.835938 210.769531 57.078125 C 210.667969 57.316406 210.546875 57.546875 210.402344 57.765625 C 210.257812 57.980469 210.09375 58.183594 209.90625 58.367188 C 209.722656 58.550781 209.519531 58.71875 209.304688 58.863281 C 209.085938 59.007812 208.859375 59.128906 208.617188 59.230469 C 208.375 59.328125 208.125 59.40625 207.871094 59.457031 C 207.613281 59.507812 207.355469 59.53125 207.09375 59.53125 C 206.832031 59.53125 206.574219 59.507812 206.316406 59.457031 C 206.0625 59.40625 205.8125 59.328125 205.570312 59.230469 C 205.328125 59.128906 205.101562 59.007812 204.882812 58.863281 C 204.667969 58.71875 204.464844 58.550781 204.28125 58.367188 C 204.097656 58.183594 203.929688 57.980469 203.785156 57.765625 C 203.640625 57.546875 203.519531 57.316406 203.417969 57.078125 C 203.316406 56.835938 203.242188 56.585938 203.191406 56.332031 C 203.140625 56.074219 203.117188 55.816406 203.117188 55.554688 C 203.117188 55.292969 203.140625 55.035156 203.191406 54.777344 C 203.242188 54.523438 203.316406 54.273438 203.417969 54.03125 C 203.519531 53.789062 203.640625 53.5625 203.785156 53.34375 C 203.929688 53.125 204.097656 52.925781 204.28125 52.742188 C 204.464844 52.554688 204.667969 52.390625 204.882812 52.246094 C 205.101562 52.101562 205.328125 51.976562 205.570312 51.878906 C 205.8125 51.777344 206.0625 51.703125 206.316406 51.652344 C 206.574219 51.601562 206.832031 51.574219 207.09375 51.574219 C 207.355469 51.574219 207.613281 51.601562 207.871094 51.652344 C 208.125 51.703125 208.375 51.777344 208.617188 51.878906 C 208.859375 51.976562 209.085938 52.101562 209.304688 52.246094 C 209.519531 52.390625 209.722656 52.554688 209.90625 52.742188 C 210.09375 52.925781 210.257812 53.125 210.402344 53.34375 C 210.546875 53.5625 210.667969 53.789062 210.769531 54.03125 C 210.871094 54.273438 210.945312 54.523438 210.996094 54.777344 C 211.046875 55.035156 211.074219 55.292969 211.074219 55.554688 Z M 211.074219 55.554688 " fill-opacity="1" fill-rule="nonzero"/><path fill="#35668f" d="M 225.195312 62.914062 C 225.195312 63.175781 225.171875 63.433594 225.121094 63.691406 C 225.070312 63.945312 224.992188 64.195312 224.894531 64.4375 C 224.792969 64.679688 224.671875 64.90625 224.523438 65.125 C 224.378906 65.339844 224.214844 65.542969 224.03125 65.726562 C 223.847656 65.910156 223.644531 66.078125 223.425781 66.222656 C 223.210938 66.367188 222.980469 66.488281 222.738281 66.589844 C 222.5 66.691406 222.25 66.765625 221.992188 66.816406 C 221.738281 66.867188 221.480469 66.894531 221.21875 66.894531 C 220.957031 66.894531 220.699219 66.867188 220.441406 66.816406 C 220.183594 66.765625 219.9375 66.691406 219.695312 66.589844 C 219.453125 66.488281 219.222656 66.367188 219.007812 66.222656 C 218.789062 66.078125 218.589844 65.910156 218.402344 65.726562 C 218.21875 65.542969 218.054688 65.339844 217.910156 65.125 C 217.765625 64.90625 217.640625 64.679688 217.542969 64.4375 C 217.441406 64.195312 217.367188 63.945312 217.316406 63.691406 C 217.265625 63.433594 217.238281 63.175781 217.238281 62.914062 C 217.238281 62.652344 217.265625 62.394531 217.316406 62.136719 C 217.367188 61.882812 217.441406 61.632812 217.542969 61.390625 C 217.640625 61.148438 217.765625 60.921875 217.910156 60.703125 C 218.054688 60.488281 218.21875 60.285156 218.402344 60.101562 C 218.589844 59.917969 218.789062 59.75 219.007812 59.605469 C 219.222656 59.460938 219.453125 59.339844 219.695312 59.238281 C 219.9375 59.136719 220.183594 59.0625 220.441406 59.011719 C 220.699219 58.960938 220.957031 58.9375 221.21875 58.9375 C 221.480469 58.9375 221.738281 58.960938 221.992188 59.011719 C 222.25 59.0625 222.5 59.136719 222.738281 59.238281 C 222.980469 59.339844 223.210938 59.460938 223.425781 59.605469 C 223.644531 59.75 223.847656 59.917969 224.03125 60.101562 C 224.214844 60.285156 224.378906 60.488281 224.523438 60.703125 C 224.671875 60.921875 224.792969 61.148438 224.894531 61.390625 C 224.992188 61.632812 225.070312 61.882812 225.121094 62.136719 C 225.171875 62.394531 225.195312 62.652344 225.195312 62.914062 Z M 225.195312 62.914062 " fill-opacity="1" fill-rule="nonzero"/><path fill="#35668f" d="M 236.933594 73.257812 C 236.933594 73.519531 236.90625 73.777344 236.855469 74.035156 C 236.804688 74.289062 236.730469 74.539062 236.628906 74.78125 C 236.53125 75.023438 236.40625 75.25 236.261719 75.46875 C 236.117188 75.6875 235.953125 75.886719 235.765625 76.070312 C 235.582031 76.257812 235.382812 76.421875 235.164062 76.566406 C 234.945312 76.710938 234.71875 76.832031 234.476562 76.933594 C 234.234375 77.035156 233.984375 77.109375 233.730469 77.160156 C 233.472656 77.210938 233.214844 77.238281 232.953125 77.238281 C 232.691406 77.238281 232.433594 77.210938 232.175781 77.160156 C 231.921875 77.109375 231.671875 77.035156 231.429688 76.933594 C 231.191406 76.832031 230.960938 76.710938 230.742188 76.566406 C 230.527344 76.421875 230.324219 76.257812 230.140625 76.070312 C 229.957031 75.886719 229.789062 75.6875 229.644531 75.46875 C 229.5 75.25 229.378906 75.023438 229.277344 74.78125 C 229.179688 74.539062 229.101562 74.289062 229.050781 74.035156 C 229 73.777344 228.976562 73.519531 228.976562 73.257812 C 228.976562 72.996094 229 72.738281 229.050781 72.480469 C 229.101562 72.226562 229.179688 71.976562 229.277344 71.734375 C 229.378906 71.496094 229.5 71.265625 229.644531 71.046875 C 229.789062 70.832031 229.957031 70.628906 230.140625 70.445312 C 230.324219 70.261719 230.527344 70.09375 230.742188 69.949219 C 230.960938 69.804688 231.191406 69.683594 231.429688 69.582031 C 231.671875 69.484375 231.921875 69.40625 232.175781 69.355469 C 232.433594 69.304688 232.691406 69.28125 232.953125 69.28125 C 233.214844 69.28125 233.472656 69.304688 233.730469 69.355469 C 233.984375 69.40625 234.234375 69.484375 234.476562 69.582031 C 234.71875 69.683594 234.945312 69.804688 235.164062 69.949219 C 235.382812 70.09375 235.582031 70.261719 235.765625 70.445312 C 235.953125 70.628906 236.117188 70.832031 236.261719 71.046875 C 236.40625 71.265625 236.53125 71.496094 236.628906 71.734375 C 236.730469 71.976562 236.804688 72.226562 236.855469 72.480469 C 236.90625 72.738281 236.933594 72.996094 236.933594 73.257812 Z M 236.933594 73.257812 " fill-opacity="1" fill-rule="nonzero"/><path fill="#35668f" d="M 246.082031 86.1875 C 246.082031 86.449219 246.058594 86.707031 246.007812 86.964844 C 245.957031 87.21875 245.878906 87.46875 245.78125 87.710938 C 245.679688 87.953125 245.558594 88.179688 245.414062 88.398438 C 245.265625 88.617188 245.101562 88.816406 244.917969 89 C 244.734375 89.1875 244.53125 89.351562 244.316406 89.496094 C 244.097656 89.640625 243.867188 89.765625 243.625 89.863281 C 243.386719 89.964844 243.136719 90.039062 242.878906 90.089844 C 242.625 90.140625 242.367188 90.167969 242.105469 90.167969 C 241.84375 90.167969 241.585938 90.140625 241.328125 90.089844 C 241.070312 90.039062 240.824219 89.964844 240.582031 89.863281 C 240.339844 89.765625 240.109375 89.640625 239.894531 89.496094 C 239.675781 89.351562 239.476562 89.1875 239.289062 89 C 239.105469 88.816406 238.941406 88.617188 238.796875 88.398438 C 238.652344 88.179688 238.527344 87.953125 238.429688 87.710938 C 238.328125 87.46875 238.253906 87.21875 238.203125 86.964844 C 238.152344 86.707031 238.125 86.449219 238.125 86.1875 C 238.125 85.925781 238.152344 85.667969 238.203125 85.410156 C 238.253906 85.15625 238.328125 84.90625 238.429688 84.664062 C 238.527344 84.425781 238.652344 84.195312 238.796875 83.976562 C 238.941406 83.761719 239.105469 83.558594 239.289062 83.375 C 239.476562 83.191406 239.675781 83.023438 239.894531 82.878906 C 240.109375 82.734375 240.339844 82.613281 240.582031 82.511719 C 240.824219 82.414062 241.070312 82.335938 241.328125 82.285156 C 241.585938 82.234375 241.84375 82.210938 242.105469 82.210938 C 242.367188 82.210938 242.625 82.234375 242.878906 82.285156 C 243.136719 82.335938 243.386719 82.414062 243.625 82.511719 C 243.867188 82.613281 244.097656 82.734375 244.316406 82.878906 C 244.53125 83.023438 244.734375 83.191406 244.917969 83.375 C 245.101562 83.558594 245.265625 83.761719 245.414062 83.976562 C 245.558594 84.195312 245.679688 84.425781 245.78125 84.664062 C 245.878906 84.90625 245.957031 85.15625 246.007812 85.410156 C 246.058594 85.667969 246.082031 85.925781 246.082031 86.1875 Z M 246.082031 86.1875 " fill-opacity="1" fill-rule="nonzero"/><path fill="#35668f" d="M 251.652344 101.105469 C 251.652344 101.367188 251.628906 101.628906 251.574219 101.882812 C 251.523438 102.140625 251.449219 102.386719 251.351562 102.628906 C 251.25 102.871094 251.128906 103.101562 250.980469 103.316406 C 250.835938 103.535156 250.671875 103.734375 250.488281 103.921875 C 250.300781 104.105469 250.101562 104.269531 249.882812 104.414062 C 249.667969 104.558594 249.4375 104.683594 249.195312 104.78125 C 248.957031 104.882812 248.707031 104.957031 248.449219 105.007812 C 248.195312 105.058594 247.933594 105.085938 247.675781 105.085938 C 247.414062 105.085938 247.152344 105.058594 246.898438 105.007812 C 246.640625 104.957031 246.394531 104.882812 246.152344 104.78125 C 245.910156 104.683594 245.679688 104.558594 245.464844 104.414062 C 245.246094 104.269531 245.046875 104.105469 244.859375 103.921875 C 244.675781 103.734375 244.511719 103.535156 244.367188 103.316406 C 244.222656 103.101562 244.097656 102.871094 244 102.628906 C 243.898438 102.386719 243.824219 102.140625 243.773438 101.882812 C 243.722656 101.628906 243.695312 101.367188 243.695312 101.105469 C 243.695312 100.847656 243.722656 100.585938 243.773438 100.332031 C 243.824219 100.074219 243.898438 99.824219 244 99.585938 C 244.097656 99.34375 244.222656 99.113281 244.367188 98.898438 C 244.511719 98.679688 244.675781 98.480469 244.859375 98.292969 C 245.046875 98.109375 245.246094 97.945312 245.464844 97.800781 C 245.679688 97.652344 245.910156 97.53125 246.152344 97.429688 C 246.394531 97.332031 246.640625 97.257812 246.898438 97.207031 C 247.152344 97.152344 247.414062 97.128906 247.675781 97.128906 C 247.933594 97.128906 248.195312 97.152344 248.449219 97.207031 C 248.707031 97.257812 248.957031 97.332031 249.195312 97.429688 C 249.4375 97.53125 249.667969 97.652344 249.882812 97.800781 C 250.101562 97.945312 250.300781 98.109375 250.488281 98.292969 C 250.671875 98.480469 250.835938 98.679688 250.980469 98.898438 C 251.128906 99.113281 251.25 99.34375 251.351562 99.585938 C 251.449219 99.824219 251.523438 100.074219 251.574219 100.332031 C 251.628906 100.585938 251.652344 100.847656 251.652344 101.105469 Z M 251.652344 101.105469 " fill-opacity="1" fill-rule="nonzero"/><path fill="#35668f" d="M 253.640625 116.820312 C 253.640625 117.082031 253.617188 117.34375 253.566406 117.597656 C 253.515625 117.855469 253.4375 118.101562 253.339844 118.34375 C 253.238281 118.585938 253.117188 118.816406 252.972656 119.03125 C 252.824219 119.25 252.660156 119.449219 252.476562 119.636719 C 252.292969 119.820312 252.089844 119.984375 251.875 120.128906 C 251.65625 120.273438 251.425781 120.398438 251.1875 120.496094 C 250.945312 120.597656 250.695312 120.671875 250.4375 120.722656 C 250.183594 120.773438 249.925781 120.800781 249.664062 120.800781 C 249.402344 120.800781 249.144531 120.773438 248.886719 120.722656 C 248.632812 120.671875 248.382812 120.597656 248.140625 120.496094 C 247.898438 120.398438 247.671875 120.273438 247.453125 120.128906 C 247.234375 119.984375 247.035156 119.820312 246.851562 119.636719 C 246.664062 119.449219 246.5 119.25 246.355469 119.03125 C 246.210938 118.816406 246.085938 118.585938 245.988281 118.34375 C 245.886719 118.101562 245.8125 117.855469 245.761719 117.597656 C 245.710938 117.34375 245.683594 117.082031 245.683594 116.820312 C 245.683594 116.5625 245.710938 116.300781 245.761719 116.046875 C 245.8125 115.789062 245.886719 115.539062 245.988281 115.300781 C 246.085938 115.058594 246.210938 114.828125 246.355469 114.613281 C 246.5 114.394531 246.664062 114.195312 246.851562 114.007812 C 247.035156 113.824219 247.234375 113.660156 247.453125 113.515625 C 247.671875 113.367188 247.898438 113.246094 248.140625 113.144531 C 248.382812 113.046875 248.632812 112.972656 248.886719 112.921875 C 249.144531 112.867188 249.402344 112.84375 249.664062 112.84375 C 249.925781 112.84375 250.183594 112.867188 250.4375 112.921875 C 250.695312 112.972656 250.945312 113.046875 251.1875 113.144531 C 251.425781 113.246094 251.65625 113.367188 251.875 113.515625 C 252.089844 113.660156 252.292969 113.824219 252.476562 114.007812 C 252.660156 114.195312 252.824219 114.394531 252.972656 114.613281 C 253.117188 114.828125 253.238281 115.058594 253.339844 115.300781 C 253.4375 115.539062 253.515625 115.789062 253.566406 116.046875 C 253.617188 116.300781 253.640625 116.5625 253.640625 116.820312 Z M 253.640625 116.820312 " fill-opacity="1" fill-rule="nonzero"/><path fill="#35668f" d="M 251.652344 132.734375 C 251.652344 132.996094 251.628906 133.253906 251.574219 133.511719 C 251.523438 133.769531 251.449219 134.015625 251.351562 134.257812 C 251.25 134.5 251.128906 134.730469 250.980469 134.945312 C 250.835938 135.164062 250.671875 135.363281 250.488281 135.550781 C 250.300781 135.734375 250.101562 135.898438 249.882812 136.042969 C 249.667969 136.1875 249.4375 136.3125 249.195312 136.410156 C 248.957031 136.511719 248.707031 136.585938 248.449219 136.636719 C 248.195312 136.6875 247.933594 136.714844 247.675781 136.714844 C 247.414062 136.714844 247.152344 136.6875 246.898438 136.636719 C 246.640625 136.585938 246.394531 136.511719 246.152344 136.410156 C 245.910156 136.3125 245.679688 136.1875 245.464844 136.042969 C 245.246094 135.898438 245.046875 135.734375 244.859375 135.550781 C 244.675781 135.363281 244.511719 135.164062 244.367188 134.945312 C 244.222656 134.730469 244.097656 134.5 244 134.257812 C 243.898438 134.015625 243.824219 133.769531 243.773438 133.511719 C 243.722656 133.253906 243.695312 132.996094 243.695312 132.734375 C 243.695312 132.476562 243.722656 132.214844 243.773438 131.960938 C 243.824219 131.703125 243.898438 131.453125 244 131.214844 C 244.097656 130.972656 244.222656 130.742188 244.367188 130.527344 C 244.511719 130.308594 244.675781 130.105469 244.859375 129.921875 C 245.046875 129.738281 245.246094 129.574219 245.464844 129.429688 C 245.679688 129.28125 245.910156 129.160156 246.152344 129.058594 C 246.394531 128.960938 246.640625 128.886719 246.898438 128.832031 C 247.152344 128.78125 247.414062 128.757812 247.675781 128.757812 C 247.933594 128.757812 248.195312 128.78125 248.449219 128.832031 C 248.707031 128.886719 248.957031 128.960938 249.195312 129.058594 C 249.4375 129.160156 249.667969 129.28125 249.882812 129.429688 C 250.101562 129.574219 250.300781 129.738281 250.488281 129.921875 C 250.671875 130.105469 250.835938 130.308594 250.980469 130.527344 C 251.128906 130.742188 251.25 130.972656 251.351562 131.214844 C 251.449219 131.453125 251.523438 131.703125 251.574219 131.960938 C 251.628906 132.214844 251.652344 132.476562 251.652344 132.734375 Z M 251.652344 132.734375 " fill-opacity="1" fill-rule="nonzero"/><path fill="#35668f" d="M 246.082031 147.457031 C 246.082031 147.71875 246.058594 147.976562 246.007812 148.230469 C 245.957031 148.488281 245.878906 148.738281 245.78125 148.980469 C 245.679688 149.21875 245.558594 149.449219 245.414062 149.667969 C 245.265625 149.882812 245.101562 150.085938 244.917969 150.269531 C 244.734375 150.453125 244.53125 150.617188 244.316406 150.765625 C 244.097656 150.910156 243.867188 151.03125 243.625 151.132812 C 243.386719 151.230469 243.136719 151.308594 242.878906 151.359375 C 242.625 151.410156 242.367188 151.433594 242.105469 151.433594 C 241.84375 151.433594 241.585938 151.410156 241.328125 151.359375 C 241.070312 151.308594 240.824219 151.230469 240.582031 151.132812 C 240.339844 151.03125 240.109375 150.910156 239.894531 150.765625 C 239.675781 150.617188 239.476562 150.453125 239.289062 150.269531 C 239.105469 150.085938 238.941406 149.882812 238.796875 149.667969 C 238.652344 149.449219 238.527344 149.21875 238.429688 148.980469 C 238.328125 148.738281 238.253906 148.488281 238.203125 148.230469 C 238.152344 147.976562 238.125 147.71875 238.125 147.457031 C 238.125 147.195312 238.152344 146.9375 238.203125 146.679688 C 238.253906 146.421875 238.328125 146.175781 238.429688 145.933594 C 238.527344 145.691406 238.652344 145.464844 238.796875 145.246094 C 238.941406 145.027344 239.105469 144.828125 239.289062 144.644531 C 239.476562 144.457031 239.675781 144.292969 239.894531 144.148438 C 240.109375 144.003906 240.339844 143.878906 240.582031 143.78125 C 240.824219 143.679688 241.070312 143.605469 241.328125 143.554688 C 241.585938 143.503906 241.84375 143.476562 242.105469 143.476562 C 242.367188 143.476562 242.625 143.503906 242.878906 143.554688 C 243.136719 143.605469 243.386719 143.679688 243.625 143.78125 C 243.867188 143.878906 244.097656 144.003906 244.316406 144.148438 C 244.53125 144.292969 244.734375 144.457031 244.917969 144.644531 C 245.101562 144.828125 245.265625 145.027344 245.414062 145.246094 C 245.558594 145.464844 245.679688 145.691406 245.78125 145.933594 C 245.878906 146.175781 245.957031 146.421875 246.007812 146.679688 C 246.058594 146.9375 246.082031 147.195312 246.082031 147.457031 Z M 246.082031 147.457031 " fill-opacity="1" fill-rule="nonzero"/><path fill="#35668f" d="M 237.132812 160.585938 C 237.132812 160.847656 237.105469 161.105469 237.054688 161.359375 C 237.003906 161.617188 236.929688 161.867188 236.828125 162.109375 C 236.726562 162.347656 236.605469 162.578125 236.460938 162.796875 C 236.316406 163.011719 236.152344 163.214844 235.964844 163.398438 C 235.78125 163.582031 235.582031 163.746094 235.363281 163.894531 C 235.144531 164.039062 234.917969 164.160156 234.675781 164.261719 C 234.433594 164.359375 234.183594 164.4375 233.929688 164.488281 C 233.671875 164.539062 233.414062 164.5625 233.152344 164.5625 C 232.890625 164.5625 232.632812 164.539062 232.375 164.488281 C 232.121094 164.4375 231.871094 164.359375 231.628906 164.261719 C 231.390625 164.160156 231.160156 164.039062 230.941406 163.894531 C 230.726562 163.746094 230.523438 163.582031 230.339844 163.398438 C 230.15625 163.214844 229.988281 163.011719 229.84375 162.796875 C 229.699219 162.578125 229.578125 162.347656 229.476562 162.109375 C 229.378906 161.867188 229.300781 161.617188 229.25 161.359375 C 229.199219 161.105469 229.175781 160.847656 229.175781 160.585938 C 229.175781 160.324219 229.199219 160.066406 229.25 159.808594 C 229.300781 159.550781 229.378906 159.304688 229.476562 159.0625 C 229.578125 158.820312 229.699219 158.59375 229.84375 158.375 C 229.988281 158.15625 230.15625 157.957031 230.339844 157.773438 C 230.523438 157.585938 230.726562 157.421875 230.941406 157.277344 C 231.160156 157.132812 231.390625 157.007812 231.628906 156.910156 C 231.871094 156.808594 232.121094 156.734375 232.375 156.683594 C 232.632812 156.632812 232.890625 156.605469 233.152344 156.605469 C 233.414062 156.605469 233.671875 156.632812 233.929688 156.683594 C 234.183594 156.734375 234.433594 156.808594 234.675781 156.910156 C 234.917969 157.007812 235.144531 157.132812 235.363281 157.277344 C 235.582031 157.421875 235.78125 157.585938 235.964844 157.773438 C 236.152344 157.957031 236.316406 158.15625 236.460938 158.375 C 236.605469 158.59375 236.726562 158.820312 236.828125 159.0625 C 236.929688 159.304688 237.003906 159.550781 237.054688 159.808594 C 237.105469 160.066406 237.132812 160.324219 237.132812 160.585938 Z M 237.132812 160.585938 " fill-opacity="1" fill-rule="nonzero"/><path fill="#35668f" d="M 225.394531 170.929688 C 225.394531 171.191406 225.371094 171.449219 225.316406 171.703125 C 225.265625 171.960938 225.191406 172.210938 225.09375 172.453125 C 224.992188 172.691406 224.871094 172.921875 224.722656 173.140625 C 224.578125 173.355469 224.414062 173.558594 224.230469 173.742188 C 224.042969 173.925781 223.84375 174.089844 223.625 174.238281 C 223.410156 174.382812 223.179688 174.503906 222.9375 174.605469 C 222.699219 174.703125 222.449219 174.78125 222.191406 174.832031 C 221.9375 174.882812 221.675781 174.90625 221.417969 174.90625 C 221.15625 174.90625 220.894531 174.882812 220.640625 174.832031 C 220.382812 174.78125 220.136719 174.703125 219.894531 174.605469 C 219.652344 174.503906 219.421875 174.382812 219.207031 174.238281 C 218.988281 174.089844 218.789062 173.925781 218.601562 173.742188 C 218.417969 173.558594 218.253906 173.355469 218.109375 173.140625 C 217.964844 172.921875 217.839844 172.691406 217.742188 172.453125 C 217.640625 172.210938 217.566406 171.960938 217.515625 171.703125 C 217.464844 171.449219 217.4375 171.191406 217.4375 170.929688 C 217.4375 170.667969 217.464844 170.410156 217.515625 170.152344 C 217.566406 169.898438 217.640625 169.648438 217.742188 169.40625 C 217.839844 169.164062 217.964844 168.9375 218.109375 168.71875 C 218.253906 168.5 218.417969 168.300781 218.601562 168.117188 C 218.789062 167.929688 218.988281 167.765625 219.207031 167.621094 C 219.421875 167.476562 219.652344 167.351562 219.894531 167.253906 C 220.136719 167.152344 220.382812 167.078125 220.640625 167.027344 C 220.894531 166.976562 221.15625 166.949219 221.417969 166.949219 C 221.675781 166.949219 221.9375 166.976562 222.191406 167.027344 C 222.449219 167.078125 222.699219 167.152344 222.9375 167.253906 C 223.179688 167.351562 223.410156 167.476562 223.625 167.621094 C 223.84375 167.765625 224.042969 167.929688 224.230469 168.117188 C 224.414062 168.300781 224.578125 168.5 224.722656 168.71875 C 224.871094 168.9375 224.992188 169.164062 225.09375 169.40625 C 225.191406 169.648438 225.265625 169.898438 225.316406 170.152344 C 225.371094 170.410156 225.394531 170.667969 225.394531 170.929688 Z M 225.394531 170.929688 " fill-opacity="1" fill-rule="nonzero"/><path fill="#35668f" d="M 211.269531 178.289062 C 211.269531 178.550781 211.246094 178.808594 211.195312 179.066406 C 211.144531 179.320312 211.070312 179.570312 210.96875 179.8125 C 210.867188 180.054688 210.746094 180.28125 210.601562 180.5 C 210.457031 180.714844 210.289062 180.917969 210.105469 181.101562 C 209.921875 181.285156 209.71875 181.453125 209.503906 181.597656 C 209.285156 181.742188 209.054688 181.863281 208.816406 181.964844 C 208.574219 182.066406 208.324219 182.140625 208.070312 182.191406 C 207.8125 182.242188 207.554688 182.265625 207.292969 182.265625 C 207.03125 182.265625 206.773438 182.242188 206.515625 182.191406 C 206.261719 182.140625 206.011719 182.066406 205.769531 181.964844 C 205.527344 181.863281 205.300781 181.742188 205.082031 181.597656 C 204.867188 181.453125 204.664062 181.285156 204.480469 181.101562 C 204.296875 180.917969 204.128906 180.714844 203.984375 180.5 C 203.839844 180.28125 203.71875 180.054688 203.617188 179.8125 C 203.515625 179.570312 203.441406 179.320312 203.390625 179.066406 C 203.339844 178.808594 203.3125 178.550781 203.3125 178.289062 C 203.3125 178.027344 203.339844 177.769531 203.390625 177.511719 C 203.441406 177.257812 203.515625 177.007812 203.617188 176.765625 C 203.71875 176.523438 203.839844 176.296875 203.984375 176.078125 C 204.128906 175.863281 204.296875 175.660156 204.480469 175.476562 C 204.664062 175.292969 204.867188 175.125 205.082031 174.980469 C 205.300781 174.835938 205.527344 174.714844 205.769531 174.613281 C 206.011719 174.511719 206.261719 174.4375 206.515625 174.386719 C 206.773438 174.335938 207.03125 174.3125 207.292969 174.3125 C 207.554688 174.3125 207.8125 174.335938 208.070312 174.386719 C 208.324219 174.4375 208.574219 174.511719 208.816406 174.613281 C 209.054688 174.714844 209.285156 174.835938 209.503906 174.980469 C 209.71875 175.125 209.921875 175.292969 210.105469 175.476562 C 210.289062 175.660156 210.457031 175.863281 210.601562 176.078125 C 210.746094 176.296875 210.867188 176.523438 210.96875 176.765625 C 211.070312 177.007812 211.144531 177.257812 211.195312 177.511719 C 211.246094 177.769531 211.269531 178.027344 211.269531 178.289062 Z M 211.269531 178.289062 " fill-opacity="1" fill-rule="nonzero"/><path fill="#35668f" d="M 195.953125 182.070312 C 195.953125 182.328125 195.929688 182.589844 195.878906 182.84375 C 195.828125 183.101562 195.75 183.351562 195.652344 183.589844 C 195.550781 183.832031 195.429688 184.0625 195.285156 184.277344 C 195.136719 184.496094 194.972656 184.695312 194.789062 184.882812 C 194.605469 185.066406 194.402344 185.230469 194.1875 185.375 C 193.96875 185.523438 193.738281 185.644531 193.5 185.742188 C 193.257812 185.84375 193.007812 185.917969 192.753906 185.96875 C 192.496094 186.023438 192.238281 186.046875 191.976562 186.046875 C 191.714844 186.046875 191.457031 186.023438 191.199219 185.96875 C 190.945312 185.917969 190.695312 185.84375 190.453125 185.742188 C 190.210938 185.644531 189.984375 185.523438 189.765625 185.375 C 189.546875 185.230469 189.347656 185.066406 189.164062 184.882812 C 188.976562 184.695312 188.8125 184.496094 188.667969 184.277344 C 188.523438 184.0625 188.398438 183.832031 188.300781 183.589844 C 188.199219 183.351562 188.125 183.101562 188.074219 182.84375 C 188.023438 182.589844 187.996094 182.328125 187.996094 182.070312 C 187.996094 181.808594 188.023438 181.546875 188.074219 181.292969 C 188.125 181.035156 188.199219 180.789062 188.300781 180.546875 C 188.398438 180.304688 188.523438 180.074219 188.667969 179.859375 C 188.8125 179.640625 188.976562 179.441406 189.164062 179.253906 C 189.347656 179.070312 189.546875 178.90625 189.765625 178.761719 C 189.984375 178.617188 190.210938 178.492188 190.453125 178.394531 C 190.695312 178.292969 190.945312 178.21875 191.199219 178.167969 C 191.457031 178.117188 191.714844 178.089844 191.976562 178.089844 C 192.238281 178.089844 192.496094 178.117188 192.753906 178.167969 C 193.007812 178.21875 193.257812 178.292969 193.5 178.394531 C 193.738281 178.492188 193.96875 178.617188 194.1875 178.761719 C 194.402344 178.90625 194.605469 179.070312 194.789062 179.253906 C 194.972656 179.441406 195.136719 179.640625 195.285156 179.859375 C 195.429688 180.074219 195.550781 180.304688 195.652344 180.546875 C 195.75 180.789062 195.828125 181.035156 195.878906 181.292969 C 195.929688 181.546875 195.953125 181.808594 195.953125 182.070312 Z M 195.953125 182.070312 " fill-opacity="1" fill-rule="nonzero"/><path fill="#35668f" d="M 180.238281 182.070312 C 180.238281 182.328125 180.214844 182.589844 180.164062 182.84375 C 180.113281 183.101562 180.035156 183.351562 179.9375 183.589844 C 179.835938 183.832031 179.714844 184.0625 179.570312 184.277344 C 179.421875 184.496094 179.257812 184.695312 179.074219 184.882812 C 178.890625 185.066406 178.6875 185.230469 178.472656 185.375 C 178.253906 185.523438 178.023438 185.644531 177.785156 185.742188 C 177.542969 185.84375 177.292969 185.917969 177.039062 185.96875 C 176.78125 186.023438 176.523438 186.046875 176.261719 186.046875 C 176 186.046875 175.742188 186.023438 175.484375 185.96875 C 175.230469 185.917969 174.980469 185.84375 174.738281 185.742188 C 174.496094 185.644531 174.269531 185.523438 174.050781 185.375 C 173.832031 185.230469 173.632812 185.066406 173.449219 184.882812 C 173.261719 184.695312 173.097656 184.496094 172.953125 184.277344 C 172.808594 184.0625 172.683594 183.832031 172.585938 183.589844 C 172.484375 183.351562 172.410156 183.101562 172.359375 182.84375 C 172.308594 182.589844 172.28125 182.328125 172.28125 182.070312 C 172.28125 181.808594 172.308594 181.546875 172.359375 181.292969 C 172.410156 181.035156 172.484375 180.789062 172.585938 180.546875 C 172.683594 180.304688 172.808594 180.074219 172.953125 179.859375 C 173.097656 179.640625 173.261719 179.441406 173.449219 179.253906 C 173.632812 179.070312 173.832031 178.90625 174.050781 178.761719 C 174.269531 178.617188 174.496094 178.492188 174.738281 178.394531 C 174.980469 178.292969 175.230469 178.21875 175.484375 178.167969 C 175.742188 178.117188 176 178.089844 176.261719 178.089844 C 176.523438 178.089844 176.78125 178.117188 177.039062 178.167969 C 177.292969 178.21875 177.542969 178.292969 177.785156 178.394531 C 178.023438 178.492188 178.253906 178.617188 178.472656 178.761719 C 178.6875 178.90625 178.890625 179.070312 179.074219 179.253906 C 179.257812 179.441406 179.421875 179.640625 179.570312 179.859375 C 179.714844 180.074219 179.835938 180.304688 179.9375 180.546875 C 180.035156 180.789062 180.113281 181.035156 180.164062 181.292969 C 180.214844 181.546875 180.238281 181.808594 180.238281 182.070312 Z M 180.238281 182.070312 " fill-opacity="1" fill-rule="nonzero"/><path fill="#35668f" d="M 164.722656 178.289062 C 164.722656 178.550781 164.699219 178.808594 164.648438 179.066406 C 164.597656 179.320312 164.519531 179.570312 164.421875 179.8125 C 164.320312 180.054688 164.199219 180.28125 164.054688 180.5 C 163.90625 180.714844 163.742188 180.917969 163.558594 181.101562 C 163.375 181.285156 163.171875 181.453125 162.957031 181.597656 C 162.738281 181.742188 162.507812 181.863281 162.265625 181.964844 C 162.027344 182.066406 161.777344 182.140625 161.519531 182.191406 C 161.265625 182.242188 161.007812 182.265625 160.746094 182.265625 C 160.484375 182.265625 160.226562 182.242188 159.96875 182.191406 C 159.710938 182.140625 159.464844 182.066406 159.222656 181.964844 C 158.980469 181.863281 158.75 181.742188 158.535156 181.597656 C 158.316406 181.453125 158.117188 181.285156 157.933594 181.101562 C 157.746094 180.917969 157.582031 180.714844 157.4375 180.5 C 157.292969 180.28125 157.167969 180.054688 157.070312 179.8125 C 156.96875 179.570312 156.894531 179.320312 156.84375 179.066406 C 156.792969 178.808594 156.765625 178.550781 156.765625 178.289062 C 156.765625 178.027344 156.792969 177.769531 156.84375 177.511719 C 156.894531 177.257812 156.96875 177.007812 157.070312 176.765625 C 157.167969 176.523438 157.292969 176.296875 157.4375 176.078125 C 157.582031 175.863281 157.746094 175.660156 157.933594 175.476562 C 158.117188 175.292969 158.316406 175.125 158.535156 174.980469 C 158.75 174.835938 158.980469 174.714844 159.222656 174.613281 C 159.464844 174.511719 159.710938 174.4375 159.96875 174.386719 C 160.226562 174.335938 160.484375 174.3125 160.746094 174.3125 C 161.007812 174.3125 161.265625 174.335938 161.519531 174.386719 C 161.777344 174.4375 162.027344 174.511719 162.265625 174.613281 C 162.507812 174.714844 162.738281 174.835938 162.957031 174.980469 C 163.171875 175.125 163.375 175.292969 163.558594 175.476562 C 163.742188 175.660156 163.90625 175.863281 164.054688 176.078125 C 164.199219 176.296875 164.320312 176.523438 164.421875 176.765625 C 164.519531 177.007812 164.597656 177.257812 164.648438 177.511719 C 164.699219 177.769531 164.722656 178.027344 164.722656 178.289062 Z M 164.722656 178.289062 " fill-opacity="1" fill-rule="nonzero"/><path fill="#35668f" d="M 150.800781 171.128906 C 150.800781 171.390625 150.773438 171.648438 150.722656 171.902344 C 150.671875 172.160156 150.597656 172.410156 150.496094 172.648438 C 150.394531 172.890625 150.273438 173.121094 150.128906 173.339844 C 149.984375 173.554688 149.820312 173.757812 149.632812 173.941406 C 149.449219 174.125 149.246094 174.289062 149.03125 174.4375 C 148.8125 174.582031 148.585938 174.703125 148.34375 174.804688 C 148.101562 174.902344 147.851562 174.980469 147.597656 175.03125 C 147.339844 175.082031 147.082031 175.105469 146.820312 175.105469 C 146.558594 175.105469 146.300781 175.082031 146.042969 175.03125 C 145.789062 174.980469 145.539062 174.902344 145.296875 174.804688 C 145.058594 174.703125 144.828125 174.582031 144.609375 174.4375 C 144.394531 174.289062 144.191406 174.125 144.007812 173.941406 C 143.824219 173.757812 143.65625 173.554688 143.511719 173.339844 C 143.367188 173.121094 143.246094 172.890625 143.144531 172.648438 C 143.042969 172.410156 142.96875 172.160156 142.917969 171.902344 C 142.867188 171.648438 142.84375 171.390625 142.84375 171.128906 C 142.84375 170.867188 142.867188 170.609375 142.917969 170.351562 C 142.96875 170.09375 143.042969 169.847656 143.144531 169.605469 C 143.246094 169.363281 143.367188 169.132812 143.511719 168.917969 C 143.65625 168.699219 143.824219 168.5 144.007812 168.316406 C 144.191406 168.128906 144.394531 167.964844 144.609375 167.820312 C 144.828125 167.675781 145.058594 167.550781 145.296875 167.453125 C 145.539062 167.351562 145.789062 167.277344 146.042969 167.226562 C 146.300781 167.175781 146.558594 167.148438 146.820312 167.148438 C 147.082031 167.148438 147.339844 167.175781 147.597656 167.226562 C 147.851562 167.277344 148.101562 167.351562 148.34375 167.453125 C 148.585938 167.550781 148.8125 167.675781 149.03125 167.820312 C 149.246094 167.964844 149.449219 168.128906 149.632812 168.316406 C 149.820312 168.5 149.984375 168.699219 150.128906 168.917969 C 150.273438 169.132812 150.394531 169.363281 150.496094 169.605469 C 150.597656 169.847656 150.671875 170.09375 150.722656 170.351562 C 150.773438 170.609375 150.800781 170.867188 150.800781 171.128906 Z M 150.800781 171.128906 " fill-opacity="1" fill-rule="nonzero"/><path fill="#35668f" d="M 138.863281 160.585938 C 138.863281 160.847656 138.839844 161.105469 138.789062 161.359375 C 138.734375 161.617188 138.660156 161.867188 138.5625 162.109375 C 138.460938 162.347656 138.339844 162.578125 138.191406 162.796875 C 138.046875 163.011719 137.882812 163.214844 137.699219 163.398438 C 137.511719 163.582031 137.3125 163.746094 137.09375 163.894531 C 136.878906 164.039062 136.648438 164.160156 136.40625 164.261719 C 136.167969 164.359375 135.917969 164.4375 135.660156 164.488281 C 135.40625 164.539062 135.144531 164.5625 134.886719 164.5625 C 134.625 164.5625 134.363281 164.539062 134.109375 164.488281 C 133.851562 164.4375 133.605469 164.359375 133.363281 164.261719 C 133.121094 164.160156 132.890625 164.039062 132.675781 163.894531 C 132.457031 163.746094 132.257812 163.582031 132.070312 163.398438 C 131.886719 163.214844 131.722656 163.011719 131.578125 162.796875 C 131.433594 162.578125 131.308594 162.347656 131.210938 162.109375 C 131.109375 161.867188 131.035156 161.617188 130.984375 161.359375 C 130.933594 161.105469 130.90625 160.847656 130.90625 160.585938 C 130.90625 160.324219 130.933594 160.066406 130.984375 159.808594 C 131.035156 159.550781 131.109375 159.304688 131.210938 159.0625 C 131.308594 158.820312 131.433594 158.59375 131.578125 158.375 C 131.722656 158.15625 131.886719 157.957031 132.070312 157.773438 C 132.257812 157.585938 132.457031 157.421875 132.675781 157.277344 C 132.890625 157.132812 133.121094 157.007812 133.363281 156.910156 C 133.605469 156.808594 133.851562 156.734375 134.109375 156.683594 C 134.363281 156.632812 134.625 156.605469 134.886719 156.605469 C 135.144531 156.605469 135.40625 156.632812 135.660156 156.683594 C 135.917969 156.734375 136.167969 156.808594 136.40625 156.910156 C 136.648438 157.007812 136.878906 157.132812 137.09375 157.277344 C 137.3125 157.421875 137.511719 157.585938 137.699219 157.773438 C 137.882812 157.957031 138.046875 158.15625 138.191406 158.375 C 138.339844 158.59375 138.460938 158.820312 138.5625 159.0625 C 138.660156 159.304688 138.734375 159.550781 138.789062 159.808594 C 138.839844 160.066406 138.863281 160.324219 138.863281 160.585938 Z M 138.863281 160.585938 " fill-opacity="1" fill-rule="nonzero"/><path fill="#35668f" d="M 129.914062 147.65625 C 129.914062 147.917969 129.886719 148.175781 129.835938 148.429688 C 129.785156 148.6875 129.710938 148.9375 129.609375 149.175781 C 129.507812 149.417969 129.386719 149.648438 129.242188 149.867188 C 129.097656 150.082031 128.929688 150.285156 128.746094 150.46875 C 128.5625 150.652344 128.359375 150.816406 128.144531 150.964844 C 127.925781 151.109375 127.699219 151.230469 127.457031 151.332031 C 127.214844 151.429688 126.964844 151.507812 126.710938 151.558594 C 126.453125 151.609375 126.195312 151.632812 125.933594 151.632812 C 125.671875 151.632812 125.414062 151.609375 125.15625 151.558594 C 124.902344 151.507812 124.652344 151.429688 124.410156 151.332031 C 124.167969 151.230469 123.941406 151.109375 123.722656 150.964844 C 123.507812 150.816406 123.304688 150.652344 123.121094 150.46875 C 122.9375 150.285156 122.769531 150.082031 122.625 149.867188 C 122.480469 149.648438 122.359375 149.417969 122.257812 149.175781 C 122.15625 148.9375 122.082031 148.6875 122.03125 148.429688 C 121.980469 148.175781 121.957031 147.917969 121.957031 147.65625 C 121.957031 147.394531 121.980469 147.136719 122.03125 146.878906 C 122.082031 146.621094 122.15625 146.375 122.257812 146.132812 C 122.359375 145.890625 122.480469 145.660156 122.625 145.445312 C 122.769531 145.226562 122.9375 145.027344 123.121094 144.84375 C 123.304688 144.65625 123.507812 144.492188 123.722656 144.347656 C 123.941406 144.203125 124.167969 144.078125 124.410156 143.980469 C 124.652344 143.878906 124.902344 143.804688 125.15625 143.753906 C 125.414062 143.703125 125.671875 143.675781 125.933594 143.675781 C 126.195312 143.675781 126.453125 143.703125 126.710938 143.753906 C 126.964844 143.804688 127.214844 143.878906 127.457031 143.980469 C 127.699219 144.078125 127.925781 144.203125 128.144531 144.347656 C 128.359375 144.492188 128.5625 144.65625 128.746094 144.84375 C 128.929688 145.027344 129.097656 145.226562 129.242188 145.445312 C 129.386719 145.660156 129.507812 145.890625 129.609375 146.132812 C 129.710938 146.375 129.785156 146.621094 129.835938 146.878906 C 129.886719 147.136719 129.914062 147.394531 129.914062 147.65625 Z M 129.914062 147.65625 " fill-opacity="1" fill-rule="nonzero"/><path fill="#35668f" d="M 124.34375 132.734375 C 124.34375 132.996094 124.316406 133.253906 124.265625 133.511719 C 124.214844 133.769531 124.140625 134.015625 124.039062 134.257812 C 123.941406 134.5 123.816406 134.730469 123.671875 134.945312 C 123.527344 135.164062 123.363281 135.363281 123.175781 135.550781 C 122.992188 135.734375 122.792969 135.898438 122.574219 136.042969 C 122.355469 136.1875 122.128906 136.3125 121.886719 136.410156 C 121.644531 136.511719 121.394531 136.585938 121.140625 136.636719 C 120.882812 136.6875 120.625 136.714844 120.363281 136.714844 C 120.101562 136.714844 119.84375 136.6875 119.585938 136.636719 C 119.332031 136.585938 119.082031 136.511719 118.839844 136.410156 C 118.601562 136.3125 118.371094 136.1875 118.152344 136.042969 C 117.9375 135.898438 117.734375 135.734375 117.550781 135.550781 C 117.367188 135.363281 117.199219 135.164062 117.054688 134.945312 C 116.910156 134.730469 116.789062 134.5 116.6875 134.257812 C 116.589844 134.015625 116.511719 133.769531 116.460938 133.511719 C 116.410156 133.253906 116.386719 132.996094 116.386719 132.734375 C 116.386719 132.476562 116.410156 132.214844 116.460938 131.960938 C 116.511719 131.703125 116.589844 131.453125 116.6875 131.214844 C 116.789062 130.972656 116.910156 130.742188 117.054688 130.527344 C 117.199219 130.308594 117.367188 130.105469 117.550781 129.921875 C 117.734375 129.738281 117.9375 129.574219 118.152344 129.429688 C 118.371094 129.28125 118.601562 129.160156 118.839844 129.058594 C 119.082031 128.960938 119.332031 128.886719 119.585938 128.832031 C 119.84375 128.78125 120.101562 128.757812 120.363281 128.757812 C 120.625 128.757812 120.882812 128.78125 121.140625 128.832031 C 121.394531 128.886719 121.644531 128.960938 121.886719 129.058594 C 122.128906 129.160156 122.355469 129.28125 122.574219 129.429688 C 122.792969 129.574219 122.992188 129.738281 123.175781 129.921875 C 123.363281 130.105469 123.527344 130.308594 123.671875 130.527344 C 123.816406 130.742188 123.941406 130.972656 124.039062 131.214844 C 124.140625 131.453125 124.214844 131.703125 124.265625 131.960938 C 124.316406 132.214844 124.34375 132.476562 124.34375 132.734375 Z M 124.34375 132.734375 " fill-opacity="1" fill-rule="nonzero"/><path fill="#35668f" d="M 122.351562 117.21875 C 122.351562 117.480469 122.328125 117.738281 122.277344 117.996094 C 122.226562 118.253906 122.148438 118.5 122.050781 118.742188 C 121.949219 118.984375 121.828125 119.214844 121.683594 119.429688 C 121.539062 119.648438 121.371094 119.847656 121.1875 120.03125 C 121.003906 120.21875 120.800781 120.382812 120.585938 120.527344 C 120.367188 120.671875 120.136719 120.796875 119.898438 120.894531 C 119.65625 120.996094 119.40625 121.070312 119.152344 121.121094 C 118.894531 121.171875 118.636719 121.199219 118.375 121.199219 C 118.113281 121.199219 117.855469 121.171875 117.597656 121.121094 C 117.34375 121.070312 117.09375 120.996094 116.851562 120.894531 C 116.609375 120.796875 116.382812 120.671875 116.164062 120.527344 C 115.945312 120.382812 115.746094 120.21875 115.5625 120.03125 C 115.375 119.847656 115.210938 119.648438 115.066406 119.429688 C 114.921875 119.214844 114.800781 118.984375 114.699219 118.742188 C 114.597656 118.5 114.523438 118.253906 114.472656 117.996094 C 114.421875 117.738281 114.394531 117.480469 114.394531 117.21875 C 114.394531 116.957031 114.421875 116.699219 114.472656 116.445312 C 114.523438 116.1875 114.597656 115.9375 114.699219 115.699219 C 114.800781 115.457031 114.921875 115.226562 115.066406 115.007812 C 115.210938 114.792969 115.375 114.589844 115.5625 114.40625 C 115.746094 114.222656 115.945312 114.058594 116.164062 113.910156 C 116.382812 113.765625 116.609375 113.644531 116.851562 113.542969 C 117.09375 113.445312 117.34375 113.367188 117.597656 113.316406 C 117.855469 113.265625 118.113281 113.242188 118.375 113.242188 C 118.636719 113.242188 118.894531 113.265625 119.152344 113.316406 C 119.40625 113.367188 119.65625 113.445312 119.898438 113.542969 C 120.136719 113.644531 120.367188 113.765625 120.585938 113.910156 C 120.800781 114.058594 121.003906 114.222656 121.1875 114.40625 C 121.371094 114.589844 121.539062 114.792969 121.683594 115.007812 C 121.828125 115.226562 121.949219 115.457031 122.050781 115.699219 C 122.148438 115.9375 122.226562 116.1875 122.277344 116.445312 C 122.328125 116.699219 122.351562 116.957031 122.351562 117.21875 Z M 122.351562 117.21875 " fill-opacity="1" fill-rule="nonzero"/><path fill="#35668f" d="M 124.34375 101.503906 C 124.34375 101.765625 124.316406 102.023438 124.265625 102.28125 C 124.214844 102.539062 124.140625 102.785156 124.039062 103.027344 C 123.941406 103.269531 123.816406 103.5 123.671875 103.714844 C 123.527344 103.933594 123.363281 104.132812 123.175781 104.316406 C 122.992188 104.503906 122.792969 104.667969 122.574219 104.8125 C 122.355469 104.957031 122.128906 105.082031 121.886719 105.179688 C 121.644531 105.28125 121.394531 105.355469 121.140625 105.40625 C 120.882812 105.457031 120.625 105.484375 120.363281 105.484375 C 120.101562 105.484375 119.84375 105.457031 119.585938 105.40625 C 119.332031 105.355469 119.082031 105.28125 118.839844 105.179688 C 118.601562 105.082031 118.371094 104.957031 118.152344 104.8125 C 117.9375 104.667969 117.734375 104.503906 117.550781 104.316406 C 117.367188 104.132812 117.199219 103.933594 117.054688 103.714844 C 116.910156 103.5 116.789062 103.269531 116.6875 103.027344 C 116.589844 102.785156 116.511719 102.539062 116.460938 102.28125 C 116.410156 102.023438 116.386719 101.765625 116.386719 101.503906 C 116.386719 101.242188 116.410156 100.984375 116.460938 100.730469 C 116.511719 100.472656 116.589844 100.222656 116.6875 99.984375 C 116.789062 99.742188 116.910156 99.511719 117.054688 99.292969 C 117.199219 99.078125 117.367188 98.875 117.550781 98.691406 C 117.734375 98.507812 117.9375 98.34375 118.152344 98.195312 C 118.371094 98.050781 118.601562 97.929688 118.839844 97.828125 C 119.082031 97.730469 119.332031 97.652344 119.585938 97.601562 C 119.84375 97.550781 120.101562 97.527344 120.363281 97.527344 C 120.625 97.527344 120.882812 97.550781 121.140625 97.601562 C 121.394531 97.652344 121.644531 97.730469 121.886719 97.828125 C 122.128906 97.929688 122.355469 98.050781 122.574219 98.195312 C 122.792969 98.34375 122.992188 98.507812 123.175781 98.691406 C 123.363281 98.875 123.527344 99.078125 123.671875 99.292969 C 123.816406 99.511719 123.941406 99.742188 124.039062 99.984375 C 124.140625 100.222656 124.214844 100.472656 124.265625 100.730469 C 124.316406 100.984375 124.34375 101.242188 124.34375 101.503906 Z M 124.34375 101.503906 " fill-opacity="1" fill-rule="nonzero"/><path fill="#35668f" d="M 129.914062 86.585938 C 129.914062 86.847656 129.886719 87.105469 129.835938 87.363281 C 129.785156 87.617188 129.710938 87.867188 129.609375 88.109375 C 129.507812 88.351562 129.386719 88.578125 129.242188 88.796875 C 129.097656 89.011719 128.929688 89.214844 128.746094 89.398438 C 128.5625 89.582031 128.359375 89.75 128.144531 89.894531 C 127.925781 90.039062 127.699219 90.160156 127.457031 90.261719 C 127.214844 90.363281 126.964844 90.4375 126.710938 90.488281 C 126.453125 90.539062 126.195312 90.5625 125.933594 90.5625 C 125.671875 90.5625 125.414062 90.539062 125.15625 90.488281 C 124.902344 90.4375 124.652344 90.363281 124.410156 90.261719 C 124.167969 90.160156 123.941406 90.039062 123.722656 89.894531 C 123.507812 89.75 123.304688 89.582031 123.121094 89.398438 C 122.9375 89.214844 122.769531 89.011719 122.625 88.796875 C 122.480469 88.578125 122.359375 88.351562 122.257812 88.109375 C 122.15625 87.867188 122.082031 87.617188 122.03125 87.363281 C 121.980469 87.105469 121.957031 86.847656 121.957031 86.585938 C 121.957031 86.324219 121.980469 86.066406 122.03125 85.808594 C 122.082031 85.554688 122.15625 85.304688 122.257812 85.0625 C 122.359375 84.820312 122.480469 84.59375 122.625 84.375 C 122.769531 84.160156 122.9375 83.957031 123.121094 83.773438 C 123.304688 83.589844 123.507812 83.421875 123.722656 83.277344 C 123.941406 83.132812 124.167969 83.011719 124.410156 82.910156 C 124.652344 82.808594 124.902344 82.734375 125.15625 82.683594 C 125.414062 82.632812 125.671875 82.609375 125.933594 82.609375 C 126.195312 82.609375 126.453125 82.632812 126.710938 82.683594 C 126.964844 82.734375 127.214844 82.808594 127.457031 82.910156 C 127.699219 83.011719 127.925781 83.132812 128.144531 83.277344 C 128.359375 83.421875 128.5625 83.589844 128.746094 83.773438 C 128.929688 83.957031 129.097656 84.160156 129.242188 84.375 C 129.386719 84.59375 129.507812 84.820312 129.609375 85.0625 C 129.710938 85.304688 129.785156 85.554688 129.835938 85.808594 C 129.886719 86.066406 129.914062 86.324219 129.914062 86.585938 Z M 129.914062 86.585938 " fill-opacity="1" fill-rule="nonzero"/><path fill="#35668f" d="M 138.863281 73.65625 C 138.863281 73.917969 138.839844 74.175781 138.789062 74.433594 C 138.734375 74.6875 138.660156 74.9375 138.5625 75.179688 C 138.460938 75.417969 138.339844 75.648438 138.191406 75.867188 C 138.046875 76.082031 137.882812 76.285156 137.699219 76.46875 C 137.511719 76.652344 137.3125 76.820312 137.09375 76.964844 C 136.878906 77.109375 136.648438 77.230469 136.40625 77.332031 C 136.167969 77.429688 135.917969 77.507812 135.660156 77.558594 C 135.40625 77.609375 135.144531 77.632812 134.886719 77.632812 C 134.625 77.632812 134.363281 77.609375 134.109375 77.558594 C 133.851562 77.507812 133.605469 77.429688 133.363281 77.332031 C 133.121094 77.230469 132.890625 77.109375 132.675781 76.964844 C 132.457031 76.820312 132.257812 76.652344 132.070312 76.46875 C 131.886719 76.285156 131.722656 76.082031 131.578125 75.867188 C 131.433594 75.648438 131.308594 75.417969 131.210938 75.179688 C 131.109375 74.9375 131.035156 74.6875 130.984375 74.433594 C 130.933594 74.175781 130.90625 73.917969 130.90625 73.65625 C 130.90625 73.394531 130.933594 73.136719 130.984375 72.878906 C 131.035156 72.625 131.109375 72.375 131.210938 72.132812 C 131.308594 71.890625 131.433594 71.664062 131.578125 71.445312 C 131.722656 71.226562 131.886719 71.027344 132.070312 70.84375 C 132.257812 70.65625 132.457031 70.492188 132.675781 70.347656 C 132.890625 70.203125 133.121094 70.082031 133.363281 69.980469 C 133.605469 69.878906 133.851562 69.804688 134.109375 69.753906 C 134.363281 69.703125 134.625 69.675781 134.886719 69.675781 C 135.144531 69.675781 135.40625 69.703125 135.660156 69.753906 C 135.917969 69.804688 136.167969 69.878906 136.40625 69.980469 C 136.648438 70.082031 136.878906 70.203125 137.09375 70.347656 C 137.3125 70.492188 137.511719 70.65625 137.699219 70.84375 C 137.882812 71.027344 138.046875 71.226562 138.191406 71.445312 C 138.339844 71.664062 138.460938 71.890625 138.5625 72.132812 C 138.660156 72.375 138.734375 72.625 138.789062 72.878906 C 138.839844 73.136719 138.863281 73.394531 138.863281 73.65625 Z M 138.863281 73.65625 " fill-opacity="1" fill-rule="nonzero"/><path fill="#35668f" d="M 150.601562 63.113281 C 150.601562 63.375 150.574219 63.632812 150.523438 63.890625 C 150.472656 64.144531 150.398438 64.394531 150.296875 64.636719 C 150.195312 64.875 150.074219 65.105469 149.929688 65.324219 C 149.785156 65.539062 149.621094 65.742188 149.433594 65.925781 C 149.25 66.109375 149.050781 66.277344 148.832031 66.421875 C 148.613281 66.566406 148.386719 66.6875 148.144531 66.789062 C 147.902344 66.890625 147.652344 66.964844 147.398438 67.015625 C 147.140625 67.066406 146.882812 67.089844 146.621094 67.089844 C 146.359375 67.089844 146.101562 67.066406 145.84375 67.015625 C 145.589844 66.964844 145.339844 66.890625 145.097656 66.789062 C 144.859375 66.6875 144.628906 66.566406 144.410156 66.421875 C 144.195312 66.277344 143.992188 66.109375 143.808594 65.925781 C 143.625 65.742188 143.457031 65.539062 143.3125 65.324219 C 143.167969 65.105469 143.046875 64.875 142.945312 64.636719 C 142.847656 64.394531 142.769531 64.144531 142.71875 63.890625 C 142.667969 63.632812 142.644531 63.375 142.644531 63.113281 C 142.644531 62.851562 142.667969 62.59375 142.71875 62.335938 C 142.769531 62.082031 142.847656 61.832031 142.945312 61.589844 C 143.046875 61.347656 143.167969 61.121094 143.3125 60.902344 C 143.457031 60.6875 143.625 60.484375 143.808594 60.300781 C 143.992188 60.113281 144.195312 59.949219 144.410156 59.804688 C 144.628906 59.660156 144.859375 59.539062 145.097656 59.4375 C 145.339844 59.335938 145.589844 59.261719 145.84375 59.210938 C 146.101562 59.160156 146.359375 59.132812 146.621094 59.132812 C 146.882812 59.132812 147.140625 59.160156 147.398438 59.210938 C 147.652344 59.261719 147.902344 59.335938 148.144531 59.4375 C 148.386719 59.539062 148.613281 59.660156 148.832031 59.804688 C 149.050781 59.949219 149.25 60.113281 149.433594 60.300781 C 149.621094 60.484375 149.785156 60.6875 149.929688 60.902344 C 150.074219 61.121094 150.195312 61.347656 150.296875 61.589844 C 150.398438 61.832031 150.472656 62.082031 150.523438 62.335938 C 150.574219 62.59375 150.601562 62.851562 150.601562 63.113281 Z M 150.601562 63.113281 " fill-opacity="1" fill-rule="nonzero"/><path fill="#35668f" d="M 164.523438 55.753906 C 164.523438 56.015625 164.5 56.273438 164.449219 56.527344 C 164.398438 56.785156 164.320312 57.035156 164.222656 57.277344 C 164.121094 57.515625 164 57.746094 163.855469 57.964844 C 163.707031 58.179688 163.542969 58.382812 163.359375 58.566406 C 163.175781 58.75 162.972656 58.914062 162.757812 59.0625 C 162.539062 59.207031 162.308594 59.328125 162.070312 59.429688 C 161.828125 59.527344 161.578125 59.605469 161.324219 59.65625 C 161.066406 59.707031 160.808594 59.730469 160.546875 59.730469 C 160.285156 59.730469 160.027344 59.707031 159.769531 59.65625 C 159.515625 59.605469 159.265625 59.527344 159.023438 59.429688 C 158.78125 59.328125 158.554688 59.207031 158.335938 59.0625 C 158.117188 58.914062 157.917969 58.75 157.734375 58.566406 C 157.546875 58.382812 157.382812 58.179688 157.238281 57.964844 C 157.09375 57.746094 156.96875 57.515625 156.871094 57.277344 C 156.769531 57.035156 156.695312 56.785156 156.644531 56.527344 C 156.59375 56.273438 156.566406 56.015625 156.566406 55.753906 C 156.566406 55.492188 156.59375 55.234375 156.644531 54.976562 C 156.695312 54.71875 156.769531 54.472656 156.871094 54.230469 C 156.96875 53.988281 157.09375 53.761719 157.238281 53.542969 C 157.382812 53.324219 157.546875 53.125 157.734375 52.941406 C 157.917969 52.753906 158.117188 52.589844 158.335938 52.445312 C 158.554688 52.300781 158.78125 52.175781 159.023438 52.078125 C 159.265625 51.976562 159.515625 51.902344 159.769531 51.851562 C 160.027344 51.800781 160.285156 51.773438 160.546875 51.773438 C 160.808594 51.773438 161.066406 51.800781 161.324219 51.851562 C 161.578125 51.902344 161.828125 51.976562 162.070312 52.078125 C 162.308594 52.175781 162.539062 52.300781 162.757812 52.445312 C 162.972656 52.589844 163.175781 52.753906 163.359375 52.941406 C 163.542969 53.125 163.707031 53.324219 163.855469 53.542969 C 164 53.761719 164.121094 53.988281 164.222656 54.230469 C 164.320312 54.472656 164.398438 54.71875 164.449219 54.976562 C 164.5 55.234375 164.523438 55.492188 164.523438 55.753906 Z M 164.523438 55.753906 " fill-opacity="1" fill-rule="nonzero"/><path fill="#35668f" d="M 179.839844 51.773438 C 179.839844 52.035156 179.816406 52.292969 179.765625 52.550781 C 179.714844 52.808594 179.640625 53.054688 179.539062 53.296875 C 179.4375 53.539062 179.316406 53.769531 179.171875 53.984375 C 179.027344 54.203125 178.859375 54.402344 178.675781 54.585938 C 178.492188 54.773438 178.289062 54.9375 178.074219 55.082031 C 177.855469 55.226562 177.625 55.351562 177.386719 55.449219 C 177.144531 55.550781 176.894531 55.625 176.640625 55.675781 C 176.382812 55.726562 176.125 55.753906 175.863281 55.753906 C 175.601562 55.753906 175.34375 55.726562 175.085938 55.675781 C 174.832031 55.625 174.582031 55.550781 174.339844 55.449219 C 174.097656 55.351562 173.871094 55.226562 173.652344 55.082031 C 173.4375 54.9375 173.234375 54.773438 173.050781 54.585938 C 172.863281 54.402344 172.699219 54.203125 172.554688 53.984375 C 172.410156 53.769531 172.289062 53.539062 172.1875 53.296875 C 172.085938 53.054688 172.011719 52.808594 171.960938 52.550781 C 171.910156 52.292969 171.882812 52.035156 171.882812 51.773438 C 171.882812 51.511719 171.910156 51.253906 171.960938 51 C 172.011719 50.742188 172.085938 50.492188 172.1875 50.253906 C 172.289062 50.011719 172.410156 49.78125 172.554688 49.5625 C 172.699219 49.347656 172.863281 49.144531 173.050781 48.960938 C 173.234375 48.777344 173.4375 48.613281 173.652344 48.464844 C 173.871094 48.320312 174.097656 48.199219 174.339844 48.097656 C 174.582031 48 174.832031 47.921875 175.085938 47.871094 C 175.34375 47.820312 175.601562 47.796875 175.863281 47.796875 C 176.125 47.796875 176.382812 47.820312 176.640625 47.871094 C 176.894531 47.921875 177.144531 48 177.386719 48.097656 C 177.625 48.199219 177.855469 48.320312 178.074219 48.464844 C 178.289062 48.613281 178.492188 48.777344 178.675781 48.960938 C 178.859375 49.144531 179.027344 49.347656 179.171875 49.5625 C 179.316406 49.78125 179.4375 50.011719 179.539062 50.253906 C 179.640625 50.492188 179.714844 50.742188 179.765625 51 C 179.816406 51.253906 179.839844 51.511719 179.839844 51.773438 Z M 179.839844 51.773438 " fill-opacity="1" fill-rule="nonzero"/><g fill="#000000" fill-opacity="1"><g transform="translate(48.217737, 346.274811)"><g><path d="M 19.421875 -37.625 C 22.117188 -37.625 24.421875 -37.128906 26.328125 -36.140625 C 28.242188 -35.148438 29.691406 -33.769531 30.671875 -32 C 31.648438 -30.226562 32.140625 -28.164062 32.140625 -25.8125 C 32.140625 -23.457031 31.648438 -21.394531 30.671875 -19.625 C 29.691406 -17.863281 28.242188 -16.488281 26.328125 -15.5 C 24.421875 -14.519531 22.117188 -14.03125 19.421875 -14.03125 L 12.328125 -14.03125 L 12.328125 0 L 4.890625 0 L 4.890625 -37.625 Z M 18.453125 -19.921875 C 22.585938 -19.921875 24.65625 -21.882812 24.65625 -25.8125 C 24.65625 -29.757812 22.585938 -31.734375 18.453125 -31.734375 L 12.328125 -31.734375 L 12.328125 -19.921875 Z M 18.453125 -19.921875 "/></g></g></g><g fill="#000000" fill-opacity="1"><g transform="translate(82.601731, 346.274811)"><g><path d="M 4.09375 0 L 4.09375 -39.78125 L 11.21875 -39.78125 L 11.21875 -24.671875 L 11.765625 -24.578125 C 12.703125 -25.960938 13.859375 -27.03125 15.234375 -27.78125 C 16.609375 -28.539062 18.265625 -28.921875 20.203125 -28.921875 C 26.460938 -28.921875 29.59375 -25.367188 29.59375 -18.265625 L 29.59375 0 L 22.46875 0 L 22.46875 -17.375 C 22.46875 -19.3125 22.082031 -20.71875 21.3125 -21.59375 C 20.539062 -22.46875 19.335938 -22.90625 17.703125 -22.90625 C 15.710938 -22.90625 14.132812 -22.238281 12.96875 -20.90625 C 11.800781 -19.582031 11.21875 -17.507812 11.21875 -14.6875 L 11.21875 0 Z M 4.09375 0 "/></g></g></g><g fill="#000000" fill-opacity="1"><g transform="translate(115.853319, 346.274811)"><g><path d="M 7.640625 -31.78125 C 6.359375 -31.78125 5.3125 -32.171875 4.5 -32.953125 C 3.695312 -33.734375 3.296875 -34.738281 3.296875 -35.96875 C 3.296875 -37.1875 3.695312 -38.1875 4.5 -38.96875 C 5.3125 -39.75 6.359375 -40.140625 7.640625 -40.140625 C 8.492188 -40.140625 9.253906 -39.957031 9.921875 -39.59375 C 10.597656 -39.238281 11.117188 -38.75 11.484375 -38.125 C 11.859375 -37.5 12.046875 -36.78125 12.046875 -35.96875 C 12.046875 -35.164062 11.859375 -34.445312 11.484375 -33.8125 C 11.117188 -33.175781 10.597656 -32.675781 9.921875 -32.3125 C 9.253906 -31.957031 8.492188 -31.78125 7.640625 -31.78125 Z M 4.09375 0 L 4.09375 -28.390625 L 11.21875 -28.390625 L 11.21875 0 Z M 4.09375 0 "/></g></g></g><g fill="#000000" fill-opacity="1"><g transform="translate(131.140814, 346.274811)"><g><path d="M 11.78125 0.546875 C 9.226562 0.546875 7.273438 -0.144531 5.921875 -1.53125 C 4.578125 -2.914062 3.90625 -5.015625 3.90625 -7.828125 L 3.90625 -39.78125 L 11.046875 -39.78125 L 11.046875 -8.109375 C 11.046875 -6.367188 11.765625 -5.5 13.203125 -5.5 C 13.609375 -5.5 14.046875 -5.570312 14.515625 -5.71875 L 14.875 -5.609375 L 15.515625 -0.125 C 15.117188 0.0820312 14.59375 0.242188 13.9375 0.359375 C 13.289062 0.484375 12.570312 0.546875 11.78125 0.546875 Z M 11.78125 0.546875 "/></g></g></g><g fill="#000000" fill-opacity="1"><g transform="translate(147.457769, 346.274811)"><g><path d="M 16.5 0.546875 C 13.71875 0.546875 11.273438 -0.0195312 9.171875 -1.15625 C 7.066406 -2.300781 5.4375 -3.976562 4.28125 -6.1875 C 3.125 -8.394531 2.546875 -11.054688 2.546875 -14.171875 C 2.546875 -17.296875 3.125 -19.960938 4.28125 -22.171875 C 5.4375 -24.390625 7.066406 -26.066406 9.171875 -27.203125 C 11.273438 -28.347656 13.71875 -28.921875 16.5 -28.921875 C 19.28125 -28.921875 21.71875 -28.347656 23.8125 -27.203125 C 25.914062 -26.066406 27.550781 -24.390625 28.71875 -22.171875 C 29.882812 -19.960938 30.46875 -17.296875 30.46875 -14.171875 C 30.46875 -11.054688 29.882812 -8.394531 28.71875 -6.1875 C 27.550781 -3.976562 25.914062 -2.300781 23.8125 -1.15625 C 21.71875 -0.0195312 19.28125 0.546875 16.5 0.546875 Z M 16.5 -5.5 C 20.90625 -5.5 23.109375 -8.390625 23.109375 -14.171875 C 23.109375 -17.179688 22.539062 -19.382812 21.40625 -20.78125 C 20.28125 -22.175781 18.644531 -22.875 16.5 -22.875 C 12.082031 -22.875 9.875 -19.972656 9.875 -14.171875 C 9.875 -8.390625 12.082031 -5.5 16.5 -5.5 Z M 16.5 -5.5 "/></g></g></g><g fill="#000000" fill-opacity="1"><g transform="translate(180.451991, 346.274811)"><g><path d="M 13.28125 0.546875 C 11.34375 0.546875 9.566406 0.316406 7.953125 -0.140625 C 6.335938 -0.597656 4.957031 -1.222656 3.8125 -2.015625 C 2.675781 -2.816406 1.832031 -3.734375 1.28125 -4.765625 L 5.25 -9.03125 L 5.796875 -9.03125 C 6.734375 -7.757812 7.84375 -6.804688 9.125 -6.171875 C 10.414062 -5.535156 11.816406 -5.21875 13.328125 -5.21875 C 14.722656 -5.21875 15.769531 -5.46875 16.46875 -5.96875 C 17.175781 -6.46875 17.53125 -7.179688 17.53125 -8.109375 C 17.53125 -8.828125 17.273438 -9.429688 16.765625 -9.921875 C 16.253906 -10.410156 15.4375 -10.789062 14.3125 -11.0625 L 10.546875 -11.96875 C 7.734375 -12.632812 5.675781 -13.65625 4.375 -15.03125 C 3.082031 -16.414062 2.4375 -18.171875 2.4375 -20.296875 C 2.4375 -22.066406 2.882812 -23.601562 3.78125 -24.90625 C 4.6875 -26.207031 5.957031 -27.203125 7.59375 -27.890625 C 9.238281 -28.578125 11.148438 -28.921875 13.328125 -28.921875 C 15.890625 -28.921875 18.007812 -28.550781 19.6875 -27.8125 C 21.363281 -27.082031 22.675781 -26.097656 23.625 -24.859375 L 19.8125 -20.734375 L 19.296875 -20.734375 C 18.503906 -21.628906 17.613281 -22.28125 16.625 -22.6875 C 15.644531 -23.101562 14.546875 -23.3125 13.328125 -23.3125 C 10.515625 -23.3125 9.109375 -22.4375 9.109375 -20.6875 C 9.109375 -19.945312 9.367188 -19.34375 9.890625 -18.875 C 10.410156 -18.414062 11.332031 -18.039062 12.65625 -17.75 L 16.15625 -16.984375 C 19.039062 -16.367188 21.144531 -15.378906 22.46875 -14.015625 C 23.800781 -12.648438 24.46875 -10.816406 24.46875 -8.515625 C 24.46875 -6.710938 24.019531 -5.125 23.125 -3.75 C 22.238281 -2.382812 20.953125 -1.328125 19.265625 -0.578125 C 17.585938 0.171875 15.59375 0.546875 13.28125 0.546875 Z M 13.28125 0.546875 "/></g></g></g><g fill="#000000" fill-opacity="1"><g transform="translate(206.626042, 346.274811)"><g><path d="M 16.5 0.546875 C 13.71875 0.546875 11.273438 -0.0195312 9.171875 -1.15625 C 7.066406 -2.300781 5.4375 -3.976562 4.28125 -6.1875 C 3.125 -8.394531 2.546875 -11.054688 2.546875 -14.171875 C 2.546875 -17.296875 3.125 -19.960938 4.28125 -22.171875 C 5.4375 -24.390625 7.066406 -26.066406 9.171875 -27.203125 C 11.273438 -28.347656 13.71875 -28.921875 16.5 -28.921875 C 19.28125 -28.921875 21.71875 -28.347656 23.8125 -27.203125 C 25.914062 -26.066406 27.550781 -24.390625 28.71875 -22.171875 C 29.882812 -19.960938 30.46875 -17.296875 30.46875 -14.171875 C 30.46875 -11.054688 29.882812 -8.394531 28.71875 -6.1875 C 27.550781 -3.976562 25.914062 -2.300781 23.8125 -1.15625 C 21.71875 -0.0195312 19.28125 0.546875 16.5 0.546875 Z M 16.5 -5.5 C 20.90625 -5.5 23.109375 -8.390625 23.109375 -14.171875 C 23.109375 -17.179688 22.539062 -19.382812 21.40625 -20.78125 C 20.28125 -22.175781 18.644531 -22.875 16.5 -22.875 C 12.082031 -22.875 9.875 -19.972656 9.875 -14.171875 C 9.875 -8.390625 12.082031 -5.5 16.5 -5.5 Z M 16.5 -5.5 "/></g></g></g><g fill="#000000" fill-opacity="1"><g transform="translate(239.620264, 346.274811)"><g><path d="M 4.09375 11.5 L 4.09375 -28.390625 L 11.21875 -28.390625 L 11.21875 -24.671875 L 11.765625 -24.578125 C 12.597656 -26.015625 13.71875 -27.097656 15.125 -27.828125 C 16.53125 -28.554688 18.179688 -28.921875 20.078125 -28.921875 C 22.359375 -28.921875 24.347656 -28.378906 26.046875 -27.296875 C 27.753906 -26.222656 29.082031 -24.582031 30.03125 -22.375 C 30.988281 -20.164062 31.46875 -17.429688 31.46875 -14.171875 C 31.46875 -10.929688 30.96875 -8.210938 29.96875 -6.015625 C 28.96875 -3.828125 27.570312 -2.1875 25.78125 -1.09375 C 24 0 21.941406 0.546875 19.609375 0.546875 C 17.835938 0.546875 16.304688 0.25 15.015625 -0.34375 C 13.734375 -0.9375 12.648438 -1.859375 11.765625 -3.109375 L 11.21875 -3.015625 L 11.21875 11.5 Z M 17.625 -5.5 C 19.75 -5.5 21.359375 -6.191406 22.453125 -7.578125 C 23.554688 -8.972656 24.109375 -11.171875 24.109375 -14.171875 C 24.109375 -17.179688 23.554688 -19.382812 22.453125 -20.78125 C 21.359375 -22.175781 19.75 -22.875 17.625 -22.875 C 15.632812 -22.875 14.054688 -22.148438 12.890625 -20.703125 C 11.722656 -19.265625 11.140625 -17.085938 11.140625 -14.171875 C 11.140625 -11.273438 11.722656 -9.101562 12.890625 -7.65625 C 14.054688 -6.21875 15.632812 -5.5 17.625 -5.5 Z M 17.625 -5.5 "/></g></g></g><g fill="#000000" fill-opacity="1"><g transform="translate(273.618219, 346.274811)"><g><path d="M 4.09375 0 L 4.09375 -39.78125 L 11.21875 -39.78125 L 11.21875 -24.671875 L 11.765625 -24.578125 C 12.703125 -25.960938 13.859375 -27.03125 15.234375 -27.78125 C 16.609375 -28.539062 18.265625 -28.921875 20.203125 -28.921875 C 26.460938 -28.921875 29.59375 -25.367188 29.59375 -18.265625 L 29.59375 0 L 22.46875 0 L 22.46875 -17.375 C 22.46875 -19.3125 22.082031 -20.71875 21.3125 -21.59375 C 20.539062 -22.46875 19.335938 -22.90625 17.703125 -22.90625 C 15.710938 -22.90625 14.132812 -22.238281 12.96875 -20.90625 C 11.800781 -19.582031 11.21875 -17.507812 11.21875 -14.6875 L 11.21875 0 Z M 4.09375 0 "/></g></g></g><g fill="#000000" fill-opacity="1"><g transform="translate(306.869807, 346.274811)"><g><path d="M 6.28125 12.046875 C 5.0625 12.046875 3.957031 11.953125 2.96875 11.765625 C 1.988281 11.578125 1.1875 11.328125 0.5625 11.015625 L 1.703125 5.25 L 2.15625 5.09375 C 2.59375 5.320312 3.125 5.503906 3.75 5.640625 C 4.382812 5.773438 5.039062 5.84375 5.71875 5.84375 C 6.863281 5.84375 7.816406 5.691406 8.578125 5.390625 C 9.347656 5.085938 10 4.585938 10.53125 3.890625 C 11.0625 3.203125 11.53125 2.238281 11.9375 1 L 0.625 -28.390625 L 8.078125 -28.390625 L 15.125 -8.640625 L 15.75 -8.640625 L 22.625 -28.390625 L 29.875 -28.390625 L 18.484375 1.78125 C 17.566406 4.21875 16.5625 6.175781 15.46875 7.65625 C 14.382812 9.132812 13.097656 10.234375 11.609375 10.953125 C 10.128906 11.679688 8.351562 12.046875 6.28125 12.046875 Z M 6.28125 12.046875 "/></g></g></g></svg>