<svg xmlns="http://www.w3.org/2000/svg" xmlns:xlink="http://www.w3.org/1999/xlink" width="500" zoomAndPan="magnify" viewBox="0 0 375 374.999991" height="500" preserveAspectRatio="xMidYMid meet" version="1.0"><path fill="#000000" d="M 265.894531 128.292969 L 265.90625 128.292969 L 265.90625 128.242188 Z M 265.894531 128.292969 " fill-opacity="1" fill-rule="nonzero"/><path fill="#f2bb30" d="M 297.125 259.78125 C 318.207031 259.78125 326.003906 245.078125 333.328125 223.035156 C 340.921875 200.332031 340.59375 178.492188 333.328125 149.410156 C 328.105469 128.46875 318.222656 112.664062 297.125 112.664062 L 269.957031 112.664062 L 269.957031 144.820312 C 269.957031 169.761719 248.800781 190.777344 224.679688 190.777344 L 152.273438 190.777344 C 132.46875 190.777344 116.066406 207.722656 116.066406 227.589844 L 116.066406 296.605469 C 116.066406 316.257812 133.152344 327.789062 152.273438 333.417969 C 175.175781 340.125 197.21875 341.339844 224.667969 333.417969 C 242.902344 328.128906 260.871094 317.472656 260.871094 296.605469 L 260.871094 269.007812 L 188.527344 269.007812 L 188.527344 259.796875 L 297.125 259.796875 Z M 229.210938 287.382812 C 236.726562 287.382812 242.839844 293.558594 242.839844 301.148438 C 242.839844 308.820312 236.738281 314.980469 229.210938 314.980469 C 221.746094 314.980469 215.582031 308.742188 215.582031 301.148438 C 215.65625 293.480469 221.769531 287.382812 229.210938 287.382812 Z M 229.210938 287.382812 " fill-opacity="1" fill-rule="nonzero"/><path fill="#35668f" d="M 78.777344 259.796875 L 103.652344 259.796875 L 103.652344 226.703125 C 103.652344 202.777344 124.332031 181.679688 148.929688 181.679688 L 221.328125 181.679688 C 241.460938 181.679688 257.53125 165.078125 257.53125 144.871094 L 257.53125 75.800781 C 257.53125 56.148438 240.992188 41.421875 221.328125 38.117188 C 197.054688 34.105469 170.683594 34.332031 148.929688 38.191406 L 148.945312 38.179688 C 118.296875 43.597656 112.753906 54.910156 112.753906 75.851562 L 112.753906 103.453125 L 185.222656 103.453125 L 185.222656 112.675781 L 85.558594 112.675781 C 64.476562 112.675781 46.027344 125.355469 40.28125 149.425781 C 33.636719 177.023438 33.371094 194.234375 40.28125 223.046875 C 45.417969 244.472656 57.707031 259.796875 78.777344 259.796875 Z M 144.402344 85.015625 C 136.882812 85.015625 130.773438 78.839844 130.773438 71.246094 C 130.859375 63.578125 136.882812 57.414062 144.402344 57.414062 C 151.867188 57.414062 158.03125 63.640625 158.03125 71.246094 C 158.03125 78.851562 151.929688 85.015625 144.402344 85.015625 Z M 144.402344 85.015625 " fill-opacity="1" fill-rule="nonzero"/></svg>