<svg xmlns="http://www.w3.org/2000/svg" xmlns:xlink="http://www.w3.org/1999/xlink" width="500" zoomAndPan="magnify" viewBox="0 0 375 374.999991" height="500" preserveAspectRatio="xMidYMid meet" version="1.0"><defs><clipPath id="eac526a256"><path d="M 37.5 67 L 214 67 L 214 260 L 37.5 260 Z M 37.5 67 " clip-rule="nonzero"/></clipPath><clipPath id="7f672dfeb9"><path d="M 37.5 41.984375 L 214 41.984375 L 214 94 L 37.5 94 Z M 37.5 41.984375 " clip-rule="nonzero"/></clipPath><clipPath id="f42413d813"><path d="M 37.5 109 L 214 109 L 214 156 L 37.5 156 Z M 37.5 109 " clip-rule="nonzero"/></clipPath><clipPath id="93f7a92418"><path d="M 37.5 171 L 170 171 L 170 218 L 37.5 218 Z M 37.5 171 " clip-rule="nonzero"/></clipPath><clipPath id="96a121f7d7"><path d="M 151 155 L 337.5 155 L 337.5 341.984375 L 151 341.984375 Z M 151 155 " clip-rule="nonzero"/></clipPath></defs><g clip-path="url(#eac526a256)"><path fill="#4184a9" d="M 37.5 67.84375 L 37.5 233.363281 C 37.5 247.648438 76.859375 259.226562 125.429688 259.226562 C 134.582031 259.226562 143.433594 258.800781 151.757812 258.09375 L 213.363281 161.109375 L 213.363281 67.84375 L 37.5 67.84375 " fill-opacity="1" fill-rule="nonzero"/></g><g clip-path="url(#7f672dfeb9)"><path fill="#0b253a" d="M 213.363281 67.84375 C 213.363281 82.128906 174.003906 93.707031 125.429688 93.707031 C 76.878906 93.707031 37.5 82.128906 37.5 67.84375 C 37.5 53.5625 76.878906 41.984375 125.429688 41.984375 C 174.003906 41.984375 213.363281 53.5625 213.363281 67.84375 " fill-opacity="1" fill-rule="nonzero"/></g><g clip-path="url(#f42413d813)"><path fill="#ffffff" d="M 37.5 129.914062 C 37.5 144.199219 76.878906 155.777344 125.429688 155.777344 C 174.003906 155.777344 213.363281 144.199219 213.363281 129.914062 L 213.363281 109.226562 C 213.363281 123.507812 174.003906 135.085938 125.429688 135.085938 C 76.878906 135.085938 37.5 123.507812 37.5 109.226562 L 37.5 129.914062 " fill-opacity="1" fill-rule="nonzero"/></g><g clip-path="url(#93f7a92418)"><path fill="#ffffff" d="M 157.253906 216.128906 C 147.351562 217.21875 136.644531 217.84375 125.429688 217.84375 C 76.859375 217.84375 37.5 206.269531 37.5 191.984375 L 37.5 171.292969 C 37.5 185.578125 76.859375 197.15625 125.429688 197.15625 C 141.453125 197.15625 156.527344 195.921875 169.457031 193.699219 L 157.253906 216.128906 " fill-opacity="1" fill-rule="nonzero"/></g><g clip-path="url(#96a121f7d7)"><path fill="#0b253a" d="M 337.5 248.878906 C 337.5 300.300781 295.816406 341.984375 244.398438 341.984375 C 192.976562 341.984375 151.292969 300.300781 151.292969 248.878906 C 151.292969 197.457031 192.976562 155.777344 244.398438 155.777344 C 295.816406 155.777344 337.5 197.457031 337.5 248.878906 " fill-opacity="1" fill-rule="nonzero"/></g><path fill="#ffffff" d="M 197.84375 223.019531 C 203.542969 223.019531 208.191406 227.664062 208.191406 233.363281 C 208.191406 236.210938 210.511719 238.535156 213.363281 238.535156 C 216.210938 238.535156 218.535156 236.210938 218.535156 233.363281 C 218.535156 221.945312 209.261719 212.671875 197.84375 212.671875 C 186.429688 212.671875 177.15625 221.945312 177.15625 233.363281 C 177.15625 244.777344 186.429688 254.050781 197.84375 254.050781 C 203.542969 254.050781 208.191406 258.699219 208.191406 264.398438 C 208.191406 270.09375 203.542969 274.742188 197.84375 274.742188 C 192.148438 274.742188 187.5 270.09375 187.5 264.398438 C 187.5 261.546875 185.175781 259.226562 182.328125 259.226562 C 179.480469 259.226562 177.15625 261.546875 177.15625 264.398438 C 177.15625 275.8125 186.429688 285.085938 197.84375 285.085938 C 209.261719 285.085938 218.535156 275.8125 218.535156 264.398438 C 218.535156 252.980469 209.261719 243.707031 197.84375 243.707031 C 192.148438 243.707031 187.5 239.058594 187.5 233.363281 C 187.5 227.664062 192.148438 223.019531 197.84375 223.019531 " fill-opacity="1" fill-rule="nonzero"/><path fill="#ffffff" d="M 259.046875 261.527344 C 257.46875 259.144531 254.257812 258.515625 251.871094 260.09375 C 249.488281 261.667969 248.839844 264.882812 250.4375 267.265625 L 254.539062 273.410156 C 253.042969 274.238281 251.367188 274.742188 249.570312 274.742188 C 243.871094 274.742188 239.222656 270.09375 239.222656 264.398438 L 239.222656 233.363281 C 239.222656 227.664062 243.871094 223.019531 249.570312 223.019531 C 255.265625 223.019531 259.914062 227.664062 259.914062 233.363281 L 259.914062 262.839844 Z M 249.570312 212.671875 C 238.152344 212.671875 228.878906 221.945312 228.878906 233.363281 L 228.878906 264.398438 C 228.878906 275.8125 238.152344 285.085938 249.570312 285.085938 C 253.507812 285.085938 257.144531 283.933594 260.277344 282.015625 L 260.78125 282.785156 C 261.773438 284.277344 263.410156 285.085938 265.085938 285.085938 C 266.078125 285.085938 267.066406 284.804688 267.957031 284.21875 C 270.339844 282.640625 270.984375 279.429688 269.390625 277.046875 L 267.589844 274.359375 C 269.226562 271.386719 270.257812 268.035156 270.257812 264.398438 L 270.257812 233.363281 C 270.257812 221.945312 260.984375 212.671875 249.570312 212.671875 " fill-opacity="1" fill-rule="nonzero"/><path fill="#ffffff" d="M 306.464844 274.742188 L 290.949219 274.742188 L 290.949219 217.84375 C 290.949219 214.996094 288.625 212.671875 285.777344 212.671875 C 282.925781 212.671875 280.601562 214.996094 280.601562 217.84375 L 280.601562 279.914062 C 280.601562 282.761719 282.925781 285.085938 285.777344 285.085938 L 306.464844 285.085938 C 309.3125 285.085938 311.636719 282.761719 311.636719 279.914062 C 311.636719 277.066406 309.3125 274.742188 306.464844 274.742188 " fill-opacity="1" fill-rule="nonzero"/></svg>