<svg xmlns="http://www.w3.org/2000/svg" xmlns:xlink="http://www.w3.org/1999/xlink" width="500" zoomAndPan="magnify" viewBox="0 0 375 374.999991" height="500" preserveAspectRatio="xMidYMid meet" version="1.0"><defs><clipPath id="610632137b"><path d="M 17.878906 30 L 356.878906 30 L 356.878906 142 L 17.878906 142 Z M 17.878906 30 " clip-rule="nonzero"/></clipPath><clipPath id="010a7d5bd2"><path d="M 83 131 L 292 131 L 292 345.898438 L 83 345.898438 Z M 83 131 " clip-rule="nonzero"/></clipPath></defs><path fill="#ffffff" d="M 86.003906 257.921875 L 82.878906 257.921875 C 70.199219 257.921875 59.914062 247.636719 59.914062 234.953125 L 59.914062 222.195312 C 59.914062 216.710938 64.363281 212.261719 69.847656 212.261719 L 86.007812 212.261719 L 86.007812 257.921875 Z M 86.003906 257.921875 " fill-opacity="1" fill-rule="nonzero"/><path fill="#535c66" d="M 86.003906 260.796875 L 82.878906 260.796875 C 68.628906 260.796875 57.039062 249.199219 57.039062 234.953125 L 57.039062 222.191406 C 57.039062 215.132812 62.789062 209.382812 69.847656 209.382812 L 86.007812 209.382812 C 87.59375 209.382812 88.882812 210.671875 88.882812 212.257812 L 88.882812 257.914062 C 88.878906 259.515625 87.59375 260.796875 86.003906 260.796875 Z M 69.84375 215.136719 C 65.949219 215.136719 62.78125 218.304688 62.78125 222.195312 L 62.78125 234.960938 C 62.78125 246.039062 71.796875 255.050781 82.875 255.050781 L 83.121094 255.050781 L 83.121094 215.144531 L 69.84375 215.144531 Z M 69.84375 215.136719 " fill-opacity="1" fill-rule="nonzero"/><path fill="#ffffff" d="M 288.988281 257.921875 L 292.109375 257.921875 C 304.792969 257.921875 315.078125 247.636719 315.078125 234.953125 L 315.078125 222.195312 C 315.078125 216.710938 310.628906 212.261719 305.144531 212.261719 L 288.984375 212.261719 L 288.984375 257.921875 Z M 288.988281 257.921875 " fill-opacity="1" fill-rule="nonzero"/><path fill="#535c66" d="M 292.109375 260.796875 L 288.988281 260.796875 C 287.402344 260.796875 286.113281 259.507812 286.113281 257.921875 L 286.113281 212.261719 C 286.113281 210.675781 287.402344 209.386719 288.988281 209.386719 L 305.148438 209.386719 C 312.214844 209.386719 317.957031 215.136719 317.957031 222.195312 L 317.957031 234.960938 C 317.953125 249.207031 306.363281 260.796875 292.109375 260.796875 Z M 291.863281 255.046875 L 292.109375 255.046875 C 303.1875 255.046875 312.203125 246.03125 312.203125 234.953125 L 312.203125 222.191406 C 312.203125 218.300781 309.035156 215.132812 305.144531 215.132812 L 291.855469 215.132812 L 291.855469 255.046875 Z M 291.863281 255.046875 " fill-opacity="1" fill-rule="nonzero"/><path fill="#ffffff" d="M 284.25 119.945312 C 219.746094 71.453125 155.242188 71.453125 90.746094 119.945312 C 86.796875 122.910156 84.542969 127.648438 84.542969 132.585938 L 84.542969 195.125 C 85.882812 194.050781 87.226562 193.136719 88.566406 192.105469 C 92.515625 178.554688 100.949219 166.546875 112.984375 158.601562 C 162.660156 125.785156 212.332031 125.785156 262.007812 158.601562 C 274.042969 166.550781 282.476562 178.5625 286.425781 192.105469 C 287.765625 193.136719 289.109375 194.050781 290.449219 195.125 L 290.449219 132.59375 C 290.449219 127.65625 288.195312 122.917969 284.25 119.945312 Z M 284.25 119.945312 " fill-opacity="1" fill-rule="nonzero"/><path fill="#535c66" d="M 290.449219 198.003906 C 289.808594 198.003906 289.167969 197.792969 288.65625 197.371094 C 287.90625 196.773438 287.160156 196.230469 286.414062 195.683594 L 284.671875 194.390625 C 284.1875 194.019531 283.832031 193.5 283.660156 192.910156 C 279.808594 179.683594 271.558594 168.351562 260.421875 161 C 212.027344 129.035156 162.957031 129.035156 114.5625 161 C 103.429688 168.359375 95.179688 179.6875 91.324219 192.910156 C 91.152344 193.5 90.804688 194.015625 90.320312 194.390625 L 88.582031 195.683594 C 87.835938 196.230469 87.089844 196.773438 86.339844 197.371094 C 85.480469 198.074219 84.296875 198.199219 83.300781 197.722656 C 82.304688 197.246094 81.667969 196.242188 81.667969 195.128906 L 81.667969 132.59375 C 81.667969 126.695312 84.414062 121.113281 89.015625 117.652344 C 154.359375 68.527344 220.632812 68.527344 285.980469 117.652344 C 290.582031 121.113281 293.324219 126.695312 293.324219 132.59375 L 293.324219 195.128906 C 293.324219 196.234375 292.691406 197.246094 291.695312 197.722656 C 291.300781 197.914062 290.867188 198.003906 290.449219 198.003906 Z M 187.496094 86.691406 C 155.742188 86.691406 123.996094 98.546875 92.46875 122.246094 C 89.308594 124.625 87.417969 128.492188 87.417969 132.59375 L 87.417969 186.488281 C 92.125 174.03125 100.507812 163.402344 111.402344 156.203125 C 161.902344 122.847656 213.101562 122.855469 263.59375 156.203125 C 274.488281 163.394531 282.871094 174.027344 287.578125 186.488281 L 287.578125 132.59375 C 287.578125 128.492188 285.695312 124.625 282.527344 122.25 C 250.992188 98.542969 219.242188 86.691406 187.496094 86.691406 Z M 187.496094 86.691406 " fill-opacity="1" fill-rule="nonzero"/><path fill="#35668f" d="M 348.132812 96.464844 L 202.097656 36.050781 C 192.75 32.179688 182.246094 32.179688 172.894531 36.050781 L 26.855469 96.464844 C 18.746094 99.824219 18.746094 111.316406 26.855469 114.671875 L 84.535156 138.539062 L 84.535156 132.59375 C 84.535156 127.65625 86.789062 122.917969 90.738281 119.949219 C 155.242188 71.457031 219.746094 71.457031 284.246094 119.949219 C 288.195312 122.917969 290.449219 127.65625 290.449219 132.59375 L 290.449219 138.542969 L 348.128906 114.679688 C 356.246094 111.316406 356.246094 99.824219 348.132812 96.464844 Z M 348.132812 96.464844 " fill-opacity="1" fill-rule="nonzero"/><g clip-path="url(#610632137b)"><path fill="#535c66" d="M 290.449219 141.410156 C 289.886719 141.410156 289.332031 141.25 288.851562 140.929688 C 288.050781 140.394531 287.574219 139.496094 287.574219 138.539062 L 287.574219 132.59375 C 287.574219 128.492188 285.6875 124.625 282.519531 122.246094 C 219.453125 74.839844 155.519531 74.84375 92.464844 122.246094 C 89.300781 124.625 87.410156 128.492188 87.410156 132.59375 L 87.410156 138.542969 C 87.410156 139.503906 86.933594 140.398438 86.136719 140.933594 C 85.335938 141.46875 84.324219 141.566406 83.4375 141.199219 L 25.757812 117.328125 C 20.914062 115.324219 17.898438 110.820312 17.898438 105.574219 C 17.898438 100.324219 20.914062 95.816406 25.765625 93.808594 L 171.796875 33.386719 C 181.917969 29.195312 193.070312 29.195312 203.195312 33.386719 L 349.226562 93.808594 C 354.074219 95.816406 357.085938 100.324219 357.085938 105.574219 C 357.085938 110.820312 354.074219 115.324219 349.226562 117.324219 L 291.550781 141.195312 C 291.195312 141.34375 290.824219 141.410156 290.449219 141.410156 Z M 187.496094 80.804688 C 220.402344 80.804688 253.304688 93.085938 285.980469 117.652344 C 290.582031 121.113281 293.324219 126.695312 293.324219 132.59375 L 293.324219 134.242188 L 347.03125 112.023438 C 350.210938 110.707031 351.34375 107.832031 351.34375 105.578125 C 351.34375 103.324219 350.210938 100.445312 347.03125 99.128906 L 201 38.707031 C 192.296875 35.105469 182.707031 35.101562 173.992188 38.707031 L 27.960938 99.121094 C 24.78125 100.4375 23.648438 103.320312 23.648438 105.574219 C 23.648438 107.828125 24.78125 110.707031 27.960938 112.015625 L 81.667969 134.238281 L 81.667969 132.59375 C 81.667969 126.695312 84.414062 121.113281 89.015625 117.652344 C 121.6875 93.085938 154.589844 80.804688 187.496094 80.804688 Z M 187.496094 80.804688 " fill-opacity="1" fill-rule="nonzero"/></g><path fill="#ffffff" d="M 262.007812 158.601562 C 212.332031 125.785156 162.660156 125.785156 112.984375 158.601562 C 96 169.816406 86.003906 189.054688 86.003906 209.40625 L 86.003906 245.757812 C 86.003906 265.652344 95.671875 284.316406 111.929688 295.789062 L 125.234375 305.179688 C 129.867188 308.449219 134.023438 312.347656 137.589844 316.761719 L 140.152344 319.9375 C 151.777344 334.34375 169.292969 342.71875 187.804688 342.71875 C 206.410156 342.71875 224 334.261719 235.621094 319.742188 L 238.019531 316.746094 C 241.542969 312.339844 245.652344 308.449219 250.238281 305.171875 L 263.34375 295.8125 C 279.433594 284.320312 288.984375 265.761719 288.984375 245.988281 L 288.984375 209.410156 C 288.988281 189.054688 278.992188 169.816406 262.007812 158.601562 Z M 262.007812 158.601562 " fill-opacity="1" fill-rule="nonzero"/><g clip-path="url(#010a7d5bd2)"><path fill="#535c66" d="M 187.804688 345.59375 C 168.328125 345.59375 150.144531 336.902344 137.910156 321.742188 L 135.351562 318.566406 C 131.960938 314.363281 128 310.652344 123.578125 307.53125 L 110.273438 298.140625 C 93.273438 286.148438 83.128906 266.566406 83.128906 245.761719 L 83.128906 209.40625 C 83.128906 187.785156 93.695312 167.898438 111.394531 156.203125 C 161.894531 122.847656 213.097656 122.855469 263.589844 156.203125 C 281.289062 167.898438 291.863281 187.785156 291.863281 209.40625 L 291.863281 245.980469 C 291.863281 266.644531 281.824219 286.144531 265.015625 298.148438 L 251.917969 307.507812 C 247.542969 310.628906 243.628906 314.335938 240.265625 318.539062 L 237.867188 321.535156 C 225.640625 336.828125 207.394531 345.59375 187.804688 345.59375 Z M 187.496094 137.027344 C 163.132812 137.027344 138.761719 145.015625 114.5625 161 C 98.476562 171.628906 88.878906 189.722656 88.878906 209.40625 L 88.878906 245.761719 C 88.878906 264.699219 98.117188 282.527344 113.585938 293.4375 L 126.890625 302.828125 C 131.746094 306.253906 136.097656 310.335938 139.824219 314.953125 L 142.382812 318.125 C 153.519531 331.921875 170.070312 339.839844 187.800781 339.839844 C 205.628906 339.839844 222.242188 331.855469 233.367188 317.933594 L 235.765625 314.941406 C 239.460938 310.324219 243.765625 306.246094 248.566406 302.820312 L 261.664062 293.460938 C 276.972656 282.53125 286.109375 264.78125 286.109375 245.976562 L 286.109375 209.398438 C 286.109375 189.714844 276.5 171.625 260.414062 160.992188 C 236.230469 145.015625 211.859375 137.027344 187.496094 137.027344 Z M 187.496094 137.027344 " fill-opacity="1" fill-rule="nonzero"/></g><path fill="#35668f" d="M 288.964844 205.71875 L 288.964844 238.375 L 275.914062 244.871094 L 275.914062 210.550781 C 251.828125 213.941406 237.167969 183.875 210.722656 192.671875 C 152.023438 212.273438 145.46875 173.125 145.46875 173.125 C 141.042969 195.199219 115.746094 202.328125 99.824219 204.628906 L 99.824219 244.871094 L 86.773438 238.375 L 86.027344 237.972656 L 86.027344 208.652344 L 86.140625 205.375 C 87.347656 186.519531 97.0625 169.097656 112.988281 158.578125 C 162.660156 125.75 212.332031 125.75 262.003906 158.578125 C 277.984375 169.097656 287.644531 186.632812 288.851562 205.605469 Z M 288.964844 205.71875 " fill-opacity="1" fill-rule="nonzero"/><path fill="#535c66" d="M 99.824219 247.746094 C 99.386719 247.746094 98.949219 247.640625 98.542969 247.445312 L 84.664062 240.507812 C 83.730469 240.007812 83.152344 239.035156 83.152344 237.976562 L 83.273438 205.277344 C 84.546875 185.300781 95.0625 166.976562 111.40625 156.179688 C 161.902344 122.8125 213.101562 122.8125 263.589844 156.179688 C 279.765625 166.828125 290.242188 184.988281 291.683594 204.839844 C 291.789062 205.128906 291.84375 205.433594 291.84375 205.71875 L 291.84375 238.375 C 291.84375 239.46875 291.230469 240.460938 290.253906 240.949219 L 277.195312 247.445312 C 276.304688 247.882812 275.25 247.835938 274.402344 247.320312 C 273.5625 246.796875 273.046875 245.871094 273.046875 244.875 L 273.046875 213.683594 C 262.382812 213.976562 253.644531 208.675781 245.117188 203.496094 C 234.597656 197.101562 224.628906 191.070312 211.640625 195.402344 C 188.949219 202.976562 170.996094 202.945312 158.300781 195.304688 C 151.730469 191.355469 147.851562 186.109375 145.597656 181.765625 C 137.472656 198.476562 116.738281 204.742188 102.714844 207.09375 L 102.714844 244.878906 C 102.714844 245.871094 102.203125 246.796875 101.351562 247.320312 C 100.875 247.601562 100.347656 247.746094 99.824219 247.746094 Z M 88.898438 236.226562 L 96.949219 240.230469 L 96.949219 204.628906 C 96.949219 203.195312 98 201.988281 99.414062 201.78125 C 113.789062 199.707031 138.527344 193.152344 142.652344 172.558594 C 142.921875 171.203125 144.0625 170.480469 145.511719 170.253906 C 146.894531 170.273438 148.070312 171.277344 148.304688 172.640625 C 148.320312 172.753906 150.390625 183.902344 161.347656 190.433594 C 172.546875 197.113281 188.851562 196.949219 209.820312 189.945312 C 225.359375 184.769531 236.917969 191.789062 248.097656 198.574219 C 257.023438 203.996094 265.410156 209.125 275.523438 207.699219 C 276.3125 207.578125 277.179688 207.832031 277.804688 208.375 C 278.433594 208.921875 278.796875 209.710938 278.796875 210.542969 L 278.796875 240.226562 L 286.101562 236.59375 L 286.101562 206.417969 C 286.039062 206.210938 286 206.003906 285.988281 205.785156 C 284.824219 187.496094 275.269531 170.742188 260.425781 160.976562 C 212.042969 129 162.96875 128.996094 114.582031 160.976562 C 99.730469 170.789062 90.175781 187.449219 89.015625 205.558594 L 88.898438 208.757812 Z M 88.898438 236.226562 " fill-opacity="1" fill-rule="nonzero"/><path fill="#535c66" d="M 327.511719 162.953125 C 325.925781 162.953125 324.636719 161.664062 324.636719 160.078125 L 324.636719 88.324219 C 324.636719 86.738281 325.925781 85.453125 327.511719 85.453125 C 329.097656 85.453125 330.386719 86.738281 330.386719 88.324219 L 330.386719 160.074219 C 330.386719 161.664062 329.105469 162.953125 327.511719 162.953125 Z M 327.511719 162.953125 " fill-opacity="1" fill-rule="nonzero"/><path fill="#535c66" d="M 328.128906 177.324219 C 323.367188 177.324219 319.503906 173.460938 319.503906 168.703125 C 319.503906 163.941406 323.367188 160.078125 328.128906 160.078125 C 332.886719 160.078125 336.75 163.941406 336.75 168.703125 C 336.75 173.46875 332.886719 177.324219 328.128906 177.324219 Z M 328.128906 177.324219 " fill-opacity="1" fill-rule="nonzero"/><path fill="#535c66" d="M 335.078125 173.765625 C 333.507812 175.917969 330.992188 177.324219 328.128906 177.324219 C 325.265625 177.324219 322.746094 175.917969 321.175781 173.765625 L 315.082031 202.542969 L 341.171875 202.542969 Z M 335.078125 173.765625 " fill-opacity="1" fill-rule="nonzero"/></svg>