<svg xmlns="http://www.w3.org/2000/svg" xmlns:xlink="http://www.w3.org/1999/xlink" width="500" zoomAndPan="magnify" viewBox="0 0 375 374.999991" height="500" preserveAspectRatio="xMidYMid meet" version="1.0"><defs><clipPath id="345c08e51d"><path d="M 155 134 L 219 134 L 219 320.941406 L 155 320.941406 Z M 155 134 " clip-rule="nonzero"/></clipPath><clipPath id="76dbb5e33d"><path d="M 106.863281 54 L 268.113281 54 L 268.113281 76 L 106.863281 76 Z M 106.863281 54 " clip-rule="nonzero"/></clipPath><clipPath id="4992fcadd6"><path d="M 106.863281 54 L 188 54 L 188 154 L 106.863281 154 Z M 106.863281 54 " clip-rule="nonzero"/></clipPath><clipPath id="44caa05aa9"><path d="M 187 54 L 268.113281 54 L 268.113281 154 L 187 154 Z M 187 54 " clip-rule="nonzero"/></clipPath></defs><path fill="#f2bb30" d="M 232.597656 239.273438 L 224.414062 262.429688 L 205.144531 247.203125 L 183.3125 135.503906 L 191.582031 133.113281 Z M 232.597656 239.273438 " fill-opacity="1" fill-rule="nonzero"/><g clip-path="url(#345c08e51d)"><path fill="#ffcd77" d="M 218.992188 282.179688 L 187.441406 320.675781 L 155.898438 282.179688 L 177.453125 134.3125 L 197.4375 134.3125 Z M 218.992188 282.179688 " fill-opacity="1" fill-rule="nonzero"/></g><path fill="#f2bb30" d="M 197.4375 134.3125 L 177.453125 134.3125 L 168.648438 114.167969 L 172.386719 103.167969 L 202.507812 103.167969 L 206.234375 114.167969 Z M 197.4375 134.3125 " fill-opacity="1" fill-rule="nonzero"/><g clip-path="url(#76dbb5e33d)"><path fill="#2a333b" d="M 115.765625 54.3125 L 259.113281 54.3125 L 268.066406 75.523438 L 106.8125 75.523438 Z M 115.765625 54.3125 " fill-opacity="1" fill-rule="nonzero"/></g><g clip-path="url(#4992fcadd6)"><path fill="#35668f" d="M 106.8125 75.523438 L 145.335938 153.550781 L 187.441406 103.167969 L 115.765625 54.3125 Z M 106.8125 75.523438 " fill-opacity="1" fill-rule="nonzero"/></g><g clip-path="url(#44caa05aa9)"><path fill="#35668f" d="M 259.113281 54.3125 L 187.441406 103.167969 L 229.550781 153.550781 L 268.066406 75.523438 Z M 259.113281 54.3125 " fill-opacity="1" fill-rule="nonzero"/></g></svg>