<svg xmlns="http://www.w3.org/2000/svg" xmlns:xlink="http://www.w3.org/1999/xlink" width="500" zoomAndPan="magnify" viewBox="0 0 375 374.999991" height="500" preserveAspectRatio="xMidYMid meet" version="1.0"><defs><clipPath id="bc71827638"><path d="M 28.410156 99 L 346.410156 99 L 346.410156 316.09375 L 28.410156 316.09375 Z M 28.410156 99 " clip-rule="nonzero"/></clipPath><clipPath id="fb1f488614"><path d="M 141 66.34375 L 234 66.34375 L 234 115 L 141 115 Z M 141 66.34375 " clip-rule="nonzero"/></clipPath><clipPath id="29e295d735"><path d="M 28.410156 99 L 346.410156 99 L 346.410156 238 L 28.410156 238 Z M 28.410156 99 " clip-rule="nonzero"/></clipPath></defs><g clip-path="url(#bc71827638)"><path fill="#1e2e49" d="M 327.148438 316.105469 L 47.851562 316.105469 C 37.21875 316.105469 28.523438 307.402344 28.523438 296.773438 L 28.523438 119.300781 C 28.523438 108.671875 37.21875 99.96875 47.851562 99.96875 L 327.148438 99.96875 C 337.777344 99.96875 346.476562 108.671875 346.476562 119.300781 L 346.476562 296.773438 C 346.476562 307.402344 337.777344 316.105469 327.148438 316.105469 " fill-opacity="1" fill-rule="nonzero"/></g><g clip-path="url(#fb1f488614)"><path fill="#1e2e49" d="M 233.726562 114.617188 L 223.863281 114.617188 L 223.863281 81.328125 C 223.863281 78.503906 221.558594 76.199219 218.734375 76.199219 L 156.265625 76.199219 C 153.4375 76.199219 151.136719 78.503906 151.136719 81.328125 L 151.136719 114.617188 L 141.277344 114.617188 L 141.277344 81.328125 C 141.277344 73.066406 148 66.335938 156.265625 66.335938 L 218.734375 66.335938 C 226.996094 66.335938 233.726562 73.066406 233.726562 81.328125 L 233.726562 114.617188 " fill-opacity="1" fill-rule="nonzero"/></g><g clip-path="url(#29e295d735)"><path fill="#35668f" d="M 324.800781 99.96875 L 50.199219 99.96875 C 38.273438 99.96875 28.523438 109.726562 28.523438 121.652344 L 28.523438 215.59375 C 28.523438 227.515625 38.273438 237.269531 50.199219 237.269531 L 324.800781 237.269531 C 336.722656 237.269531 346.476562 227.515625 346.476562 215.59375 L 346.476562 121.652344 C 346.476562 109.726562 336.722656 99.96875 324.800781 99.96875 " fill-opacity="1" fill-rule="nonzero"/></g><path fill="#ffcd77" d="M 211.804688 228.074219 L 163.1875 228.074219 C 161.082031 228.074219 159.355469 229.800781 159.355469 231.910156 L 159.355469 248.542969 C 159.355469 250.648438 161.082031 252.378906 163.1875 252.378906 L 211.804688 252.378906 C 213.914062 252.378906 215.644531 250.648438 215.644531 248.542969 L 215.644531 231.910156 C 215.644531 229.800781 213.914062 228.074219 211.804688 228.074219 " fill-opacity="1" fill-rule="nonzero"/></svg>