<svg xmlns="http://www.w3.org/2000/svg" xmlns:xlink="http://www.w3.org/1999/xlink" width="500" zoomAndPan="magnify" viewBox="0 0 375 374.999991" height="500" preserveAspectRatio="xMidYMid meet" version="1.0"><defs><clipPath id="06cbbace26"><path d="M 207 49.828125 L 266 49.828125 L 266 86 L 207 86 Z M 207 49.828125 " clip-rule="nonzero"/></clipPath><clipPath id="3a21958a1d"><path d="M 176 309 L 192 309 L 192 325.078125 L 176 325.078125 Z M 176 309 " clip-rule="nonzero"/></clipPath></defs><path fill="#ffcd77" d="M 188.453125 267.433594 C 187.859375 249.472656 187.292969 231.507812 186.894531 213.542969 C 186.5 195.617188 186.277344 177.691406 186.359375 159.765625 C 186.441406 141.65625 186.832031 123.546875 187.636719 105.457031 C 188.34375 89.5625 188.949219 73.648438 189.8125 57.761719 C 189.90625 56.019531 190.011719 54.277344 190.128906 52.535156 C 190.152344 52.160156 190.050781 51.863281 189.878906 51.640625 C 189.664062 51.269531 189.269531 51.023438 188.683594 51.089844 C 185.761719 51.429688 182.839844 51.765625 179.917969 52.105469 C 179.09375 52.199219 178.539062 52.691406 178.472656 53.550781 C 175.761719 88.730469 173.050781 123.933594 172.226562 159.222656 C 171.820312 176.75 171.878906 194.292969 172.640625 211.808594 C 173.394531 229.195312 175.289062 246.527344 175.664062 263.929688 C 176.085938 283.414062 175.613281 302.9375 175.484375 322.425781 C 175.480469 323.203125 176.152344 323.875 176.933594 323.871094 C 180.878906 323.847656 184.828125 323.824219 188.777344 323.800781 C 189.539062 323.792969 190.246094 323.140625 190.222656 322.355469 C 189.695312 304.046875 189.058594 285.742188 188.453125 267.433594 Z M 188.453125 267.433594 " fill-opacity="1" fill-rule="nonzero"/><path fill="#35668f" d="M 263.835938 86.421875 C 250.871094 76.464844 237.257812 67.367188 223.082031 59.226562 C 219.089844 56.929688 215.050781 54.714844 210.976562 52.570312 C 209.9375 52.023438 208.917969 52.726562 208.800781 53.820312 C 208.207031 59.414062 208.066406 65.039062 208.359375 70.660156 C 182.011719 69.117188 155.652344 67.6875 129.292969 66.371094 C 121.777344 65.996094 114.265625 65.628906 106.753906 65.273438 C 105.871094 65.230469 105.414062 65.855469 105.371094 66.539062 C 104.773438 66.667969 104.234375 67.113281 104.164062 67.878906 C 102.710938 84.480469 102.640625 101.1875 103.960938 117.800781 C 104.027344 118.632812 104.574219 119.175781 105.410156 119.246094 C 134.128906 121.671875 162.980469 122.507812 191.792969 121.730469 C 199.484375 121.523438 207.171875 121.1875 214.855469 120.753906 C 216.359375 128.921875 219.519531 136.726562 224.226562 143.617188 C 224.800781 144.464844 226.183594 144.640625 226.71875 143.617188 C 234.734375 128.320312 244.097656 113.71875 254.730469 100.109375 C 257.765625 96.222656 260.902344 92.417969 264.128906 88.695312 C 264.796875 87.921875 264.605469 87.015625 263.835938 86.421875 Z M 263.835938 86.421875 " fill-opacity="1" fill-rule="nonzero"/><path fill="#1e2e49" d="M 243.84375 178.644531 C 243.777344 177.835938 243.230469 177.238281 242.398438 177.199219 C 215.699219 175.910156 189.003906 174.621094 162.308594 173.335938 C 154.96875 172.980469 147.628906 172.625 140.289062 172.273438 C 140.394531 167.613281 141.402344 163.015625 143.339844 158.75 C 143.882812 157.554688 142.6875 155.898438 141.363281 156.773438 C 127.71875 165.789062 113.714844 174.261719 99.382812 182.148438 C 95.28125 184.40625 91.148438 186.613281 86.996094 188.777344 C 86.171875 189.207031 86.0625 190.421875 86.703125 191.050781 C 98.277344 202.347656 109.855469 213.644531 121.429688 224.945312 C 124.753906 228.1875 128.078125 231.433594 131.402344 234.675781 C 132.289062 235.542969 133.878906 234.921875 133.871094 233.65625 C 133.847656 229.921875 133.820312 226.191406 133.796875 222.457031 C 148.269531 222.324219 162.78125 221.949219 177.242188 222.609375 C 192.085938 223.285156 206.753906 225.871094 221.578125 226.714844 C 229.894531 227.183594 238.230469 227.019531 246.464844 225.667969 C 247.042969 225.574219 247.570312 224.855469 247.523438 224.273438 C 246.296875 209.066406 245.070312 193.855469 243.84375 178.644531 Z M 243.84375 178.644531 " fill-opacity="1" fill-rule="nonzero"/><path fill="#35668f" d="M 285.945312 275.832031 C 285.902344 275.777344 285.863281 275.722656 285.808594 275.667969 C 273.726562 263.578125 258.886719 254.828125 243.769531 247.082031 C 239.441406 244.863281 235.070312 242.71875 230.703125 240.574219 C 229.710938 240.085938 228.570312 240.675781 228.527344 241.820312 C 228.3125 247.78125 228.09375 253.746094 227.878906 259.707031 C 203.820312 260.960938 179.785156 262.707031 155.800781 264.957031 C 148.902344 265.605469 142.007812 266.292969 135.117188 267.023438 C 134.628906 267.074219 134.273438 267.320312 134.042969 267.644531 C 133.613281 267.851562 133.277344 268.257812 133.238281 268.867188 C 132.429688 282.746094 133.511719 296.695312 136.410156 310.292969 C 136.53125 310.875 137.203125 311.398438 137.800781 311.355469 C 162.269531 309.601562 186.796875 308.972656 211.308594 308.21875 C 217.769531 308.019531 224.230469 307.820312 230.691406 307.617188 C 230.5625 311.578125 230.957031 315.523438 231.832031 319.394531 C 232.027344 320.246094 233.210938 320.792969 233.957031 320.257812 C 241.332031 314.992188 248.703125 309.730469 256.078125 304.464844 C 263.25 299.347656 270.445312 294.289062 276.988281 288.363281 C 280.632812 285.0625 284.128906 281.597656 287.625 278.136719 C 288.835938 276.941406 287.238281 275.140625 285.945312 275.832031 Z M 285.945312 275.832031 " fill-opacity="1" fill-rule="nonzero"/><path fill="#35668f" d="M 86.496094 191.207031 C 101.265625 182.679688 115.808594 173.761719 130.097656 164.457031 C 134.148438 161.820312 138.179688 159.152344 142.191406 156.453125 C 141.824219 156.304688 141.457031 156.152344 141.089844 156.003906 C 141.980469 161.351562 141.921875 166.816406 140.929688 172.144531 C 140.753906 173.085938 142.199219 173.492188 142.375 172.542969 C 143.421875 166.933594 143.472656 161.234375 142.535156 155.605469 C 142.457031 155.144531 141.808594 154.910156 141.4375 155.160156 C 127.285156 164.675781 112.882812 173.820312 98.246094 182.570312 C 94.09375 185.050781 89.925781 187.496094 85.742188 189.914062 C 84.90625 190.398438 85.660156 191.691406 86.496094 191.207031 Z M 86.496094 191.207031 " fill-opacity="1" fill-rule="nonzero"/><path fill="#35668f" d="M 85.875 191.484375 C 92.804688 196.8125 99.300781 202.703125 105.28125 209.082031 C 110.992188 215.175781 116.027344 221.859375 121.71875 227.96875 C 124.847656 231.328125 128.199219 234.464844 131.921875 237.164062 C 132.28125 237.425781 132.953125 237.167969 133.019531 236.714844 C 133.660156 232.390625 134.292969 228.0625 134.929688 223.738281 C 135.070312 222.792969 133.625 222.386719 133.484375 223.339844 C 132.847656 227.664062 132.214844 231.988281 131.574219 236.316406 C 131.941406 236.167969 132.308594 236.015625 132.675781 235.867188 C 125.941406 230.980469 120.550781 224.574219 115.242188 218.230469 C 109.75 211.667969 104.070312 205.324219 97.757812 199.527344 C 94.191406 196.25 90.472656 193.140625 86.628906 190.1875 C 85.867188 189.601562 85.121094 190.902344 85.875 191.484375 Z M 85.875 191.484375 " fill-opacity="1" fill-rule="nonzero"/><path fill="#35668f" d="M 134.847656 223.390625 C 155.675781 221.007812 176.625 222.921875 197.4375 224.492188 C 207.871094 225.28125 218.328125 225.984375 228.796875 226.019531 C 231.476562 226.027344 234.152344 225.992188 236.828125 225.902344 C 239.296875 225.816406 241.828125 225.800781 244.28125 225.488281 C 246.394531 225.222656 247.1875 223.75 247.171875 221.746094 C 247.152344 219.1875 246.964844 216.621094 246.824219 214.070312 C 246.152344 202.121094 244.921875 190.207031 243.160156 178.371094 C 243.015625 177.417969 241.574219 177.824219 241.714844 178.769531 C 243.242188 189.054688 244.363281 199.398438 245.058594 209.769531 C 245.230469 212.296875 245.375 214.820312 245.492188 217.351562 C 245.550781 218.578125 245.605469 219.808594 245.652344 221.039062 C 245.695312 222.222656 245.839844 223.648438 244.394531 223.964844 C 243.257812 224.210938 242 224.160156 240.84375 224.226562 C 239.503906 224.296875 238.167969 224.355469 236.828125 224.402344 C 234.285156 224.488281 231.742188 224.523438 229.199219 224.519531 C 209.046875 224.492188 189.015625 221.957031 168.902344 221.0625 C 157.546875 220.558594 146.152344 220.601562 134.851562 221.890625 C 133.902344 222 133.890625 223.5 134.847656 223.390625 Z M 134.847656 223.390625 " fill-opacity="1" fill-rule="nonzero"/><path fill="#35668f" d="M 141.785156 173.414062 C 168.027344 175.949219 194.347656 177.621094 220.699219 178.410156 C 228.152344 178.632812 235.601562 178.785156 243.054688 178.871094 C 244.019531 178.882812 244.019531 177.382812 243.054688 177.371094 C 216.695312 177.074219 190.34375 175.90625 164.0625 173.859375 C 156.628906 173.28125 149.207031 172.632812 141.785156 171.914062 C 140.824219 171.820312 140.832031 173.320312 141.785156 173.414062 Z M 141.785156 173.414062 " fill-opacity="1" fill-rule="nonzero"/><path fill="#35668f" d="M 137.492188 312.765625 C 136.425781 303.457031 135.539062 294.125 134.84375 284.78125 C 134.5 280.179688 134.203125 275.570312 133.953125 270.960938 C 133.902344 269.984375 133.667969 268.691406 134.457031 267.9375 C 135.101562 267.324219 136.226562 267.238281 137.0625 267.113281 C 139.417969 266.765625 141.78125 266.445312 144.144531 266.144531 C 153.261719 264.984375 162.421875 264.144531 171.597656 263.628906 C 180.726562 263.117188 189.867188 263.050781 199 262.71875 C 209.050781 262.351562 219.125 261.578125 228.945312 259.3125 C 229.886719 259.09375 229.488281 257.648438 228.546875 257.867188 C 210.230469 262.097656 191.261719 261.074219 172.617188 262.074219 C 163.167969 262.582031 153.734375 263.429688 144.347656 264.621094 C 142.050781 264.910156 139.761719 265.222656 137.46875 265.550781 C 135.871094 265.78125 133.859375 265.9375 132.910156 267.464844 C 131.925781 269.058594 132.480469 271.484375 132.582031 273.230469 C 132.722656 275.636719 132.871094 278.046875 133.035156 280.453125 C 133.769531 291.242188 134.761719 302.019531 135.996094 312.765625 C 136.101562 313.714844 137.605469 313.722656 137.492188 312.765625 Z M 137.492188 312.765625 " fill-opacity="1" fill-rule="nonzero"/><path fill="#35668f" d="M 136.390625 312.453125 C 160.074219 309.199219 184.03125 310.601562 207.84375 309.792969 C 214.496094 309.566406 221.144531 309.160156 227.761719 308.445312 C 227.523438 308.261719 227.28125 308.078125 227.039062 307.894531 C 227.703125 312.734375 228.878906 317.472656 230.550781 322.058594 C 230.878906 322.957031 232.328125 322.570312 231.996094 321.660156 C 230.324219 317.074219 229.148438 312.335938 228.484375 307.496094 C 228.445312 307.203125 228.054688 306.914062 227.761719 306.945312 C 203.9375 309.515625 179.941406 307.976562 156.050781 309.183594 C 149.34375 309.519531 142.648438 310.09375 135.992188 311.007812 C 135.039062 311.136719 135.445312 312.582031 136.390625 312.453125 Z M 136.390625 312.453125 " fill-opacity="1" fill-rule="nonzero"/><path fill="#35668f" d="M 228.722656 259.589844 C 228.597656 252.988281 228.652344 246.386719 228.886719 239.792969 C 228.570312 240.035156 228.253906 240.273438 227.9375 240.515625 C 232.273438 241.148438 236.101562 243.257812 239.777344 245.535156 C 243.75 248.003906 247.6875 250.527344 251.640625 253.027344 C 259.59375 258.050781 267.609375 262.988281 275.460938 268.164062 C 279.804688 271.023438 284.070312 274.007812 288.132812 277.253906 C 288.878906 277.851562 289.949219 276.796875 289.195312 276.195312 C 281.925781 270.386719 274.058594 265.421875 266.203125 260.457031 C 257.960938 255.246094 249.722656 250.023438 241.46875 244.828125 C 237.40625 242.273438 233.160156 239.773438 228.335938 239.070312 C 227.847656 239 227.40625 239.261719 227.386719 239.792969 C 227.152344 246.390625 227.101562 252.988281 227.226562 259.589844 C 227.242188 260.550781 228.742188 260.554688 228.722656 259.589844 Z M 228.722656 259.589844 " fill-opacity="1" fill-rule="nonzero"/><path fill="#35668f" d="M 232.351562 322.925781 C 248.574219 313.050781 263.839844 301.605469 277.851562 288.785156 C 281.835938 285.140625 285.714844 281.382812 289.492188 277.527344 C 290.167969 276.835938 289.109375 275.773438 288.429688 276.464844 C 275.191406 289.992188 260.648438 302.234375 245.039062 312.945312 C 240.636719 315.964844 236.152344 318.859375 231.59375 321.632812 C 230.773438 322.132812 231.523438 323.429688 232.351562 322.925781 Z M 232.351562 322.925781 " fill-opacity="1" fill-rule="nonzero"/><path fill="#35668f" d="M 104.492188 118.441406 C 104.03125 104.753906 104.597656 91.039062 106.214844 77.4375 C 106.6875 73.464844 107.257812 69.507812 107.90625 65.558594 C 107.730469 65.734375 107.558594 65.910156 107.382812 66.082031 C 114.125 64.855469 121 65.511719 127.742188 66.367188 C 134.394531 67.207031 141.042969 68.046875 147.71875 68.671875 C 161.242188 69.933594 174.824219 70.578125 188.410156 70.601562 C 196.09375 70.613281 203.773438 70.425781 211.449219 70.042969 C 212.410156 69.996094 212.414062 68.496094 211.449219 68.542969 C 184.011719 69.910156 156.589844 68.617188 129.355469 65.074219 C 121.929688 64.109375 114.417969 63.285156 106.984375 64.636719 C 106.753906 64.679688 106.5 64.929688 106.460938 65.164062 C 104.210938 78.808594 102.988281 92.617188 102.847656 106.449219 C 102.804688 110.445312 102.859375 114.445312 102.992188 118.445312 C 103.027344 119.40625 104.527344 119.410156 104.492188 118.441406 Z M 104.492188 118.441406 " fill-opacity="1" fill-rule="nonzero"/><path fill="#35668f" d="M 104.3125 118.890625 C 118.539062 119.445312 132.761719 120.046875 146.988281 120.515625 C 161.171875 120.980469 175.363281 121.277344 189.554688 121.074219 C 197.539062 120.960938 205.523438 120.683594 213.496094 120.195312 C 214.453125 120.136719 214.460938 118.636719 213.496094 118.695312 C 199.335938 119.5625 185.144531 119.753906 170.960938 119.585938 C 156.765625 119.414062 142.582031 118.886719 128.398438 118.332031 C 120.371094 118.019531 112.34375 117.703125 104.3125 117.390625 C 103.351562 117.351562 103.351562 118.851562 104.3125 118.890625 Z M 104.3125 118.890625 " fill-opacity="1" fill-rule="nonzero"/><path fill="#35668f" d="M 212.984375 120.226562 C 216.417969 128.746094 220.042969 137.183594 223.867188 145.535156 C 224.101562 146.050781 224.910156 146 225.160156 145.535156 C 234.019531 129.210938 243.992188 113.492188 255.003906 98.53125 C 258.15625 94.25 261.394531 90.035156 264.710938 85.878906 C 265.308594 85.132812 264.253906 84.066406 263.652344 84.820312 C 251.976562 99.433594 241.296875 114.832031 231.742188 130.914062 C 229.027344 135.484375 226.402344 140.109375 223.867188 144.78125 C 224.296875 144.78125 224.730469 144.78125 225.160156 144.78125 C 221.390625 136.546875 217.8125 128.226562 214.429688 119.824219 C 214.074219 118.945312 212.621094 119.328125 212.984375 120.226562 Z M 212.984375 120.226562 " fill-opacity="1" fill-rule="nonzero"/><g clip-path="url(#06cbbace26)"><path fill="#35668f" d="M 208.496094 68.996094 C 208.582031 62.894531 209.328125 56.832031 210.730469 50.894531 C 210.421875 51.066406 210.117188 51.242188 209.808594 51.417969 C 225.644531 57.609375 238.015625 69.75 252.164062 78.785156 C 256.183594 81.351562 260.367188 83.667969 264.757812 85.535156 C 265.636719 85.90625 266.402344 84.617188 265.515625 84.242188 C 249.699219 77.527344 237.328125 65.207031 222.816406 56.324219 C 218.796875 53.859375 214.601562 51.691406 210.207031 49.972656 C 209.839844 49.828125 209.371094 50.132812 209.285156 50.496094 C 207.855469 56.5625 207.085938 62.765625 207 68.996094 C 206.984375 69.960938 208.484375 69.960938 208.496094 68.996094 Z M 208.496094 68.996094 " fill-opacity="1" fill-rule="nonzero"/></g><path fill="#35668f" d="M 175.664062 262.683594 C 175.386719 249.402344 175.109375 236.121094 174.828125 222.84375 C 174.808594 221.878906 173.3125 221.875 173.332031 222.84375 C 173.609375 236.121094 173.886719 249.402344 174.164062 262.683594 C 174.183594 263.644531 175.683594 263.648438 175.664062 262.683594 Z M 175.664062 262.683594 " fill-opacity="1" fill-rule="nonzero"/><path fill="#35668f" d="M 173.121094 174.421875 C 173.085938 158.261719 173.675781 142.101562 174.878906 125.984375 C 174.949219 125.023438 173.453125 125.027344 173.378906 125.984375 C 172.175781 142.101562 171.589844 158.261719 171.621094 174.421875 C 171.625 175.386719 173.121094 175.390625 173.121094 174.421875 Z M 173.121094 174.421875 " fill-opacity="1" fill-rule="nonzero"/><path fill="#35668f" d="M 178.234375 69.339844 C 178.082031 63.214844 178.507812 57.09375 179.53125 51.054688 C 179.289062 51.238281 179.050781 51.421875 178.808594 51.605469 C 182.597656 51.457031 186.390625 51.5 190.175781 51.730469 C 191.140625 51.785156 191.136719 50.289062 190.175781 50.230469 C 186.390625 50 182.597656 49.960938 178.808594 50.105469 C 178.507812 50.117188 178.140625 50.328125 178.085938 50.65625 C 177.039062 56.828125 176.578125 63.082031 176.734375 69.339844 C 176.761719 70.300781 178.261719 70.304688 178.234375 69.339844 Z M 178.234375 69.339844 " fill-opacity="1" fill-rule="nonzero"/><path fill="#35668f" d="M 190.917969 69.683594 C 190.917969 63.386719 190.917969 57.09375 190.917969 50.796875 C 190.917969 49.832031 189.421875 49.832031 189.421875 50.796875 C 189.421875 57.09375 189.421875 63.386719 189.421875 69.683594 C 189.421875 70.648438 190.917969 70.648438 190.917969 69.683594 Z M 190.917969 69.683594 " fill-opacity="1" fill-rule="nonzero"/><path fill="#35668f" d="M 187.460938 175.453125 C 188.101562 158.507812 188.742188 141.566406 189.382812 124.621094 C 189.417969 123.660156 187.921875 123.660156 187.882812 124.621094 C 187.242188 141.566406 186.601562 158.507812 185.960938 175.453125 C 185.925781 176.417969 187.421875 176.414062 187.460938 175.453125 Z M 187.460938 175.453125 " fill-opacity="1" fill-rule="nonzero"/><path fill="#35668f" d="M 189.136719 262.332031 C 189.597656 249.964844 189.214844 237.582031 187.996094 225.265625 C 187.902344 224.3125 186.402344 224.304688 186.496094 225.265625 C 187.714844 237.582031 188.097656 249.964844 187.636719 262.332031 C 187.601562 263.296875 189.101562 263.296875 189.136719 262.332031 Z M 189.136719 262.332031 " fill-opacity="1" fill-rule="nonzero"/><path fill="#35668f" d="M 176.957031 324.144531 C 176.644531 318.996094 176.335938 313.851562 176.023438 308.703125 C 175.96875 307.746094 174.46875 307.738281 174.527344 308.703125 C 174.835938 313.851562 175.148438 318.996094 175.457031 324.144531 C 175.515625 325.101562 177.015625 325.109375 176.957031 324.144531 Z M 176.957031 324.144531 " fill-opacity="1" fill-rule="nonzero"/><g clip-path="url(#3a21958a1d)"><path fill="#35668f" d="M 176.769531 325.054688 C 181.460938 324.878906 186.15625 324.828125 190.847656 324.898438 C 191.242188 324.90625 191.613281 324.550781 191.597656 324.148438 C 191.40625 319.445312 191.050781 314.753906 190.527344 310.078125 C 190.421875 309.128906 188.921875 309.117188 189.03125 310.078125 C 189.550781 314.753906 189.910156 319.445312 190.097656 324.148438 C 190.347656 323.898438 190.597656 323.648438 190.847656 323.398438 C 186.15625 323.328125 181.460938 323.382812 176.769531 323.554688 C 175.808594 323.59375 175.804688 325.089844 176.769531 325.054688 Z M 176.769531 325.054688 " fill-opacity="1" fill-rule="nonzero"/></g><path fill="#35668f" d="M 110.445312 113.128906 C 113.449219 102.082031 117.382812 91.304688 122.214844 80.929688 C 122.621094 80.058594 121.328125 79.296875 120.921875 80.171875 C 116.035156 90.667969 112.039062 101.558594 109 112.730469 C 108.746094 113.660156 110.191406 114.058594 110.445312 113.128906 Z M 110.445312 113.128906 " fill-opacity="1" fill-rule="nonzero"/><path fill="#35668f" d="M 115.570312 113.453125 C 119.214844 103.828125 122.859375 94.207031 126.5 84.585938 C 126.84375 83.679688 125.394531 83.292969 125.054688 84.183594 C 121.414062 93.808594 117.769531 103.429688 114.125 113.054688 C 113.785156 113.957031 115.234375 114.347656 115.570312 113.453125 Z M 115.570312 113.453125 " fill-opacity="1" fill-rule="nonzero"/><path fill="#35668f" d="M 123.785156 113.800781 C 125.890625 105.875 128.796875 98.1875 132.476562 90.855469 C 132.910156 89.996094 131.617188 89.238281 131.183594 90.101562 C 127.445312 97.542969 124.476562 105.351562 122.339844 113.402344 C 122.089844 114.335938 123.535156 114.734375 123.785156 113.800781 Z M 123.785156 113.800781 " fill-opacity="1" fill-rule="nonzero"/><path fill="#35668f" d="M 233.214844 120.898438 C 241.136719 110.660156 248.886719 100.289062 256.453125 89.78125 C 257.015625 89 255.714844 88.25 255.15625 89.027344 C 247.667969 99.425781 240 109.699219 232.15625 119.839844 C 231.574219 120.59375 232.625 121.660156 233.214844 120.898438 Z M 233.214844 120.898438 " fill-opacity="1" fill-rule="nonzero"/><path fill="#35668f" d="M 253.097656 84.976562 C 253.710938 85.433594 254.320312 85.890625 254.929688 86.347656 C 255.074219 86.457031 255.339844 86.46875 255.507812 86.425781 C 255.683594 86.378906 255.871094 86.242188 255.957031 86.078125 C 256.046875 85.90625 256.09375 85.695312 256.03125 85.503906 C 256.007812 85.441406 255.980469 85.382812 255.957031 85.324219 C 255.890625 85.210938 255.800781 85.121094 255.6875 85.054688 C 255.078125 84.597656 254.464844 84.140625 253.855469 83.679688 C 253.710938 83.570312 253.445312 83.558594 253.277344 83.605469 C 253.105469 83.652344 252.914062 83.789062 252.828125 83.949219 C 252.738281 84.125 252.691406 84.335938 252.753906 84.527344 C 252.777344 84.585938 252.804688 84.648438 252.828125 84.707031 C 252.894531 84.816406 252.984375 84.90625 253.097656 84.976562 Z M 253.097656 84.976562 " fill-opacity="1" fill-rule="nonzero"/><path fill="#35668f" d="M 215.351562 60.429688 C 225.242188 65.96875 234.796875 72.089844 243.964844 78.761719 C 244.746094 79.332031 245.492188 78.03125 244.71875 77.46875 C 235.554688 70.796875 226 64.671875 216.105469 59.132812 C 215.265625 58.664062 214.507812 59.957031 215.351562 60.429688 Z M 215.351562 60.429688 " fill-opacity="1" fill-rule="nonzero"/><path fill="#35668f" d="M 97.363281 197.179688 C 106.859375 206.449219 116.289062 215.796875 125.640625 225.214844 C 126.324219 225.902344 127.382812 224.839844 126.703125 224.15625 C 117.347656 214.738281 107.921875 205.390625 98.421875 196.117188 C 97.730469 195.445312 96.671875 196.503906 97.363281 197.179688 Z M 97.363281 197.179688 " fill-opacity="1" fill-rule="nonzero"/><path fill="#35668f" d="M 130.550781 224.902344 C 130.621094 224.058594 130.691406 223.222656 130.765625 222.378906 C 130.777344 222.199219 130.667969 221.976562 130.542969 221.851562 C 130.414062 221.722656 130.203125 221.621094 130.015625 221.632812 C 129.578125 221.652344 129.300781 221.960938 129.265625 222.378906 C 129.195312 223.222656 129.121094 224.058594 129.050781 224.902344 C 129.035156 225.082031 129.148438 225.304688 129.273438 225.429688 C 129.402344 225.558594 129.613281 225.65625 129.800781 225.648438 C 130.234375 225.628906 130.515625 225.320312 130.550781 224.902344 Z M 130.550781 224.902344 " fill-opacity="1" fill-rule="nonzero"/><path fill="#35668f" d="M 99.890625 187.578125 C 112.320312 180.730469 124.296875 173.082031 135.738281 164.683594 C 136.507812 164.121094 135.761719 162.816406 134.980469 163.390625 C 123.542969 171.785156 111.566406 179.433594 99.136719 186.28125 C 98.289062 186.75 99.046875 188.042969 99.890625 187.578125 Z M 99.890625 187.578125 " fill-opacity="1" fill-rule="nonzero"/><path fill="#35668f" d="M 137.707031 169.957031 C 137.648438 169.394531 137.632812 168.828125 137.664062 168.265625 C 137.675781 167.988281 137.703125 167.710938 137.734375 167.4375 C 137.714844 167.609375 137.742188 167.390625 137.746094 167.371094 C 137.757812 167.304688 137.765625 167.242188 137.777344 167.175781 C 137.804688 167.019531 137.832031 166.867188 137.863281 166.71875 C 137.945312 166.335938 137.753906 165.890625 137.339844 165.796875 C 136.964844 165.710938 136.507812 165.910156 136.417969 166.320312 C 136.167969 167.515625 136.085938 168.742188 136.207031 169.957031 C 136.246094 170.347656 136.523438 170.726562 136.957031 170.707031 C 137.328125 170.691406 137.746094 170.375 137.707031 169.957031 Z M 137.707031 169.957031 " fill-opacity="1" fill-rule="nonzero"/><path fill="#35668f" d="M 236.941406 185.984375 C 237.304688 197.675781 237.949219 209.359375 238.871094 221.019531 C 238.945312 221.976562 240.445312 221.984375 240.367188 221.019531 C 239.445312 209.359375 238.804688 197.675781 238.441406 185.984375 C 238.410156 185.023438 236.914062 185.019531 236.941406 185.984375 Z M 236.941406 185.984375 " fill-opacity="1" fill-rule="nonzero"/><path fill="#35668f" d="M 149.078125 218.339844 C 168.664062 218.003906 188.257812 218.007812 207.847656 218.355469 C 213.363281 218.453125 218.882812 218.582031 224.398438 218.734375 C 225.363281 218.761719 225.363281 217.261719 224.398438 217.234375 C 204.816406 216.691406 185.222656 216.492188 165.632812 216.636719 C 160.113281 216.679688 154.597656 216.75 149.078125 216.84375 C 148.117188 216.859375 148.113281 218.359375 149.078125 218.339844 Z M 149.078125 218.339844 " fill-opacity="1" fill-rule="nonzero"/><path fill="#35668f" d="M 240.28125 267.167969 C 247.574219 274.300781 254.867188 281.433594 262.160156 288.566406 C 262.851562 289.242188 263.910156 288.183594 263.21875 287.507812 C 255.925781 280.375 248.636719 273.242188 241.34375 266.109375 C 240.652344 265.433594 239.589844 266.492188 240.28125 267.167969 Z M 240.28125 267.167969 " fill-opacity="1" fill-rule="nonzero"/><path fill="#35668f" d="M 242.503906 260.375 C 250.089844 268.574219 257.789062 276.671875 265.597656 284.660156 C 266.273438 285.351562 267.332031 284.292969 266.65625 283.601562 C 258.847656 275.609375 251.148438 267.515625 243.5625 259.316406 C 242.90625 258.605469 241.847656 259.667969 242.503906 260.375 Z M 242.503906 260.375 " fill-opacity="1" fill-rule="nonzero"/><path fill="#35668f" d="M 248.351562 258.867188 C 255.796875 266.085938 262.875 273.675781 269.558594 281.601562 C 270.183594 282.339844 271.238281 281.277344 270.621094 280.542969 C 263.933594 272.617188 256.855469 265.027344 249.414062 257.808594 C 248.71875 257.136719 247.660156 258.195312 248.351562 258.867188 Z M 248.351562 258.867188 " fill-opacity="1" fill-rule="nonzero"/><path fill="#35668f" d="M 142.84375 308.019531 C 141.40625 298.117188 139.972656 288.21875 138.535156 278.316406 C 138.398438 277.367188 136.953125 277.769531 137.089844 278.714844 C 138.527344 288.617188 139.960938 298.515625 141.398438 308.417969 C 141.539062 309.367188 142.980469 308.964844 142.84375 308.019531 Z M 142.84375 308.019531 " fill-opacity="1" fill-rule="nonzero"/><path fill="#35668f" d="M 139.0625 274.125 C 139.0625 273.820312 139.0625 273.515625 139.0625 273.210938 C 139.0625 273.019531 138.980469 272.816406 138.84375 272.679688 C 138.777344 272.609375 138.695312 272.554688 138.601562 272.527344 C 138.515625 272.480469 138.417969 272.457031 138.3125 272.460938 C 138.121094 272.46875 137.917969 272.535156 137.785156 272.679688 C 137.648438 272.828125 137.566406 273.007812 137.566406 273.210938 C 137.566406 273.515625 137.566406 273.820312 137.566406 274.125 C 137.566406 274.320312 137.648438 274.519531 137.785156 274.65625 C 137.851562 274.730469 137.933594 274.78125 138.027344 274.8125 C 138.113281 274.859375 138.210938 274.878906 138.316406 274.875 C 138.507812 274.867188 138.710938 274.804688 138.84375 274.65625 C 138.980469 274.507812 139.0625 274.328125 139.0625 274.125 Z M 139.0625 274.125 " fill-opacity="1" fill-rule="nonzero"/><path fill="#35668f" d="M 185.714844 303.019531 C 195.554688 303.378906 205.398438 303.742188 215.242188 304.101562 C 216.207031 304.136719 216.203125 302.636719 215.242188 302.601562 C 205.398438 302.242188 195.558594 301.882812 185.714844 301.519531 C 184.75 301.484375 184.75 302.984375 185.714844 303.019531 Z M 185.714844 303.019531 " fill-opacity="1" fill-rule="nonzero"/><path fill="#35668f" d="M 221.957031 304.304688 C 222.5 304.5625 223.105469 304.707031 223.707031 304.632812 C 223.8125 304.636719 223.90625 304.613281 223.996094 304.566406 C 224.089844 304.539062 224.171875 304.484375 224.238281 304.414062 C 224.367188 304.28125 224.464844 304.070312 224.457031 303.882812 C 224.449219 303.6875 224.386719 303.488281 224.238281 303.351562 C 224.101562 303.226562 223.902344 303.109375 223.707031 303.132812 C 223.5 303.160156 223.289062 303.15625 223.078125 303.128906 C 223.144531 303.140625 223.210938 303.148438 223.277344 303.15625 C 223.058594 303.125 222.847656 303.070312 222.644531 302.984375 C 222.707031 303.007812 222.765625 303.035156 222.824219 303.058594 C 222.789062 303.042969 222.75 303.027344 222.714844 303.011719 C 222.53125 302.921875 222.339844 302.878906 222.136719 302.933594 C 221.960938 302.980469 221.773438 303.117188 221.6875 303.277344 C 221.597656 303.453125 221.550781 303.664062 221.613281 303.855469 C 221.671875 304.035156 221.785156 304.222656 221.957031 304.304688 Z M 221.957031 304.304688 " fill-opacity="1" fill-rule="nonzero"/><path fill="#35668f" d="M 219.207031 118.335938 C 219.59375 119.695312 219.976562 121.058594 220.363281 122.421875 C 220.46875 122.800781 220.898438 123.070312 221.285156 122.945312 C 221.667969 122.820312 221.921875 122.425781 221.808594 122.023438 C 221.425781 120.664062 221.039062 119.300781 220.652344 117.9375 C 220.546875 117.5625 220.117188 117.289062 219.730469 117.414062 C 219.347656 117.539062 219.09375 117.933594 219.207031 118.335938 Z M 219.207031 118.335938 " fill-opacity="1" fill-rule="nonzero"/><path fill="#35668f" d="M 216.53125 113.507812 C 216.652344 113.964844 216.773438 114.417969 216.894531 114.875 C 216.941406 115.058594 217.078125 115.230469 217.238281 115.324219 C 217.398438 115.417969 217.636719 115.457031 217.816406 115.398438 C 218 115.339844 218.175781 115.226562 218.265625 115.054688 C 218.359375 114.875 218.394531 114.675781 218.339844 114.476562 C 218.21875 114.019531 218.097656 113.566406 217.976562 113.109375 C 217.929688 112.925781 217.792969 112.753906 217.632812 112.660156 C 217.472656 112.566406 217.234375 112.527344 217.054688 112.585938 C 216.875 112.644531 216.699219 112.753906 216.609375 112.929688 C 216.511719 113.109375 216.480469 113.308594 216.53125 113.507812 Z M 216.53125 113.507812 " fill-opacity="1" fill-rule="nonzero"/><path fill="#35668f" d="M 220.734375 183.40625 C 221.945312 183.542969 223.199219 183.40625 224.359375 183.023438 C 224.730469 182.898438 225.011719 182.5 224.882812 182.101562 C 224.761719 181.730469 224.359375 181.445312 223.960938 181.578125 C 223.679688 181.667969 223.394531 181.75 223.109375 181.808594 C 222.984375 181.835938 222.859375 181.859375 222.734375 181.882812 C 222.703125 181.886719 222.433594 181.9375 222.621094 181.898438 C 222.5625 181.910156 222.496094 181.914062 222.433594 181.921875 C 221.867188 181.976562 221.300781 181.96875 220.734375 181.90625 C 220.34375 181.859375 219.96875 182.28125 219.984375 182.65625 C 220.003906 183.101562 220.316406 183.359375 220.734375 183.40625 Z M 220.734375 183.40625 " fill-opacity="1" fill-rule="nonzero"/><path fill="#35668f" d="M 231.378906 182.726562 C 232.34375 182.726562 232.34375 181.226562 231.378906 181.226562 C 230.414062 181.226562 230.410156 182.726562 231.378906 182.726562 Z M 231.378906 182.726562 " fill-opacity="1" fill-rule="nonzero"/><path fill="#35668f" d="M 154.453125 269.265625 C 155.371094 269.265625 156.285156 269.265625 157.203125 269.265625 C 157.59375 269.265625 157.96875 268.921875 157.949219 268.515625 C 157.933594 268.109375 157.621094 267.765625 157.203125 267.765625 C 156.285156 267.765625 155.371094 267.765625 154.453125 267.765625 C 154.0625 267.765625 153.6875 268.113281 153.703125 268.515625 C 153.722656 268.921875 154.035156 269.265625 154.453125 269.265625 Z M 154.453125 269.265625 " fill-opacity="1" fill-rule="nonzero"/><path fill="#35668f" d="M 164.414062 269.265625 C 165.101562 269.265625 165.789062 269.265625 166.472656 269.265625 C 166.867188 269.265625 167.242188 268.921875 167.222656 268.515625 C 167.207031 268.109375 166.894531 267.765625 166.472656 267.765625 C 165.789062 267.765625 165.101562 267.765625 164.414062 267.765625 C 164.019531 267.765625 163.644531 268.113281 163.664062 268.515625 C 163.683594 268.921875 163.992188 269.265625 164.414062 269.265625 Z M 164.414062 269.265625 " fill-opacity="1" fill-rule="nonzero"/><path fill="#35668f" d="M 248.203125 305.839844 C 249.417969 305.207031 250.539062 304.378906 251.5 303.402344 C 251.773438 303.125 251.796875 302.617188 251.5 302.34375 C 251.199219 302.070312 250.734375 302.046875 250.4375 302.34375 C 250.214844 302.570312 249.984375 302.789062 249.746094 302.996094 C 249.621094 303.105469 249.496094 303.210938 249.371094 303.3125 C 249.339844 303.335938 249.3125 303.355469 249.285156 303.378906 C 249.167969 303.472656 249.253906 303.375 249.285156 303.378906 C 249.261719 303.375 249.109375 303.511719 249.089844 303.527344 C 248.570312 303.910156 248.019531 304.246094 247.445312 304.542969 C 247.097656 304.726562 246.964844 305.242188 247.175781 305.570312 C 247.40625 305.925781 247.832031 306.03125 248.203125 305.839844 Z M 248.203125 305.839844 " fill-opacity="1" fill-rule="nonzero"/><path fill="#35668f" d="M 256.488281 299.738281 C 257.183594 299.292969 257.875 298.847656 258.570312 298.398438 C 258.734375 298.292969 258.863281 298.140625 258.914062 297.949219 C 258.964844 297.773438 258.941406 297.53125 258.839844 297.371094 C 258.628906 297.042969 258.167969 296.878906 257.816406 297.105469 C 257.121094 297.550781 256.425781 297.996094 255.734375 298.445312 C 255.570312 298.546875 255.441406 298.703125 255.386719 298.890625 C 255.339844 299.070312 255.359375 299.308594 255.464844 299.46875 C 255.675781 299.796875 256.136719 299.964844 256.488281 299.738281 Z M 256.488281 299.738281 " fill-opacity="1" fill-rule="nonzero"/><path fill="#35668f" d="M 141.0625 75.242188 C 141.976562 75.242188 142.894531 75.242188 143.808594 75.242188 C 144.199219 75.242188 144.578125 74.894531 144.558594 74.492188 C 144.539062 74.085938 144.230469 73.742188 143.808594 73.742188 C 142.894531 73.742188 141.976562 73.742188 141.0625 73.742188 C 140.667969 73.742188 140.292969 74.085938 140.3125 74.492188 C 140.332031 74.898438 140.640625 75.242188 141.0625 75.242188 Z M 141.0625 75.242188 " fill-opacity="1" fill-rule="nonzero"/><path fill="#35668f" d="M 150.128906 76.265625 C 150.816406 76.390625 151.5 76.511719 152.1875 76.632812 C 152.386719 76.667969 152.582031 76.664062 152.761719 76.558594 C 152.917969 76.46875 153.066406 76.289062 153.109375 76.109375 C 153.152344 75.917969 153.140625 75.703125 153.03125 75.53125 C 152.933594 75.375 152.773438 75.222656 152.585938 75.1875 C 151.898438 75.066406 151.214844 74.941406 150.527344 74.820312 C 150.324219 74.785156 150.132812 74.789062 149.953125 74.894531 C 149.796875 74.988281 149.648438 75.164062 149.605469 75.34375 C 149.5625 75.535156 149.574219 75.75 149.683594 75.921875 C 149.78125 76.078125 149.941406 76.234375 150.128906 76.265625 Z M 150.128906 76.265625 " fill-opacity="1" fill-rule="nonzero"/><path fill="#35668f" d="M 176.019531 168.59375 C 176.132812 165.84375 176.25 163.089844 176.363281 160.339844 C 176.402344 159.375 174.902344 159.375 174.863281 160.339844 C 174.75 163.089844 174.636719 165.84375 174.523438 168.59375 C 174.480469 169.558594 175.980469 169.558594 176.019531 168.59375 Z M 176.019531 168.59375 " fill-opacity="1" fill-rule="nonzero"/><path fill="#35668f" d="M 177.117188 153.46875 C 177.261719 151.753906 177.40625 150.039062 177.554688 148.328125 C 177.585938 147.921875 177.183594 147.578125 176.804688 147.578125 C 176.371094 147.578125 176.089844 147.921875 176.054688 148.328125 C 175.910156 150.039062 175.765625 151.753906 175.617188 153.46875 C 175.585938 153.875 175.988281 154.21875 176.367188 154.21875 C 176.800781 154.21875 177.082031 153.875 177.117188 153.46875 Z M 177.117188 153.46875 " fill-opacity="1" fill-rule="nonzero"/><path fill="#35668f" d="M 180.203125 161.222656 C 180.328125 160.421875 180.453125 159.621094 180.578125 158.824219 C 180.609375 158.617188 180.613281 158.433594 180.503906 158.246094 C 180.414062 158.089844 180.234375 157.941406 180.054688 157.902344 C 179.863281 157.859375 179.648438 157.867188 179.476562 157.976562 C 179.324219 158.078125 179.164062 158.238281 179.132812 158.425781 C 179.007812 159.226562 178.882812 160.023438 178.757812 160.824219 C 178.726562 161.03125 178.722656 161.214844 178.832031 161.402344 C 178.925781 161.558594 179.101562 161.707031 179.28125 161.746094 C 179.472656 161.789062 179.6875 161.78125 179.859375 161.671875 C 180.011719 161.570312 180.171875 161.410156 180.203125 161.222656 Z M 180.203125 161.222656 " fill-opacity="1" fill-rule="nonzero"/><path fill="#35668f" d="M 187.425781 63.496094 C 187.539062 62.121094 187.652344 60.75 187.765625 59.375 C 187.800781 58.984375 187.398438 58.609375 187.019531 58.625 C 186.582031 58.644531 186.304688 58.957031 186.269531 59.375 C 186.15625 60.75 186.039062 62.121094 185.925781 63.496094 C 185.894531 63.886719 186.292969 64.265625 186.675781 64.246094 C 187.109375 64.226562 187.390625 63.917969 187.425781 63.496094 Z M 187.425781 63.496094 " fill-opacity="1" fill-rule="nonzero"/><path fill="#35668f" d="M 184.394531 257.527344 C 184.394531 255.125 184.394531 252.71875 184.394531 250.316406 C 184.394531 249.351562 182.894531 249.351562 182.894531 250.316406 C 182.894531 252.71875 182.894531 255.125 182.894531 257.527344 C 182.894531 258.492188 184.394531 258.492188 184.394531 257.527344 Z M 184.394531 257.527344 " fill-opacity="1" fill-rule="nonzero"/><path fill="#35668f" d="M 184.703125 241.726562 C 184.898438 239.9375 184.804688 238.132812 184.460938 236.363281 C 184.382812 235.964844 183.90625 235.738281 183.539062 235.839844 C 183.121094 235.953125 182.9375 236.363281 183.015625 236.761719 C 183.332031 238.394531 183.382812 240.070312 183.203125 241.726562 C 183.160156 242.132812 183.582031 242.476562 183.953125 242.476562 C 184.394531 242.476562 184.660156 242.132812 184.703125 241.726562 Z M 184.703125 241.726562 " fill-opacity="1" fill-rule="nonzero"/><path fill="#35668f" d="M 178.554688 231.773438 C 178.554688 231.085938 178.554688 230.398438 178.554688 229.710938 C 178.554688 229.320312 178.210938 228.945312 177.808594 228.964844 C 177.402344 228.980469 177.058594 229.292969 177.058594 229.710938 C 177.058594 230.398438 177.058594 231.085938 177.058594 231.773438 C 177.058594 232.164062 177.402344 232.539062 177.808594 232.523438 C 178.210938 232.503906 178.554688 232.191406 178.554688 231.773438 Z M 178.554688 231.773438 " fill-opacity="1" fill-rule="nonzero"/><path fill="#35668f" d="M 186.453125 319 C 186.453125 318.3125 186.453125 317.625 186.453125 316.9375 C 186.453125 316.546875 186.109375 316.171875 185.703125 316.1875 C 185.296875 316.207031 184.957031 316.519531 184.957031 316.9375 C 184.957031 317.625 184.957031 318.3125 184.957031 319 C 184.957031 319.390625 185.300781 319.765625 185.703125 319.746094 C 186.109375 319.730469 186.453125 319.417969 186.453125 319 Z M 186.453125 319 " fill-opacity="1" fill-rule="nonzero"/><path fill="#35668f" d="M 110.5625 79.640625 C 110.5625 78.15625 110.5625 76.667969 110.5625 75.179688 C 110.5625 74.785156 110.214844 74.410156 109.8125 74.429688 C 109.40625 74.449219 109.0625 74.757812 109.0625 75.179688 C 109.0625 76.667969 109.0625 78.15625 109.0625 79.640625 C 109.0625 80.035156 109.40625 80.410156 109.8125 80.390625 C 110.21875 80.375 110.5625 80.0625 110.5625 79.640625 Z M 110.5625 79.640625 " fill-opacity="1" fill-rule="nonzero"/><path fill="#35668f" d="M 111.246094 68.996094 C 111.246094 68.882812 111.246094 68.769531 111.246094 68.652344 C 111.253906 68.550781 111.230469 68.453125 111.183594 68.363281 C 111.152344 68.269531 111.101562 68.191406 111.027344 68.125 C 110.960938 68.050781 110.878906 68 110.785156 67.96875 C 110.699219 67.921875 110.601562 67.898438 110.496094 67.902344 C 110.429688 67.914062 110.363281 67.921875 110.296875 67.929688 C 110.171875 67.964844 110.0625 68.03125 109.96875 68.121094 C 109.929688 68.171875 109.890625 68.222656 109.851562 68.273438 C 109.785156 68.390625 109.75 68.515625 109.75 68.652344 C 109.75 68.765625 109.75 68.878906 109.75 68.996094 C 109.742188 69.097656 109.765625 69.195312 109.8125 69.285156 C 109.84375 69.378906 109.894531 69.457031 109.96875 69.523438 C 110.035156 69.597656 110.117188 69.648438 110.210938 69.679688 C 110.296875 69.726562 110.394531 69.75 110.5 69.746094 C 110.566406 69.734375 110.632812 69.726562 110.699219 69.71875 C 110.824219 69.683594 110.933594 69.617188 111.027344 69.527344 C 111.066406 69.476562 111.105469 69.425781 111.144531 69.375 C 111.214844 69.257812 111.246094 69.132812 111.246094 68.996094 Z M 111.246094 68.996094 " fill-opacity="1" fill-rule="nonzero"/></svg>