<svg xmlns="http://www.w3.org/2000/svg" xmlns:xlink="http://www.w3.org/1999/xlink" width="500" zoomAndPan="magnify" viewBox="0 0 375 374.999991" height="500" preserveAspectRatio="xMidYMid meet" version="1.0"><defs><clipPath id="437d48d0b8"><path d="M 62.683594 160 L 141 160 L 141 319 L 62.683594 319 Z M 62.683594 160 " clip-rule="nonzero"/></clipPath><clipPath id="d0a43ebffc"><path d="M 234 197 L 312.433594 197 L 312.433594 319 L 234 319 Z M 234 197 " clip-rule="nonzero"/></clipPath></defs><path fill="#1e2e49" d="M 225.125 123.601562 L 207.417969 82.101562 C 206.695312 80.433594 205.074219 79.351562 203.269531 79.351562 L 192.003906 79.351562 L 192.003906 61.328125 C 192.003906 58.847656 189.976562 56.820312 187.5 56.820312 C 185.019531 56.820312 182.992188 58.847656 182.992188 61.328125 L 182.992188 79.351562 L 171.730469 79.351562 C 169.925781 79.351562 168.304688 80.433594 167.582031 82.101562 L 149.875 123.601562 C 149.289062 124.996094 149.425781 126.574219 150.28125 127.835938 C 151.136719 129.097656 152.53125 129.863281 154.019531 129.863281 L 220.980469 129.863281 C 222.511719 129.863281 223.90625 129.097656 224.71875 127.835938 C 225.53125 126.574219 225.710938 124.996094 225.125 123.601562 Z M 225.125 123.601562 " fill-opacity="1" fill-rule="nonzero"/><g clip-path="url(#437d48d0b8)"><path fill="#1e2e49" d="M 135.996094 160.460938 L 67.28125 160.460938 C 64.800781 160.460938 62.773438 162.488281 62.773438 164.964844 L 62.773438 313.664062 C 62.773438 316.140625 64.800781 318.171875 67.28125 318.171875 L 135.996094 318.171875 C 138.472656 318.171875 140.503906 316.140625 140.503906 313.664062 L 140.503906 164.964844 C 140.503906 162.488281 138.472656 160.460938 135.996094 160.460938 Z M 135.996094 160.460938 " fill-opacity="1" fill-rule="nonzero"/></g><g clip-path="url(#d0a43ebffc)"><path fill="#1e2e49" d="M 307.71875 197.140625 L 239.003906 197.140625 C 236.523438 197.140625 234.496094 199.167969 234.496094 201.644531 L 234.496094 313.664062 C 234.496094 316.140625 236.523438 318.171875 239.003906 318.171875 L 307.71875 318.171875 C 310.199219 318.171875 312.226562 316.140625 312.226562 313.664062 L 312.226562 201.644531 C 312.226562 199.167969 310.199219 197.140625 307.71875 197.140625 Z M 307.71875 197.140625 " fill-opacity="1" fill-rule="nonzero"/></g><path fill="#35668f" d="M 239.003906 120.851562 L 135.996094 120.851562 C 133.519531 120.851562 131.488281 122.878906 131.488281 125.359375 L 131.488281 313.664062 C 131.488281 316.140625 133.519531 318.171875 135.996094 318.171875 L 239.003906 318.171875 C 241.480469 318.171875 243.507812 316.140625 243.507812 313.664062 L 243.507812 125.359375 C 243.507812 122.878906 241.480469 120.851562 239.003906 120.851562 Z M 239.003906 120.851562 " fill-opacity="1" fill-rule="nonzero"/><path fill="#ffcd77" d="M 216.472656 160.460938 L 158.527344 160.460938 C 156.046875 160.460938 154.019531 162.488281 154.019531 164.964844 C 154.019531 167.445312 156.046875 169.472656 158.527344 169.472656 L 216.472656 169.472656 C 218.953125 169.472656 220.980469 167.445312 220.980469 164.964844 C 220.980469 162.488281 218.953125 160.460938 216.472656 160.460938 Z M 216.472656 160.460938 " fill-opacity="1" fill-rule="nonzero"/><path fill="#ffcd77" d="M 216.472656 191.191406 L 158.527344 191.191406 C 156.046875 191.191406 154.019531 193.21875 154.019531 195.695312 C 154.019531 198.175781 156.046875 200.203125 158.527344 200.203125 L 216.472656 200.203125 C 218.953125 200.203125 220.980469 198.175781 220.980469 195.695312 C 220.980469 193.21875 218.953125 191.191406 216.472656 191.191406 Z M 216.472656 191.191406 " fill-opacity="1" fill-rule="nonzero"/><path fill="#ffcd77" d="M 216.472656 221.921875 L 158.527344 221.921875 C 156.046875 221.921875 154.019531 223.949219 154.019531 226.429688 C 154.019531 228.90625 156.046875 230.933594 158.527344 230.933594 L 216.472656 230.933594 C 218.953125 230.933594 220.980469 228.90625 220.980469 226.429688 C 220.980469 223.949219 218.953125 221.921875 216.472656 221.921875 Z M 216.472656 221.921875 " fill-opacity="1" fill-rule="nonzero"/><path fill="#ffcd77" d="M 216.472656 252.652344 L 158.527344 252.652344 C 156.046875 252.652344 154.019531 254.679688 154.019531 257.160156 C 154.019531 259.636719 156.046875 261.664062 158.527344 261.664062 L 216.472656 261.664062 C 218.953125 261.664062 220.980469 259.636719 220.980469 257.160156 C 220.980469 254.679688 218.953125 252.652344 216.472656 252.652344 Z M 216.472656 252.652344 " fill-opacity="1" fill-rule="nonzero"/><path fill="#ffcd77" d="M 216.472656 283.429688 L 158.527344 283.429688 C 156.046875 283.429688 154.019531 285.457031 154.019531 287.933594 C 154.019531 290.414062 156.046875 292.441406 158.527344 292.441406 L 216.472656 292.441406 C 218.953125 292.441406 220.980469 290.414062 220.980469 287.933594 C 220.980469 285.457031 218.953125 283.429688 216.472656 283.429688 Z M 216.472656 283.429688 " fill-opacity="1" fill-rule="nonzero"/><path fill="#ffcd77" d="M 113.285156 181.683594 L 89.449219 181.683594 C 86.96875 181.683594 84.941406 183.710938 84.941406 186.1875 L 84.941406 210.027344 C 84.941406 212.503906 86.96875 214.53125 89.449219 214.53125 L 113.285156 214.53125 C 115.765625 214.53125 117.792969 212.503906 117.792969 210.027344 L 117.792969 186.1875 C 117.792969 183.710938 115.765625 181.683594 113.285156 181.683594 Z M 113.285156 181.683594 " fill-opacity="1" fill-rule="nonzero"/><path fill="#ffcd77" d="M 113.285156 221.921875 L 89.449219 221.921875 C 86.96875 221.921875 84.941406 223.949219 84.941406 226.429688 L 84.941406 250.265625 C 84.941406 252.742188 86.96875 254.769531 89.449219 254.769531 L 113.285156 254.769531 C 115.765625 254.769531 117.792969 252.742188 117.792969 250.265625 L 117.792969 226.429688 C 117.792969 223.949219 115.765625 221.921875 113.285156 221.921875 Z M 113.285156 221.921875 " fill-opacity="1" fill-rule="nonzero"/><path fill="#ffcd77" d="M 113.285156 262.160156 L 89.449219 262.160156 C 86.96875 262.160156 84.941406 264.1875 84.941406 266.667969 L 84.941406 290.503906 C 84.941406 292.980469 86.96875 295.007812 89.449219 295.007812 L 113.285156 295.007812 C 115.765625 295.007812 117.792969 292.980469 117.792969 290.503906 L 117.792969 266.667969 C 117.792969 264.1875 115.765625 262.160156 113.285156 262.160156 Z M 113.285156 262.160156 " fill-opacity="1" fill-rule="nonzero"/><path fill="#ffcd77" d="M 284.515625 221.921875 L 260.675781 221.921875 C 258.199219 221.921875 256.171875 223.949219 256.171875 226.429688 L 256.171875 250.265625 C 256.171875 252.742188 258.199219 254.769531 260.675781 254.769531 L 284.515625 254.769531 C 286.992188 254.769531 289.019531 252.742188 289.019531 250.265625 L 289.019531 226.429688 C 289.019531 223.949219 286.992188 221.921875 284.515625 221.921875 Z M 284.515625 221.921875 " fill-opacity="1" fill-rule="nonzero"/><path fill="#ffcd77" d="M 284.515625 262.160156 L 260.675781 262.160156 C 258.199219 262.160156 256.171875 264.1875 256.171875 266.667969 L 256.171875 290.503906 C 256.171875 292.980469 258.199219 295.007812 260.675781 295.007812 L 284.515625 295.007812 C 286.992188 295.007812 289.019531 292.980469 289.019531 290.503906 L 289.019531 266.667969 C 289.019531 264.1875 286.992188 262.160156 284.515625 262.160156 Z M 284.515625 262.160156 " fill-opacity="1" fill-rule="nonzero"/></svg>