<svg xmlns="http://www.w3.org/2000/svg" xmlns:xlink="http://www.w3.org/1999/xlink" width="500" zoomAndPan="magnify" viewBox="0 0 375 374.999991" height="500" preserveAspectRatio="xMidYMid meet" version="1.0"><defs><clipPath id="7ce5d85c36"><path d="M 37.5 68 L 337.5 68 L 337.5 336.816406 L 37.5 336.816406 Z M 37.5 68 " clip-rule="nonzero"/></clipPath></defs><path fill="#1e2e49" d="M 234.609375 245.910156 L 187.691406 243.941406 C 187.691406 243.941406 127.054688 265.78125 105.78125 232.734375 C 79.078125 191.242188 110.050781 171.097656 124.5 157.628906 C 136.78125 146.183594 134.800781 113.503906 134.925781 111.207031 C 134.90625 79.445312 140.351562 60.453125 158.011719 50.035156 C 177.417969 38.589844 194.609375 42.058594 194.609375 42.058594 C 194.609375 42.058594 215.347656 40.023438 228.140625 60.050781 C 236.863281 73.710938 239.960938 92.007812 240.863281 111.171875 C 244.207031 182.03125 274.726562 162.875 279.019531 201.984375 C 282.691406 235.410156 234.609375 245.910156 234.609375 245.910156 Z M 60.511719 267.609375 L 64.621094 268.089844 C 65.15625 268.128906 65.582031 268.574219 65.609375 269.121094 L 66.28125 283.589844 L 66.164062 286.394531 L 66.355469 286.6875 C 66.355469 286.6875 59.230469 305.414062 55.1875 317.5 L 85.660156 317.648438 C 81.664062 306.871094 73.589844 286.980469 73.433594 286.636719 L 73.605469 268.855469 C 73.609375 268.304688 74.019531 267.84375 74.558594 267.78125 L 78.980469 267.234375 C 79.402344 267.1875 79.757812 266.890625 79.882812 266.480469 L 81.035156 264.53125 C 81.253906 263.824219 80.734375 263.105469 80.007812 263.113281 L 60.320312 263.1875 C 59.695312 263.191406 59.210938 263.734375 59.261719 264.367188 L 59.527344 266.613281 C 59.570312 267.148438 59.988281 267.570312 60.511719 267.609375 Z M 60.511719 267.609375 " fill-opacity="1" fill-rule="nonzero"/><path fill="#35668f" d="M 269.355469 318.980469 C 234.539062 315.640625 140.730469 315.640625 105.917969 318.980469 C 72.058594 308.488281 88.988281 266.757812 96.308594 237.085938 C 96.308594 237.085938 101.589844 196.667969 114.027344 182.71875 C 126.46875 168.769531 154.058594 165.699219 154.058594 165.699219 C 156.257812 170.988281 160.25 175.070312 164.730469 178.1875 C 170.878906 182.460938 177.917969 184.820312 185.050781 185.28125 C 185.347656 185.296875 185.648438 185.320312 185.945312 185.332031 C 186.222656 185.34375 186.496094 185.347656 186.773438 185.351562 C 187.0625 185.359375 187.347656 185.367188 187.636719 185.367188 C 187.925781 185.367188 188.210938 185.359375 188.5 185.351562 C 188.777344 185.347656 189.050781 185.34375 189.324219 185.332031 C 189.625 185.320312 189.925781 185.296875 190.222656 185.28125 C 197.355469 184.820312 204.394531 182.460938 210.542969 178.1875 C 215.023438 175.070312 219.015625 170.988281 221.214844 165.699219 C 221.214844 165.699219 248.804688 168.769531 261.246094 182.71875 C 273.683594 196.667969 278.964844 237.085938 278.964844 237.085938 C 286.285156 266.757812 303.214844 308.488281 269.355469 318.980469 Z M 269.355469 318.980469 C 234.539062 315.640625 140.730469 315.640625 105.917969 318.980469 C 72.058594 308.488281 88.988281 266.757812 96.308594 237.085938 C 96.308594 237.085938 101.589844 196.667969 114.027344 182.71875 C 126.46875 168.769531 154.058594 165.699219 154.058594 165.699219 C 156.257812 170.988281 160.25 175.070312 164.730469 178.1875 C 170.878906 182.460938 177.917969 184.820312 185.050781 185.28125 C 185.347656 185.296875 185.648438 185.320312 185.945312 185.332031 C 186.222656 185.34375 186.496094 185.347656 186.773438 185.351562 C 187.0625 185.359375 187.347656 185.367188 187.636719 185.367188 C 187.925781 185.367188 188.210938 185.359375 188.5 185.351562 C 188.777344 185.347656 189.050781 185.34375 189.324219 185.332031 C 189.625 185.320312 189.925781 185.296875 190.222656 185.28125 C 197.355469 184.820312 204.394531 182.460938 210.542969 178.1875 C 215.023438 175.070312 219.015625 170.988281 221.214844 165.699219 C 221.214844 165.699219 248.804688 168.769531 261.246094 182.71875 C 273.683594 196.667969 278.964844 237.085938 278.964844 237.085938 C 286.285156 266.757812 303.214844 308.488281 269.355469 318.980469 Z M 269.355469 318.980469 " fill-opacity="1" fill-rule="nonzero"/><path fill="#ffcd77" d="M 91.894531 199.511719 L 282.570312 199.511719 C 284.027344 199.511719 285.148438 200.675781 284.9375 201.972656 L 266.875 318.980469 L 107.585938 318.980469 L 89.527344 201.972656 C 89.316406 200.675781 90.433594 199.511719 91.894531 199.511719 Z M 91.894531 199.511719 L 282.570312 199.511719 C 284.027344 199.511719 285.148438 200.675781 284.9375 201.972656 L 266.875 318.980469 L 107.585938 318.980469 L 89.527344 201.972656 C 89.316406 200.675781 90.433594 199.511719 91.894531 199.511719 Z M 91.894531 199.511719 " fill-opacity="1" fill-rule="nonzero"/><g clip-path="url(#7ce5d85c36)"><path fill="#efc7b0" d="M 155.566406 115.820312 C 157.683594 123.453125 162.164062 131.878906 171.535156 136.46875 L 171.535156 153.464844 C 171.535156 157.402344 168.957031 160.878906 165.191406 162.023438 L 154.058594 165.699219 C 156.257812 170.988281 160.25 175.070312 164.730469 178.1875 C 178.511719 187.769531 196.761719 187.769531 210.542969 178.1875 C 215.023438 175.070312 219.011719 170.988281 221.214844 165.699219 L 207.753906 161.175781 C 205.644531 160.53125 204.203125 158.585938 204.203125 156.382812 L 204.203125 136.003906 C 211.273438 131.847656 215.820312 124.617188 218.734375 115.46875 C 225.53125 117.804688 230.46875 106.347656 227.777344 101.398438 C 225.050781 96.390625 220.835938 99.964844 220.835938 99.964844 C 212.253906 100.957031 201.578125 81.695312 199.164062 69.125 C 199.089844 68.742188 198.582031 68.695312 198.445312 69.058594 C 191.328125 88.046875 165.992188 107.632812 155.292969 100.054688 C 155.292969 100.054688 150.839844 96.390625 148.113281 101.398438 C 145.597656 106.019531 146.976562 116.238281 155.566406 115.820312 Z M 37.773438 318.550781 L 37.5 332.28125 C 37.476562 333.441406 38.40625 334.394531 39.566406 334.402344 L 335.375 336.519531 C 336.5625 336.527344 337.515625 335.542969 337.46875 334.359375 L 336.914062 319.925781 C 336.871094 318.8125 335.960938 317.929688 334.847656 317.925781 L 39.863281 316.515625 C 38.726562 316.507812 37.796875 317.414062 37.773438 318.550781 Z M 37.773438 318.550781 " fill-opacity="1" fill-rule="nonzero"/></g><path fill="#1e2e49" d="M 183.644531 256.167969 C 183.644531 258.441406 185.253906 260.289062 187.230469 260.289062 C 189.210938 260.289062 190.820312 258.441406 190.820312 256.167969 C 190.820312 253.894531 189.210938 252.046875 187.230469 252.046875 C 185.253906 252.046875 183.644531 253.894531 183.644531 256.167969 Z M 189.449219 256.167969 C 189.449219 257.683594 188.453125 258.917969 187.230469 258.917969 C 186.011719 258.917969 185.015625 257.683594 185.015625 256.167969 C 185.015625 254.652344 186.011719 253.417969 187.230469 253.417969 C 188.453125 253.417969 189.449219 254.652344 189.449219 256.167969 Z M 333.660156 323.898438 C 324.753906 323.769531 315.84375 323.671875 306.9375 323.585938 C 295.992188 323.476562 285.046875 323.386719 274.101562 323.308594 C 262.582031 323.230469 251.066406 323.164062 239.546875 323.117188 C 228.84375 323.074219 218.140625 323.046875 207.4375 323.050781 C 198.945312 323.050781 190.449219 323.070312 181.957031 323.15625 C 181.136719 323.164062 180.316406 323.171875 179.496094 323.179688 C 178.617188 323.191406 178.613281 324.5625 179.496094 324.550781 C 187.617188 324.453125 195.734375 324.433594 203.851562 324.421875 C 214.394531 324.410156 224.933594 324.433594 235.472656 324.472656 C 246.96875 324.511719 258.464844 324.574219 269.957031 324.652344 C 281.019531 324.726562 292.082031 324.816406 303.140625 324.917969 C 312.378906 325.007812 321.613281 325.105469 330.847656 325.230469 C 331.785156 325.242188 332.722656 325.253906 333.660156 325.269531 C 334.542969 325.28125 334.542969 323.910156 333.660156 323.898438 Z M 216.695312 329.261719 C 206.691406 329.347656 196.683594 329.367188 186.679688 329.375 C 174.003906 329.382812 161.332031 329.359375 148.65625 329.316406 C 135.21875 329.273438 121.78125 329.210938 108.34375 329.125 C 96.082031 329.046875 83.820312 328.957031 71.5625 328.832031 C 62.324219 328.742188 53.085938 328.640625 43.847656 328.476562 C 43.003906 328.460938 42.160156 328.445312 41.3125 328.425781 C 40.429688 328.410156 40.429688 329.78125 41.3125 329.796875 C 50.070312 329.972656 58.832031 330.070312 67.589844 330.164062 C 79.625 330.289062 91.65625 330.386719 103.691406 330.464844 C 117.089844 330.554688 130.492188 330.625 143.894531 330.671875 C 156.722656 330.71875 169.550781 330.75 182.378906 330.746094 C 192.785156 330.746094 203.191406 330.730469 213.597656 330.65625 C 214.628906 330.648438 215.664062 330.640625 216.695312 330.632812 C 217.578125 330.625 217.582031 329.253906 216.695312 329.261719 Z M 95.800781 322.765625 C 101.082031 322.882812 106.367188 322.890625 111.652344 322.925781 C 118.375 322.96875 125.097656 323.007812 131.820312 323.066406 C 134.304688 323.089844 136.789062 323.109375 139.269531 323.164062 C 140.152344 323.183594 140.152344 321.8125 139.269531 321.792969 C 133.988281 321.675781 128.703125 321.667969 123.417969 321.632812 C 116.695312 321.585938 109.972656 321.550781 103.25 321.488281 C 100.765625 321.46875 98.28125 321.449219 95.800781 321.394531 C 94.917969 321.375 94.917969 322.746094 95.800781 322.765625 Z M 322.042969 330.363281 C 315.386719 330.363281 308.726562 330.242188 302.070312 330.183594 C 300.796875 330.171875 299.523438 330.15625 298.246094 330.15625 C 297.367188 330.15625 297.363281 331.527344 298.246094 331.527344 C 304.90625 331.527344 311.566406 331.652344 318.222656 331.710938 C 319.496094 331.71875 320.769531 331.734375 322.042969 331.734375 C 322.925781 331.734375 322.925781 330.363281 322.042969 330.363281 Z M 150.636719 98.289062 C 150.492188 93.960938 151.144531 89.632812 152.140625 85.429688 C 153.242188 80.769531 154.796875 76.199219 156.753906 71.828125 C 157.832031 69.429688 159.03125 67.089844 160.378906 64.832031 C 160.835938 64.074219 159.648438 63.382812 159.195312 64.140625 C 156.730469 68.265625 154.742188 72.675781 153.140625 77.203125 C 151.546875 81.707031 150.328125 86.363281 149.6875 91.097656 C 149.363281 93.480469 149.1875 95.882812 149.265625 98.289062 C 149.296875 99.167969 150.667969 99.171875 150.636719 98.289062 Z M 147.324219 95.796875 C 146.195312 93.578125 145.34375 91.214844 144.804688 88.785156 C 144.261719 86.34375 144.035156 83.769531 144.53125 81.300781 C 144.707031 80.441406 143.386719 80.070312 143.210938 80.9375 C 142.160156 86.171875 143.765625 91.832031 146.140625 96.488281 C 146.542969 97.273438 147.726562 96.582031 147.324219 95.796875 Z M 225.65625 96.308594 C 226.769531 93.988281 227.804688 91.597656 228.289062 89.054688 C 228.773438 86.503906 228.773438 83.886719 228.792969 81.296875 C 228.796875 80.417969 227.425781 80.414062 227.421875 81.296875 C 227.402344 83.757812 227.425781 86.261719 226.964844 88.691406 C 226.503906 91.121094 225.539062 93.398438 224.472656 95.617188 C 224.09375 96.410156 225.277344 97.105469 225.65625 96.308594 Z M 152.808594 109.179688 C 152.808594 109.179688 152.808594 109.179688 152.808594 109.175781 C 152.8125 109.15625 152.839844 109.074219 152.851562 109.042969 C 152.863281 109.015625 152.898438 108.953125 152.90625 108.945312 C 152.941406 108.886719 152.976562 108.851562 153.035156 108.824219 C 153.058594 108.808594 153.070312 108.800781 153.074219 108.796875 C 153.082031 108.796875 153.089844 108.800781 153.117188 108.796875 C 153.152344 108.796875 153.210938 108.792969 153.25 108.796875 C 153.347656 108.804688 153.457031 108.839844 153.554688 108.886719 C 153.851562 109.03125 154.078125 109.285156 154.246094 109.558594 C 154.453125 109.867188 154.851562 110.003906 155.183594 109.804688 C 155.5 109.621094 155.625 109.183594 155.429688 108.867188 C 154.101562 106.902344 152.671875 105.003906 151.160156 103.179688 C 150.921875 102.894531 150.433594 102.933594 150.1875 103.179688 C 149.90625 103.460938 149.953125 103.863281 150.1875 104.148438 C 151.082031 105.226562 151.933594 106.339844 152.757812 107.472656 C 152.578125 107.519531 152.402344 107.589844 152.234375 107.710938 C 151.328125 108.351562 151.089844 109.839844 152.132812 110.472656 C 152.890625 110.929688 153.582031 109.746094 152.828125 109.289062 C 152.820312 109.285156 152.820312 109.285156 152.8125 109.28125 C 152.8125 109.277344 152.8125 109.28125 152.8125 109.277344 C 152.804688 109.257812 152.804688 109.257812 152.800781 109.253906 C 152.804688 109.246094 152.804688 109.242188 152.808594 109.214844 C 152.808594 109.195312 152.808594 109.1875 152.808594 109.179688 Z M 219.957031 109.804688 C 220.292969 110.003906 220.683594 109.867188 220.894531 109.558594 C 221.058594 109.292969 221.265625 109.0625 221.542969 108.910156 C 221.636719 108.859375 221.75 108.8125 221.84375 108.796875 C 221.898438 108.789062 221.96875 108.792969 222.023438 108.796875 C 222.050781 108.800781 222.058594 108.800781 222.066406 108.800781 C 222.074219 108.804688 222.078125 108.808594 222.105469 108.824219 C 222.15625 108.847656 222.207031 108.902344 222.214844 108.914062 C 222.242188 108.953125 222.261719 108.992188 222.28125 109.03125 C 222.285156 109.046875 222.316406 109.125 222.324219 109.144531 C 222.328125 109.167969 222.332031 109.167969 222.335938 109.175781 C 222.332031 109.1875 222.332031 109.1875 222.332031 109.214844 C 222.332031 109.242188 222.335938 109.246094 222.339844 109.253906 C 222.335938 109.261719 222.332031 109.257812 222.328125 109.277344 C 222.328125 109.277344 222.328125 109.28125 222.328125 109.28125 C 222.320312 109.285156 222.320312 109.285156 222.3125 109.289062 C 221.558594 109.742188 222.246094 110.929688 223.003906 110.472656 C 224.050781 109.84375 223.8125 108.351562 222.90625 107.710938 C 222.738281 107.589844 222.558594 107.519531 222.378906 107.472656 C 223.207031 106.339844 224.054688 105.226562 224.953125 104.148438 C 225.1875 103.863281 225.230469 103.457031 224.953125 103.179688 C 224.707031 102.933594 224.21875 102.890625 223.980469 103.179688 C 222.46875 105.003906 221.039062 106.902344 219.710938 108.867188 C 219.515625 109.183594 219.640625 109.621094 219.957031 109.804688 Z M 222.324219 109.289062 C 222.316406 109.296875 222.3125 109.300781 222.296875 109.328125 C 222.296875 109.320312 222.308594 109.304688 222.324219 109.289062 Z M 177.203125 140.363281 C 179.582031 141.15625 182.039062 141.714844 184.527344 142.03125 C 189.375 142.648438 194.195312 141.773438 198.761719 140.105469 C 200.957031 139.304688 203.1875 138.34375 205.082031 136.949219 C 205.785156 136.433594 205.101562 135.242188 204.386719 135.765625 C 202.800781 136.9375 200.96875 137.792969 199.132812 138.503906 C 196.941406 139.359375 194.664062 140.023438 192.351562 140.453125 C 187.722656 141.3125 183.054688 140.714844 178.578125 139.363281 C 176.363281 138.695312 174.132812 137.855469 172.203125 136.554688 C 171.46875 136.0625 170.785156 137.25 171.511719 137.738281 C 173.242188 138.90625 175.230469 139.707031 177.203125 140.363281 Z M 189.164062 112.464844 C 189.453125 105.914062 189.519531 99.371094 189.328125 92.820312 C 189.300781 91.9375 187.929688 91.9375 187.957031 92.820312 C 188.148438 99.371094 188.082031 105.914062 187.792969 112.464844 C 187.75 113.34375 189.121094 113.34375 189.164062 112.464844 Z M 200.113281 91.113281 C 202.378906 90.78125 204.5625 92.199219 205.757812 94.066406 C 206.234375 94.804688 207.421875 94.117188 206.945312 93.371094 C 205.382812 90.941406 202.675781 89.359375 199.746094 89.789062 C 199.382812 89.84375 199.179688 90.308594 199.269531 90.632812 C 199.375 91.027344 199.746094 91.167969 200.113281 91.113281 Z M 192.429688 51.011719 C 192.515625 51.042969 192.605469 51.074219 192.695312 51.105469 C 192.730469 51.121094 192.765625 51.132812 192.796875 51.148438 C 192.800781 51.148438 192.859375 51.171875 192.882812 51.183594 C 192.910156 51.195312 192.945312 51.210938 192.945312 51.210938 C 192.980469 51.226562 193.015625 51.242188 193.046875 51.257812 C 193.132812 51.296875 193.21875 51.339844 193.300781 51.382812 C 193.617188 51.546875 193.921875 51.734375 194.214844 51.945312 C 194.242188 51.964844 194.273438 51.988281 194.304688 52.011719 C 194.316406 52.019531 194.316406 52.019531 194.324219 52.023438 C 194.390625 52.078125 194.453125 52.128906 194.519531 52.183594 C 194.65625 52.300781 194.789062 52.417969 194.914062 52.542969 C 195.042969 52.667969 195.167969 52.796875 195.285156 52.933594 C 195.347656 53.003906 195.410156 53.074219 195.46875 53.148438 C 195.492188 53.175781 195.515625 53.207031 195.539062 53.234375 C 195.4375 53.113281 195.554688 53.257812 195.566406 53.273438 C 195.78125 53.5625 196.171875 53.738281 196.507812 53.519531 C 196.789062 53.339844 196.980469 52.890625 196.753906 52.582031 C 195.746094 51.234375 194.386719 50.230469 192.792969 49.691406 C 192.453125 49.574219 192.027344 49.824219 191.949219 50.167969 C 191.863281 50.550781 192.0625 50.890625 192.429688 51.011719 Z M 201.664062 55.566406 C 201.722656 55.515625 201.78125 55.464844 201.84375 55.417969 C 201.863281 55.40625 201.976562 55.320312 201.992188 55.3125 C 202.136719 55.210938 202.285156 55.117188 202.433594 55.03125 C 202.570312 54.957031 202.703125 54.886719 202.84375 54.820312 C 202.863281 54.808594 203.097656 54.707031 202.980469 54.757812 C 203.0625 54.722656 203.144531 54.691406 203.226562 54.660156 C 203.929688 54.410156 204.40625 54.332031 205.105469 54.332031 C 205.464844 54.335938 205.808594 54.015625 205.789062 53.648438 C 205.773438 53.273438 205.488281 52.964844 205.105469 52.960938 C 203.484375 52.957031 201.925781 53.550781 200.691406 54.597656 C 200.417969 54.828125 200.433594 55.328125 200.691406 55.566406 C 200.984375 55.835938 201.371094 55.816406 201.664062 55.566406 Z M 194.730469 57.25 C 194.253906 57.25 193.777344 57.25 193.300781 57.25 C 193.125 57.25 192.941406 57.324219 192.816406 57.449219 C 192.699219 57.570312 192.609375 57.765625 192.617188 57.933594 C 192.632812 58.304688 192.917969 58.621094 193.300781 58.621094 C 193.777344 58.621094 194.253906 58.621094 194.730469 58.621094 C 194.90625 58.621094 195.09375 58.542969 195.21875 58.417969 C 195.335938 58.300781 195.425781 58.105469 195.417969 57.933594 C 195.402344 57.5625 195.117188 57.25 194.730469 57.25 Z M 176.273438 109.453125 C 177.605469 109.453125 178.6875 107.789062 178.6875 105.742188 C 178.6875 103.691406 177.605469 102.03125 176.273438 102.03125 C 174.9375 102.03125 173.859375 103.691406 173.859375 105.742188 C 173.859375 107.789062 174.9375 109.453125 176.273438 109.453125 Z M 200.414062 109.453125 C 201.75 109.453125 202.828125 107.789062 202.828125 105.742188 C 202.828125 103.691406 201.75 102.03125 200.414062 102.03125 C 199.082031 102.03125 198 103.691406 198 105.742188 C 198 107.789062 199.082031 109.453125 200.414062 109.453125 Z M 178.734375 120.160156 C 180.433594 122.628906 183.121094 124.003906 186.050781 124.40625 C 189.285156 124.851562 192.742188 124.382812 195.371094 122.328125 C 196.164062 121.703125 196.859375 120.953125 197.402344 120.09375 C 197.875 119.347656 196.6875 118.660156 196.21875 119.402344 C 195.257812 120.921875 193.636719 122.085938 191.878906 122.660156 C 189.054688 123.582031 185.523438 123.410156 182.863281 122.03125 C 181.6875 121.421875 180.667969 120.5625 179.917969 119.46875 C 179.421875 118.746094 178.234375 119.433594 178.734375 120.160156 Z M 63.570312 297.667969 C 63.578125 297.667969 63.585938 297.667969 63.59375 297.667969 L 69.136719 297.488281 C 69.515625 297.476562 69.8125 297.160156 69.800781 296.78125 C 69.789062 296.402344 69.5 296.121094 69.09375 296.117188 L 63.550781 296.296875 C 63.171875 296.308594 62.875 296.625 62.886719 297.003906 C 62.898438 297.375 63.203125 297.667969 63.570312 297.667969 Z M 61.394531 302.671875 L 65.511719 302.851562 C 65.519531 302.851562 65.53125 302.851562 65.539062 302.851562 C 65.902344 302.851562 66.207031 302.566406 66.222656 302.195312 C 66.242188 301.820312 65.945312 301.5 65.570312 301.484375 L 61.457031 301.304688 C 61.117188 301.269531 60.757812 301.578125 60.742188 301.960938 C 60.722656 302.335938 61.019531 302.65625 61.394531 302.671875 Z M 59.816406 307.324219 L 67.863281 307.324219 C 68.242188 307.324219 68.550781 307.015625 68.550781 306.636719 C 68.550781 306.261719 68.242188 305.953125 67.863281 305.953125 L 59.816406 305.953125 C 59.4375 305.953125 59.132812 306.261719 59.132812 306.636719 C 59.132812 307.015625 59.4375 307.324219 59.816406 307.324219 Z M 59.816406 307.324219 " fill-opacity="1" fill-rule="nonzero"/></svg>